<?xml version="1.0" encoding="utf-8"?>
<!-- Generator: Adobe Illustrator 23.0.1, SVG Export Plug-In . SVG Version: 6.00 Build 0)  -->
<!DOCTYPE svg PUBLIC "-//W3C//DTD SVG 1.1//EN" "http://www.w3.org/Graphics/SVG/1.1/DTD/svg11.dtd" [
	<!ENTITY ns_extend "http://ns.adobe.com/Extensibility/1.0/">
	<!ENTITY ns_ai "http://ns.adobe.com/AdobeIllustrator/10.0/">
	<!ENTITY ns_graphs "http://ns.adobe.com/Graphs/1.0/">
	<!ENTITY ns_vars "http://ns.adobe.com/Variables/1.0/">
	<!ENTITY ns_imrep "http://ns.adobe.com/ImageReplacement/1.0/">
	<!ENTITY ns_sfw "http://ns.adobe.com/SaveForWeb/1.0/">
	<!ENTITY ns_custom "http://ns.adobe.com/GenericCustomNamespace/1.0/">
	<!ENTITY ns_adobe_xpath "http://ns.adobe.com/XPath/1.0/">
]>
<svg version="1.1" xmlns:x="&ns_extend;" xmlns:i="&ns_ai;" xmlns:graph="&ns_graphs;"
	 xmlns="http://www.w3.org/2000/svg" xmlns:xlink="http://www.w3.org/1999/xlink" x="0px" y="0px" viewBox="0 0 750 750"
	 enable-background="new 0 0 750 750" xml:space="preserve">
<metadata>
	<sfw  xmlns="&ns_sfw;">
		<slices></slices>
		<sliceSourceBounds  bottomLeftOrigin="true" height="4217.822" width="5712.99" x="-1000" y="-1545"></sliceSourceBounds>
	</sfw>
</metadata>
<g id="FILL-BACKGROUND">
	<rect y="0" fill="#FFFFFF" width="750" height="750"/>
</g>
<g id="N-TEXT">
</g>
<g id="AG-DIAGRAM">
	<g>
		<g>
			
				<line fill="none" stroke="#FF6B6B" stroke-width="3" stroke-linecap="round" stroke-linejoin="round" x1="87.663" y1="547.49" x2="89.663" y2="547.49"/>
			
				<line fill="none" stroke="#FF6B6B" stroke-width="3" stroke-linecap="round" stroke-linejoin="round" stroke-dasharray="4.0251,7.044" x1="96.706" y1="547.49" x2="635.569" y2="547.49"/>
			
				<line fill="none" stroke="#FF6B6B" stroke-width="3" stroke-linecap="round" stroke-linejoin="round" x1="639.091" y1="547.49" x2="641.091" y2="547.49"/>
		</g>
	</g>
</g>
<g id="AG-PEOPLE">
	<g id="POLYLINE_133_">
		
			<path fill="none" stroke="#FF6B6B" stroke-width="2.75" stroke-linecap="round" stroke-linejoin="round" stroke-miterlimit="10" d="
			M519.094,404.298c-0.728,3.067-2.482,4.938-5.332,5.959c-3.981,1.426-6.815,3.224-10.625,5.142
			c-4.533,2.283-9.555,2.119-14.23,3.782c-2.102,0.748-3.77,2.332-5.915,2.946c-2.573,0.738-5.417-0.077-7.939,0.937
			c-1.988,0.799-3.198,2.747-5.097,3.682c-2.298,1.131-4.892,0.63-7.325,1.158c-2.645,0.574-4.815,1.68-7.572,1.896
			c-6.538,0.512-13.045-0.37-19.475,1.181c-5.396,1.301-12.213,5.506-17.562,1.865c-2.785-1.895-4.521-5.247-5.947-8.194
			c-3.979-8.225-6.37-17.468-8.293-26.366c-1.426-6.602-1.984-13.21-1.615-19.956c0.181-3.313-0.187-11.013,2.242-14.019
			c2.165-2.679,6.151-0.47,9.201-1.507c1.573-0.535,2.825-1.945,4.506-2.17c1.501-0.201,2.851,0.694,4.317,0.769
			c1.726,0.088,2.809-0.647,4.521-1.032c1.779-0.4,3.881,0.326,5.507-0.173c1.794-0.55,2.421-2.321,4.213-2.961
			c1.771-0.633,3.88,0.436,5.667-0.244c1.55-0.59,2.252-2.193,3.555-3.134c2.795-2.017,5.928-0.678,9.007-1.935
			c4.068-1.662,6.615-5.909,10.689-7.999c14.239-7.304,24.599-20.731,39.285-27.23c11.133-4.927,24.165-4.559,35.966-2.874
			c6.21,0.886,11.651,3.552,17.71,4.9c2.737,0.609,6.699-0.317,9.097,1.183c0.798,0.499,0.978,0.952,1.431,1.736
			c1.481,2.564,1.539,6.944,2.069,9.679c0.982,5.067,2.09,10.144,2.648,15.279c0.591,5.437,0.185,8.23-2.655,12.321
			c-1.437,2.07-1.839,4.802-3.356,6.745c-1.096-0.345,0.623-10.769,0.542-12.465c-0.18-3.763-1.335-7.22-3.115-10.521
			c-3.328-6.172-8.724-12.933-15.434-15.569c-7.437-2.921-17.427-0.259-24.353,2.85c-8.984,4.033-14.637,13.086-15.924,22.727
			c-1.102,8.257,3.603,17.918,11.131,21.663"/>
	</g>
	<g id="POLYLINE_132_">
		
			<path fill="none" stroke="#FF6B6B" stroke-width="2.75" stroke-linecap="round" stroke-linejoin="round" stroke-miterlimit="10" d="
			M404.601,363.986c-17.887-1.124-31.489,9.619-42.527,22.348c-1.472,1.697-2.6,3.698-4.339,5.144
			c-2.106,1.751-5.321,2.197-7.22,4.089c-1.312,1.306-1.551,2.716-1.561,4.583c-0.018,3.273,1.285,6.459,2.524,9.426
			c2.932,7.017,5.647,13.571,7.811,20.858c2.168,7.302,7.407,13.402,7.857,21.202c0.078,1.356-0.708,3.981,0.913,4.73
			c2.213,1.023,6.74-3.551,8.611-4.508c6.677-3.416,12.674-3.68,20.027-4.303c8.618-0.731,13.178-5.706,19.678-10.684
			c1.384-1.06,2.857-1.973,4.412-2.762"/>
	</g>
	<g id="POLYLINE_131_">
		
			<path fill="none" stroke="#FF6B6B" stroke-width="2.75" stroke-linecap="round" stroke-linejoin="round" stroke-miterlimit="10" d="
			M522.93,351.27c1.491,9.882-1.481,18.335-3.374,27.985c-1.99,10.144-0.853,19.36-0.113,29.623
			c0.641,8.886,2.926,18.229,1.54,27.13c-0.566,3.635-1.746,7.19-1.975,10.876c-0.228,3.658,0.704,7.27,0.433,10.927
			c-0.67,9.057-2.87,16.899-2.206,26.15c0.983,13.689,4.887,26.814,6.76,40.36c1.428,10.325-0.274,22.569,12.478,23.45
			c13.317,0.919,27.087-0.513,40.453-0.418c3.849,0.027,10.614,2.359,14.134,0.085c2.193-1.416,1.776-3.432-0.107-4.881
			c-1.123-0.864-2.766-1.102-4.098-1.382c-5.277-1.11-10.225-1.852-15.388-3.454c-6.344-1.967-12.824-0.477-19.148-2.324
			c-11.309-3.302-11.903-9.9-11.771-21.123c0.177-15,2.232-29.852,6.309-44.272c2.801-9.908,1.644-19.277,1.593-29.486
			c-0.024-4.798,0.776-9.434,1.322-14.191c0.771-6.719,0.511-13.503,1.155-20.232c0.721-7.532,3.555-13.443,6.972-20.14
			c3.422-6.706,6.822-13.408,9.865-20.296"/>
	</g>
	<g id="POLYLINE_125_">
		
			<path fill="none" stroke="#FF6B6B" stroke-width="2.75" stroke-linecap="round" stroke-linejoin="round" stroke-miterlimit="10" d="
			M622.135,319.684c1.656-3.534-0.641-6.863-4.404-7.326c-6.42-0.789-15.482,8.697-13.634,15.231
			c0.514,1.819,1.782,2.711,3.663,3.085"/>
	</g>
	<g id="POLYLINE_124_">
		
			<path fill="none" stroke="#FF6B6B" stroke-width="2.75" stroke-linecap="round" stroke-linejoin="round" stroke-miterlimit="10" d="
			M622.135,319.684c-1.329,1.924-3.921,3.194-4.428,5.507c-0.352,1.609-0.097,3.612-0.371,5.317
			c-0.948,5.902,2.818,3.637,6.886,2.532c1.848-0.502,3.206-1.93,5.026-2.33c3.264-0.718,6.071,2.037,8.938,2.988
			c2.479,0.822,7.413-1.392,8.878-0.524c1.495,0.885,0.047,3.026,0.477,4.566c0.488,1.748,2.156,2.855,3.091,4.326
			c1.095,1.723,0.832,3.468,3.717,2.88c2.559-0.521,1.627-1.918,2.795-3.867c0.819-1.368,2.258-1.782,2.753-3.283
			c0.34-1.031-0.564-2.28-0.135-3.35c0.298-0.744,1.385-0.906,1.818-1.607c0.942-1.525,0.745-2.446,0.672-4.039
			c-0.174-3.813-0.534-7.523-0.832-11.421c-0.38-4.965-2.457-10.44-4.06-15.197c-1.315-3.903-1.099-6.303-4.307-8.631
			c-2.129-1.545-1.527-1.866-2.585-3.917c-0.753-1.46-2.14-2.022-2.98-3.474c-1.455-2.513-0.789-5.19-4.839-5.392
			c-2.786-0.139-1.311,0.604-4.259-0.627c-1.63-0.681-2.716-0.985-4.583-0.491c-1.514,0.4-2.14,1.545-3.659,0.811
			c-1.623-0.784-1.593-3.17-3.552-3.969c-2.856-1.166-7.643,1.813-10.574,2.555c-1.923,0.487-3.993-0.56-5.716,0.455
			c-0.766,0.452-0.906,1.571-1.531,2.131c-1.198,1.072-2.931,1.143-4.16,2.1c-1.272,0.991-1.628,2.345-3.058,3.238
			c-4.361,2.727-2.107,0.23-3.992,4.57c-1.111,2.558-4.113,3.899-5.593,6.43c-2.148,3.674-6.453,6.608-7.85,10.538
			c-0.472,1.329-1.619,4.268-1.836,5.438c-0.277,1.496-0.269,1.858,0.867,3.013c2.021,2.055,5.16,1.1,7.593,1.451
			c2.864,0.414,5.212,2.44,7.941,2.874c1.73,0.275,4.53,0.708,6.425,0.274"/>
	</g>
	<g id="POLYLINE_122_">
		
			<path fill="none" stroke="#FF6B6B" stroke-width="2.75" stroke-linecap="round" stroke-linejoin="round" stroke-miterlimit="10" d="
			M568.255,320.293c4.85,0.25,10.006-1.59,13.998-4.292"/>
	</g>
	<g id="POLYLINE_99_">
		
			<path fill="none" stroke="#FF6B6B" stroke-width="2.75" stroke-linecap="round" stroke-linejoin="round" stroke-miterlimit="10" d="
			M572.973,356.889c4.247-0.51,12.642-2.957,16.839-1.182c0.775,0.328,1.016,0.471,1.569,1.112c2.589,3,1.955,7.238,6.278,9.22
			c2.302,1.056,4.947,0.676,6.996-0.748c0.948-0.659,1.463-1.793,2.504-2.338c1.809-0.948,4.063-0.232,5.914-0.918
			c1.781-0.66,2.965-2.654,5-2.761c2.027-0.107,2.503,1.353,4.256,2.237c7.057,3.561,4.786-10.202,9.896-12.824
			c1.999-1.026,3.536-0.1,5.157-1.878c2.661-2.919,3.679-5.717,7.747-7.812c0.789-0.406,1.669-0.69,2.538-0.86"/>
	</g>
	<g id="POLYLINE_98_">
		
			<path fill="none" stroke="#FF6B6B" stroke-width="2.75" stroke-linecap="round" stroke-linejoin="round" stroke-miterlimit="10" d="
			M349.42,396.969c-17.948,7.993-36.514,14.484-54.376,22.638c-8.644,3.946-17.253,8.297-26.336,11.172
			c-9.028,2.858-18.388,3.64-27.741,4.756c-14.158,1.69-24.775,6.049-37.055,13.141c-16.203,9.356-32.779,18.435-51.003,23.147
			c-7.869,2.035-15.875,4.568-23.925,5.809c-4.266,0.657-8.51-0.195-12.769,0.253c-3.621,0.381-7.853,1.713-9.571,5.226
			c-2.733,5.587,1.409,12.771,2.963,17.934c3.348,11.125-0.596,22.84,2.069,33.854c0.891,3.682,3.95,9.355,7.024,11.517
			c3.092,2.174,7.761,0.787,11.239,0.875c1.052,0.026,14.035,1.359,11.692-4.292c-0.848-2.046-4.535-1.867-6.207-2.838
			c-3.287-1.907-5.261-5.056-5.368-8.832c-0.209-7.383,4.902-16.766,9.286-22.438c6.717-8.69,19.098-13.45,29.123-16.609
			c17.638-5.558,36.393-5.771,54.086-11.407c6.826-2.174,13.591-4.765,20.699-5.88c7.657-1.201,15.44-1.243,23.092-2.567
			c9.474-1.639,17.72-6.664,27.056-8.197c16.443-2.7,33.271-0.378,49.783-3.059c8.13-1.32,16.127-3.405,23.886-6.164"/>
	</g>
</g>
<g id="AG-OUTLINE">
	<g id="POLYLINE_3_">
		
			<path fill="none" stroke="#FF6B6B" stroke-width="3.5" stroke-linecap="round" stroke-linejoin="round" stroke-miterlimit="10" d="
			M647.667,338.137c0.641,1.444,2.01,2.225,2.817,3.534c1.003,1.627,0.336,2.464,2.161,3.176c3.804,1.484,3.919-2.948,5.309-4.968
			c1.707-2.482,1-0.971,1.742-4.088c0.414-1.741,0.975-1.472,1.915-2.999c1.479-2.403,0.243-3.973,0.219-6.439
			c-0.032-3.335,0.201-7.16-0.535-10.537c-0.944-4.331-2.384-8.433-3.747-12.866c-0.51-1.658-1.378-3.14-1.748-4.814
			c-0.242-1.091,0.321-1.982-0.329-3.023c-0.923-1.479-3.075-1.382-4.135-2.741c-0.886-1.135-0.348-2.36-0.987-3.482
			c-0.69-1.212-2.181-1.542-2.898-2.808c-0.5-0.883-0.133-2.02-0.665-2.952c-2.042-3.578-3.505-1.292-6.029-1.608
			c-3.595-0.449-3.5-2.614-7.751-1.599c-3.884,0.927-2.315-0.172-5.298-2.724c-2.406-2.058-4.539-0.375-7.099,0.24
			c-1.913,0.459-3.717,1.597-5.646,1.859c-1.762,0.239-3.197-0.688-4.768,0.299c-1.136,0.713-1.628,2.205-2.875,3.004
			c-1.206,0.772-2.519,0.881-3.575,1.813c-0.513,0.453-0.499,1.366-1.053,1.843c-1.344,1.155-3.669,0.836-4.686,2.233
			c-0.804,1.104-0.24,2.96-1.142,4.247c-0.812,1.159-2.356,1.73-3.307,2.803c-1.428,1.612-1.97,3.771-3.224,5.486
			c-1.875,2.565-5.032,4.191-6.157,7.347c-0.744,2.089-0.898,5.5-2.063,7.334c-1.597,2.513-7.894,4.256-11.079,4.552
			c-2.675,0.248-6.145-0.782-8.862-1.03c-7.595-0.691-14.503-4.513-22.137-5.518c-9.119-1.202-18.933-1.663-27.957,0.528
			c-18.131,4.401-29.586,20.943-45.645,29.267c-3.541,1.835-5,2.921-7.506,5.533c-1.945,2.027-4.212,3.283-6.986,3.56
			c-2.427,0.243-3.74-0.286-5.772,1.039c-1.723,1.124-2.378,2.906-4.396,3.489c-2.033,0.586-4.305-0.543-6.251,0.559
			c-1.195,0.677-1.485,2.023-2.871,2.487c-1.169,0.391-2.596-0.236-3.798-0.137c-1.517,0.125-2.72,0.897-4.194,1.174
			c-2.084,0.391-3.595-0.629-5.666-0.592c-1.821,0.032-2.761,1.048-4.435,1.77c-2.968,1.281-5.728,0.363-8.815,0.78
			c-10.369,1.399-21.491,3.253-30.581,9.852c-6.079,4.414-10.79,10.971-15.656,16.611c-2.528,2.93-5.993,3.941-9.157,6.065
			c-6.406,4.301-14.403,7.355-21.809,10.326c-15.48,6.209-30.731,12.444-45.951,19.271c-13.328,5.978-26.304,8.468-40.732,10.14
			c-9.674,1.121-18.798,2.901-27.514,7.364c-13.403,6.863-25.982,15.108-39.734,21.346c-13.824,6.271-29.08,10.25-43.943,13.179
			c-6.997,1.379-20.219-2.438-24.094,5.946c-1.578,3.415-0.406,7.544,0.67,10.89c3.309,10.295,4.258,18.58,4.062,29.496
			c-0.1,5.568-0.63,10.73,2.37,15.533c1.539,2.464,3.05,6.369,5.856,7.753c3.586,1.768,9.496,0.341,13.335,0.47
			c2.259,0.076,5.122,0.512,7.12-0.874c2.084-1.445,2.381-3.24,0.398-4.666c-2.508-1.803-5.195-1.342-7.581-3.859
			c-2.01-2.122-2.866-4.593-2.75-7.549c0.255-6.502,4.289-13.88,7.687-19.247c4.001-6.319,10.319-10.137,16.898-13.366
			c13.897-6.822,28.505-8.951,43.635-11.281c13.705-2.111,26.216-7.104,39.575-10.467c10.766-2.71,22.056-2.132,32.91-4.542
			c7.434-1.65,13.996-5.697,21.406-7.114c11.787-2.253,24.003-1.039,35.915-1.663c13.299-0.697,26.441-3.309,38.988-7.773
			c0.35,2.012,1.8,1.207,3.031,0.819c3.05-0.963,6.039-3.834,9.089-5.158c2.825-1.226,5.79-2.206,8.844-2.653
			c9.189-1.345,15.912-0.615,23.446-6.883c3.054-2.541,6.114-6.177,10.059-6.898c3.173-0.58,6.007-0.793,9.234-1.833
			c3.885-1.253,7.705-2.224,11.8-2.405c5.103-0.226,10.67,0.631,15.704-0.617c1.93-0.478,3.595-1.335,5.574-1.624
			c2.083-0.304,4.176-0.058,6.11-1.008c1.775-0.872,2.915-2.679,4.715-3.512c1.853-0.857,3.868-0.623,5.854-0.804
			c4.219-0.384,7.315-3.123,11.495-3.957c4.358-0.87,8.572-1.571,12.472-3.834c2.956-1.715,5.015-3.144,8.241-4.131
			c3.147-0.963,3.835-1.676,5.697-4.331c0.355-0.506,0.522-1.288,0.663-1.88c0.797,9.046,2.594,18.633,2.291,27.715
			c-0.176,5.282-2.23,10.293-2.411,15.563c-0.111,3.241,0.666,6.444,0.504,9.685c-0.181,3.617-1.314,7.133-1.879,10.694
			c-1.226,7.727-0.595,15.719,0.38,23.435c1.443,11.411,4.594,22.501,6.143,33.896c0.71,5.222,0.312,13.798,3.464,18.613
			c4.503,6.878,18.742,3.587,24.866,3.532c11.206-0.101,22.36-0.008,33.535,0.503c1.571,0.072,4.191,0.417,5.547-0.795
			c1.532-1.369,1.235-2.88-0.103-4.228c-2.125-2.14-6.815-2.065-9.383-2.476c-6.362-1.019-12.251-4.018-18.739-4.08
			c-6.488-0.062-16.617-0.227-20.698-6.587c-2.456-3.829-2.071-9.541-2.077-13.831c-0.016-12.089,1.138-24.548,3.743-36.355
			c1.739-7.879,4.609-15.065,4.684-23.213c0.086-9.335-0.764-18.202,0.469-27.477c1.228-9.241,0.316-18.775,2.214-27.915
			c1.494-7.196,5.569-13.645,8.848-20.105c3.341-6.583,6.188-13.284,9.488-19.817c0.646-1.28,1.473-3.043,2.783-3.829
			c2.692-1.616,8.226-1.192,11.486-1.422c1.496-0.106,4.025-0.71,5.515-0.104c1.033,0.42,1.155,0.641,1.8,1.529
			c2.575,3.545,2.758,8.922,8.354,9.41c3.707,0.323,4.583-2.334,7.391-3.756c1.997-1.011,4.523-0.151,6.546-1.073
			c1.053-0.48,1.601-1.542,2.69-2.031c2.928-1.314,3.182,0.364,5.699,1.676c3.059,1.594,3.701,0.409,4.764-2.544
			c0.996-2.767,1.792-7.836,4.568-9.797c1.239-0.876,2.198-0.409,3.518-0.889c2.729-0.992,3.558-3.992,5.863-5.92
			C643.101,340.513,644.86,338.688,647.667,338.137z"/>
	</g>
</g>
</svg>
