<?xml version="1.0" encoding="utf-8"?>
<!-- Generator: Adobe Illustrator 23.0.1, SVG Export Plug-In . SVG Version: 6.00 Build 0)  -->
<!DOCTYPE svg PUBLIC "-//W3C//DTD SVG 1.1//EN" "http://www.w3.org/Graphics/SVG/1.1/DTD/svg11.dtd" [
	<!ENTITY ns_extend "http://ns.adobe.com/Extensibility/1.0/">
	<!ENTITY ns_ai "http://ns.adobe.com/AdobeIllustrator/10.0/">
	<!ENTITY ns_graphs "http://ns.adobe.com/Graphs/1.0/">
	<!ENTITY ns_vars "http://ns.adobe.com/Variables/1.0/">
	<!ENTITY ns_imrep "http://ns.adobe.com/ImageReplacement/1.0/">
	<!ENTITY ns_sfw "http://ns.adobe.com/SaveForWeb/1.0/">
	<!ENTITY ns_custom "http://ns.adobe.com/GenericCustomNamespace/1.0/">
	<!ENTITY ns_adobe_xpath "http://ns.adobe.com/XPath/1.0/">
]>
<svg version="1.1" xmlns:x="&ns_extend;" xmlns:i="&ns_ai;" xmlns:graph="&ns_graphs;"
	 xmlns="http://www.w3.org/2000/svg" xmlns:xlink="http://www.w3.org/1999/xlink" x="0px" y="0px" viewBox="0 0 1500 540"
	 enable-background="new 0 0 1500 540" xml:space="preserve">
<metadata>
	<sfw  xmlns="&ns_sfw;">
		<slices></slices>
		<sliceSourceBounds  bottomLeftOrigin="true" height="4217.822" width="5712.99" x="-1000" y="-1545"></sliceSourceBounds>
	</sfw>
</metadata>
<g id="FILL-BACKGROUND">
	<rect fill="#FFFFFF" width="1500" height="540"/>
</g>
<g id="N-TEXT">
</g>
<g id="AG-DIAGRAM">
	<g id="POLYLINE_296_">
		<g>
			<g>
				
					<line fill="none" stroke="#FF6B6B" stroke-width="2" stroke-linecap="round" stroke-linejoin="round" x1="601.861" y1="445.139" x2="601.861" y2="443.639"/>
				
					<line fill="none" stroke="#FF6B6B" stroke-width="2" stroke-linecap="round" stroke-linejoin="round" stroke-dasharray="3.0255,5.0425" x1="601.861" y1="438.597" x2="601.861" y2="150.669"/>
				
					<line fill="none" stroke="#FF6B6B" stroke-width="2" stroke-linecap="round" stroke-linejoin="round" x1="601.861" y1="148.148" x2="601.861" y2="146.648"/>
			</g>
		</g>
	</g>
	<g id="POLYLINE_295_">
		<g>
			<g>
				
					<line fill="none" stroke="#FF6B6B" stroke-width="2" stroke-linecap="round" stroke-linejoin="round" x1="63.641" y1="376.584" x2="65.067" y2="376.12"/>
				
					<line fill="none" stroke="#FF6B6B" stroke-width="2" stroke-linecap="round" stroke-linejoin="round" stroke-dasharray="2.9952,4.9919" x1="69.815" y1="374.578" x2="751.098" y2="153.216"/>
				
					<line fill="none" stroke="#FF6B6B" stroke-width="2" stroke-linecap="round" stroke-linejoin="round" x1="753.472" y1="152.444" x2="754.898" y2="151.981"/>
			</g>
		</g>
	</g>
	<g id="POLYLINE_294_">
		<g>
			<g>
				
					<line fill="none" stroke="#FF6B6B" stroke-width="3" stroke-linecap="round" stroke-linejoin="round" x1="73.498" y1="427.371" x2="75.498" y2="427.371"/>
				
					<line fill="none" stroke="#FF6B6B" stroke-width="3" stroke-linecap="round" stroke-linejoin="round" stroke-dasharray="4.0129,7.0226" x1="82.52" y1="427.371" x2="1370.17" y2="427.371"/>
				
					<line fill="none" stroke="#FF6B6B" stroke-width="3" stroke-linecap="round" stroke-linejoin="round" x1="1373.681" y1="427.371" x2="1375.681" y2="427.371"/>
			</g>
		</g>
	</g>
	<g id="POLYLINE_293_">
		
			<line fill="none" stroke="#FF6B6B" stroke-width="2" stroke-linecap="round" stroke-linejoin="round" stroke-miterlimit="10" x1="756.742" y1="151.314" x2="753.771" y2="157.689"/>
		
			<line fill="none" stroke="#FF6B6B" stroke-width="2" stroke-linecap="round" stroke-linejoin="round" stroke-miterlimit="10" x1="750.37" y1="148.344" x2="756.742" y2="151.314"/>
	</g>
	<g id="POLYLINE_292_">
		
			<line fill="none" stroke="#FF6B6B" stroke-width="2" stroke-linecap="round" stroke-linejoin="round" stroke-miterlimit="10" x1="62.751" y1="377.03" x2="65.888" y2="370.734"/>
		
			<line fill="none" stroke="#FF6B6B" stroke-width="2" stroke-linecap="round" stroke-linejoin="round" stroke-miterlimit="10" x1="69.043" y1="380.165" x2="62.751" y2="377.03"/>
	</g>
	<g id="POLYLINE_291_">
		
			<line fill="none" stroke="#FF6B6B" stroke-width="2" stroke-linecap="round" stroke-linejoin="round" stroke-miterlimit="10" x1="601.745" y1="447.387" x2="596.856" y2="442.33"/>
		
			<line fill="none" stroke="#FF6B6B" stroke-width="2" stroke-linecap="round" stroke-linejoin="round" stroke-miterlimit="10" x1="606.799" y1="442.502" x2="601.745" y2="447.387"/>
	</g>
	<g>
		<g id="POLYLINE_289_">
			<g>
				<g>
					<path fill="none" stroke="#FF6B6B" stroke-width="2" stroke-linecap="round" stroke-linejoin="round" d="M536.884,234.267
						c0.242,0.437,0.488,0.871,0.739,1.303"/>
					
						<path fill="none" stroke="#FF6B6B" stroke-width="2" stroke-linecap="round" stroke-linejoin="round" stroke-dasharray="2.9546,4.9243" d="
						M540.246,239.735c0.274,0.402,0.553,0.802,0.836,1.199c4.692,6.583,10.536,12.329,17.169,16.943
						c6.629,4.612,14.089,8.053,21.886,10.144c3.305,0.886,6.677,1.527,10.078,1.921l0.372,0.01"/>
					
						<line fill="none" stroke="#FF6B6B" stroke-width="2" stroke-linecap="round" stroke-linejoin="round" x1="593.053" y1="270.021" x2="594.553" y2="270.063"/>
				</g>
			</g>
		</g>
		<g id="POLYLINE_288_">
			
				<line fill="none" stroke="#FF6B6B" stroke-width="2" stroke-linecap="round" stroke-linejoin="round" stroke-miterlimit="10" x1="536.093" y1="232.478" x2="542.517" y2="235.34"/>
			
				<line fill="none" stroke="#FF6B6B" stroke-width="2" stroke-linecap="round" stroke-linejoin="round" stroke-miterlimit="10" x1="533.231" y1="238.898" x2="536.093" y2="232.478"/>
		</g>
		<g id="POLYLINE_287_">
			
				<line fill="none" stroke="#FF6B6B" stroke-width="2" stroke-linecap="round" stroke-linejoin="round" stroke-miterlimit="10" x1="594.553" y1="270.063" x2="589.904" y2="275.342"/>
			
				<line fill="none" stroke="#FF6B6B" stroke-width="2" stroke-linecap="round" stroke-linejoin="round" stroke-miterlimit="10" x1="589.278" y1="265.414" x2="594.553" y2="270.063"/>
		</g>
		<g id="MTEXT_3_">
			<g>
				<g>
					<path fill="#FF6B6B" d="M531.068,289.706c-0.055-0.064-0.082-0.143-0.082-0.232l0.03-0.135l3.75-8.775h-4.95
						c-0.101,0-0.183-0.032-0.248-0.097c-0.064-0.065-0.098-0.147-0.098-0.248v-0.555c0-0.11,0.03-0.197,0.091-0.263
						c0.06-0.064,0.145-0.098,0.255-0.098h6.12c0.109,0,0.194,0.033,0.255,0.098c0.06,0.065,0.09,0.152,0.09,0.263v0.51
						c0,0.18-0.04,0.375-0.12,0.585l-3.705,8.67c-0.05,0.11-0.104,0.2-0.165,0.27c-0.06,0.07-0.145,0.105-0.255,0.105h-0.75
						C531.196,289.804,531.123,289.771,531.068,289.706z"/>
					<path fill="#FF6B6B" d="M538.599,288.821c-0.595-0.755-0.912-1.742-0.952-2.962l-0.015-1.29l0.015-1.335
						c0.03-1.21,0.348-2.192,0.952-2.948c0.605-0.755,1.548-1.132,2.828-1.132c1.29,0,2.237,0.377,2.842,1.132
						c0.605,0.756,0.923,1.738,0.953,2.948c0.01,0.279,0.015,0.725,0.015,1.335c0,0.59-0.005,1.02-0.015,1.29
						c-0.04,1.22-0.357,2.207-0.953,2.962c-0.595,0.755-1.542,1.133-2.842,1.133C540.137,289.954,539.194,289.576,538.599,288.821z
						 M543.167,287.943c0.39-0.51,0.595-1.229,0.614-2.159c0.01-0.29,0.016-0.705,0.016-1.245c0-0.55-0.006-0.96-0.016-1.23
						c-0.02-0.92-0.228-1.637-0.622-2.152c-0.396-0.515-0.973-0.772-1.732-0.772c-0.761,0-1.335,0.258-1.726,0.772
						c-0.39,0.516-0.595,1.232-0.614,2.152l-0.016,1.23l0.016,1.245c0.02,0.93,0.225,1.649,0.614,2.159
						c0.391,0.511,0.965,0.766,1.726,0.766C542.196,288.709,542.776,288.454,543.167,287.943z"/>
					<path fill="#FF6B6B" d="M547.313,285.813c-0.065-0.06-0.098-0.14-0.098-0.239v-0.54c0-0.1,0.032-0.183,0.098-0.248
						c0.064-0.064,0.147-0.098,0.247-0.098h4.5c0.1,0,0.183,0.033,0.248,0.098c0.064,0.065,0.097,0.148,0.097,0.248v0.54
						c0,0.1-0.032,0.18-0.097,0.239c-0.065,0.061-0.148,0.091-0.248,0.091h-4.5C547.461,285.904,547.378,285.874,547.313,285.813z"
						/>
					<path fill="#FF6B6B" d="M556.163,289.571c-0.596-0.255-1.058-0.623-1.388-1.103c-0.33-0.48-0.495-1.04-0.495-1.68
						c0-0.59,0.147-1.107,0.442-1.553c0.295-0.444,0.692-0.787,1.192-1.027c-0.399-0.229-0.71-0.532-0.93-0.907
						s-0.33-0.817-0.33-1.328c0-0.87,0.325-1.557,0.976-2.062c0.649-0.505,1.505-0.757,2.564-0.757s1.913,0.25,2.558,0.75
						s0.968,1.189,0.968,2.069c0,0.5-0.11,0.938-0.33,1.312c-0.221,0.375-0.525,0.683-0.915,0.923c0.5,0.24,0.897,0.583,1.192,1.027
						c0.295,0.445,0.442,0.968,0.442,1.567c0,0.64-0.165,1.197-0.495,1.673c-0.33,0.475-0.792,0.84-1.388,1.095
						c-0.595,0.255-1.272,0.383-2.032,0.383S556.758,289.826,556.163,289.571z M559.973,288.244c0.476-0.36,0.713-0.841,0.713-1.44
						s-0.237-1.08-0.713-1.439c-0.475-0.36-1.067-0.54-1.777-0.54c-0.72,0-1.317,0.18-1.792,0.54
						c-0.476,0.359-0.713,0.84-0.713,1.439s0.237,1.08,0.713,1.44c0.475,0.359,1.072,0.54,1.792,0.54
						C558.905,288.784,559.498,288.604,559.973,288.244z M559.74,283.204c0.42-0.3,0.63-0.7,0.63-1.2
						c0-0.51-0.207-0.917-0.622-1.223c-0.415-0.305-0.933-0.457-1.553-0.457c-0.63,0-1.15,0.152-1.56,0.457
						c-0.41,0.306-0.615,0.713-0.615,1.223s0.205,0.918,0.615,1.223c0.409,0.305,0.93,0.457,1.56,0.457
						C558.806,283.664,559.32,283.504,559.74,283.204z"/>
					<path fill="#FF6B6B" d="M564.863,288.821c-0.595-0.755-0.912-1.742-0.952-2.962l-0.015-1.29l0.015-1.335
						c0.03-1.21,0.348-2.192,0.952-2.948c0.605-0.755,1.548-1.132,2.828-1.132c1.29,0,2.237,0.377,2.842,1.132
						c0.605,0.756,0.923,1.738,0.953,2.948c0.01,0.279,0.015,0.725,0.015,1.335c0,0.59-0.005,1.02-0.015,1.29
						c-0.04,1.22-0.357,2.207-0.953,2.962c-0.595,0.755-1.542,1.133-2.842,1.133C566.401,289.954,565.459,289.576,564.863,288.821z
						 M569.432,287.943c0.39-0.51,0.595-1.229,0.614-2.159c0.01-0.29,0.016-0.705,0.016-1.245c0-0.55-0.006-0.96-0.016-1.23
						c-0.02-0.92-0.228-1.637-0.622-2.152c-0.396-0.515-0.973-0.772-1.732-0.772c-0.761,0-1.335,0.258-1.726,0.772
						c-0.39,0.516-0.595,1.232-0.614,2.152l-0.016,1.23l0.016,1.245c0.02,0.93,0.225,1.649,0.614,2.159
						c0.391,0.511,0.965,0.766,1.726,0.766C568.461,288.709,569.041,288.454,569.432,287.943z"/>
					<path fill="#FF6B6B" d="M574.238,283.106c-0.336-0.185-0.601-0.439-0.796-0.765c-0.194-0.325-0.292-0.683-0.292-1.073
						c0-0.399,0.098-0.76,0.292-1.08c0.195-0.319,0.46-0.572,0.796-0.757c0.334-0.186,0.702-0.277,1.102-0.277
						c0.4,0,0.768,0.092,1.103,0.277c0.335,0.185,0.601,0.438,0.796,0.757c0.194,0.32,0.292,0.681,0.292,1.08
						c0,0.391-0.098,0.748-0.292,1.073c-0.195,0.325-0.461,0.58-0.796,0.765c-0.335,0.186-0.702,0.277-1.103,0.277
						C574.94,283.384,574.572,283.292,574.238,283.106z M576.165,282.094c0.21-0.21,0.315-0.484,0.315-0.825
						c0-0.34-0.105-0.614-0.315-0.824s-0.485-0.315-0.825-0.315s-0.614,0.105-0.824,0.315s-0.315,0.484-0.315,0.824
						c0,0.341,0.105,0.615,0.315,0.825s0.484,0.315,0.824,0.315S575.955,282.304,576.165,282.094z"/>
				</g>
			</g>
		</g>
	</g>
</g>
<g id="AG-PEOPLE">
	<g id="POLYLINE_286_">
		
			<path fill="none" stroke="#FF6B6B" stroke-width="2.75" stroke-linecap="round" stroke-linejoin="round" stroke-miterlimit="10" d="
			M1232.156,258.909c-0.857,3.608-2.92,5.809-6.273,7.011c-4.684,1.678-8.018,3.793-12.5,6.05
			c-5.333,2.685-11.241,2.493-16.741,4.45c-2.472,0.88-4.436,2.743-6.958,3.466c-3.027,0.868-6.373-0.091-9.34,1.102
			c-2.339,0.94-3.762,3.232-5.996,4.332c-2.703,1.331-5.755,0.741-8.617,1.362c-3.111,0.675-5.664,1.977-8.908,2.231
			c-7.692,0.602-15.347-0.435-22.912,1.389c-6.348,1.531-14.368,6.477-20.661,2.194c-3.276-2.23-5.319-6.173-6.996-9.64
			c-4.681-9.676-7.495-20.55-9.756-31.019c-1.678-7.768-2.334-15.541-1.9-23.478c0.213-3.898-0.22-12.957,2.638-16.493
			c2.547-3.152,7.237-0.553,10.825-1.773c1.851-0.629,3.323-2.288,5.301-2.553c1.766-0.236,3.354,0.817,5.078,0.904
			c2.031,0.103,3.305-0.761,5.319-1.214c2.093-0.471,4.566,0.383,6.478-0.204c2.11-0.648,2.848-2.731,4.956-3.484
			c2.084-0.744,4.565,0.512,6.667-0.287c1.824-0.694,2.649-2.58,4.183-3.687c3.288-2.373,6.975-0.797,10.596-2.277
			c4.786-1.955,7.783-6.952,12.575-9.411c16.752-8.593,28.94-24.39,46.217-32.035c13.098-5.796,28.429-5.363,42.313-3.381
			c7.305,1.043,13.707,4.179,20.835,5.765c3.22,0.717,7.881-0.373,10.702,1.391c0.939,0.587,1.151,1.12,1.684,2.043
			c1.742,3.016,1.811,8.17,2.434,11.387c1.155,5.961,2.459,11.934,3.115,17.976c0.695,6.397,0.217,9.682-3.123,14.495
			c-1.69,2.435-2.164,5.65-3.948,7.936c-1.29-0.406,0.734-12.669,0.638-14.665c-0.211-4.428-1.571-8.494-3.665-12.378
			c-3.915-7.261-10.264-15.215-18.158-18.316c-8.749-3.437-20.502-0.304-28.651,3.353c-10.57,4.744-17.22,15.396-18.734,26.738
			c-1.297,9.714,4.239,21.08,13.095,25.486"/>
	</g>
	<g id="POLYLINE_285_">
		
			<path fill="none" stroke="#FF6B6B" stroke-width="2.75" stroke-linecap="round" stroke-linejoin="round" stroke-miterlimit="10" d="
			M1097.458,211.484c-21.043-1.322-37.046,11.316-50.031,26.292c-1.731,1.997-3.059,4.35-5.105,6.052
			c-2.478,2.06-6.26,2.585-8.495,4.81c-1.543,1.537-1.825,3.195-1.837,5.391c-0.021,3.85,1.511,7.599,2.969,11.089
			c3.449,8.255,6.644,15.966,9.189,24.538c2.551,8.59,8.714,15.767,9.244,24.943c0.092,1.595-0.833,4.683,1.073,5.565
			c2.603,1.203,7.929-4.178,10.13-5.304c7.856-4.019,14.911-4.329,23.561-5.063c10.139-0.86,15.504-6.712,23.151-12.569
			c1.628-1.247,3.361-2.322,5.19-3.249"/>
	</g>
	<g id="POLYLINE_284_">
		
			<path fill="none" stroke="#FF6B6B" stroke-width="2.75" stroke-linecap="round" stroke-linejoin="round" stroke-miterlimit="10" d="
			M1236.668,196.524c1.754,11.626-1.742,21.571-3.969,32.924c-2.341,11.934-1.003,22.776-0.132,34.85
			c0.754,10.454,3.442,21.445,1.812,31.918c-0.666,4.276-2.054,8.458-2.324,12.795c-0.268,4.303,0.828,8.553,0.51,12.855
			c-0.788,10.655-3.376,19.881-2.595,30.764c1.156,16.105,5.75,31.545,7.953,47.483c1.68,12.147-0.323,26.552,14.68,27.588
			c15.667,1.082,31.867-0.603,47.592-0.491c4.528,0.032,12.487,2.775,16.628,0.1c2.58-1.666,2.09-4.038-0.126-5.743
			c-1.321-1.016-3.255-1.297-4.821-1.626c-6.208-1.306-12.029-2.179-18.104-4.063c-7.463-2.314-15.087-0.562-22.527-2.734
			c-13.305-3.885-14.004-11.647-13.848-24.851c0.208-17.647,2.626-35.12,7.422-52.084c3.295-11.656,1.934-22.679,1.874-34.689
			c-0.028-5.645,0.913-11.099,1.555-16.695c0.907-7.905,0.602-15.886,1.359-23.802c0.848-8.861,4.182-15.815,8.203-23.694
			c4.026-7.889,8.026-15.774,11.606-23.878"/>
	</g>
	<g id="POLYLINE_283_">
		
			<path fill="none" stroke="#FF6B6B" stroke-width="2.75" stroke-linecap="round" stroke-linejoin="round" stroke-miterlimit="10" d="
			M1353.38,159.365c1.948-4.157-0.754-8.075-5.182-8.619c-7.553-0.928-18.214,10.231-16.04,17.918c0.605,2.14,2.096,3.19,4.31,3.629
			"/>
	</g>
	<g id="POLYLINE_282_">
		
			<path fill="none" stroke="#FF6B6B" stroke-width="2.75" stroke-linecap="round" stroke-linejoin="round" stroke-miterlimit="10" d="
			M1353.38,159.365c-1.563,2.263-4.613,3.758-5.209,6.479c-0.415,1.892-0.115,4.249-0.437,6.256
			c-1.115,6.943,3.315,4.279,8.102,2.978c2.174-0.591,3.772-2.27,5.913-2.741c3.84-0.845,7.142,2.397,10.516,3.515
			c2.917,0.967,8.721-1.637,10.444-0.617c1.759,1.042,0.055,3.56,0.561,5.372c0.574,2.057,2.536,3.359,3.637,5.089
			c1.289,2.027,0.979,4.08,4.373,3.389c3.011-0.613,1.914-2.257,3.288-4.55c0.964-1.609,2.657-2.096,3.238-3.863
			c0.399-1.213-0.663-2.682-0.159-3.941c0.351-0.876,1.629-1.066,2.139-1.891c1.108-1.794,0.876-2.878,0.791-4.752
			c-0.204-4.486-0.628-8.851-0.979-13.436c-0.447-5.841-2.89-12.282-4.776-17.879c-1.547-4.592-1.293-7.416-5.067-10.155
			c-2.505-1.818-1.797-2.195-3.041-4.608c-0.886-1.717-2.518-2.379-3.506-4.087c-1.712-2.956-0.929-6.106-5.693-6.343
			c-3.277-0.163-1.543,0.711-5.011-0.738c-1.918-0.801-3.196-1.159-5.392-0.578c-1.781,0.471-2.518,1.818-4.305,0.954
			c-1.909-0.922-1.874-3.729-4.179-4.67c-3.36-1.371-8.992,2.133-12.44,3.006c-2.262,0.573-4.697-0.659-6.725,0.536
			c-0.901,0.531-1.065,1.849-1.802,2.508c-1.409,1.262-3.448,1.345-4.894,2.471c-1.497,1.166-1.915,2.758-3.597,3.81
			c-5.131,3.208-2.479,0.271-4.696,5.376c-1.307,3.009-4.838,4.587-6.58,7.565c-2.527,4.322-7.592,7.774-9.235,12.398
			c-0.555,1.563-1.905,5.022-2.16,6.397c-0.326,1.76-0.316,2.185,1.021,3.545c2.377,2.418,6.071,1.294,8.933,1.708
			c3.37,0.487,6.131,2.871,9.343,3.382c2.036,0.324,5.33,0.833,7.559,0.322"/>
	</g>
	<g id="POLYLINE_281_">
		
			<path fill="none" stroke="#FF6B6B" stroke-width="2.75" stroke-linecap="round" stroke-linejoin="round" stroke-miterlimit="10" d="
			M1289.993,160.08c5.706,0.294,11.771-1.871,16.468-5.049"/>
	</g>
	<g id="POLYLINE_280_">
		
			<path fill="none" stroke="#FF6B6B" stroke-width="2.75" stroke-linecap="round" stroke-linejoin="round" stroke-miterlimit="10" d="
			M1295.543,203.135c4.997-0.6,14.873-3.479,19.81-1.39c0.911,0.386,1.196,0.554,1.846,1.308c3.046,3.529,2.301,8.516,7.386,10.847
			c2.708,1.242,5.82,0.795,8.23-0.88c1.115-0.775,1.721-2.109,2.946-2.751c2.128-1.115,4.78-0.273,6.958-1.08
			c2.096-0.776,3.488-3.123,5.883-3.249c2.385-0.125,2.945,1.591,5.007,2.632c8.302,4.19,5.631-12.002,11.642-15.088
			c2.352-1.207,4.16-0.118,6.067-2.209c3.131-3.434,4.328-6.725,9.114-9.191c0.928-0.478,1.963-0.812,2.986-1.012"/>
	</g>
	<g id="POLYLINE_279_">
		
			<path fill="none" stroke="#FF6B6B" stroke-width="2.75" stroke-linecap="round" stroke-linejoin="round" stroke-miterlimit="10" d="
			M1032.54,250.287c-21.115,9.404-42.957,17.04-63.972,26.633c-10.17,4.642-20.298,9.761-30.984,13.144
			c-10.621,3.362-21.633,4.282-32.637,5.596c-16.656,1.988-29.147,7.117-43.594,15.46c-19.062,11.007-38.563,21.688-60.003,27.232
			c-9.258,2.394-18.677,5.374-28.147,6.834c-5.019,0.773-10.011-0.23-15.022,0.298c-4.26,0.449-9.239,2.015-11.26,6.148
			c-3.215,6.573,1.657,15.024,3.485,21.099c3.939,13.088-0.701,26.871,2.435,39.828c1.048,4.331,4.647,11.006,8.263,13.549
			c3.638,2.558,9.13,0.926,13.222,1.029c1.238,0.031,16.511,1.599,13.755-5.049c-0.998-2.407-5.335-2.197-7.303-3.339
			c-3.867-2.244-6.19-5.949-6.315-10.391c-0.246-8.686,5.767-19.725,10.925-26.398c7.903-10.223,22.469-15.823,34.263-19.54
			c20.751-6.539,42.816-6.79,63.631-13.42c8.031-2.558,15.99-5.606,24.352-6.918c9.008-1.413,18.165-1.463,27.167-3.02
			c11.146-1.928,20.847-7.84,31.831-9.644c19.344-3.177,39.143-0.444,58.568-3.599c9.564-1.553,18.973-4.005,28.101-7.251"/>
	</g>
	<g id="POLYLINE_278_">
		
			<path fill="none" stroke="#FF6B6B" stroke-width="2.75" stroke-linecap="round" stroke-linejoin="round" stroke-miterlimit="10" d="
			M582.123,237.457c-12.796-10.016-22.062-24.987-27.202-40.303c-1.787-5.326-4.843-13.947-0.171-18.72
			c2.555-2.61,6.855-3.483,10.255-4.152c10.584-2.081,22.083-1.968,32.795-1.308c8.153,0.502,17.374,1.698,22.222,9.077
			c5.534,8.424-0.318,15.788,0.281,24.726c2.12-0.2,6.317-10.732,6.923-13.279c1.272-5.355,0.16-11.163-1.986-16.138
			c-2.669-6.188-3.566-6.07-9.46-6.228c-3.181-0.085-6.093-0.928-9.341-1.341c-14.256-1.814-28.805-1.605-43.131-1.05
			c-7.72,0.299-15.168,0.662-22.282,3.828c-4.713,2.097-9.233,4.728-14.115,6.44c-2.016,0.707-4.988,0.68-6.744,1.691
			c-2.023,1.164-2.675,3.321-5.096,4.298c-1.132,0.457-5.964,0.164-6.669,1.759c-0.722,1.634,1.588,1.47,2.81,2.413
			c1.622,1.253,2.364,2.69,3.062,4.626c1.966,5.456,2.429,11.563,3.827,17.192c1.793,7.218,3.911,14.367,6.349,21.394
			c3.099,8.933,8.448,18.074,9.329,27.64c0.166,1.805-1.023,5.451,0.808,6.155c0.793,0.305,5.168-1.877,6.588-1.956
			c3.149-0.173,5.33,1,8.156,2.219c8.677,3.742,18.514,0.018,26.549-3.846c2.409-1.158,4.837-2.375,6.922-4.068"/>
	</g>
	<g id="POLYLINE_277_">
		
			<path fill="none" stroke="#FF6B6B" stroke-width="2.75" stroke-linecap="round" stroke-linejoin="round" stroke-miterlimit="10" d="
			M116.242,404.145c-2.037,3.128-3.863,8.382-0.944,11.441c3.102,3.25,8.276,0.487,11.407,3.342c2.15,1.96,1.761,4.969-0.28,6.896
			c-2.375,2.243-5.45,1.532-8.607,1.533c-5.496,0.001-10.645,0.087-15.341-3.123c-9.462-6.467-8.895-12.443-5.877-22.034
			c0.525-1.669,0.993-3.285,1.246-5.023"/>
	</g>
	<g id="POLYLINE_276_">
		
			<path fill="none" stroke="#FF6B6B" stroke-width="2.75" stroke-linecap="round" stroke-linejoin="round" stroke-miterlimit="10" d="
			M682.928,183.277c2.941-3.945,1.05-8.384-3.648-9.446c-6.841-1.546-18.96,7.521-15.424,15.308
			c0.759,1.671,2.127,2.645,4.016,2.109"/>
	</g>
	<g id="POLYLINE_275_">
		
			<path fill="none" stroke="#FF6B6B" stroke-width="2.75" stroke-linecap="round" stroke-linejoin="round" stroke-miterlimit="10" d="
			M682.928,183.277c-1.211,1.542-2.823,4.866-1.586,6.85c1.578,2.528,5.679,1.394,8.114,3.037c2.357,1.59,2.695,3.348,5.605,3.719
			c2.822,0.36,5.31-0.671,8.163-0.015c3.099,0.712,6.581,3.857,9.496,4.181c2.51,0.279,4.506-1.951,5.848-3.821
			c2.735-3.811,3.402-8.668,5.606-12.747c0.987-1.827,2.188-3.099,2.411-5.191c0.427-3.996-2.182-8.239-3.101-11.976
			c-0.672-2.735-0.445-5.761-1.683-8.315c-0.798-1.647-2.163-2.767-2.807-4.516c-1.499-4.071-1.632-7.547-4.164-11.284
			c-7.889-11.647-20.351-4.128-31.893-4.834c-0.909-0.056-1.839-0.329-2.667-0.697"/>
	</g>
	<g id="POLYLINE_274_">
		
			<path fill="none" stroke="#FF6B6B" stroke-width="2.75" stroke-linecap="round" stroke-linejoin="round" stroke-miterlimit="10" d="
			M661.419,148.04c3.247,0.519,4.129,1.136,6.876-1.517c1.568-1.514,1.871-2.438,3.806-3.432c2.931-1.506,4.525-1.352,6.618-4.109
			c1.037-1.366,1.288-0.742,1.474-2.493c0.212-1.984-1.812-7.128-3.488-8.872c-0.922-0.96-2.359-1.042-3.273-2.055
			c-2.68-2.971-2.814-7.622-5.868-10.656c-4.811-4.78-14.033-2.906-19.203,0.296c-5.669,3.51-6.441,10.185-7.426,16.251
			c-0.44,2.713,0.981,4.868,0.71,7.476c-0.276,2.659-1.902,5.225,1.095,7.568c1.241,0.971,5.378,2.586,7.01,2.673
			c1.366,0.073,2.227-0.803,3.476-0.952c1.88-0.224,3.752,0.242,5.658,0.131C659.76,148.3,660.543,148.041,661.419,148.04z"/>
	</g>
	<g id="POLYLINE_273_">
		
			<path fill="none" stroke="#FF6B6B" stroke-width="2.75" stroke-linecap="round" stroke-linejoin="round" stroke-miterlimit="10" d="
			M658.341,148.432c-4.49,1.47-8.307,5.176-10.268,9.424c-1.026,2.223-4.1,6.443-3.993,8.77c0.204,4.4,8.061,9.891,12.33,9.252
			c3.199-0.479,5.828-2.895,8.954-3.468c3.44-0.631,7.645,0.427,10.959,1.243"/>
	</g>
	<g id="POLYLINE_272_">
		
			<path fill="none" stroke="#FF6B6B" stroke-width="2.75" stroke-linecap="round" stroke-linejoin="round" stroke-miterlimit="10" d="
			M582.703,224.34c-1.09,18.004,0.305,35.368,1.958,53.287c1.31,14.196,3.696,28.847,3.793,43.103
			c0.112,16.479-2.777,32.894-1.743,49.385c0.771,12.308,3.047,23.683,2.26,36.042c-0.625,9.807-0.366,15.785,9.957,19.822
			c8.897,3.479,20.132,0.664,29.403,0.843c8.17,0.158,16.289,0.586,24.464,0.481c1.661-0.021,7.26,0.847,9.08-0.385
			c2.138-1.447,1.167-2.857-0.7-3.988c-3.689-2.236-11.349-1.937-15.388-2.55c-3.515-0.533-7.25-0.572-10.71-1.349
			c-6.19-1.389-11.869-3.883-18.203-5.068c-4.102-0.767-8.144-0.964-9.515-5.805c-0.349-1.231-0.133-2.596-0.069-3.839
			c0.427-8.248,1.982-16.634,3.302-24.777c2.283-14.08,6.795-28.006,8.3-42.166c1.067-10.041-1.423-20.017-2.205-29.987
			c-0.932-11.879,0.377-24.21,0.265-36.157c-0.147-15.726,11.207-29.051,8.135-44.862c-1.276-6.565-3.15-13.115-4.796-19.597"/>
	</g>
	<g id="POLYLINE_271_">
		
			<path fill="none" stroke="#FF6B6B" stroke-width="2.75" stroke-linecap="round" stroke-linejoin="round" stroke-miterlimit="10" d="
			M622.182,171.98c8.02,0.442,14.863-2.593,21.989-5.995"/>
	</g>
	<g id="POLYLINE_270_">
		
			<path fill="none" stroke="#FF6B6B" stroke-width="2.75" stroke-linecap="round" stroke-linejoin="round" stroke-miterlimit="10" d="
			M621.494,211.75c6.228-2.195,15.284-4.953,21.271-0.157c3.455,2.768,2.87,7.911,5.439,11.514c4.17,5.849,6.417,1.959,11.593,0.969
			c0.513-0.098,1.714,0.434,2.418,0.367c0.736-0.07,1.322-1.026,2.088-1.225c0.867-0.226,1.678,0.426,2.582,0.11
			c0.982-0.343,1.592-1.833,2.63-1.896c2.524-0.154,3.013,3.331,5.161,3.781c2.984,0.626,3.323-2.612,4.792-4.61
			c4.004-5.444,6.989-5.149,12.724-5.785c5.47-0.607,11.698-4.237,15.635-8.115c1.732-1.705,3.301-3.708,4.617-5.745"/>
	</g>
	<g id="POLYLINE_269_">
		
			<path fill="none" stroke="#FF6B6B" stroke-width="2.75" stroke-linecap="round" stroke-linejoin="round" stroke-miterlimit="10" d="
			M123.367,346.605c-2.156,1.813-1.548,6.569-2.129,8.881c-0.776,3.084-2.186,5.493-4.397,7.782
			c-3.248,3.364-7.444,6.154-11.573,8.311c-1.845,0.964-5.651,1.385-6.528,3.511c-0.69,1.673,1.016,6.104,0.919,8.199
			c-0.147,3.157-0.753,6.341-1.569,9.388c-0.181,0.675-1.343,2.637-1.003,3.535c0.837,2.207,5.004,2.101,6.91,2.728
			c3.89,1.28,7.92,4.88,11.947,5.167c2.365,0.169,3.433-0.846,4.899-2.628c5.988-7.274,9.731-15.07,16.936-21.505
			c9.17-8.19,20.198-13.727,31.313-18.775c13.669-6.209,27.786-11.161,41.716-16.724c10.987-4.389,21.581-10.02,32.981-13.319
			c9.038-2.615,18.111-2.649,27.429-3.217c14.289-0.871,28.517-4.147,42.589-6.562c25.984-4.458,52.136-7.033,76.459-17.928
			c12.053-5.399,22.904-12.814,34.677-18.683c8.253-4.114,17.879-4.546,26.635-7.306c5.488-1.73,11.512-5.396,17.279-5.709
			c1.476-0.08,2.664,0.744,4.111,0.152c6.725-2.752,6.578-16.581,5.956-22.193c-0.739-6.67-2.976-13.018-6.003-18.978
			c-3.79-7.462-8.686-17.298-15.202-22.701c-4.635-3.843-9.498-0.085-14.847,0.1c-5.202,0.179-10.251-1.846-15.574-1.713
			c-6.31,0.158-12.33-1.74-18.607-1.303c-11.037,0.768-24.264,4.443-32.607,12.062c-8.263,7.545-10.386,19.967-19.868,26.315
			c-9.234,6.182-20.932,8.728-30.809,13.809c-12.112,6.23-23.465,13.975-35.976,19.423c-12.116,5.276-25.023,9.97-37.951,12.79
			c-12.289,2.681-24.603,4.404-36.349,9.104c-26.99,10.799-49.16,31.024-75.985,42.476
			C134.082,343.255,128.243,344.249,123.367,346.605z"/>
	</g>
	<g id="POLYLINE_268_">
		
			<path fill="none" stroke="#FF6B6B" stroke-width="2.75" stroke-linecap="round" stroke-linejoin="round" stroke-miterlimit="10" d="
			M474.345,270.805c8.98,0.002,17.708-3.464,26.626-2.249c11.109,1.514,22.082,0.701,32.875-2.77"/>
	</g>
	<g id="POLYLINE_267_">
		
			<path fill="none" stroke="#FF6B6B" stroke-width="2.75" stroke-linecap="round" stroke-linejoin="round" stroke-miterlimit="10" d="
			M456.153,206.849c5.705-3.048,12.17-3.366,18.257-5.337c11.541-3.736,23.114-8.381,34.03-13.688"/>
	</g>
	<g id="POLYLINE_266_">
		
			<path fill="none" stroke="#FF6B6B" stroke-width="2.75" stroke-linecap="round" stroke-linejoin="round" stroke-miterlimit="10" d="
			M99.083,374.443c-3.394-11.21-4.26-27.231,10.849-26.953c4.616,0.085,8.341,0.923,12.946-0.279"/>
	</g>
</g>
<g id="AG-OUTLINE">
	<g id="POLYLINE_196_">
		
			<path fill="none" stroke="#FF6B6B" stroke-width="3.5" stroke-linecap="round" stroke-linejoin="round" stroke-miterlimit="10" d="
			M712.445,200.959c6.536,2.451,10.639-14.397,12.062-17.004c1.865-3.418,2.45-4.759,1.467-8.706
			c-1.084-4.352-2.487-8.337-3.301-12.741c-0.257-1.393-0.38-2.488-1.01-3.747c-0.661-1.32-1.868-2.266-2.459-3.649
			c-1.045-2.443-0.977-5.236-2.03-7.726c-1.68-3.974-4.731-8.602-8.928-10.25c-5.553-2.179-13.203,0.211-18.95,0.443
			c-2.136,0.086-4.874,1.276-6.972,0.702c-3.703-1.013-2.566-5.649-4.504-8.928c-1.157-1.958-2.472-1.873-3.934-3.32
			c-3.102-3.07-3.162-8.275-6.604-11.437c-2.32-2.132-5.23-2.51-8.328-2.392c-4.857,0.185-10.527,1.817-13.806,5.67
			c-2.783,3.269-2.217,6.932-3.228,10.893c-0.664,2.601-1.351,3.411-0.966,5.844c0.556,3.504,0.389,2.512-0.046,5.66
			c-0.646,4.672,1.291,5.589,4.838,7.136c4.073,1.776,4.231,1.077,8.448,0.694c1.358-0.124,2.756,0.421,4.148,0.333
			c0-0.276-5.104,2.873-5.409,3.136c-1.785,1.538-3.469,3.427-4.535,5.544c-3.005,5.968-2.961,8.396-9.418,11.193
			c-5.717,2.476-11.059,4.09-17.124,3.326c-1.716-0.216-3.561-0.565-5.514-0.554c-3.833,0.021-7.258-0.996-11.166-1.416
			c-17.205-1.85-35.341-2.206-52.551-0.207c-9.571,1.112-17.024,6.602-25.995,9.658c-3.613,1.231-5.614,1.293-8.193,3.429
			c-3.214,2.662-7.063,2.588-10.391,4.714c-0.226,0.145,0.381,0.536,0.394,0.57c-3.159,0-9.02,4.149-12.125,5.373
			c-5.904,2.326-11.835,4.61-17.78,6.832c-5.601,2.094-11.307,2.904-17.008,4.582c-2.363,0.695-4.337,1.629-6.52,1.776
			c-1.231,0.083-2.467-0.165-3.76-0.017c-3.007,0.343-5.833,1.777-8.9,1.775c-3.882-0.003-7.6-1.631-11.512-1.785
			c-8.549-0.335-17.627-2.061-26.11-0.78c-8.293,1.253-17.184,3.728-24.307,8.289c-8.65,5.539-11.349,14.183-17.042,22.244
			c-5.118,7.248-11.484,9.757-19.57,13.116c-17.986,7.47-34.021,18.007-51.593,26.236c-17.259,8.082-35.437,12.97-54.034,16.679
			c-18.382,3.666-34.279,11-50.025,21.087c-17.16,10.993-34.558,22.457-53.692,29.757c-4.608,1.758-10.628,4.42-15.522,4.975
			c-6.734,0.764-17.373-3.084-20.484,5.393c-3.721,10.14,1.723,20.121,1.191,30.114c-0.233,4.375-1.729,9.745-2.065,13.567
			c-0.44,5.009-4.351,10.766-3.43,16.217c0.783,4.628,5.23,9.12,9.049,11.463c5.246,3.218,15.307,4.268,20.838,2.525
			c3.043-0.959,5.442-4.7,3.308-7.626c-2.927-4.014-9.409-0.343-12.496-4.498c-1.147-1.545-1.044-2.644-0.835-4.564
			c0.416-3.823,1.465-4.869,3.695-6.507c3.484-2.559,4.965-5.611,7.565-9.566c7.827-11.904,18.844-20.635,31.359-27.255
			c18.012-9.528,37.336-15.785,56.107-23.539c13.37-5.523,26.463-12.626,40.968-14.649c7.629-1.064,15.366-0.732,23.019-1.568
			c10.588-1.158,21.101-3.322,31.586-5.14c18.95-3.285,38.205-5.341,56.866-10.117c18.819-4.816,35.777-13.557,52.45-23.317
			c12.572-7.36,26.059-8.628,39.706-13.347c3.509-1.213,7.301-3.532,11.057-3.795c1.097-0.077,2.182,0.558,3.253,0.421
			c0.789-0.101,1.382-0.63,2.065-0.762c3.068-0.59,6.846-0.666,10.23-1.206c5.585-0.892,10.75-2.433,16.422-1.742
			c5.612,0.683,10.53,1.318,16.206,0.703c7.317-0.793,14.122-2.162,20.712-4.133c3.031-0.907,5.864-1.117,8.903-0.08
			c5.833,1.991,8.992,3.76,15.412,2.591c7.252-1.321,15.458-4.351,21.202-9.018c2.325,25.597,6.716,51.596,5.05,77.31
			c-0.907,13.998-2.139,27.986-0.38,41.965c1.294,10.286,2.054,19.291,1.419,29.614c-0.483,7.839-0.644,11.916,6.108,16.422
			c3.576,2.387,7.132,3.26,11.4,3.367c12.822,0.321,25.816,0.054,38.657,0.16c4.579,0.038,11.387,1.383,15.703-0.258
			c0.433-0.165,1.247-0.01,1.621-0.364c0.666-0.63,0.792-0.869,0.719-1.813c-0.074-0.955-0.691-1.298-1.31-1.841
			c-1.356-1.189-5.211-1.179-7.021-1.486c-4.967-0.844-10.099-1.614-15.114-2.112c-4.944-0.491-8.546-2.48-13.344-3.649
			c-4.337-1.057-9.17-1.086-13.417-2.374c-2.573-0.78-4.806-2.694-5.549-5.369c-1.732-6.239,1.277-15.09,2.161-21.303
			c1.982-13.926,5.074-27.561,7.99-41.308c3.357-15.825-1.766-30.704-0.975-46.577c0.537-10.787-0.082-21.595,0.493-32.352
			c0.366-6.854,3.125-12.387,5.413-18.763c2.244-6.254,3.986-12.56,3.047-19.235c-0.576-4.094-1.857-8.07-2.853-12.068
			c-0.85-3.414-1.744-3.857,0.775-5.353c1.204-0.715,3.32-0.834,4.657-1.119c5.162-1.101,12.823-2.13,16.349,3.207
			c2.464,3.731,1.852,11.315,7.262,13.13c3.216,1.079,4.267-1.974,7.147-2.483c0.995-0.176,1.906,0.815,2.936,0.696
			c0.949-0.109,1.478-1.097,2.368-1.308c1.011-0.239,1.88,0.349,2.908,0c1.124-0.381,1.63-1.893,2.931-1.847
			c2.537,0.091,3.003,4.274,5.76,3.927c1.809-0.228,2.083-2.132,2.96-3.473c1.709-2.612,4.048-5.316,7.01-6.542
			c2.381-0.985,4.551-0.151,7.022-0.501c3.661-0.518,7.393-2.822,10.52-4.657C707.062,207.919,710.03,204.699,712.445,200.959z"/>
	</g>
	<g id="POLYLINE_195_">
		
			<path fill="none" stroke="#FF6B6B" stroke-width="3.5" stroke-linecap="round" stroke-linejoin="round" stroke-miterlimit="10" d="
			M1383.419,181.073c0.754,1.698,2.365,2.618,3.314,4.157c1.18,1.914,0.396,2.899,2.543,3.737c4.476,1.746,4.611-3.468,6.245-5.845
			c2.008-2.919,1.177-1.142,2.049-4.809c0.487-2.048,1.147-1.732,2.253-3.528c1.74-2.827,0.286-4.674,0.258-7.575
			c-0.038-3.923,0.236-8.424-0.63-12.397c-1.11-5.096-2.805-9.921-4.409-15.137c-0.6-1.95-1.621-3.694-2.057-5.663
			c-0.284-1.284,0.378-2.332-0.387-3.557c-1.086-1.74-3.617-1.626-4.864-3.225c-1.042-1.335-0.41-2.777-1.162-4.097
			c-0.812-1.426-2.566-1.814-3.409-3.303c-0.589-1.039-0.156-2.376-0.783-3.473c-2.402-4.209-4.124-1.521-7.093-1.891
			c-4.229-0.528-4.117-3.075-9.119-1.881c-4.569,1.09-2.724-0.203-6.233-3.204c-2.831-2.422-5.34-0.441-8.352,0.282
			c-2.25,0.541-4.373,1.879-6.642,2.187c-2.073,0.282-3.761-0.81-5.61,0.351c-1.336,0.839-1.915,2.595-3.382,3.534
			c-1.418,0.908-2.964,1.036-4.206,2.133c-0.603,0.533-0.587,1.608-1.238,2.168c-1.581,1.358-4.316,0.984-5.512,2.627
			c-0.945,1.298-0.282,3.482-1.344,4.997c-0.956,1.364-2.772,2.035-3.891,3.297c-1.681,1.896-2.317,4.436-3.793,6.455
			c-2.205,3.018-5.92,4.931-7.243,8.644c-0.876,2.457-1.057,6.471-2.427,8.628c-1.879,2.957-9.287,5.008-13.034,5.355
			c-3.147,0.292-7.229-0.92-10.426-1.211c-8.935-0.813-17.062-5.309-26.043-6.492c-10.729-1.414-22.275-1.956-32.89,0.621
			c-21.33,5.178-34.807,24.639-53.7,34.431c-4.166,2.159-5.882,3.436-8.831,6.509c-2.288,2.385-4.955,3.862-8.218,4.188
			c-2.856,0.285-4.4-0.337-6.791,1.222c-2.027,1.322-2.797,3.419-5.172,4.104c-2.392,0.69-5.065-0.639-7.355,0.658
			c-1.406,0.797-1.748,2.381-3.377,2.925c-1.375,0.46-3.055-0.278-4.469-0.161c-1.785,0.147-3.2,1.056-4.934,1.381
			c-2.452,0.46-4.23-0.739-6.666-0.696c-2.142,0.038-3.248,1.232-5.218,2.083c-3.492,1.507-6.739,0.427-10.371,0.917
			c-12.199,1.646-25.283,3.827-35.977,11.591c-7.152,5.193-12.694,12.907-18.419,19.543c-2.974,3.447-7.051,4.636-10.773,7.135
			c-7.537,5.06-16.944,8.653-25.658,12.148c-18.211,7.305-36.154,14.64-54.06,22.672c-15.68,7.033-30.946,9.962-47.92,11.929
			c-11.381,1.319-22.116,3.413-32.369,8.663c-15.768,8.075-30.567,17.774-46.745,25.113c-16.263,7.377-34.211,12.059-51.698,15.505
			c-8.232,1.622-23.787-2.869-28.346,6.995c-1.856,4.017-0.477,8.876,0.788,12.812c3.893,12.112,5.009,21.859,4.779,34.701
			c-0.118,6.551-0.742,12.623,2.788,18.274c1.811,2.899,3.588,7.493,6.889,9.121c4.218,2.08,11.172,0.402,15.688,0.553
			c2.658,0.089,6.026,0.602,8.377-1.028c2.451-1.7,2.801-3.812,0.468-5.489c-2.95-2.121-6.112-1.579-8.919-4.541
			c-2.365-2.496-3.371-5.404-3.235-8.881c0.3-7.65,5.046-16.329,9.044-22.644c4.707-7.434,12.14-11.926,19.88-15.725
			c16.35-8.026,33.535-10.53,51.335-13.272c16.123-2.483,30.842-8.358,46.558-12.314c12.666-3.188,25.948-2.508,38.718-5.343
			c8.746-1.942,16.466-6.703,25.184-8.37c13.867-2.651,28.239-1.222,42.253-1.957c15.646-0.82,31.107-3.893,45.869-9.145
			c0.412,2.367,2.117,1.42,3.566,0.963c3.589-1.133,7.105-4.511,10.693-6.068c3.323-1.442,6.812-2.596,10.405-3.122
			c10.811-1.582,18.72-0.723,27.584-8.098c3.593-2.99,7.193-7.267,11.834-8.115c3.733-0.683,7.067-0.932,10.863-2.157
			c4.571-1.474,9.065-2.617,13.882-2.83c6.003-0.265,12.552,0.742,18.475-0.726c2.271-0.563,4.23-1.571,6.558-1.91
			c2.451-0.357,4.913-0.068,7.189-1.186c2.089-1.026,3.429-3.152,5.547-4.131c2.18-1.008,4.55-0.733,6.886-0.946
			c4.963-0.452,8.606-3.674,13.523-4.655c5.128-1.023,10.085-1.848,14.673-4.51c3.478-2.018,5.9-3.699,9.695-4.86
			c3.702-1.133,4.511-1.972,6.703-5.096c0.418-0.595,0.614-1.515,0.78-2.212c0.938,10.643,3.052,21.921,2.695,32.606
			c-0.208,6.214-2.624,12.11-2.836,18.309c-0.131,3.813,0.784,7.581,0.593,11.394c-0.213,4.255-1.546,8.392-2.211,12.582
			c-1.442,9.09-0.7,18.493,0.447,27.571c1.697,13.425,5.404,26.471,7.227,39.877c0.835,6.144,0.367,16.233,4.075,21.897
			c5.298,8.092,22.049,4.22,29.254,4.155c13.184-0.118,26.306-0.009,39.453,0.591c1.848,0.084,4.931,0.491,6.526-0.935
			c1.802-1.611,1.454-3.389-0.121-4.974c-2.5-2.517-8.018-2.429-11.039-2.913c-7.485-1.199-14.413-4.727-22.046-4.8
			c-7.633-0.073-19.55-0.266-24.35-7.749c-2.89-4.505-2.436-11.224-2.443-16.272c-0.019-14.222,1.338-28.88,4.404-42.77
			c2.045-9.269,5.423-17.724,5.51-27.309c0.101-10.982-0.899-21.414,0.551-32.326c1.445-10.871,0.371-22.089,2.604-32.841
			c1.758-8.465,6.552-16.053,10.409-23.654c3.931-7.745,7.28-15.629,11.162-23.314c0.76-1.506,1.733-3.58,3.274-4.504
			c3.167-1.901,9.677-1.402,13.513-1.673c1.76-0.124,4.736-0.835,6.488-0.123c1.215,0.494,1.359,0.754,2.117,1.798
			c3.029,4.17,3.244,10.496,9.829,11.07c4.361,0.38,5.392-2.746,8.696-4.419c2.349-1.189,5.321-0.177,7.701-1.262
			c1.239-0.565,1.884-1.814,3.165-2.389c3.444-1.546,3.744,0.428,6.705,1.971c3.598,1.875,4.354,0.481,5.605-2.993
			c1.172-3.255,2.109-9.219,5.374-11.526c1.458-1.03,2.586-0.481,4.139-1.046c3.21-1.167,4.186-4.697,6.898-6.964
			C1378.047,183.869,1380.116,181.722,1383.419,181.073z"/>
	</g>
</g>
</svg>
