<?xml version="1.0" encoding="utf-8"?>
<!-- Generator: Adobe Illustrator 16.0.0, SVG Export Plug-In . SVG Version: 6.00 Build 0)  -->
<!DOCTYPE svg PUBLIC "-//W3C//DTD SVG 1.1//EN" "http://www.w3.org/Graphics/SVG/1.1/DTD/svg11.dtd" [
	<!ENTITY ns_flows "http://ns.adobe.com/Flows/1.0/">
	<!ENTITY ns_extend "http://ns.adobe.com/Extensibility/1.0/">
	<!ENTITY ns_ai "http://ns.adobe.com/AdobeIllustrator/10.0/">
	<!ENTITY ns_graphs "http://ns.adobe.com/Graphs/1.0/">
	<!ENTITY ns_vars "http://ns.adobe.com/Variables/1.0/">
	<!ENTITY ns_imrep "http://ns.adobe.com/ImageReplacement/1.0/">
	<!ENTITY ns_sfw "http://ns.adobe.com/SaveForWeb/1.0/">
	<!ENTITY ns_custom "http://ns.adobe.com/GenericCustomNamespace/1.0/">
	<!ENTITY ns_adobe_xpath "http://ns.adobe.com/XPath/1.0/">
]>
<svg version="1.1" xmlns:x="&ns_extend;" xmlns:i="&ns_ai;" xmlns:graph="&ns_graphs;"
	 xmlns="http://www.w3.org/2000/svg" xmlns:xlink="http://www.w3.org/1999/xlink" xmlns:a="http://ns.adobe.com/AdobeSVGViewerExtensions/3.0/"
	 x="0px" y="0px" width="750.002px" height="750px" viewBox="0 0 750.002 750" enable-background="new 0 0 750.002 750"
	 xml:space="preserve">
<metadata>
	<sfw  xmlns="&ns_sfw;">
		<slices></slices>
		<sliceSourceBounds  width="3448.368" height="2251.182" bottomLeftOrigin="true" x="-753.365" y="-1501.182"></sliceSourceBounds>
	</sfw>
</metadata>
<g id="FILL-BACKGROUND">
	<rect fill="#FFFFFF" width="750.002" height="750"/>
</g>
<g id="N-TEXT">
</g>
<g id="AG-GUIDE">
</g>
<g id="AG-DIAGRAM">
	<g id="POLYLINE_105_">
		<g>
			<g>
				
					<line fill="none" stroke="#FF6B6B" stroke-width="3" stroke-linecap="round" stroke-linejoin="round" x1="117.866" y1="661.375" x2="119.866" y2="661.375"/>
				
					<line fill="none" stroke="#FF6B6B" stroke-width="3" stroke-linecap="round" stroke-linejoin="round" stroke-dasharray="3.9877,6.9784" x1="126.845" y1="661.375" x2="627.794" y2="661.389"/>
				
					<line fill="none" stroke="#FF6B6B" stroke-width="3" stroke-linecap="round" stroke-linejoin="round" x1="631.283" y1="661.389" x2="633.283" y2="661.389"/>
			</g>
		</g>
	</g>
</g>
<g id="AG-PEOPLE">
	<g id="POLYLINE_75_">
		
			<path fill="none" stroke="#FF6B6B" stroke-width="2.75" stroke-linecap="round" stroke-linejoin="round" stroke-miterlimit="10" d="
			M369.389,237.017c0.121-8.607,0.088-17.203-0.378-25.801c-0.236-4.365-0.482-8.731-0.852-13.088
			c-0.382-4.504-0.637-9.076-1.43-13.531c-0.719-4.039-2.797-7.164-5.074-10.492c-1.422-2.08-2.427-3.977-2.588-6.516
			c-0.254-4.024-0.214-8.015-0.954-11.998c-0.776-4.179-1.964-8.288-2.995-12.409c-0.396-1.583-0.793-3.167-1.189-4.751"/>
	</g>
	<g id="POLYLINE_74_">
		
			<path fill="none" stroke="#FF6B6B" stroke-width="2.75" stroke-linecap="round" stroke-linejoin="round" stroke-miterlimit="10" d="
			M397.011,288.511c1.18-1.023,2.372-2.04,3.783-2.732c1.759-0.862,3.693-1.313,5.545-1.926c1.727-0.572,3.551-1.365,4.657-2.88
			c1.724-2.36,0.084-5.404-1.65-7.194c-0.827-0.854-1.789-1.624-2.433-2.637c-0.472-0.744-0.65-1.562-0.884-2.403
			c-0.184-0.661-0.398-1.186-0.882-1.679c-0.749-0.764-1.09-1.707-1.654-2.604c-0.72-1.144-1.787-1.932-2.721-2.889
			c-0.395-0.403-0.727-0.775-0.444-1.327c0.688-1.032,2.73-1.771,2.718-3.192c-0.65-2.273-3.362-3.086-5.008-4.56"/>
	</g>
	<g id="POLYLINE_73_">
		
			<path fill="none" stroke="#FF6B6B" stroke-width="2.75" stroke-linecap="round" stroke-linejoin="round" stroke-miterlimit="10" d="
			M330.423,269.926c-2.063-0.546-4.289-0.236-5.848,1.306c-0.454,0.45-0.808,1.008-1.054,1.596
			c-0.409,0.976-0.386,2.157-0.908,3.072c-0.767,1.345-2.942-0.393-3.847-0.678c-1.799-0.567-3.398,1.274-4.533,2.42
			c-2.688,2.714-3.152,6.764-1.178,10.086c0.979,1.646,2.429,2.282,4.229,2.674c0.592,0.128,1.501,0.214,1.875,0.777
			c0.382,0.592,0.168,1.461,0.266,2.119c0.283,1.914,2.152,3.283,3.68,4.229c2.066,1.277,4.735,2.477,7.244,2.148
			c2.377-0.312,3.615-2.266,5.317-3.714c1.169-0.994,2.334-0.505,3.684-0.97c0.832-0.287,1.592-0.854,2.222-1.457"/>
	</g>
	<g id="POLYLINE_72_">
		
			<path fill="none" stroke="#FF6B6B" stroke-width="2.75" stroke-linecap="round" stroke-linejoin="round" stroke-miterlimit="10" d="
			M372.044,285.421c-1.608-0.518-3.093-1.197-4.195-2.514c-1.238-1.479-2.015-3.381-2.402-5.256c-0.513-2.483-0.332-5.873,2.84-6.1
			c1.487-0.106,3.164,0.147,4.458,0.91"/>
	</g>
	<g id="POLYLINE_71_">
		
			<path fill="none" stroke="#FF6B6B" stroke-width="2.75" stroke-linecap="round" stroke-linejoin="round" stroke-miterlimit="10" d="
			M400.127,323.315c-2.036-3.871-3.705-7.859-5.138-11.988"/>
	</g>
	<g id="POLYLINE_70_">
		
			<path fill="none" stroke="#FF6B6B" stroke-width="2.75" stroke-linecap="round" stroke-linejoin="round" stroke-miterlimit="10" d="
			M386.483,338.874c1.942-3.371,3.749-6.769,5.069-10.437c1.352-3.755,2.124-7.756,2.707-11.694
			c1.238-8.371,1.976-16.853,2.539-25.294c0.609-9.132,1.146-18.249,1.329-27.399c0.079-3.987-0.025-7.979-0.089-11.965
			c-0.073-4.666-0.006-9.359-0.249-14.021c-0.441-8.468-2.434-16.893-4.417-25.111c-2.158-8.941-4.448-17.846-6.866-26.722
			c-1.09-4.003-2.355-7.964-3.365-11.987c-0.477-1.896-0.912-3.834-1.016-5.792c-0.09-1.702,0.134-3.302,0.433-4.975
			c1.326-7.411-0.385-15.381-3.829-22.006c-1.943-3.737-4.332-7.201-6.555-10.772c-1.108-1.781-2.104-3.64-3.237-5.402
			c-0.388-0.603-0.827-1.188-1.386-1.644c-0.819-0.669-2.504-1.484-3.475-0.666c-0.417,0.417-0.559,0.808-1.127,0.403
			c-0.584-0.416-0.963-1.26-1.272-1.871c-0.776-1.531-1.359-3.199-2.318-4.632c-0.378-0.565-0.845-1.098-1.509-1.317
			c-1.039-0.345-2.499-0.036-3.127,0.895c-0.463,0.686-0.539,0.799-1.27,0.262c-0.676-0.496-1.317-1.08-2.144-1.315
			c-0.919-0.262-2.556-0.108-3.147,0.773c-0.836,1.015,0.794,2.715,0.771,3.789c-0.014,0.648-0.46,0.776-0.908,1.146
			c-0.491,0.368-0.589,0.965-0.614,1.546c-0.121,2.784,1.297,5.557,2.544,7.941c1.933,3.694,3.818,7.274,5.286,11.188
			c1.521,4.057,3.24,7.883,5.252,11.722c0.918,1.751,1.861,3.505,2.987,5.134c1.076,1.559,2.337,3.004,3.299,4.639
			c1.754,2.982,2.117,6.706,2.556,10.07c0.594,4.555,1.029,9.123,1.44,13.697c0.72,8.014,0.881,16.037,0.627,24.077
			c-0.29,9.167-0.867,18.399-0.416,27.571c0.215,4.361,0.824,8.689,1.237,13.034c0.412,4.341,0.537,8.7,0.575,13.06
			c0.076,8.449,0.025,17.125-1.393,25.475c-0.632,3.72-1.563,7.484-3.434,10.794c-0.945,1.673-2.186,3.163-3.047,4.886
			c-0.663,1.326-1.072,2.75-1.38,4.195c-0.822,3.86-0.68,7.895-1.603,11.721c-0.397,1.645-1.246,3.113-2.013,4.606
			c-0.89,1.731-1.551,3.527-2.08,5.397c-0.522,1.852-0.909,3.74-1.297,5.623c-0.388,1.885-0.941,3.806-1.097,5.73
			c-0.281,3.488,0.894,7.172,1.88,10.471c0.897,3.007,1.793,5.983,2.354,9.074c0.629,3.464,1.286,6.91,2.006,10.355"/>
	</g>
	<g id="POLYLINE_68_">
		
			<path fill="none" stroke="#FF6B6B" stroke-width="2.75" stroke-linecap="round" stroke-linejoin="round" stroke-miterlimit="10" d="
			M214.995,578.587c-3.694,2.396-7.418,4.741-10.979,7.333c-2.94,2.14-5.755,4.448-8.538,6.787
			c-7.237,6.081-14.373,12.324-21.829,18.139c-3.579,2.791-7.261,5.367-11.059,7.849c-2.461,1.607-5.349,3.171-7.028,5.668
			c-1.33,1.977-1.831,4.367-3.553,6.09c-2.482,2.481-5.904,3.663-8.47,6.018c-3.558,3.265-3.483,9.302-1.053,13.217
			c3.902,6.287,12.332,5.949,18.627,7.685c3.167,0.873,5.803,2.946,8.934,3.867c3.124,0.92,6.505,0.333,9.685,0.141
			c4.14-0.251,8.353-0.05,12.502-0.086c2.053-0.018,4.082,0.056,6.128,0.235c1.357,0.119,2.762,0.308,4.12,0.099
			c2.439-0.375,3.912-4.121,1.878-5.823c-0.915-0.766-2.237-1.059-3.34-1.407c-1.289-0.407-2.625-0.801-3.754-1.569
			c-2.081-1.417-3.071-3.875-4.905-5.547c-2.68-2.442-6.374-3.606-9.568-5.185c-1.728-0.853-4.841-2.089-5.397-4.223
			c-0.396-1.515,0.821-3.131,1.623-4.266c2.276-3.22,5.115-5.999,8.269-8.356c6.779-5.07,14.873-8.217,22.625-11.458
			c5.937-2.482,11.865-4.98,17.797-7.475"/>
	</g>
	<g id="POLYLINE_63_">
		
			<path fill="none" stroke="#FF6B6B" stroke-width="2.75" stroke-linecap="round" stroke-linejoin="round" stroke-miterlimit="10" d="
			M348.873,460.627c-0.494,1.921,0.413,4.423,1.263,6.113c1.354,2.692,3.757,4.636,6.055,6.495
			c6.922,5.601,13.723,11.702,21.572,16.006c3.276,1.797,6.756,3.403,10.434,4.17c4.129,0.861,8.3,0.74,12.451,0.113
			c7.693-1.162,15.229-3.445,20.848-9.071c2.807-2.81,5.178-6.119,7.039-9.624c1.738-3.27,3.185-6.839,3.526-10.557
			c0.284-3.097-0.683-5.62-1.713-8.497c-1.279-3.572-1.739-7.374-2.033-11.14c-0.323-4.153-0.344-8.31,0.169-12.449
			c0.519-4.189,1.465-8.318,2.565-12.39c1.106-4.091,2.514-8.059,4.029-12.012c1.22-3.178,1.707-6.274,1.525-9.669
			c-0.206-3.859-0.826-7.757-0.222-11.608c0.585-3.731,1.99-7.285,1.99-11.103c0-7.973-4.33-15.104-8.781-21.408
			c-2.574-3.643-5.348-7.146-8.095-10.659c-2.333-2.982-4.775-5.96-7.676-8.415c-3.111-2.634-6.737-4.667-9.673-7.502
			c-1.286-1.242-2.373-2.666-3.641-3.922c-0.745-0.736-0.035,0.793,0.075,1.025c1.773,3.75,3.786,7.357,5.069,11.32
			c1.174,3.621,1.805,7.422,1.75,11.232c-0.119,8.293-3.729,16.4-10.306,21.537c-3.015,2.354-6.478,4.137-9.94,5.73
			c-3.462,1.594-7.008,3.228-10.769,3.973c-2.434,0.481-5.003,0.6-7.367-0.264c-1.349-0.492-2.573-1.275-3.711-2.141
			c-0.816-0.62-1.586-1.298-2.365-1.963c-0.233-0.199-0.683-0.717-1.021-0.771c-0.609-0.305-0.287,0.92-0.244,1.145
			c0.445,2.304,1.109,4.58,1.671,6.856c0.963,3.909,1.51,7.934,2.64,11.798c0.391,1.334,0.901,2.653,1.668,3.82
			c0.756,1.148,1.735,2.168,2.362,3.396c1.133,2.22-0.058,4.734-0.375,7.009c-0.507,3.625,0.463,7.137,0.911,10.717
			c0.142,1.127,0.219,2.271,0.045,3.399c-0.228,1.479-0.848,2.85-1.229,4.288c-0.535,2.016-0.731,4.115-1.085,6.167
			c-0.357,2.075-0.972,4.087-1.735,6.047c-1.454,3.734-3.394,7.334-5.921,10.452c-2.182,2.692-4.597,5.208-7.001,7.699
			c-1.143,1.185-2.29,2.386-3.537,3.461C349.69,459.779,349.004,460.069,348.873,460.627z"/>
	</g>
	<g id="POLYLINE_62_">
		
			<path fill="none" stroke="#FF6B6B" stroke-width="2.75" stroke-linecap="round" stroke-linejoin="round" stroke-miterlimit="10" d="
			M365.429,277.572c-0.316,0.88-0.625,1.661-0.625,2.608c0,1.527,0.333,3.062,0.673,4.545c0.392,1.708,0.978,3.277,1.642,4.888
			c0.309,0.75,0.358,1.469,0.304,2.278c-0.314,4.674-1.336,10.391-5.876,12.887c-2.025,1.115-4.637,1.111-6.883,1.084
			c-2.239-0.027-4.494-0.405-6.34-1.754c-2.558-1.869-4.338-4.752-5.583-7.618c-1.686-3.876-2.808-7.935-4.777-11.695
			c-1.979-3.781-4.288-7.388-6.107-11.252c-1.247-2.646-2.22-5.492-2.187-8.448c0.037-3.379,1.301-6.661,2.803-9.641
			c1.66-3.294,3.742-6.533,6.759-8.736c3.278-2.394,7.038-4.271,10.614-6.168c3.072-1.631,6.135-3.387,9.644-3.812
			c3.755-0.455,7.763-0.325,11.437,0.615"/>
	</g>
	<g id="POLYLINE_30_">
		
			<path fill="none" stroke="#FF6B6B" stroke-width="2.75" stroke-linecap="round" stroke-linejoin="round" stroke-miterlimit="10" d="
			M358.448,305.642c2.257,1.378,4.01,3.618,4.789,6.161"/>
	</g>
	<g id="POLYLINE_29_">
		
			<path fill="none" stroke="#FF6B6B" stroke-width="2.75" stroke-linecap="round" stroke-linejoin="round" stroke-miterlimit="10" d="
			M348.798,461.196c-1.274,1.011-2.509,1.983-3.502,3.284c-1.147,1.503-2.056,3.204-2.895,4.894
			c-1.752,3.525-3.306,7.237-4.183,11.086c-0.732,3.216-1.007,6.105-2.945,8.854c-2.433,3.448-5.673,6.393-8.595,9.412
			c-5.692,5.881-11.279,11.916-16.534,18.194c-5.895,7.043-11.577,14.375-17.957,20.995c-5.891,6.113-12.445,11.661-19.242,16.74
			c-3.259,2.436-6.565,4.662-10.461,5.942c-4.169,1.37-8.609,1.966-12.907,2.771c-8.045,1.51-16.179,3.596-23.67,6.947
			c-3.372,1.509-7.031,3.204-9.799,5.707c-1.265,1.144-1.268,2.294-0.833,3.891c2.064,7.587,4.139,15.773,8.668,22.322
			c0.845,1.223,1.767,2.44,2.887,3.427c0.479,0.422,1.048,0.881,1.707,0.949c0.681,0,1.263-0.232,1.874-0.526
			c1.857-0.893,3.586-2.044,5.397-3.023c7.482-4.048,15.759-6.597,23.748-9.432c4.23-1.502,8.428-3.016,12.83-3.946
			c4.315-0.912,8.662-1.662,12.938-2.752c8.092-2.062,15.668-5.78,22.848-9.978c7.52-4.396,14.648-9.441,21.594-14.688
			c6.835-5.163,13.25-10.89,20.391-15.643c7.271-4.84,14.974-9.125,21.875-14.496c6.583-5.124,12.28-11.682,19.642-15.738
			c2.339-1.289,4.84-2.161,7.528-2.161c3.298,0,6.426,1.672,9.374,2.944c7.567,3.267,15.646,4.873,23.741,6.234
			c8.78,1.477,17.597,3.181,26.521,3.386c8.498,0.195,16.791-1.727,25.115-3.139c8.416-1.427,16.996-2.233,25.541-1.904
			c1.493,0.058,3.148,0.051,4.582,0.542c0.471,0.161,0.916,0.369,0.928,0.918c0,0.291-0.152,0.604-0.257,0.867
			c-0.407,1.031-0.814,2.06-1.186,3.104c-0.653,1.842-1.132,3.758-1.483,5.678c-0.748,4.077-1.106,8.241-1.301,12.379
			c-0.199,4.254-0.326,8.539-0.045,12.793c0.132,1.979,0.374,3.938,0.732,5.888c0.279,1.52,0.443,3.145,0.986,4.6
			c0.441,1.181,1.206,1.86,2.463,2.05c1.389,0.209,2.837,0.043,4.231-0.026c2.189-0.11,4.379-0.229,6.56-0.459
			c4.162-0.438,8.235-1.235,12.237-2.469c1.901-0.586,3.79-1.242,5.604-2.063c0.595-0.271,1.029-0.574,1.278-1.193
			c0.553-1.375,0.59-3.044,0.737-4.499c0.153-1.518,0.267-3.036,0.367-4.558c0.647-9.836,1.323-19.641,2.248-29.453
			c0.738-7.832,1.797-16.119,0.303-23.918c-0.584-3.049-1.688-6.001-3.724-8.386c-2.291-2.684-5.462-4.491-8.621-5.966
			c-3.093-1.443-6.27-2.678-9.47-3.861c-5.591-2.066-11.182-4.134-16.772-6.2c-7.553-2.793-15.084-5.724-22.901-7.708
			c-8.224-2.088-16.698-3.207-25.097-4.337c-8.825-1.187-17.651-2.498-26.52-3.34c-1.095-0.104-2.189-0.208-3.285-0.312"/>
	</g>
	<g id="POLYLINE_16_">
		
			<path fill="none" stroke="#FF6B6B" stroke-width="2.75" stroke-linecap="round" stroke-linejoin="round" stroke-miterlimit="10" d="
			M513.384,569.968c1.164,9,2.328,18.001,3.493,27.001c1.104,8.543,1.595,17.181,1.729,25.789c0.064,4.151-0.017,8.342-0.438,12.474
			c-0.191,1.88-0.47,3.761-0.968,5.587c-0.508,1.863-1.371,3.542-2.24,5.258c-1.802,3.56-1.998,8.498,0.492,11.827
			c1.02,1.362,2.498,2.177,4.11,2.642c3.341,0.963,7.081,0.867,10.515,0.604c4.221-0.325,8.363-1.25,12.588-1.535
			c4.242-0.286,8.523-0.251,12.77-0.051c4.314,0.204,8.562,0.759,12.849,1.26c4.399,0.515,8.821,0.516,13.243,0.585
			c3.187,0.049,6.736,0.534,9.844-0.357c1.424-0.408,2.803-1.214,3.501-2.576c1.92-3.745-4.846-5.308-7.031-6.02
			c-8.266-2.693-16.493-5.754-24.505-9.131c-7-2.951-15.354-6.247-18.666-13.66c-1.687-3.771-2.269-7.941-2.686-12.019
			c-0.433-4.226-0.652-8.465-0.728-12.711c-0.159-8.925,0.887-17.751,1.865-26.604c0.484-4.376,0.816-8.753,1.104-13.146"/>
	</g>
</g>
<g id="AG-OUTLINE">
	<g id="POLYLINE_1_">
		
			<path fill="none" stroke="#FF6B6B" stroke-width="3.5" stroke-linecap="round" stroke-linejoin="round" stroke-miterlimit="10" d="
			M513.384,569.968c1.164,9,2.328,18.001,3.493,27.001c1.104,8.543,1.595,17.181,1.729,25.789c0.064,4.151-0.017,8.342-0.438,12.474
			c-0.191,1.88-0.47,3.761-0.968,5.587c-0.508,1.863-1.371,3.542-2.24,5.258c-1.802,3.56-1.998,8.498,0.492,11.827
			c1.02,1.362,2.498,2.177,4.11,2.642c3.341,0.963,7.081,0.867,10.515,0.604c4.221-0.325,8.363-1.25,12.588-1.535
			c4.242-0.286,8.523-0.251,12.77-0.051c4.314,0.204,8.562,0.759,12.849,1.26c4.399,0.515,8.821,0.516,13.243,0.585
			c3.187,0.049,6.736,0.534,9.844-0.357c1.424-0.408,2.803-1.214,3.501-2.576c1.92-3.745-4.846-5.308-7.031-6.02
			c-8.266-2.693-16.493-5.754-24.505-9.131c-7-2.951-15.354-6.247-18.666-13.66c-1.687-3.771-2.269-7.941-2.686-12.019
			c-0.433-4.226-0.652-8.465-0.728-12.711c-0.159-8.925,0.887-17.751,1.865-26.604c0.463-4.188,0.792-8.375,1.066-12.579
			c0.045-0.684,0.556-1.076,0.754-1.763c0.468-1.623,0.55-3.388,0.71-5.061c0.793-8.317,0.98-16.686,1.765-25.005
			c0.846-8.969,2.158-18.125,1.619-27.155c-0.211-3.526-0.719-7.134-2.343-10.316c-1.341-2.631-3.438-4.706-5.894-6.313
			c-3.53-2.311-7.519-3.891-11.436-5.416c-3.837-1.493-7.727-2.864-11.589-4.292c-8.413-3.11-16.801-6.53-25.399-9.112
			c-8.491-2.55-17.147-3.924-25.904-5.187c-8.845-1.276-17.702-2.448-26.574-3.514c-1.874-0.225-3.752-0.413-5.63-0.591
			c-0.659-0.062-1.318-0.126-1.977-0.188c-0.334-0.031-0.243-0.473-0.281-0.777c-0.078-0.616-0.232-1.228-0.409-1.822
			c-0.537-1.804-1.363-3.509-1.854-5.329c-0.487-1.811-0.812-3.652-1.052-5.512c-0.529-4.077-0.737-8.211-0.555-12.318
			c0.184-4.13,0.951-8.221,1.883-12.239c0.95-4.093,2.121-8.154,3.557-12.104c1.223-3.362,2.803-6.67,3.035-10.292
			c0.248-3.872-0.513-7.731-0.492-11.603c0.021-3.889,1.377-7.483,1.996-11.28c1.252-7.663-2.248-15.007-6.292-21.278
			c-2.401-3.723-5.127-7.221-7.824-10.73c-2.458-3.197-4.914-6.444-7.739-9.33c-2.799-2.859-6.071-5.081-9.277-7.445
			c-2.548-1.879-4.67-4.328-6.848-6.506c-0.005,0.012-0.009,0.023-0.011,0.036c0-0.314-0.504-0.953-0.662-1.263
			c-0.221-0.433-0.441-0.865-0.652-1.302c-0.433-0.897-0.862-1.797-1.257-2.712c-0.844-1.959-1.611-3.949-2.311-5.965
			c-0.372-1.073-0.098-2.071,0.024-3.196c0.1-0.919,0.195-1.839,0.281-2.759c0.202-2.177,0.412-4.352,0.594-6.529
			c0.187-2.239,0.375-4.479,0.542-6.719c0.104-1.387,0.207-2.772,0.31-4.158c0.043-0.568,1.3-1.293,1.755-1.643
			c2.843-2.184,6.431-2.459,9.574-4c2.526-1.24,3.919-3.282,3.09-6.103c-0.596-2.032-2.361-3.362-3.737-4.847
			c-0.445-0.48-0.842-1.008-1.109-1.609c-0.372-0.835-0.433-1.777-0.815-2.604c-0.296-0.639-0.888-1.038-1.264-1.623
			c-0.584-0.909-0.949-1.901-1.669-2.726c-0.557-0.637-1.206-1.193-1.825-1.767c-0.246-0.229-0.61-0.526-0.729-0.854
			c-0.214-0.474,0.168-0.866,0.481-1.183c0.816-0.822,2.788-1.814,2.15-3.271c-0.263-0.602-0.816-1.08-1.327-1.467
			c-0.718-0.543-1.509-0.982-2.246-1.498c-0.232-0.162-1.283-0.775-1.288-1.06c-0.068-4.521-0.065-9.048-0.216-13.565
			c-0.142-4.217-0.77-8.375-1.552-12.514c-1.614-8.536-3.713-16.978-5.865-25.392c-2.216-8.667-4.707-17.248-7.036-25.883
			c-0.924-3.424-1.645-6.949-1.012-10.487c0.696-3.895,0.804-7.635,0.176-11.553c-0.612-3.819-1.773-7.456-3.472-10.93
			c-1.91-3.906-4.396-7.524-6.729-11.183c-1.071-1.681-2.052-3.407-3.07-5.12c-0.432-0.727-0.9-1.44-1.527-2.014
			c-0.777-0.709-2.415-1.596-3.47-0.971c-0.465,0.287-0.561,0.931-1.174,0.649c-0.494-0.314-0.82-0.888-1.1-1.385
			c-0.895-1.598-1.462-3.385-2.451-4.931c-0.383-0.598-0.796-1.211-1.464-1.518c-0.969-0.443-2.544-0.225-3.232,0.631
			c-0.423,0.528-0.407,1.049-1.13,0.627c-0.751-0.438-1.321-1.104-2.15-1.42c-0.963-0.366-2.499-0.259-3.26,0.526
			c-1.024,0.995,0.537,2.741,0.621,3.808c0.04,0.512-0.165,0.78-0.567,1.077c-0.579,0.428-0.846,0.729-0.928,1.475
			c-0.276,2.509,0.987,5.255,2.1,7.403c1.807,3.49,3.934,6.785,4.894,10.623c1.117,4.462,2.358,8.916,3.331,13.412
			c0.875,4.044,1.135,8.105,1.249,12.23c0.071,2.551,0.424,4.628,1.809,6.793c2.069,3.232,4.576,6.213,5.549,10.005
			c1.034,4.032,1.211,8.345,1.562,12.479c0.757,8.924,1.275,17.858,1.492,26.812c0.12,4.957,0.044,9.918-0.025,14.877
			c-3.518-0.646-7.341-0.757-10.867-0.132c-3.353,0.595-6.395,2.419-9.343,4.028c-3.637,1.983-7.65,3.822-10.844,6.5
			c-2.876,2.412-4.861,5.855-6.431,9.219c-1.986,4.258-2.883,8.715-1.481,13.294c-2.063-0.546-4.289-0.236-5.848,1.306
			c-0.454,0.45-0.808,1.008-1.054,1.596c-0.409,0.976-0.386,2.157-0.908,3.072c-0.767,1.345-2.942-0.393-3.847-0.678
			c-1.799-0.567-3.398,1.274-4.533,2.42c-2.688,2.714-3.152,6.764-1.178,10.086c0.979,1.646,2.429,2.282,4.229,2.674
			c0.592,0.128,1.501,0.214,1.875,0.777c0.382,0.592,0.168,1.461,0.266,2.119c0.283,1.914,2.152,3.283,3.68,4.229
			c2.066,1.277,4.735,2.477,7.244,2.148c2.377-0.312,3.615-2.266,5.317-3.714c1.169-0.994,2.334-0.505,3.684-0.97
			c0.832-0.287,1.592-0.854,2.222-1.457c1.874,5.062,4.758,11.207,10.698,12.146c1.768,0.279,3.589,0.213,5.364,0.04
			c0.609-0.06,0.821-0.085,1.326,0.244c0.213,0.14,0.424,0.284,0.625,0.439c0.297,0.229,0.574,0.482,0.84,0.747
			c0.873,0.873,1.592,1.958,2.143,3.058c0.254,0.505,0.728,1.23,0.636,1.808c-0.161,1.01-0.284,2.023-0.403,3.038
			c-0.393,3.354-0.421,6.659-1.992,9.716c-0.975,1.896-1.912,3.758-2.57,5.793c-0.62,1.915-1.058,3.899-1.464,5.87
			c-0.715,3.47-1.649,6.667-1.114,10.206c0.637,4.215,2.143,8.193,3.209,12.303c1.118,4.307,1.696,8.76,2.606,13.115
			c0.187,0.889,0.041,1.523,0.242,2.438c0.513,2.331,1.13,4.643,1.7,6.96c0.96,3.896,1.459,7.929,2.644,11.764
			c0.409,1.326,0.943,2.596,1.714,3.754c0.736,1.107,1.694,2.093,2.283,3.295c1.098,2.241-0.119,4.851-0.44,7.131
			c-0.51,3.618,0.531,7.198,0.969,10.769c0.13,1.062,0.199,2.184-0.001,3.243c-0.286,1.511-0.892,2.922-1.269,4.408
			c-0.509,2.006-0.679,4.084-1.059,6.115c-0.387,2.067-0.978,4.085-1.767,6.036c-1.503,3.72-3.399,7.29-5.944,10.405
			c-2.669,3.266-5.617,6.364-8.618,9.325c-0.662,0.652-1.322,1.319-2.043,1.906c-0.283,0.23-0.686,0.418-0.887,0.729
			c-0.156,0.22-0.096,0.469-0.19,0.696c-0.266,0.636-1.28,1.154-1.842,1.644c-2.622,2.282-4.241,5.795-5.619,8.914
			c-1.661,3.764-2.893,7.521-3.651,11.563c-0.254,1.349-0.53,2.682-1.104,3.936c-0.672,1.472-1.681,2.771-2.709,4.007
			c-2.934,3.529-6.324,6.719-9.512,10.012c-2.892,2.987-5.658,6.099-8.438,9.189c-6.084,6.767-11.828,13.836-17.667,20.812
			c-5.239,6.26-11.046,11.935-17.312,17.163c-6.294,5.251-12.701,10.917-20.811,12.992c-4.232,1.083-8.582,1.707-12.864,2.556
			c-4.113,0.814-8.183,1.882-12.188,3.112c-3.948,1.213-7.852,2.655-11.555,4.491c-1.805,0.894-3.57,1.863-5.253,2.971
			c-0.967,0.636-2.06,1.321-2.781,2.249c-0.364,0.469-0.491,0.937-0.532,1.516c-0.012,0.172,0.094,0.382-0.062,0.482
			c-0.408,0.265-0.816,0.529-1.225,0.794c-1.315,0.854-2.632,1.706-3.947,2.56c-3.484,2.259-6.828,4.688-10.079,7.271
			c-6.767,5.377-13.214,11.15-19.896,16.631c-3.489,2.86-6.978,5.727-10.63,8.38c-3.46,2.514-7.194,4.633-10.626,7.182
			c-0.998,0.74-1.97,1.57-2.714,2.574c-0.84,1.133-1.334,2.459-1.937,3.723c-1.133,2.376-3.078,3.941-5.279,5.328
			c-2.368,1.493-5.162,2.803-6.619,5.324c-1.154,1.997-1.341,4.497-1.036,6.741c0.374,2.753,1.625,5.253,3.769,7.046
			c2.545,2.128,5.828,3.079,9.024,3.702c3.787,0.738,7.61,1.171,11.102,2.916c2.719,1.359,5.106,2.706,8.188,2.884
			c1.984,0.113,3.993-0.122,5.969-0.27c2.055-0.154,4.108-0.11,6.166-0.079c3.984,0.061,8.001-0.28,11.976,0.069
			c1.896,0.167,4.918,0.926,6.689-0.263c1.18-0.792,1.692-2.705,1.369-4.042c-0.35-1.447-1.847-1.976-3.124-2.393
			c-2.461-0.805-4.726-1.408-6.444-3.44c-1.012-1.196-1.793-2.577-2.912-3.684c-1.039-1.027-2.286-1.814-3.57-2.498
			c-3.275-1.744-6.994-2.869-9.987-5.107c-1.143-0.854-2.088-1.923-1.719-3.42c0.202-0.819,0.675-1.562,1.127-2.262
			c1.025-1.586,2.233-3.065,3.531-4.436c5.669-5.979,13.09-9.694,20.528-12.992c8.258-3.661,16.668-7.017,24.994-10.518
			c0.263-0.11,0.956,0.281,1.344,0.24c0.953-0.101,1.91-0.727,2.714-1.179c3.711-2.084,7.362-4.092,11.31-5.708
			c4.371-1.79,8.845-3.318,13.29-4.91c3.82-1.367,7.622-2.826,11.518-3.967c4.267-1.249,8.684-1.977,13.036-2.853
			c3.954-0.797,7.844-1.901,11.62-3.316c7.848-2.942,15.242-7.159,22.242-11.735c7.062-4.617,13.861-9.605,20.459-14.864
			c3.699-2.948,7.355-5.956,11.176-8.748c3.211-2.348,6.557-4.497,9.909-6.635c4.015-2.561,8.086-5.051,11.998-7.769
			c3.285-2.282,6.379-4.791,9.381-7.433c3.418-3.009,6.767-6.119,10.462-8.789c2.591-1.872,5.452-3.588,8.617-4.239
			c2.515-0.518,4.96-0.075,7.341,0.796c3.834,1.404,7.441,3.293,11.37,4.459c8.32,2.471,16.976,3.739,25.528,5.116
			c8.532,1.373,17.067,2.493,25.716,1.627c8.547-0.855,16.889-3.068,25.427-3.987c4.192-0.451,8.401-0.691,12.617-0.75
			c2.139-0.03,4.288-0.051,6.423,0.112c1.054,0.08,2.435,0.088,3.394,0.621c0.461,0.256,0.569,0.54,0.468,1.034
			c-0.343,1.668-1.306,3.289-1.795,4.936c-1.159,3.903-1.714,7.939-2.049,11.99c-0.701,8.458-0.859,16.896,0.68,25.265
			C512.04,567.042,512.21,569.001,513.384,569.968z"/>
	</g>
</g>
</svg>
