<?xml version="1.0" encoding="utf-8"?>
<!-- Generator: Adobe Illustrator 16.0.0, SVG Export Plug-In . SVG Version: 6.00 Build 0)  -->
<!DOCTYPE svg PUBLIC "-//W3C//DTD SVG 1.1//EN" "http://www.w3.org/Graphics/SVG/1.1/DTD/svg11.dtd" [
	<!ENTITY ns_flows "http://ns.adobe.com/Flows/1.0/">
	<!ENTITY ns_extend "http://ns.adobe.com/Extensibility/1.0/">
	<!ENTITY ns_ai "http://ns.adobe.com/AdobeIllustrator/10.0/">
	<!ENTITY ns_graphs "http://ns.adobe.com/Graphs/1.0/">
	<!ENTITY ns_vars "http://ns.adobe.com/Variables/1.0/">
	<!ENTITY ns_imrep "http://ns.adobe.com/ImageReplacement/1.0/">
	<!ENTITY ns_sfw "http://ns.adobe.com/SaveForWeb/1.0/">
	<!ENTITY ns_custom "http://ns.adobe.com/GenericCustomNamespace/1.0/">
	<!ENTITY ns_adobe_xpath "http://ns.adobe.com/XPath/1.0/">
]>
<svg version="1.1" xmlns:x="&ns_extend;" xmlns:i="&ns_ai;" xmlns:graph="&ns_graphs;"
	 xmlns="http://www.w3.org/2000/svg" xmlns:xlink="http://www.w3.org/1999/xlink" xmlns:a="http://ns.adobe.com/AdobeSVGViewerExtensions/3.0/"
	 x="0px" y="0px" width="1124.999px" height="750px" viewBox="0 0 1124.999 750" enable-background="new 0 0 1124.999 750"
	 xml:space="preserve">
<metadata>
	<sfw  xmlns="&ns_sfw;">
		<slices></slices>
		<sliceSourceBounds  width="3448.368" height="2251.182" bottomLeftOrigin="true" x="-753.365" y="-1501.182"></sliceSourceBounds>
	</sfw>
</metadata>
<g id="FILL-BACKGROUND">
	<rect fill="#FFFFFF" width="1124.999" height="750"/>
</g>
<g id="N-TEXT">
</g>
<g id="AG-GUIDE">
</g>
<g id="AG-DIAGRAM">
	<g id="POLYLINE_60_">
		<g>
			<g>
				
					<line fill="none" stroke="#FF6B6B" stroke-width="3" stroke-linecap="round" stroke-linejoin="round" x1="85.973" y1="662.007" x2="87.973" y2="662.007"/>
				
					<line fill="none" stroke="#FF6B6B" stroke-width="3" stroke-linecap="round" stroke-linejoin="round" stroke-dasharray="4.0107,7.0188" x1="94.991" y1="662.007" x2="1017.963" y2="662.007"/>
				
					<line fill="none" stroke="#FF6B6B" stroke-width="3" stroke-linecap="round" stroke-linejoin="round" x1="1021.473" y1="662.007" x2="1023.473" y2="662.007"/>
			</g>
		</g>
	</g>
	<g>
		<g id="POLYLINE_32_">
			<g>
				<g>
					
						<line fill="none" stroke="#FF6B6B" stroke-width="2" stroke-linecap="round" stroke-linejoin="round" x1="365.045" y1="481.176" x2="365.045" y2="479.676"/>
					
						<line fill="none" stroke="#FF6B6B" stroke-width="2" stroke-linecap="round" stroke-linejoin="round" stroke-dasharray="2.9715,4.9525" x1="365.045" y1="474.724" x2="365.045" y2="136.467"/>
					
						<line fill="none" stroke="#FF6B6B" stroke-width="2" stroke-linecap="round" stroke-linejoin="round" x1="365.045" y1="133.991" x2="365.045" y2="132.491"/>
				</g>
			</g>
		</g>
		<g id="POLYLINE_33_">
			<g>
				<g>
					
						<line fill="none" stroke="#FF6B6B" stroke-width="2" stroke-linecap="round" stroke-linejoin="round" x1="81" y1="679.86" x2="82.229" y2="679.001"/>
					
						<line fill="none" stroke="#FF6B6B" stroke-width="2" stroke-linecap="round" stroke-linejoin="round" stroke-dasharray="3.0232,5.0387" x1="86.358" y1="676.112" x2="361.752" y2="483.479"/>
					<polyline fill="none" stroke="#FF6B6B" stroke-width="2" stroke-linecap="round" stroke-linejoin="round" points="
						363.816,482.035 365.045,481.176 365.045,482.676 					"/>
					
						<line fill="none" stroke="#FF6B6B" stroke-width="2" stroke-linecap="round" stroke-linejoin="round" stroke-dasharray="2.9899,4.9832" x1="365.045" y1="487.659" x2="365.045" y2="548.952"/>
					
						<line fill="none" stroke="#FF6B6B" stroke-width="2" stroke-linecap="round" stroke-linejoin="round" x1="365.045" y1="551.443" x2="365.045" y2="552.943"/>
				</g>
			</g>
			<g id="MTEXT_2_">
				<g>
					<g>
						<path fill="#FF6B6B" d="M311.504,576.454c-0.064-0.064-0.098-0.147-0.098-0.247v-2.19h-4.875c-0.1,0-0.183-0.032-0.247-0.098
							c-0.065-0.064-0.098-0.147-0.098-0.247v-0.555c0-0.141,0.055-0.291,0.165-0.45l4.515-6.36c0.051-0.08,0.125-0.143,0.226-0.188
							c0.1-0.045,0.21-0.067,0.33-0.067h1.02c0.11,0,0.195,0.03,0.255,0.09c0.061,0.06,0.091,0.146,0.091,0.255v6.36h1.364
							c0.101,0,0.183,0.032,0.248,0.098c0.064,0.065,0.098,0.147,0.098,0.247v0.57c0,0.1-0.033,0.183-0.098,0.247
							c-0.065,0.065-0.147,0.098-0.248,0.098h-1.364v2.19c0,0.1-0.033,0.183-0.098,0.247c-0.065,0.065-0.147,0.098-0.248,0.098
							h-0.689C311.651,576.552,311.569,576.52,311.504,576.454z M307.747,572.787h3.675v-5.221L307.747,572.787z"/>
						<path fill="#FF6B6B" d="M317.406,576.297c-0.55-0.271-0.97-0.623-1.26-1.058s-0.445-0.902-0.465-1.402v-0.03
							c0-0.08,0.029-0.145,0.09-0.195c0.06-0.05,0.13-0.074,0.21-0.074h0.734c0.21,0,0.346,0.109,0.405,0.33
							c0.15,0.54,0.428,0.942,0.833,1.207c0.404,0.265,0.872,0.397,1.402,0.397c0.68,0,1.245-0.207,1.694-0.622
							c0.45-0.415,0.676-0.987,0.676-1.718c0-0.67-0.226-1.202-0.676-1.598c-0.449-0.396-1.015-0.593-1.694-0.593
							c-0.36,0-0.65,0.045-0.87,0.135c-0.22,0.091-0.445,0.221-0.675,0.391c-0.131,0.1-0.238,0.172-0.323,0.217
							c-0.085,0.046-0.177,0.068-0.277,0.068h-0.72c-0.09,0-0.17-0.033-0.24-0.098s-0.1-0.143-0.09-0.232l0.465-4.995
							c0.03-0.25,0.155-0.375,0.375-0.375h5.19c0.109,0,0.194,0.03,0.255,0.09c0.06,0.06,0.09,0.146,0.09,0.255v0.555
							c0,0.101-0.032,0.181-0.098,0.24c-0.064,0.061-0.147,0.09-0.247,0.09h-4.32l-0.27,3.016c0.479-0.34,1.125-0.51,1.935-0.51
							c0.67,0,1.28,0.133,1.83,0.396c0.55,0.266,0.987,0.653,1.312,1.163c0.325,0.511,0.487,1.115,0.487,1.815
							c0,0.74-0.162,1.377-0.487,1.912s-0.775,0.94-1.35,1.215c-0.575,0.275-1.233,0.413-1.973,0.413
							C318.606,576.702,317.956,576.566,317.406,576.297z"/>
						<path fill="#FF6B6B" d="M325.664,569.854c-0.336-0.185-0.601-0.44-0.796-0.765c-0.194-0.325-0.292-0.684-0.292-1.073
							c0-0.399,0.098-0.76,0.292-1.08c0.195-0.319,0.46-0.572,0.796-0.757c0.334-0.186,0.702-0.277,1.102-0.277
							c0.4,0,0.768,0.092,1.103,0.277c0.335,0.185,0.601,0.438,0.796,0.757c0.194,0.32,0.292,0.681,0.292,1.08
							c0,0.39-0.098,0.748-0.292,1.073c-0.195,0.324-0.461,0.58-0.796,0.765s-0.702,0.277-1.103,0.277
							C326.366,570.132,325.998,570.039,325.664,569.854z M327.591,568.842c0.21-0.21,0.315-0.484,0.315-0.825
							c0-0.34-0.105-0.614-0.315-0.825c-0.21-0.209-0.485-0.314-0.825-0.314s-0.614,0.105-0.824,0.314
							c-0.21,0.211-0.315,0.485-0.315,0.825c0,0.341,0.105,0.615,0.315,0.825s0.484,0.314,0.824,0.314
							S327.381,569.052,327.591,568.842z"/>
						<path fill="#FF6B6B" d="M330.81,572.562c-0.065-0.06-0.098-0.14-0.098-0.239v-0.541c0-0.1,0.032-0.182,0.098-0.247
							c0.064-0.065,0.147-0.098,0.247-0.098h4.5c0.1,0,0.183,0.032,0.248,0.098c0.064,0.065,0.097,0.147,0.097,0.247v0.541
							c0,0.1-0.032,0.18-0.097,0.239c-0.065,0.06-0.148,0.091-0.248,0.091h-4.5C330.957,572.652,330.874,572.621,330.81,572.562z"/>
						<path fill="#FF6B6B" d="M339.464,576.214c-0.585-0.324-1.03-0.762-1.335-1.312c-0.305-0.55-0.457-1.149-0.457-1.8
							c0-0.859,0.345-1.779,1.034-2.76l2.865-3.99c0.01-0.01,0.038-0.045,0.083-0.105c0.045-0.06,0.103-0.106,0.172-0.142
							c0.07-0.035,0.15-0.053,0.24-0.053h0.735c0.09,0,0.162,0.032,0.217,0.098c0.056,0.065,0.083,0.143,0.083,0.232
							c0,0.05-0.025,0.115-0.075,0.194l-2.189,3.061c0.26-0.061,0.55-0.09,0.869-0.09c0.73,0,1.373,0.162,1.928,0.487
							c0.556,0.325,0.985,0.755,1.29,1.29s0.458,1.123,0.458,1.763s-0.153,1.237-0.458,1.792c-0.305,0.556-0.747,0.998-1.327,1.328
							s-1.266,0.495-2.055,0.495C340.741,576.702,340.049,576.539,339.464,576.214z M342.741,575.187
							c0.37-0.18,0.665-0.447,0.886-0.803c0.22-0.354,0.329-0.782,0.329-1.282c0-0.49-0.112-0.912-0.337-1.268
							c-0.226-0.354-0.522-0.625-0.893-0.81s-0.771-0.278-1.2-0.278s-0.83,0.094-1.2,0.278s-0.665,0.455-0.885,0.81
							c-0.22,0.355-0.33,0.777-0.33,1.268c0,0.5,0.11,0.928,0.33,1.282c0.22,0.355,0.515,0.623,0.885,0.803
							c0.37,0.181,0.771,0.271,1.2,0.271C341.967,575.457,342.371,575.367,342.741,575.187z"/>
						<path fill="#FF6B6B" d="M347.849,575.569c-0.595-0.755-0.912-1.742-0.952-2.962l-0.015-1.291l0.015-1.334
							c0.03-1.211,0.348-2.193,0.952-2.948c0.605-0.755,1.548-1.132,2.828-1.132c1.29,0,2.237,0.377,2.842,1.132
							c0.605,0.755,0.923,1.737,0.953,2.948c0.01,0.279,0.015,0.725,0.015,1.334c0,0.59-0.005,1.021-0.015,1.291
							c-0.04,1.22-0.357,2.207-0.953,2.962c-0.595,0.755-1.542,1.133-2.842,1.133C349.387,576.702,348.444,576.324,347.849,575.569z
							 M352.417,574.691c0.39-0.51,0.595-1.229,0.614-2.16c0.01-0.289,0.016-0.705,0.016-1.244c0-0.551-0.006-0.961-0.016-1.23
							c-0.02-0.92-0.228-1.637-0.622-2.152c-0.396-0.516-0.973-0.772-1.732-0.772c-0.761,0-1.335,0.257-1.726,0.772
							c-0.39,0.516-0.595,1.232-0.614,2.152l-0.016,1.23l0.016,1.244c0.02,0.931,0.225,1.65,0.614,2.16
							c0.391,0.511,0.965,0.766,1.726,0.766C351.446,575.457,352.026,575.202,352.417,574.691z"/>
						<path fill="#FF6B6B" d="M357.224,569.854c-0.336-0.185-0.601-0.44-0.796-0.765c-0.194-0.325-0.292-0.684-0.292-1.073
							c0-0.399,0.098-0.76,0.292-1.08c0.195-0.319,0.46-0.572,0.796-0.757c0.334-0.186,0.702-0.277,1.102-0.277
							c0.4,0,0.768,0.092,1.103,0.277c0.335,0.185,0.601,0.438,0.796,0.757c0.194,0.32,0.292,0.681,0.292,1.08
							c0,0.39-0.098,0.748-0.292,1.073c-0.195,0.324-0.461,0.58-0.796,0.765s-0.702,0.277-1.103,0.277
							C357.926,570.132,357.558,570.039,357.224,569.854z M359.15,568.842c0.21-0.21,0.315-0.484,0.315-0.825
							c0-0.34-0.105-0.614-0.315-0.825c-0.21-0.209-0.485-0.314-0.825-0.314s-0.614,0.105-0.824,0.314
							c-0.21,0.211-0.315,0.485-0.315,0.825c0,0.341,0.105,0.615,0.315,0.825s0.484,0.314,0.824,0.314
							S358.94,569.052,359.15,568.842z"/>
					</g>
				</g>
			</g>
			<g>
				<g id="POLYLINE_20_">
					<g>
						<path fill="none" d="M357.077,554.926"/>
					</g>
				</g>
				<g id="POLYLINE_19_">
					
						<line fill="none" stroke="#FF6B6B" stroke-width="2" stroke-linecap="round" stroke-linejoin="round" stroke-miterlimit="10" x1="310.201" y1="530.363" x2="317.232" y2="530.245"/>
					
						<line fill="none" stroke="#FF6B6B" stroke-width="2" stroke-linecap="round" stroke-linejoin="round" stroke-miterlimit="10" x1="310.319" y1="537.39" x2="310.201" y2="530.363"/>
				</g>
				<g id="POLYLINE_18_">
					
						<line fill="none" stroke="#FF6B6B" stroke-width="2" stroke-linecap="round" stroke-linejoin="round" stroke-miterlimit="10" x1="356.853" y1="552.943" x2="351.425" y2="557.416"/>
					
						<line fill="none" stroke="#FF6B6B" stroke-width="2" stroke-linecap="round" stroke-linejoin="round" stroke-miterlimit="10" x1="352.383" y1="547.516" x2="356.853" y2="552.943"/>
				</g>
				<g>
					<path fill="none" d="M352.622,552.466"/>
				</g>
				<g>
					<g>
						<path fill="none" stroke="#FF6B6B" stroke-width="2" stroke-linecap="round" stroke-linejoin="round" d="M311.457,531.946
							c0.354,0.356,0.709,0.708,1.063,1.057"/>
						
							<path fill="none" stroke="#FF6B6B" stroke-width="2" stroke-linecap="round" stroke-linejoin="round" stroke-dasharray="3.1285,5.2141" d="
							M316.318,536.574c8.701,7.757,18.345,13.218,35.11,15.812"/>
						<path fill="none" stroke="#FF6B6B" stroke-width="2" stroke-linecap="round" stroke-linejoin="round" d="M354.012,552.757
							c0.49,0.064,0.986,0.127,1.488,0.187"/>
					</g>
				</g>
			</g>
		</g>
		<g id="POLYLINE_35_">
			<g>
				<g>
					
						<line fill="none" stroke="#FF6B6B" stroke-width="2" stroke-linecap="round" stroke-linejoin="round" x1="365.045" y1="481.176" x2="366.545" y2="481.176"/>
					
						<line fill="none" stroke="#FF6B6B" stroke-width="2" stroke-linecap="round" stroke-linejoin="round" stroke-dasharray="2.9892,4.982" x1="371.527" y1="481.176" x2="496.575" y2="481.176"/>
					<polyline fill="none" stroke="#FF6B6B" stroke-width="2" stroke-linecap="round" stroke-linejoin="round" points="
						499.066,481.176 500.566,481.176 500.566,482.676 					"/>
					
						<line fill="none" stroke="#FF6B6B" stroke-width="2" stroke-linecap="round" stroke-linejoin="round" stroke-dasharray="2.98,4.9666" x1="500.566" y1="487.643" x2="500.566" y2="675.877"/>
					
						<line fill="none" stroke="#FF6B6B" stroke-width="2" stroke-linecap="round" stroke-linejoin="round" x1="500.566" y1="678.36" x2="500.566" y2="679.86"/>
				</g>
			</g>
		</g>
		<g id="POLYLINE_21_">
			
				<line fill="none" stroke="#FF6B6B" stroke-width="2" stroke-linecap="round" stroke-linejoin="round" stroke-miterlimit="10" x1="365.032" y1="130" x2="370.018" y2="134.961"/>
			
				<line fill="none" stroke="#FF6B6B" stroke-width="2" stroke-linecap="round" stroke-linejoin="round" stroke-miterlimit="10" x1="360.073" y1="134.982" x2="365.032" y2="130"/>
		</g>
		<g id="POLYLINE_15_">
			
				<line fill="none" stroke="#FF6B6B" stroke-width="2" stroke-linecap="round" stroke-linejoin="round" stroke-miterlimit="10" x1="500.58" y1="682.352" x2="495.594" y2="677.391"/>
			
				<line fill="none" stroke="#FF6B6B" stroke-width="2" stroke-linecap="round" stroke-linejoin="round" stroke-miterlimit="10" x1="505.539" y1="677.369" x2="500.58" y2="682.352"/>
		</g>
		<g id="POLYLINE_17_">
			
				<line fill="none" stroke="#FF6B6B" stroke-width="2" stroke-linecap="round" stroke-linejoin="round" stroke-miterlimit="10" x1="79.735" y1="680.96" x2="80.826" y2="674.011"/>
			
				<line fill="none" stroke="#FF6B6B" stroke-width="2" stroke-linecap="round" stroke-linejoin="round" stroke-miterlimit="10" x1="86.68" y1="682.051" x2="79.735" y2="680.96"/>
		</g>
	</g>
</g>
<g id="AG-PEOPLE">
	<g id="POLYLINE_145_">
		
			<path fill="none" stroke="#FF6B6B" stroke-width="2.75" stroke-linecap="round" stroke-linejoin="round" stroke-miterlimit="10" d="
			M817.267,439.576c0.901-1.607,1.816-3.195,2.341-4.975c0.551-1.868,0.815-3.807,1.005-5.741c0.415-4.235,0.342-8.528,0.015-12.766
			c-0.654-8.487-2.967-16.755-4.981-24.991c-2.127-8.694-4.387-17.369-5.896-26.198c-0.677-3.966-1.031-8.033-0.751-12.054
			c0.136-1.945,0.444-3.894,0.378-5.849c-0.062-1.825-0.46-3.61-0.919-5.372c-1.061-4.073-2.217-8.095-2.867-12.26
			c-0.631-4.035-1.043-8.131-0.959-12.219c0.039-1.907,0.232-3.802,0.663-5.662c0.464-2.004,1.081-3.962,1.433-5.991
			c0.327-1.885,0.527-3.803,0.581-5.716c0.033-1.201-0.021-2.459,0.314-3.629c0.62-2.174,2.717-3.526,4.051-5.223
			c0.82-1.045,1.309-2.251,1.8-3.473c0.789-1.957,1.599-3.906,2.5-5.814c3.655-7.742,7.758-15.468,12.942-22.308
			c1.105-1.458,2.302-2.846,3.612-4.124c1.337-1.303,2.761-2.562,3.842-4.097c2.05-2.909,2.757-6.636,4.086-9.888
			c1.582-3.869,3.855-7.402,5.638-11.176c1.769-3.747,2.639-7.6,2.909-11.727c0.288-4.398,0.549-8.788,1.172-13.154
			c0.605-4.246,1.521-8.418,2.64-12.557c2.214-8.192,5.586-16.138,7.139-24.498c0.822-4.426,1.089-8.938,1.488-13.415
			c0.369-4.138,0.675-8.31,0.658-12.466c-0.012-2.825-0.145-5.838-1.442-8.409c-1.453-2.878-4.348-4.815-6.586-7.029
			c-2.881-2.851-5.732-5.981-7.665-9.569c-0.89-1.65-1.534-3.434-2.6-4.987c-1.008-1.47-2.337-2.687-3.524-4.004
			c-0.831-0.923-2.096-2.3-1.717-3.68c0.39-1.365,2.028-1.317,3.142-1.043c1.089,0.269,2.136,1.171,3.231,1.258
			c0.561,0.044,0.587-0.279,0.514-0.774c-0.207-1.396-0.933-2.765-1.464-4.057c-0.845-2.051-1.683-4.096-2.4-6.195
			c-0.62-1.816-1.148-3.675-1.519-5.559c-0.237-1.211-0.491-2.582-0.239-3.812c0.098-0.476,0.283-0.941,0.665-1.262
			c0.544-0.455,1.42-0.346,1.924-0.783c0.516-0.36,0.004-1.164-0.099-1.623c-0.172-0.772-0.211-1.65,0.064-2.404
			c0.298-0.814,1.034-1.387,1.893-1.496c1.056-0.134,1.801,0.559,2.381,1.371c0.244,0.342,1.447,2.867,1.983,2.764
			c0.217-0.096,0.143-1.479,0.324-1.846c0.4-0.809,1.407-1.338,2.301-1.145c0.531,0.113,0.983,0.476,1.358,0.851
			c1.126,1.126,2,2.545,2.826,3.896c0.286,0.467,0.982,2.449,1.719,2.232c0.604-0.32,0.839-1.141,1.535-1.357
			c1.158-0.404,2.353,1.172,2.91,1.918c2.474,3.305,3.692,7.397,6.011,10.816c1.098,1.619,2.417,2.971,3.939,4.189
			c1.239,0.993,2.52,1.965,3.527,3.205c1.147,1.41,1.947,3.062,2.772,4.672c0.894,1.742,1.961,3.414,2.739,5.211
			c1.108,2.56,1.113,5.336,0.935,8.079c-0.291,4.476-0.422,8.778,0.12,13.243c0.555,4.567,1.335,9.114,2.011,13.664
			c1.225,8.256,1.787,16.649,1.851,24.991c0.067,8.659-0.457,17.289-1.533,25.88c-1.077,8.609-2.683,17.154-4.746,25.581
			c-2.026,8.279-4.996,16.271-7.303,24.468c-1.214,4.31-2.209,8.805-3.94,12.947c-1.496,3.578-3.863,6.679-6.205,9.737
			c-4.884,6.38-10.1,12.839-12.072,20.798c-0.796,3.211-1.065,6.508-1.05,9.809"/>
	</g>
	<g id="POLYLINE_144_">
		
			<path fill="none" stroke="#FF6B6B" stroke-width="2.75" stroke-linecap="round" stroke-linejoin="round" stroke-miterlimit="10" d="
			M826.829,262.246c-2.267-1.504-3.928-3.567-4.73-6.182c-0.496-1.615-0.945-3.65-0.37-5.315c0.881-2.546,4.739-3.911,6.917-2.224
			c1.33,1.031,2.093,2.733,1.984,4.398"/>
	</g>
	<g id="POLYLINE_143_">
		
			<path fill="none" stroke="#FF6B6B" stroke-width="2.75" stroke-linecap="round" stroke-linejoin="round" stroke-miterlimit="10" d="
			M851.755,287.203c1.147-0.79,2.301-1.545,3.626-2.003c1.732-0.598,3.586-0.74,5.371-1.104c1.62-0.332,3.465-0.759,4.592-2.082
			c0.903-1.062,1.104-2.536,1.135-3.883c0.073-3.345-0.994-6.49-1.94-9.652"/>
	</g>
	<g id="POLYLINE_142_">
		
			<path fill="none" stroke="#FF6B6B" stroke-width="2.75" stroke-linecap="round" stroke-linejoin="round" stroke-miterlimit="10" d="
			M813.797,286.643c-4.844-7.314-9.979-14.518-14.339-22.139c-3.863-6.753-6.249-14.639-5.487-22.475
			c0.362-3.722,1.446-7.451,3.506-10.599c2.221-3.394,5.555-5.863,9.123-7.698c6.776-3.483,14.58-5.262,22.184-5.345
			c5.829-0.063,12.696,0.816,16.155,6.093c0.807,1.23,1.422,2.595,1.868,3.994"/>
	</g>
	<g id="POLYLINE_141_">
		
			<path fill="none" stroke="#FF6B6B" stroke-width="2.75" stroke-linecap="round" stroke-linejoin="round" stroke-miterlimit="10" d="
			M855.832,285.057c5.364,6.795,10.151,13.959,14.357,21.528c4.064,7.313,7.668,14.951,9.992,23.009
			c1.091,3.783,1.855,7.671,2.152,11.6c0.322,4.254,0.057,8.52,0.115,12.779c0.058,4.189,0.641,8.252,1.661,12.312
			c1.031,4.102,2.593,8.03,3.829,12.068c1.105,3.61,1.749,7.245,1.805,11.026c0.062,4.185-0.438,8.377-1.129,12.498
			c-0.762,4.539-1.836,9.017-2.852,13.504c-0.842,3.721-1.722,7.511-1.862,11.337c-0.146,3.984,0.293,7.872-0.7,11.788
			c-0.98,3.864-2.574,7.606-4.291,11.195c-0.896,1.873-1.791,3.769-2.833,5.566c-0.448,0.771-0.923,1.527-1.575,2.144
			c-1.258,1.189-2.984,1.857-4.652,2.216c-3.021,0.648-6.109,0.203-9.053-0.614c-3.531-0.981-6.96-2.401-10.292-3.917
			c-8.474-3.853-17.002-7.603-25.421-11.573c-1.868-0.881-3.779-1.733-5.537-2.823c-0.668-0.414-1.368-1.127-2.212-1.127
			c-0.696,0-1.434,0.385-2.036,0.689c-1.918,0.971-3.675,2.271-5.453,3.468c-3.055,2.058-6.418,3.55-9.043,6.199
			c-2.763,2.789-4.81,6.29-6.635,9.735c-1.939,3.659-3.644,7.53-4.769,11.522c-1.049,3.719-0.978,7.538-1.69,11.308
			c-0.474,2.506-2.188,4.576-3.724,6.529c-2.195,2.791-4.568,5.457-6.995,8.048c-7.062,7.542-14.125,15.084-21.188,22.626
			c-1.067,1.14-2.153,2.264-3.232,3.393c-1.046,1.094-2.259,2.167-3.095,3.441c-0.927,1.413-0.453,2.596,0.604,3.809
			c2.567,2.944,5.84,5.254,8.696,7.905c3.202,2.972,6.354,5.993,9.821,8.659c3.369,2.591,7.065,4.78,10.806,6.785
			c3.579,1.918,7.331,4.062,11.228,5.257c1.332,0.408,2.657,0.515,3.984,0.039c1.188-0.426,2.263-1.167,3.294-1.877
			c1.635-1.125,3.239-2.293,4.831-3.478c7.137-5.316,14.47-10.454,20.785-16.761c6.138-6.129,11.086-13.289,17.025-19.59
			c5.756-6.105,13.04-10.272,19.48-15.569c2.508-2.062,4.993-4.188,7.278-6.496c2.19-2.214,4.009-4.564,5.715-7.167"/>
	</g>
	<g id="POLYLINE_140_">
		
			<path fill="none" stroke="#FF6B6B" stroke-width="2.75" stroke-linecap="round" stroke-linejoin="round" stroke-miterlimit="10" d="
			M878.192,451.188c8.633,1.199,17.259,2.726,25.691,4.953c8.315,2.196,16.157,5.724,23.916,9.381
			c3.801,1.791,7.727,3.54,11.319,5.727c1.06,0.645,3.199,1.808,3.309,3.305c0.116,1.601-2.42,2.7-3.376,3.455
			c-2.589,2.045-4.555,4.809-6.463,7.468c-3.154,4.396-6.309,8.792-9.463,13.188c-2.146,2.988-4.292,5.991-5.951,9.286
			c-1.648,3.273-3.336,6.836-3.86,10.501c-0.177,1.239,0.522,3.231-0.944,3.789c-1.263,0.479-2.829,0.387-4.147,0.365
			c-2.085-0.034-4.168-0.198-6.247-0.348c-4.095-0.294-8.186-0.6-12.219-1.398c-8.444-1.673-16.408-5.234-24.663-7.597
			c-5.533-1.583-10.986-2.58-16.738-2.884"/>
	</g>
	<g id="POLYLINE_139_">
		
			<path fill="none" stroke="#FF6B6B" stroke-width="2.75" stroke-linecap="round" stroke-linejoin="round" stroke-miterlimit="10" d="
			M861.724,292.925c2.383-3.267,4.511-6.804,5.648-10.71c1.186-4.068,1.443-8.348,2.3-12.488c1.748-8.455,5.554-16.401,6.896-24.933
			c0.601-3.82,0.652-7.747,0.428-11.601"/>
	</g>
	<g id="POLYLINE_138_">
		
			<path fill="none" stroke="#FF6B6B" stroke-width="2.75" stroke-linecap="round" stroke-linejoin="round" stroke-miterlimit="10" d="
			M843.567,111.906c0.253,1.936,0.56,3.861,1.096,5.74c0.572,2.008,1.438,3.898,2.285,5.801c1.13,2.537,1.486,5.297,3.579,7.262
			c3.619,3.4,7.295,6.789,11.518,9.43"/>
	</g>
	<g id="POLYLINE_137_">
		
			<path fill="none" stroke="#FF6B6B" stroke-width="2.75" stroke-linecap="round" stroke-linejoin="round" stroke-miterlimit="10" d="
			M749.014,528.645c-5.589,6.697-11.028,13.623-17.322,19.684c-2.806,2.701-5.884,5.039-9.4,6.731
			c-3.629,1.747-7.676,2.595-11.635,3.184c-8.266,1.229-16.653,1.387-24.658,4.021c-7.41,2.438-14.211,6.366-20.646,10.724
			c-7.683,5.203-15.36,10.39-23.188,15.372c-7.478,4.761-14.794,9.744-22.215,14.59c-3.675,2.399-7.48,4.54-11.247,6.788
			c-2.209,1.318-4.567,2.686-5.905,4.961c-0.542,0.922-1.053,1.789-1.954,2.398c-1.354,0.914-2.91,1.491-4.334,2.282
			c-2.917,1.619-5.612,3.876-7.492,6.652c-0.98,1.451-1.787,3.133-1.746,4.923c0.048,2.051,1.155,3.905,2.446,5.43
			c2.476,2.925,5.651,5.153,8.729,7.39c4.128,3,8.255,6,12.382,9c2.896,2.105,5.823,4.256,9.067,5.799
			c3.363,1.601,6.952,2.497,10.622,3.062c4.019,0.619,8.11,0.44,12.159,0.381c2.081-0.031,4.168-0.099,6.249-0.027
			c2.153,0.074,4.351,0.257,6.504,0.064c2.389-0.214,7.197-1.305,5.404-4.855c-0.896-1.773-3.496-2.282-5.207-2.691
			c-4.033-0.965-7.827-1.908-11.318-4.229c-3.27-2.175-6.603-4.037-9.069-7.159c-1.227-1.553-2.383-3.155-3.679-4.652
			c-1.334-1.54-2.766-3.046-3.919-4.732c-0.935-1.366-1.445-2.724-0.556-4.232c0.441-0.749,0.885-1.317,1.016-2.185
			c0.146-0.97,0.202-1.82,0.728-2.677c1.573-2.563,4.688-4.226,7.23-5.632c3.715-2.056,7.611-3.778,11.532-5.4
			c8.182-3.384,16.563-6.246,25.009-8.896c8.292-2.603,16.743-4.659,25.051-7.209c3.931-1.207,7.608-2.877,11.428-4.371
			c3.89-1.521,8.095-2.021,12.185-2.726c8.353-1.438,16.71-3.046,24.81-5.578c3.171-0.992,6.563-2.116,9.131-4.307
			c0.956-0.815,1.771-1.855,2.854-2.514c1.035-0.63,2.19-0.977,3.351-1.303c3.88-1.089,7.592-2.282,11.203-4.104
			c3.695-1.864,7.263-3.979,10.687-6.306c3.177-2.158,6.229-4.479,9.137-6.986"/>
	</g>
	<g id="POLYLINE_136_">
		
			<path fill="none" stroke="#FF6B6B" stroke-width="2.75" stroke-linecap="round" stroke-linejoin="round" stroke-miterlimit="10" d="
			M913.203,521.486c8.312-0.556,16.886,0.179,24.866,2.657c1.685,0.523,3.443,1.06,4.983,1.938c0.496,0.282,1.058,0.632,1.336,1.153
			c0.741,1.391-1.023,3.46-1.59,4.517c-3.943,7.363-5.748,15.257-6.604,23.52c-0.907,8.75-0.799,17.5-0.716,26.282
			c0.081,8.531-0.537,17.056-1.699,25.505c-1.116,8.118-3.043,16.114-5.397,23.956c-1.4,4.664-2.833,9.319-4.188,13.996
			c-0.911,3.146-2.206,6.656-1.8,9.985c0.639,5.237,7.141,6.454,11.419,6.671c4.396,0.223,8.796-0.205,13.177-0.507
			c4.161-0.286,8.327-0.563,12.498-0.624c8.421-0.122,16.784,0.946,25.196,1.114c2.593,0.051,5.187,0.103,7.779,0.154
			c1.831,0.036,3.678,0.269,5.51,0.138c1.425-0.102,2.775-0.545,3.741-1.642c0.684-0.777,1.26-1.937,0.754-2.952
			c-0.729-1.465-2.922-2.068-4.314-2.486c-4.031-1.211-8.217-1.787-12.239-3.055c-4.361-1.375-8.603-3.17-12.866-4.812
			c-3.421-1.318-7.144-2.421-10.124-4.623c-2.888-2.133-4.828-5.358-6.054-8.688c-2.577-7.002-2.387-14.43-0.806-21.642
			c1.934-8.813,5.493-17.185,8.761-25.561c3.011-7.718,5.897-15.493,8.32-23.419c1.284-4.198,2.556-8.405,3.49-12.699
			c0.821-3.773,0.949-7.748,2.641-11.274c0.843-1.756,1.854-3.428,2.595-5.233c0.637-1.552,1.014-3.171,1.26-4.826
			c0.335-2.259,0.448-4.552,0.63-6.826c0.172-2.156,0.486-4.298,0.77-6.441c0.444-3.366,0.525-6.757-0.765-9.952
			c-1.302-3.229-3.513-6.146-6.162-8.389c-3.229-2.736-6.934-4.996-10.408-7.408c-3.59-2.492-7.217-4.929-10.954-7.197
			c-4.542-2.757-9.156-5.371-13.836-7.887"/>
	</g>
	<g id="POLYLINE_135_">
		
			<path fill="none" stroke="#FF6B6B" stroke-width="2.75" stroke-linecap="round" stroke-linejoin="round" stroke-miterlimit="10" d="
			M337.495,237.648c0.118-8.607,0.087-17.202-0.379-25.801c-0.236-4.365-0.48-8.731-0.849-13.088
			c-0.381-4.498-0.611-9.086-1.429-13.531c-0.745-4.045-2.791-7.151-5.077-10.492c-1.429-2.088-2.409-3.973-2.585-6.516
			c-0.279-4.025-0.218-8.011-0.957-11.998c-0.774-4.179-1.961-8.289-2.994-12.409c-0.397-1.583-0.794-3.167-1.191-4.751"/>
	</g>
	<g id="POLYLINE_134_">
		
			<path fill="none" stroke="#FF6B6B" stroke-width="2.75" stroke-linecap="round" stroke-linejoin="round" stroke-miterlimit="10" d="
			M365.117,289.143c1.177-1.025,2.373-2.041,3.784-2.732c1.758-0.862,3.691-1.313,5.542-1.926c1.728-0.572,3.553-1.364,4.659-2.88
			c1.773-2.428,0.005-5.484-1.756-7.301c-0.801-0.826-1.735-1.573-2.349-2.562c-0.469-0.757-0.649-1.595-0.881-2.446
			c-0.195-0.717-0.474-1.207-0.994-1.736c-0.703-0.717-1.025-1.678-1.553-2.517c-0.712-1.131-1.783-1.942-2.721-2.873
			c-0.402-0.398-0.693-0.782-0.401-1.319c0.706-0.996,2.775-1.803,2.698-3.226c0-0.636-0.595-1.23-1.027-1.623
			c-1.211-1.103-2.749-1.782-3.976-2.881"/>
	</g>
	<g id="POLYLINE_133_">
		
			<path fill="none" stroke="#FF6B6B" stroke-width="2.75" stroke-linecap="round" stroke-linejoin="round" stroke-miterlimit="10" d="
			M298.53,270.558c-2.004-0.532-4.249-0.267-5.777,1.235c-0.472,0.464-0.856,1.023-1.113,1.634
			c-0.413,0.981-0.395,2.159-0.908,3.086c-0.758,1.368-2.915-0.354-3.819-0.647c-1.797-0.583-3.35,1.188-4.502,2.337
			c-2.755,2.745-3.201,6.726-1.265,10.127c0.952,1.673,2.45,2.312,4.246,2.704c0.591,0.129,1.5,0.213,1.874,0.777
			c0.393,0.58,0.168,1.471,0.265,2.119c0.283,1.912,2.154,3.286,3.68,4.229c2.067,1.276,4.737,2.478,7.247,2.148
			c2.375-0.312,3.616-2.266,5.318-3.714c1.168-0.993,2.332-0.505,3.682-0.97c0.835-0.288,1.587-0.858,2.224-1.457"/>
	</g>
	<g id="POLYLINE_132_">
		
			<path fill="none" stroke="#FF6B6B" stroke-width="2.75" stroke-linecap="round" stroke-linejoin="round" stroke-miterlimit="10" d="
			M340.149,286.053c-1.609-0.518-3.089-1.199-4.193-2.514c-1.238-1.473-2.021-3.384-2.405-5.256
			c-0.516-2.519-0.318-5.876,2.877-6.102c1.47-0.104,3.144,0.154,4.42,0.912"/>
	</g>
	<g id="POLYLINE_131_">
		
			<path fill="none" stroke="#FF6B6B" stroke-width="2.75" stroke-linecap="round" stroke-linejoin="round" stroke-miterlimit="10" d="
			M368.233,323.947c-2.035-3.868-3.716-7.856-5.135-11.988"/>
	</g>
	<g id="POLYLINE_130_">
		
			<path fill="none" stroke="#FF6B6B" stroke-width="2.75" stroke-linecap="round" stroke-linejoin="round" stroke-miterlimit="10" d="
			M354.591,339.506c1.938-3.369,3.763-6.766,5.067-10.437c1.337-3.765,2.126-7.75,2.71-11.694
			c1.239-8.372,1.969-16.853,2.535-25.294c0.613-9.132,1.15-18.249,1.33-27.399c0.078-3.987-0.025-7.979-0.087-11.965
			c-0.073-4.668-0.023-9.357-0.25-14.021c-0.412-8.464-2.439-16.899-4.417-25.111c-2.154-8.943-4.447-17.846-6.864-26.722
			c-1.09-4.003-2.345-7.966-3.365-11.987c-0.482-1.898-0.893-3.833-1.017-5.792c-0.108-1.697,0.136-3.309,0.435-4.975
			c1.328-7.426-0.401-15.363-3.83-22.006c-1.932-3.742-4.335-7.201-6.555-10.772c-1.106-1.781-2.1-3.644-3.237-5.402
			c-0.39-0.603-0.828-1.188-1.388-1.644c-0.819-0.667-2.501-1.485-3.473-0.666c-0.417,0.417-0.559,0.808-1.126,0.403
			c-0.584-0.418-0.961-1.259-1.271-1.871c-0.776-1.532-1.361-3.198-2.321-4.632c-0.379-0.565-0.843-1.097-1.509-1.317
			c-1.039-0.345-2.497-0.036-3.125,0.895c-0.464,0.687-0.539,0.798-1.27,0.262c-0.676-0.495-1.316-1.08-2.142-1.315
			c-0.921-0.263-2.556-0.108-3.149,0.773c-0.716,1.218,0.801,2.552,0.773,3.789c-0.014,0.647-0.465,0.778-0.91,1.146
			c-0.492,0.369-0.588,0.965-0.615,1.546c-0.126,2.778,1.294,5.566,2.546,7.941c1.943,3.687,3.82,7.276,5.285,11.188
			c1.519,4.055,3.232,7.887,5.25,11.722c0.921,1.752,1.867,3.499,2.988,5.134c1.072,1.562,2.337,3.002,3.3,4.639
			c1.755,2.984,2.113,6.705,2.554,10.07c0.597,4.554,1.031,9.123,1.441,13.697c0.719,8.014,0.883,16.037,0.628,24.077
			c-0.29,9.165-0.882,18.402-0.418,27.571c0.22,4.361,0.821,8.689,1.238,13.034c0.417,4.34,0.54,8.702,0.575,13.06
			c0.068,8.46,0,17.109-1.392,25.475c-0.618,3.713-1.562,7.496-3.433,10.794c-0.948,1.671-2.186,3.163-3.046,4.886
			c-0.664,1.329-1.063,2.748-1.38,4.195c-0.842,3.854-0.643,7.906-1.603,11.721c-0.414,1.646-1.241,3.107-2.014,4.606
			c-0.891,1.728-1.553,3.528-2.077,5.397c-0.52,1.854-0.91,3.738-1.298,5.623c-0.388,1.885-0.938,3.806-1.099,5.73
			c-0.291,3.482,0.9,7.178,1.883,10.471c0.897,3.008,1.79,5.984,2.353,9.074c0.63,3.463,1.287,6.91,2.006,10.355"/>
	</g>
	<g id="POLYLINE_129_">
		
			<path fill="none" stroke="#FF6B6B" stroke-width="2.75" stroke-linecap="round" stroke-linejoin="round" stroke-miterlimit="10" d="
			M183.104,579.219c-3.695,2.395-7.423,4.737-10.982,7.333c-2.939,2.143-5.754,4.447-8.538,6.787
			c-7.237,6.081-14.373,12.324-21.829,18.139c-3.579,2.791-7.26,5.367-11.059,7.849c-2.461,1.607-5.349,3.171-7.028,5.668
			c-1.33,1.977-1.832,4.367-3.554,6.09c-2.482,2.481-5.902,3.664-8.469,6.018c-3.559,3.264-3.481,9.301-1.053,13.217
			c3.898,6.287,12.335,5.951,18.627,7.685c3.167,0.872,5.803,2.945,8.934,3.867c3.125,0.92,6.505,0.333,9.685,0.141
			c4.139-0.251,8.351-0.05,12.499-0.086c2.055-0.018,4.085,0.056,6.132,0.235c1.357,0.119,2.762,0.308,4.121,0.099
			c2.439-0.375,3.909-4.123,1.874-5.823c-0.917-0.766-2.234-1.059-3.339-1.407c-1.288-0.406-2.624-0.8-3.751-1.569
			c-2.082-1.421-3.071-3.876-4.909-5.547c-2.684-2.44-6.37-3.606-9.567-5.185c-1.727-0.852-4.842-2.089-5.398-4.223
			c-0.395-1.516,0.823-3.13,1.624-4.266c2.271-3.221,5.117-6,8.268-8.356c6.781-5.07,14.874-8.215,22.625-11.458
			c5.936-2.483,11.865-4.98,17.796-7.475"/>
	</g>
	<g id="POLYLINE_128_">
		
			<path fill="none" stroke="#FF6B6B" stroke-width="2.75" stroke-linecap="round" stroke-linejoin="round" stroke-miterlimit="10" d="
			M316.978,461.259c-0.463,1.944,0.403,4.4,1.265,6.113c1.354,2.692,3.756,4.636,6.055,6.495
			c6.923,5.602,13.724,11.698,21.574,16.006c3.274,1.797,6.755,3.409,10.433,4.17c4.132,0.855,8.295,0.738,12.452,0.113
			c7.682-1.156,15.243-3.442,20.848-9.071c5.235-5.258,9.855-12.743,10.571-20.263c0.295-3.1-0.737-5.688-1.772-8.56
			c-1.287-3.573-1.7-7.415-1.996-11.179c-0.327-4.157-0.314-8.319,0.207-12.46c0.523-4.157,1.482-8.247,2.566-12.29
			c1.09-4.068,2.531-7.995,4.01-11.934c1.225-3.263,1.691-6.356,1.51-9.832c-0.201-3.835-0.811-7.69-0.199-11.52
			c0.596-3.734,1.999-7.287,1.98-11.111c-0.038-8.001-4.418-15.135-8.889-21.457c-2.565-3.629-5.334-7.115-8.07-10.615
			c-2.344-3-4.814-5.949-7.724-8.42c-3.109-2.643-6.71-4.678-9.661-7.506c-0.657-0.629-1.273-1.299-1.875-1.98
			c-0.501-0.567-1.035-1.413-1.674-1.852c-0.212-0.146-0.271-0.324-0.343-0.051c0.126,0.433,0.321,0.842,0.514,1.248
			c1.772,3.748,3.771,7.35,5.044,11.313c1.168,3.632,1.763,7.438,1.7,11.255c-0.136,8.293-3.852,16.49-10.509,21.53
			c-3.136,2.374-6.665,4.161-10.227,5.801c-3.386,1.559-6.87,3.105-10.553,3.799c-2.382,0.448-4.912,0.517-7.208-0.361
			c-1.355-0.518-2.589-1.318-3.731-2.203c-0.809-0.628-1.579-1.303-2.357-1.968c-0.183-0.157-0.65-0.662-0.933-0.68
			c-0.587-0.258-0.202,1.154-0.164,1.329c0.51,2.335,1.13,4.647,1.704,6.968c0.962,3.895,1.457,7.929,2.643,11.764
			c0.409,1.322,0.936,2.602,1.711,3.754c0.743,1.103,1.694,2.095,2.284,3.295c1.101,2.238-0.119,4.855-0.442,7.131
			c-0.514,3.62,0.548,7.196,0.97,10.769c0.128,1.086,0.16,2.16,0,3.243c-0.224,1.517-0.894,2.928-1.267,4.408
			c-0.505,2.009-0.673,4.084-1.061,6.115c-0.395,2.069-0.978,4.081-1.766,6.036c-1.52,3.771-3.455,7.368-6.039,10.519
			c-2.206,2.689-4.628,5.211-7.042,7.712c-1.094,1.134-2.198,2.29-3.406,3.306C317.727,460.462,317.105,460.729,316.978,461.259z"/>
	</g>
	<g id="POLYLINE_127_">
		
			<path fill="none" stroke="#FF6B6B" stroke-width="2.75" stroke-linecap="round" stroke-linejoin="round" stroke-miterlimit="10" d="
			M333.535,278.204c-0.317,0.88-0.625,1.661-0.625,2.608c0,1.529,0.335,3.061,0.671,4.545c0.387,1.709,0.98,3.277,1.645,4.888
			c0.309,0.749,0.354,1.472,0.3,2.278c-0.316,4.693-1.339,10.361-5.874,12.887c-2.016,1.123-4.647,1.11-6.884,1.084
			c-2.235-0.026-4.498-0.402-6.338-1.754c-2.564-1.884-4.319-4.746-5.585-7.618c-1.705-3.868-2.802-7.937-4.777-11.695
			c-1.986-3.778-4.283-7.391-6.109-11.252c-1.251-2.646-2.212-5.493-2.183-8.448c0.034-3.378,1.299-6.662,2.801-9.641
			c1.66-3.291,3.74-6.539,6.758-8.736c3.282-2.391,7.037-4.271,10.614-6.168c3.072-1.629,6.136-3.389,9.644-3.812
			c3.752-0.452,7.767-0.332,11.437,0.615"/>
	</g>
	<g id="POLYLINE_126_">
		
			<path fill="none" stroke="#FF6B6B" stroke-width="2.75" stroke-linecap="round" stroke-linejoin="round" stroke-miterlimit="10" d="
			M326.555,306.273c2.288,1.402,3.944,3.61,4.791,6.161"/>
	</g>
	<g id="POLYLINE_125_">
		
			<path fill="none" stroke="#FF6B6B" stroke-width="2.75" stroke-linecap="round" stroke-linejoin="round" stroke-miterlimit="10" d="
			M316.905,461.828c-1.274,1.009-2.512,1.983-3.504,3.284c-1.148,1.505-2.045,3.207-2.893,4.894
			c-1.769,3.514-3.295,7.246-4.183,11.086c-0.744,3.215-1.001,6.104-2.944,8.854c-2.436,3.447-5.672,6.393-8.595,9.412
			c-5.693,5.881-11.279,11.916-16.534,18.194c-5.896,7.044-11.583,14.368-17.957,20.995c-5.883,6.117-12.446,11.665-19.243,16.74
			c-3.259,2.433-6.565,4.668-10.462,5.942c-4.171,1.364-8.605,1.965-12.904,2.771c-8.045,1.51-16.183,3.595-23.673,6.947
			c-3.369,1.508-7.036,3.202-9.799,5.707c-1.262,1.144-1.269,2.296-0.832,3.891c2.087,7.622,4.158,15.824,8.722,22.4
			c0.936,1.349,2.654,4.135,4.569,4.301c0.704,0,1.312-0.274,1.939-0.575c1.867-0.896,3.606-2.059,5.427-3.043
			c7.489-4.052,15.793-6.587,23.789-9.425c4.168-1.479,8.322-3.013,12.671-3.889c4.357-0.878,8.733-1.682,13.042-2.778
			c8.105-2.062,15.702-5.826,22.885-10.036c7.512-4.402,14.635-9.449,21.575-14.698c6.825-5.163,13.241-10.866,20.373-15.618
			c7.288-4.857,15-9.156,21.92-14.544c6.553-5.104,12.22-11.667,19.575-15.667c2.305-1.254,4.853-2.181,7.51-2.113
			c3.354,0.085,6.459,1.717,9.473,3.017c7.553,3.259,15.646,4.83,23.723,6.188c8.782,1.477,17.59,3.159,26.517,3.364
			c8.493,0.195,16.805-1.758,25.123-3.168c8.431-1.429,17.021-2.201,25.578-1.872c0.903,0.035,5.313-0.181,5.32,1.474
			c-0.274,1.374-1.003,2.678-1.46,4.004c-0.654,1.896-1.137,3.847-1.501,5.818c-0.75,4.058-1.078,8.217-1.271,12.335
			c-0.2,4.262-0.309,8.552-0.026,12.812c0.132,1.984,0.395,3.944,0.755,5.899c0.273,1.479,0.449,3.029,0.966,4.45
			c0.425,1.168,1.222,1.832,2.449,2.018c1.39,0.209,2.837,0.043,4.231-0.026c2.19-0.11,4.38-0.228,6.561-0.459
			c4.163-0.44,8.235-1.235,12.238-2.469c1.899-0.585,3.794-1.235,5.603-2.063c0.595-0.272,1.026-0.573,1.277-1.193
			c0.555-1.372,0.591-3.046,0.739-4.499c0.155-1.517,0.265-3.036,0.364-4.558c0.647-9.836,1.323-19.641,2.248-29.453
			c0.741-7.864,1.728-16.08,0.305-23.918c-0.552-3.039-1.701-6.019-3.725-8.386c-2.287-2.676-5.426-4.445-8.564-5.939
			c-3.063-1.458-6.236-2.671-9.417-3.847c-5.569-2.06-11.138-4.118-16.707-6.178c-7.547-2.79-15.075-5.745-22.887-7.725
			c-8.291-2.101-16.818-3.245-25.283-4.384c-8.827-1.187-17.653-2.498-26.522-3.34c-1.095-0.104-2.19-0.208-3.285-0.312"/>
	</g>
	<g id="POLYLINE_124_">
		
			<path fill="none" stroke="#FF6B6B" stroke-width="2.75" stroke-linecap="round" stroke-linejoin="round" stroke-miterlimit="10" d="
			M481.49,570.6c1.164,9,2.328,18.001,3.493,27.001c1.104,8.544,1.595,17.181,1.729,25.789c0.064,4.152-0.025,8.339-0.438,12.474
			c-0.188,1.88-0.471,3.763-0.969,5.587c-0.508,1.863-1.371,3.542-2.239,5.258c-1.804,3.561-1.997,8.494,0.489,11.827
			c1.016,1.361,2.502,2.178,4.11,2.642c3.341,0.964,7.081,0.866,10.516,0.604c4.221-0.324,8.362-1.25,12.587-1.535
			c4.243-0.286,8.526-0.252,12.772-0.051c4.313,0.205,8.56,0.759,12.846,1.26c4.399,0.514,8.82,0.516,13.243,0.585
			c3.184,0.049,6.741,0.541,9.846-0.357c1.424-0.412,2.802-1.211,3.501-2.576c1.948-3.802-5.042-5.372-7.219-6.081
			c-8.264-2.692-16.485-5.767-24.494-9.145c-7.021-2.962-15.225-6.27-18.537-13.69c-1.691-3.789-2.238-8.006-2.657-12.098
			c-0.427-4.171-0.654-8.366-0.709-12.559c-0.118-8.979,0.9-17.837,1.886-26.745c0.478-4.318,0.799-8.639,1.082-12.974"/>
	</g>
</g>
<g id="AG-OUTLINE">
	<g id="POLYLINE_36_">
		
			<path fill="none" stroke="#FF6B6B" stroke-width="3.5" stroke-linecap="round" stroke-linejoin="round" stroke-miterlimit="10" d="
			M942.405,474.93c7.679,4.128,15.308,8.462,22.457,13.465c3.654,2.557,7.312,5.108,10.961,7.671
			c3.025,2.125,5.539,4.909,7.235,8.207c1.526,2.967,1.94,6.045,1.695,9.349c-0.162,2.191-0.543,4.362-0.796,6.544
			c-0.25,2.16-0.356,4.335-0.553,6.5c-0.331,3.665-1.219,6.832-2.924,10.083c-0.86,1.641-1.765,3.273-2.25,5.072
			c-0.562,2.082-0.816,4.252-1.167,6.375c-0.657,3.982-1.799,7.934-2.977,11.788c-1.274,4.168-2.594,8.32-4.033,12.436
			c-2.918,8.343-6.328,16.487-9.392,24.774c-2.908,7.867-5.701,16.099-5.809,24.575c-0.085,6.692,1.657,14.658,6.687,19.441
			c2.434,2.314,5.553,3.491,8.634,4.678c4.515,1.739,9.006,3.557,13.562,5.184c4.004,1.43,8.098,2.243,12.223,3.22
			c1.972,0.467,4.75,0.933,6.176,2.575c1.861,2.146-1.313,4.604-3.24,4.965c-1.397,0.262-2.854,0.126-4.263,0.064
			c-2.33-0.102-4.66-0.142-6.992-0.188c-4.051-0.081-8.087-0.241-12.13-0.509c-4.509-0.299-9.017-0.667-13.538-0.679
			c-4.128-0.011-8.261,0.176-12.379,0.459c-4.487,0.31-8.994,0.761-13.497,0.751c-3.207-0.007-6.602-0.249-9.551-1.622
			c-1.841-0.857-3.478-2.225-3.996-4.263c-0.689-2.711,0.223-5.761,0.939-8.361c2.35-8.532,5.204-16.914,7.372-25.496
			c2.1-8.317,3.407-16.837,4.072-25.386c0.684-8.788,0.438-17.548,0.464-26.352c0.023-8.383,0.556-16.961,2.387-25.16
			c0.871-3.902,2.177-7.686,3.95-11.271c0.803-1.622,1.832-3.162,2.546-4.821c0.184-0.427,0.357-0.911,0.256-1.382
			c-0.338-1.56-2.983-2.276-4.183-2.709c-3.81-1.374-7.809-2.309-11.819-2.861c-4.291-0.592-8.621-0.852-12.952-0.691
			c-0.67,0.024-1.948-0.104-2.424,0.261c-0.094,0.229-0.28,0.37-0.486,0.491c-0.81,0.476-1.987,0.461-2.891,0.489
			c-4.23,0.134-8.523-0.367-12.735-0.723c-3.938-0.332-7.818-1.008-11.625-2.07c-8.38-2.34-16.438-5.771-24.914-7.782
			c-2.037-0.483-4.092-0.906-6.172-1.155c-1.041-0.124-2.082-0.227-3.126-0.31c-0.502-0.04-1.003-0.072-1.505-0.105
			c-0.334-0.021-1.144-0.225-1.395-0.037c-3.233,2.421-6.208,5.085-8.897,8.103c-5.821,6.529-10.976,13.599-17.265,19.71
			c-6.152,5.979-13.33,10.993-20.251,16.03c-1.757,1.279-3.5,2.592-5.345,3.742c-0.739,0.461-1.545,0.92-2.399,1.134
			c-0.286,0.071-0.571,0.135-0.866,0.164c-0.191,0.02-0.403-0.01-0.591,0.024c-0.429,0.078-0.626,0.307-0.988,0.614
			c-1.535,1.307-3.116,2.559-4.738,3.756c-6.473,4.775-13.62,9.35-21.333,11.809c-2.622,0.836-5.858,1.124-8.089,2.872
			c-1.177,0.922-2.132,2.083-3.368,2.939c-1.274,0.884-2.697,1.547-4.138,2.112c-7.952,3.126-16.511,4.737-24.878,6.308
			c-4.172,0.782-8.424,1.256-12.548,2.278c-3.826,0.949-7.297,2.856-10.991,4.183c-8.088,2.903-16.537,4.786-24.767,7.232
			c-8.554,2.543-17.011,5.38-25.334,8.6c-3.869,1.497-7.72,3.1-11.45,4.916c-3.411,1.661-6.98,3.42-9.799,6.007
			c-0.723,0.664-1.43,1.454-1.796,2.378c-0.325,0.818-0.239,1.704-0.483,2.536c-0.445,1.518-1.813,2.381-1.286,4.11
			c0.32,1.051,1.065,1.988,1.733,2.836c1.311,1.659,2.772,3.192,4.107,4.832c1.297,1.594,2.446,3.313,3.827,4.839
			c1.222,1.35,2.676,2.387,4.21,3.352c1.785,1.122,3.487,2.395,5.309,3.455c1.592,0.927,3.312,1.559,5.08,2.062
			c2.032,0.578,4.12,0.948,6.144,1.553c1.013,0.303,2.13,0.664,2.955,1.358c0.949,0.799,1.344,2.142,0.891,3.318
			c-0.432,1.121-1.598,1.679-2.685,1.997c-3.528,1.034-7.405,0.417-11.018,0.395c-4.389-0.027-8.789,0.273-13.176,0.026
			c-3.643-0.205-7.331-0.865-10.79-2.032c-3.614-1.22-6.882-3.208-9.983-5.399c-4.044-2.857-8.021-5.813-12.025-8.725
			c-3.001-2.181-6.1-4.274-8.879-6.738c-3.051-2.702-6.324-6.436-4.641-10.75c1.119-2.867,3.487-5.279,5.895-7.117
			c1.336-1.021,2.778-1.854,4.285-2.595c1.151-0.564,2.441-1.074,3.413-1.938c0.87-0.773,1.286-1.886,1.963-2.81
			c0.534-0.729,1.21-1.332,1.924-1.881c3.331-2.562,7.228-4.374,10.798-6.569c7.175-4.411,14.004-9.366,21.109-13.89
			c7.93-5.049,15.793-10.161,23.576-15.433c6.904-4.676,13.802-9.348,21.564-12.505c7.929-3.224,16.299-3.992,24.728-4.912
			c7.77-0.847,15.33-2.558,21.524-7.593c6.56-5.332,11.877-12.171,17.268-18.629c0.936-1.122,1.872-2.244,2.809-3.366
			c0.37-0.443,0.327-0.418,0.304-0.919c-0.027-0.58,0.183-1.079,0.486-1.566c0.762-1.22,1.909-2.232,2.895-3.264
			c1.138-1.19,2.283-2.373,3.409-3.575c7.059-7.538,14.118-15.076,21.178-22.614c2.39-2.552,4.743-5.165,6.905-7.914
			c1.562-1.986,3.38-4.1,3.886-6.648c0.739-3.725,0.638-7.519,1.651-11.204c1.103-4.009,2.811-7.885,4.734-11.562
			c1.811-3.461,3.865-6.969,6.604-9.787c2.6-2.676,5.936-4.15,8.987-6.205c1.792-1.207,3.561-2.515,5.482-3.513
			c0.41-0.213,0.828-0.407,1.262-0.565c0.207-0.075,0.692-0.078,0.86-0.199c0.346-0.249,0.616-1.1,0.827-1.475
			c0.213-0.38,0.413-0.768,0.602-1.161c0.361-0.755,0.675-1.535,0.912-2.339c0.551-1.868,0.815-3.807,1.005-5.741
			c0.824-8.419-0.086-16.998-1.949-25.221c-1.93-8.516-4.23-16.945-6.173-25.457c-1.883-8.252-4.086-16.798-3.491-25.331
			c0.136-1.945,0.444-3.894,0.378-5.849c-0.062-1.825-0.46-3.61-0.919-5.372c-1.061-4.073-2.217-8.095-2.867-12.26
			c-0.631-4.035-1.043-8.131-0.959-12.219c0.039-1.907,0.232-3.802,0.663-5.662c0.464-2.004,1.081-3.962,1.433-5.991
			c0.327-1.885,0.527-3.803,0.581-5.716c0.033-1.201-0.021-2.459,0.314-3.629c0.62-2.174,2.717-3.526,4.051-5.223
			c0.858-1.093,1.354-2.363,1.864-3.641c0.313-0.785,0.172-0.779-0.285-1.47c-0.654-0.988-1.31-1.978-1.964-2.966
			c-2.651-4.004-5.345-7.982-7.939-12.023c-2.287-3.562-4.625-7.164-6.286-11.073c-1.598-3.757-2.701-7.74-3.086-11.812
			c-0.699-7.402,1.132-15.304,6.875-20.379c5.844-5.164,14.15-7.678,21.746-8.728c3.836-0.53,7.808-0.671,11.651-0.146
			c3.034,0.414,6.188,1.306,8.558,3.334c1.95,1.671,3.228,4.025,3.999,6.445c1.634-3.904,2.052-7.947,2.326-12.129
			c0.287-4.377,0.628-8.733,1.328-13.068c1.423-8.803,4.316-17.248,6.992-25.727c1.188-3.76,2.246-7.562,2.846-11.463
			c0.64-4.154,0.915-8.387,1.235-12.574c0.331-4.324,0.71-8.678,0.526-13.018c-0.031-0.734-1.748-1.47-2.361-1.903
			c-0.843-0.597-1.665-1.219-2.459-1.879c-1.755-1.458-3.422-3.025-5.115-4.553c-0.993-0.896-2.112-1.767-2.865-2.888
			c-0.748-1.116-0.986-2.471-1.434-3.717c-0.68-1.893-1.643-3.673-2.365-5.55c-0.714-1.854-1.206-3.761-1.546-5.716
			c-0.14-0.805-0.097-1.918-0.512-2.604c-0.49-0.811-1.311-1.516-1.957-2.204c-0.92-0.98-1.998-1.968-2.606-3.192
			c-0.446-0.898-0.545-2.129,0.477-2.686c1.662-0.906,3.716,0.498,5.214,1.037c0.457,0.164,0.86,0.301,0.959-0.274
			c0-1.067-0.6-2.203-0.983-3.161c-1.546-3.857-3.175-7.647-4.149-11.702c-0.395-1.64-1.285-4.532-0.145-6.085
			c0.654-0.892,2.669-0.569,2.353-1.883c-0.32-1.33-0.77-3.032,0.389-4.113c0.547-0.499,1.359-0.765,2.089-0.579
			c0.476,0.121,0.86,0.437,1.187,0.792c0.383,0.417,0.687,0.909,0.988,1.385c0.309,0.484,0.674,1.382,1.167,1.732
			c0.615,0.437,0.315-0.891,0.47-1.371c0.153-0.535,0.577-0.973,1.064-1.224c0.764-0.394,1.544-0.277,2.226,0.222
			c1.035,0.758,1.792,1.98,2.485,3.029c0.552,0.834,1.079,1.686,1.577,2.555c0.122,0.213,0.405,0.943,0.728,1.006
			c0.467,0.166,1.06-0.968,1.416-1.209c0.334-0.25,0.711-0.287,1.103-0.172c1.993,0.587,3.341,3.623,4.146,5.248
			c1.891,3.816,3.656,7.954,6.94,10.807c1.355,1.176,2.853,2.193,4.08,3.512c1.023,1.098,1.783,2.41,2.482,3.729
			c0.974,1.838,1.96,3.671,2.93,5.51c0.568,1.078,1.046,2.217,1.295,3.414c0.744,3.582,0.04,7.376-0.101,10.983
			c-0.152,3.915,0.365,7.773,0.938,11.636c1.335,8.994,2.648,17.944,3.115,27.035c0.438,8.518,0.354,17.102-0.402,25.598
			c-0.771,8.666-2.03,17.277-3.786,25.799c-0.867,4.211-1.847,8.4-3.001,12.541c-0.32,1.152-0.658,2.299-0.992,3.446
			c-0.249,0.854-0.014,1.915,0.003,2.804c0.037,2.082-0.027,4.16-0.197,6.236c-0.699,8.537-4.389,16.463-6.492,24.694
			c-1.056,4.13-1.521,8.33-2.306,12.511c-0.765,4.076-2.374,7.775-4.604,11.26c-0.553,0.863-1.143,1.701-1.746,2.529
			c-0.12,0.165,1.329,2.04,1.5,2.301c1.266,1.933,2.506,3.878,3.706,5.852c2.232,3.67,4.318,7.429,6.253,11.264
			c3.65,7.241,6.761,14.872,8.306,22.861c0.74,3.828,1.008,7.697,0.974,11.592c-0.04,4.518-0.255,9.087,0.404,13.572
			c0.608,4.133,1.754,8.126,3.051,12.09c1.225,3.743,2.609,7.402,3.309,11.292c1.462,8.143-0.227,16.729-1.919,24.701
			c-0.884,4.165-1.964,8.289-2.724,12.479c-0.35,1.928-0.642,3.873-0.714,5.833c-0.076,2.094,0.077,4.188,0.03,6.282
			c-0.143,6.437-2.994,12.49-5.739,18.188c8.633,1.199,17.259,2.726,25.691,4.953c8.315,2.196,16.157,5.724,23.916,9.381
			c3.811,1.796,7.75,3.548,11.35,5.744c1.076,0.657,3.56,2.01,3.262,3.639C942.409,474.913,942.407,474.922,942.405,474.93z"/>
	</g>
	<g id="POLYLINE_59_">
		
			<path fill="none" stroke="#FF6B6B" stroke-width="3.5" stroke-linecap="round" stroke-linejoin="round" stroke-miterlimit="10" d="
			M481.49,570.6c1.164,9,2.328,18.001,3.493,27.001c1.104,8.544,1.595,17.181,1.729,25.789c0.064,4.152-0.025,8.339-0.438,12.474
			c-0.188,1.88-0.471,3.763-0.969,5.587c-0.508,1.863-1.371,3.542-2.239,5.258c-1.804,3.561-1.997,8.494,0.489,11.827
			c1.016,1.361,2.502,2.178,4.11,2.642c3.341,0.964,7.081,0.866,10.516,0.604c4.221-0.324,8.362-1.25,12.587-1.535
			c4.243-0.286,8.526-0.252,12.772-0.051c4.313,0.205,8.56,0.759,12.846,1.26c4.399,0.514,8.82,0.516,13.243,0.585
			c3.184,0.049,6.741,0.541,9.846-0.357c1.424-0.412,2.802-1.211,3.501-2.576c1.948-3.802-5.042-5.372-7.219-6.081
			c-8.264-2.692-16.485-5.767-24.494-9.145c-7.021-2.962-15.225-6.27-18.537-13.69c-1.691-3.789-2.238-8.006-2.657-12.098
			c-0.427-4.171-0.654-8.366-0.709-12.559c-0.118-8.979,0.9-17.837,1.886-26.745c0.461-4.171,0.779-8.343,1.053-12.53
			c0.039-0.596,0.588-1.04,0.759-1.673c0.454-1.673,0.553-3.465,0.715-5.184c0.788-8.318,0.98-16.687,1.764-25.006
			c0.848-8.996,2.105-18.125,1.593-27.181c-0.198-3.49-0.754-7.068-2.37-10.207c-1.371-2.662-3.512-4.706-5.997-6.332
			c-3.478-2.276-7.437-3.821-11.293-5.323c-3.837-1.493-7.726-2.864-11.588-4.292c-8.413-3.11-16.802-6.53-25.4-9.112
			c-8.554-2.568-17.275-3.942-26.096-5.215c-8.812-1.271-17.64-2.436-26.479-3.497c-1.904-0.229-3.814-0.416-5.723-0.598
			c-0.624-0.059-1.248-0.118-1.871-0.178c-0.216-0.021-0.174-0.611-0.205-0.823c-0.094-0.634-0.245-1.257-0.432-1.869
			c-0.555-1.813-1.356-3.537-1.862-5.368c-0.497-1.8-0.786-3.65-1.031-5.499c-1.103-8.319-0.505-16.45,1.387-24.602
			c0.937-4.036,2.076-8.077,3.527-11.96c1.259-3.369,2.808-6.722,3.03-10.36c0.236-3.863-0.544-7.71-0.498-11.572
			c0.046-3.898,1.419-7.489,2.013-11.302c1.2-7.714-2.329-15.021-6.396-21.327c-2.396-3.714-5.126-7.199-7.817-10.7
			c-2.443-3.178-4.888-6.408-7.704-9.271c-2.826-2.873-6.13-5.107-9.358-7.493c-1.52-1.122-2.918-2.382-4.188-3.781
			c-0.674-0.742-1.31-1.521-2.006-2.242c-0.134-0.138-0.473-0.306-0.534-0.368c-0.001,0.006-0.002,0.011-0.003,0.017
			c0-0.314-0.504-0.954-0.663-1.263c-0.221-0.432-0.441-0.865-0.651-1.302c-0.433-0.897-0.86-1.797-1.254-2.712
			c-0.843-1.959-1.62-3.947-2.312-5.965c-0.369-1.072-0.097-2.072,0.024-3.196c0.099-0.919,0.197-1.839,0.282-2.759
			c0.202-2.177,0.41-4.352,0.592-6.529c0.187-2.239,0.375-4.478,0.543-6.719c0.103-1.387,0.207-2.772,0.31-4.158
			c0.042-0.567,1.298-1.295,1.755-1.643c2.849-2.171,6.42-2.475,9.572-4c2.491-1.207,4.004-3.343,3.08-6.138
			c-0.672-2.034-2.354-3.341-3.767-4.857c-0.441-0.475-0.819-1.002-1.081-1.597c-0.369-0.836-0.424-1.781-0.818-2.604
			c-0.305-0.635-0.908-1.027-1.267-1.625c-0.56-0.934-0.963-1.909-1.689-2.734c-0.904-1.026-3.555-2.338-2.008-3.785
			c0.86-0.805,2.793-1.848,2.096-3.305c-0.291-0.608-0.856-1.082-1.387-1.473c-0.763-0.562-1.599-1.02-2.364-1.579
			c-0.257-0.188-1.077-0.653-1.082-0.979c-0.069-4.609-0.054-9.228-0.227-13.835c-0.159-4.229-0.826-8.396-1.609-12.547
			c-1.611-8.543-3.739-16.989-5.893-25.407c-2.216-8.661-4.731-17.233-7.038-25.868c-0.914-3.42-1.498-6.852-0.869-10.367
			c0.694-3.881,0.735-7.633,0.095-11.529c-0.625-3.809-1.809-7.454-3.534-10.904c-1.935-3.869-4.386-7.467-6.708-11.106
			c-1.087-1.704-2.063-3.468-3.11-5.196c-0.41-0.677-0.868-1.33-1.46-1.86c-0.78-0.698-2.439-1.562-3.47-0.892
			c-0.444,0.333-0.56,0.914-1.164,0.59c-0.51-0.34-0.845-0.967-1.132-1.488c-0.876-1.59-1.451-3.35-2.43-4.885
			c-0.375-0.589-0.811-1.182-1.475-1.461c-0.999-0.419-2.552-0.166-3.221,0.728c-0.434,0.579-0.424,0.972-1.15,0.509
			c-0.731-0.466-1.316-1.1-2.15-1.396c-0.95-0.336-2.526-0.219-3.236,0.602c-0.936,1.056,0.614,2.688,0.674,3.799
			c0.032,0.598-0.291,0.812-0.737,1.139c-0.528,0.385-0.708,0.799-0.768,1.45c-0.24,2.632,1.112,5.393,2.271,7.646
			c0.953,1.853,2.006,3.651,2.939,5.514c0.853,1.7,1.411,3.286,1.872,5.124c1.119,4.463,2.345,8.916,3.318,13.412
			c0.864,3.996,1.074,8.037,1.183,12.111c0.068,2.532,0.503,4.574,1.89,6.709c2.104,3.24,4.584,6.257,5.518,10.087
			c1,4.104,1.186,8.46,1.541,12.657c0.75,8.865,1.257,17.746,1.461,26.642c0.112,4.884,0.038,9.771-0.029,14.655
			c-3.518-0.646-7.341-0.759-10.867-0.132c-3.352,0.596-6.395,2.419-9.344,4.028c-3.643,1.987-7.632,3.833-10.843,6.5
			c-2.882,2.395-4.867,5.865-6.432,9.219c-1.98,4.243-2.9,8.73-1.479,13.294c-2.004-0.532-4.249-0.267-5.777,1.235
			c-0.472,0.464-0.856,1.023-1.113,1.634c-0.413,0.981-0.395,2.159-0.908,3.086c-0.758,1.368-2.915-0.354-3.819-0.647
			c-1.797-0.583-3.35,1.188-4.502,2.337c-2.755,2.745-3.201,6.726-1.265,10.127c0.952,1.673,2.45,2.312,4.246,2.704
			c0.591,0.129,1.5,0.213,1.874,0.777c0.393,0.58,0.168,1.471,0.265,2.119c0.283,1.912,2.154,3.286,3.68,4.229
			c2.067,1.276,4.737,2.478,7.247,2.148c2.375-0.312,3.616-2.266,5.318-3.714c1.168-0.993,2.332-0.505,3.682-0.97
			c0.835-0.288,1.587-0.858,2.224-1.457c1.864,5.066,4.761,11.207,10.698,12.146c1.882,0.298,3.807,0.191,5.694,0.008
			c0.913-0.089,1.9,0.877,2.525,1.533c0.873,0.917,1.597,2.002,2.153,3.137c0.306,0.624,0.607,1.184,0.524,1.873
			c-0.12,0.998-0.279,1.99-0.387,2.99c-0.371,3.434-0.494,6.682-2.099,9.793c-0.962,1.865-1.882,3.712-2.501,5.725
			c-0.582,1.893-1.024,3.826-1.423,5.764c-0.72,3.5-1.658,6.711-1.078,10.28c0.689,4.243,2.199,8.249,3.247,12.402
			c1.095,4.34,1.699,8.81,2.613,13.19c0.165,0.789,0.029,1.482,0.229,2.36c0.529,2.329,1.136,4.643,1.709,6.961
			c0.962,3.895,1.445,7.93,2.658,11.758c0.416,1.312,0.973,2.556,1.754,3.69c0.73,1.061,1.653,2.027,2.205,3.202
			c1.067,2.274-0.203,4.95-0.506,7.252c-0.476,3.613,0.632,7.175,1.016,10.741c0.113,1.051,0.152,2.114-0.034,3.16
			c-0.276,1.553-0.939,2.999-1.305,4.529c-0.491,2.059-0.679,4.179-1.076,6.256c-0.394,2.066-1.044,4.062-1.83,6.01
			c-1.501,3.726-3.479,7.262-6.043,10.359c-2.688,3.247-5.628,6.347-8.639,9.295c-0.614,0.602-1.232,1.216-1.907,1.751
			c-0.271,0.215-0.632,0.389-0.811,0.696c-0.118,0.235-0.055,0.544-0.161,0.758c-0.299,0.604-1.462,1.18-2.002,1.673
			c-2.621,2.394-4.213,5.957-5.619,9.147c-1.672,3.794-2.812,7.593-3.574,11.662c-0.567,3.024-1.922,5.348-3.912,7.686
			c-2.974,3.493-6.325,6.689-9.513,9.983c-2.837,2.93-5.593,5.967-8.282,9.032c-6.017,6.858-11.849,13.863-17.705,20.86
			c-5.341,6.381-11.29,12.112-17.674,17.439c-6.236,5.205-12.61,10.737-20.673,12.702c-4.234,1.031-8.558,1.688-12.832,2.533
			c-4.104,0.812-8.177,1.885-12.167,3.135c-4.029,1.262-7.979,2.758-11.761,4.64c-1.74,0.866-3.438,1.832-5.052,2.915
			c-0.904,0.605-1.943,1.271-2.596,2.17c-0.393,0.541-0.339,0.979-0.462,1.584c-0.061,0.298,0.063,0.243-0.23,0.434
			c-0.496,0.321-0.991,0.643-1.487,0.963c-1.308,0.848-2.615,1.695-3.923,2.542c-3.476,2.253-6.787,4.717-10.03,7.291
			c-6.781,5.382-13.233,11.178-19.928,16.667c-3.436,2.817-6.873,5.646-10.485,8.237c-3.489,2.502-7.264,4.614-10.67,7.227
			c-0.932,0.714-1.835,1.516-2.518,2.479c-0.841,1.187-1.323,2.559-1.97,3.851c-1.188,2.373-3.28,3.913-5.496,5.291
			c-2.305,1.434-5.039,2.763-6.372,5.271c-1.1,2.071-1.248,4.55-0.909,6.834c1.01,6.798,7.146,9.401,13.19,10.579
			c3.794,0.74,7.514,1.222,10.996,2.996c2.697,1.374,5.078,2.618,8.148,2.731c1.971,0.073,3.955-0.152,5.917-0.3
			c2.153-0.161,4.317-0.085,6.474-0.053c3.925,0.06,7.86-0.253,11.778,0.092c1.828,0.16,4.724,0.864,6.403-0.334
			c1.149-0.82,1.65-2.745,1.292-4.072c-0.396-1.469-2.008-1.975-3.307-2.385c-2.549-0.805-4.728-1.508-6.449-3.626
			c-0.953-1.173-1.714-2.519-2.829-3.556c-1.115-1.037-2.405-1.839-3.755-2.536c-3.226-1.668-6.989-2.783-9.851-5.078
			c-1.105-0.885-1.929-1.923-1.523-3.386c0.246-0.889,0.783-1.689,1.287-2.447c1.039-1.56,2.248-3.017,3.548-4.365
			c5.684-5.897,13.103-9.621,20.521-12.866c8.24-3.606,16.591-6.981,24.883-10.468c0.171-0.071,1.014,0.312,1.348,0.262
			c1.011-0.149,2.004-0.805,2.863-1.298c3.776-2.164,7.551-4.138,11.585-5.784c4.339-1.772,8.788-3.272,13.199-4.852
			c3.802-1.361,7.586-2.816,11.472-3.926c4.176-1.192,8.491-1.904,12.744-2.761c3.998-0.805,7.96-1.915,11.766-3.386
			c7.894-3.053,15.3-7.255,22.369-11.881c7.089-4.64,13.89-9.679,20.513-14.958c3.671-2.927,7.306-5.897,11.1-8.665
			c3.237-2.362,6.625-4.508,10.002-6.662c4.02-2.564,8.08-5.071,11.997-7.791c3.273-2.273,6.326-4.824,9.315-7.455
			c3.39-2.982,6.715-6.044,10.39-8.678c2.546-1.825,5.41-3.501,8.529-4.072c2.577-0.472,5.045,0.027,7.462,0.954
			c3.87,1.484,7.547,3.301,11.535,4.481c8.343,2.47,17.059,3.687,25.631,5.066c8.468,1.364,16.929,2.385,25.505,1.494
			c8.558-0.889,16.918-3.073,25.474-3.994c4.234-0.455,8.487-0.652,12.744-0.712c2.075-0.029,4.154-0.016,6.224,0.147
			c0.948,0.074,2.255,0.104,3.1,0.625c0.49,0.202,0.497,0.642,0.391,1.075c-0.443,1.81-1.385,3.553-1.919,5.353
			c-1.16,3.904-1.617,7.999-1.95,12.045c-0.347,4.219-0.509,8.458-0.472,12.691c0.036,4.166,0.487,8.176,1.243,12.269
			C480.184,567.858,480.372,569.677,481.49,570.6z"/>
	</g>
</g>
</svg>
