<?xml version="1.0" encoding="utf-8"?>
<!-- Generator: Adobe Illustrator 16.0.0, SVG Export Plug-In . SVG Version: 6.00 Build 0)  -->
<!DOCTYPE svg PUBLIC "-//W3C//DTD SVG 1.1//EN" "http://www.w3.org/Graphics/SVG/1.1/DTD/svg11.dtd" [
	<!ENTITY ns_flows "http://ns.adobe.com/Flows/1.0/">
	<!ENTITY ns_extend "http://ns.adobe.com/Extensibility/1.0/">
	<!ENTITY ns_ai "http://ns.adobe.com/AdobeIllustrator/10.0/">
	<!ENTITY ns_graphs "http://ns.adobe.com/Graphs/1.0/">
	<!ENTITY ns_vars "http://ns.adobe.com/Variables/1.0/">
	<!ENTITY ns_imrep "http://ns.adobe.com/ImageReplacement/1.0/">
	<!ENTITY ns_sfw "http://ns.adobe.com/SaveForWeb/1.0/">
	<!ENTITY ns_custom "http://ns.adobe.com/GenericCustomNamespace/1.0/">
	<!ENTITY ns_adobe_xpath "http://ns.adobe.com/XPath/1.0/">
]>
<svg version="1.1" xmlns:x="&ns_extend;" xmlns:i="&ns_ai;" xmlns:graph="&ns_graphs;"
	 xmlns="http://www.w3.org/2000/svg" xmlns:xlink="http://www.w3.org/1999/xlink" xmlns:a="http://ns.adobe.com/AdobeSVGViewerExtensions/3.0/"
	 x="0px" y="0px" width="1500px" height="750px" viewBox="0 0 1500 750" enable-background="new 0 0 1500 750" xml:space="preserve"
	>
<metadata>
	<sfw  xmlns="&ns_sfw;">
		<slices></slices>
		<sliceSourceBounds  width="3074.001" height="2275.257" bottomLeftOrigin="true" x="0" y="-1564"></sliceSourceBounds>
	</sfw>
</metadata>
<g id="FILL-BACKGROUND">
	<rect fill="#FFFFFF" width="1500" height="750"/>
</g>
<g id="N-TEXT">
</g>
<g id="AG-DIAGRAM">
	<g id="POLYLINE_161_">
		<g>
			<g>
				
					<line fill="none" stroke="#FF6B6B" stroke-width="3" stroke-linecap="round" stroke-linejoin="round" x1="112.652" y1="646.684" x2="114.652" y2="646.684"/>
				
					<line fill="none" stroke="#FF6B6B" stroke-width="3" stroke-linecap="round" stroke-linejoin="round" stroke-dasharray="3.9939,6.9894" x1="121.642" y1="646.684" x2="1359.258" y2="646.684"/>
				
					<line fill="none" stroke="#FF6B6B" stroke-width="3" stroke-linecap="round" stroke-linejoin="round" x1="1362.753" y1="646.684" x2="1364.753" y2="646.684"/>
			</g>
		</g>
	</g>
	<g>
		<g id="POLYLINE_160_">
			<g>
				<g>
					
						<line fill="none" stroke="#FF6B6B" stroke-width="2" stroke-linecap="round" stroke-linejoin="round" x1="1081.163" y1="457.862" x2="1079.864" y2="458.612"/>
					
						<line fill="none" stroke="#FF6B6B" stroke-width="2" stroke-linecap="round" stroke-linejoin="round" stroke-dasharray="3.0188,5.0314" x1="1075.506" y1="461.127" x2="729.07" y2="661.076"/>
					
						<line fill="none" stroke="#FF6B6B" stroke-width="2" stroke-linecap="round" stroke-linejoin="round" x1="726.892" y1="662.334" x2="725.593" y2="663.084"/>
				</g>
			</g>
		</g>
		<g id="POLYLINE_159_">
			<g>
				<g>
					
						<line fill="none" stroke="#FF6B6B" stroke-width="2" stroke-linecap="round" stroke-linejoin="round" x1="1081.163" y1="457.862" x2="1081.163" y2="456.362"/>
					
						<line fill="none" stroke="#FF6B6B" stroke-width="2" stroke-linecap="round" stroke-linejoin="round" stroke-dasharray="3.0066,5.011" x1="1081.163" y1="451.352" x2="1081.163" y2="133.15"/>
					
						<line fill="none" stroke="#FF6B6B" stroke-width="2" stroke-linecap="round" stroke-linejoin="round" x1="1081.163" y1="130.645" x2="1081.163" y2="129.145"/>
				</g>
			</g>
		</g>
		<g id="POLYLINE_158_">
			<g>
				<g>
					
						<line fill="none" stroke="#FF6B6B" stroke-width="2" stroke-linecap="round" stroke-linejoin="round" x1="795.973" y1="277.743" x2="797.473" y2="277.743"/>
					
						<line fill="none" stroke="#FF6B6B" stroke-width="2" stroke-linecap="round" stroke-linejoin="round" stroke-dasharray="2.9943,4.9904" x1="802.463" y1="277.743" x2="1374.864" y2="277.743"/>
					
						<line fill="none" stroke="#FF6B6B" stroke-width="2" stroke-linecap="round" stroke-linejoin="round" x1="1377.359" y1="277.743" x2="1378.859" y2="277.743"/>
				</g>
			</g>
		</g>
		<g id="POLYLINE_155_">
			<g>
				<g>
					
						<line fill="none" stroke="#FF6B6B" stroke-width="2" stroke-linecap="round" stroke-linejoin="round" x1="1081.163" y1="457.862" x2="1082.663" y2="457.862"/>
					
						<line fill="none" stroke="#FF6B6B" stroke-width="2" stroke-linecap="round" stroke-linejoin="round" stroke-dasharray="2.9781,4.9635" x1="1087.627" y1="457.862" x2="1243.977" y2="457.862"/>
					<polyline fill="none" stroke="#FF6B6B" stroke-width="2" stroke-linecap="round" stroke-linejoin="round" points="
						1246.458,457.862 1247.958,457.862 1247.958,459.362 					"/>
					
						<line fill="none" stroke="#FF6B6B" stroke-width="2" stroke-linecap="round" stroke-linejoin="round" stroke-dasharray="3.0101,5.0169" x1="1247.958" y1="464.379" x2="1247.958" y2="662.547"/>
					
						<line fill="none" stroke="#FF6B6B" stroke-width="2" stroke-linecap="round" stroke-linejoin="round" x1="1247.958" y1="665.056" x2="1247.958" y2="666.556"/>
				</g>
			</g>
		</g>
		<g id="POLYLINE_151_">
			<g>
				<g>
					
						<line fill="none" stroke="#FF6B6B" stroke-width="1.9" stroke-linecap="round" stroke-linejoin="round" x1="1080.797" y1="457.862" x2="1080.797" y2="459.287"/>
					
						<line fill="none" stroke="#FF6B6B" stroke-width="1.9" stroke-linecap="round" stroke-linejoin="round" stroke-dasharray="2.8404,4.734" x1="1080.797" y1="464.021" x2="1080.797" y2="522.25"/>
					
						<line fill="none" stroke="#FF6B6B" stroke-width="1.9" stroke-linecap="round" stroke-linejoin="round" x1="1080.797" y1="524.617" x2="1080.797" y2="526.042"/>
				</g>
			</g>
			<g>
				<path fill="none" d="M810.954,646.612"/>
			</g>
			<g id="MTEXT_8_">
				<g>
					<g>
						<path fill="#FF6B6B" d="M1020.653,548.377c-0.062-0.061-0.093-0.139-0.093-0.234v-2.08h-4.631
							c-0.096,0-0.174-0.031-0.235-0.094c-0.062-0.061-0.093-0.139-0.093-0.234v-0.527c0-0.133,0.053-0.275,0.157-0.428l4.289-6.041
							c0.048-0.076,0.118-0.137,0.214-0.18c0.095-0.043,0.199-0.062,0.313-0.062h0.969c0.104,0,0.186,0.027,0.243,0.084
							c0.057,0.059,0.085,0.139,0.085,0.242v6.043h1.296c0.096,0,0.174,0.031,0.236,0.092c0.061,0.062,0.092,0.141,0.092,0.236
							v0.541c0,0.096-0.031,0.174-0.092,0.234c-0.062,0.062-0.141,0.094-0.236,0.094h-1.296v2.08c0,0.096-0.031,0.174-0.093,0.234
							c-0.062,0.062-0.141,0.094-0.235,0.094h-0.655C1020.793,548.471,1020.715,548.439,1020.653,548.377z M1017.084,544.893h3.491
							v-4.959L1017.084,544.893z"/>
						<path fill="#FF6B6B" d="M1026.262,548.229c-0.523-0.258-0.922-0.592-1.197-1.006c-0.275-0.412-0.424-0.857-0.442-1.332v-0.027
							c0-0.076,0.028-0.139,0.086-0.186c0.057-0.049,0.123-0.072,0.199-0.072h0.698c0.199,0,0.328,0.105,0.385,0.314
							c0.143,0.512,0.406,0.895,0.791,1.146s0.828,0.377,1.332,0.377c0.646,0,1.184-0.195,1.61-0.59
							c0.428-0.395,0.642-0.939,0.642-1.633c0-0.637-0.214-1.143-0.642-1.518c-0.427-0.375-0.964-0.562-1.61-0.562
							c-0.342,0-0.617,0.043-0.826,0.129c-0.209,0.084-0.423,0.209-0.641,0.369c-0.124,0.096-0.227,0.164-0.307,0.207
							c-0.081,0.043-0.17,0.064-0.264,0.064h-0.685c-0.085,0-0.161-0.031-0.228-0.092c-0.066-0.062-0.096-0.137-0.086-0.221
							l0.441-4.746c0.029-0.238,0.147-0.355,0.357-0.355h4.93c0.104,0,0.186,0.027,0.242,0.084c0.057,0.059,0.086,0.139,0.086,0.242
							v0.527c0,0.096-0.031,0.172-0.093,0.229s-0.14,0.086-0.235,0.086h-4.104l-0.257,2.863c0.456-0.322,1.069-0.484,1.839-0.484
							c0.636,0,1.215,0.127,1.738,0.379c0.521,0.252,0.938,0.619,1.246,1.104s0.463,1.059,0.463,1.725
							c0,0.703-0.154,1.309-0.463,1.816s-0.736,0.893-1.282,1.154s-1.171,0.393-1.874,0.393
							C1027.4,548.613,1026.783,548.484,1026.262,548.229z"/>
						<path fill="#FF6B6B" d="M1034.105,542.107c-0.318-0.176-0.57-0.418-0.756-0.727s-0.277-0.648-0.277-1.02
							c0-0.379,0.092-0.721,0.277-1.025s0.438-0.543,0.756-0.719s0.667-0.264,1.047-0.264s0.729,0.088,1.048,0.264
							c0.317,0.176,0.569,0.414,0.755,0.719s0.277,0.646,0.277,1.025c0,0.371-0.092,0.711-0.277,1.02s-0.438,0.551-0.755,0.727
							c-0.319,0.176-0.668,0.264-1.048,0.264S1034.424,542.283,1034.105,542.107z M1035.937,541.146
							c0.199-0.201,0.299-0.461,0.299-0.785c0-0.322-0.1-0.584-0.299-0.783c-0.2-0.199-0.461-0.299-0.784-0.299
							c-0.322,0-0.584,0.1-0.783,0.299s-0.299,0.461-0.299,0.783c0,0.324,0.1,0.584,0.299,0.785
							c0.199,0.199,0.461,0.299,0.783,0.299C1035.476,541.445,1035.736,541.346,1035.937,541.146z"/>
						<path fill="#FF6B6B" d="M1038.992,544.68c-0.061-0.057-0.092-0.133-0.092-0.229v-0.512c0-0.096,0.031-0.174,0.092-0.236
							c0.062-0.061,0.141-0.092,0.236-0.092h4.274c0.095,0,0.173,0.031,0.235,0.092c0.062,0.062,0.092,0.141,0.092,0.236v0.512
							c0,0.096-0.03,0.172-0.092,0.229c-0.062,0.057-0.141,0.086-0.235,0.086h-4.274
							C1039.133,544.766,1039.055,544.736,1038.992,544.68z"/>
						<path fill="#FF6B6B" d="M1045.918,548.377c-0.052-0.061-0.078-0.135-0.078-0.221l0.029-0.127l3.562-8.338h-4.703
							c-0.095,0-0.174-0.029-0.234-0.092c-0.062-0.062-0.094-0.141-0.094-0.234v-0.527c0-0.105,0.029-0.188,0.086-0.25
							s0.138-0.092,0.242-0.092h5.814c0.104,0,0.186,0.029,0.242,0.092s0.086,0.145,0.086,0.25v0.484
							c0,0.17-0.039,0.355-0.115,0.555l-3.52,8.236c-0.047,0.105-0.1,0.191-0.156,0.258s-0.138,0.1-0.242,0.1h-0.713
							C1046.039,548.471,1045.971,548.439,1045.918,548.377z"/>
						<path fill="#FF6B6B" d="M1053.072,547.537c-0.566-0.717-0.867-1.656-0.905-2.814l-0.015-1.227l0.015-1.268
							c0.028-1.148,0.33-2.082,0.905-2.801c0.574-0.717,1.469-1.074,2.686-1.074c1.226,0,2.125,0.357,2.701,1.074
							c0.574,0.719,0.875,1.652,0.904,2.801c0.01,0.266,0.014,0.689,0.014,1.268c0,0.561-0.004,0.971-0.014,1.227
							c-0.038,1.158-0.34,2.098-0.904,2.814c-0.566,0.717-1.467,1.076-2.701,1.076
							C1054.532,548.613,1053.637,548.254,1053.072,547.537z M1057.41,546.703c0.371-0.484,0.566-1.168,0.585-2.053
							c0.009-0.275,0.015-0.668,0.015-1.182c0-0.523-0.006-0.912-0.015-1.168c-0.019-0.875-0.216-1.557-0.591-2.045
							c-0.376-0.49-0.925-0.734-1.646-0.734c-0.723,0-1.268,0.244-1.639,0.734c-0.371,0.488-0.565,1.17-0.584,2.045l-0.015,1.168
							l0.015,1.182c0.019,0.885,0.213,1.568,0.584,2.053s0.916,0.727,1.639,0.727C1056.489,547.43,1057.041,547.188,1057.41,546.703
							z"/>
						<path fill="#FF6B6B" d="M1061.979,542.107c-0.318-0.176-0.57-0.418-0.756-0.727s-0.277-0.648-0.277-1.02
							c0-0.379,0.092-0.721,0.277-1.025s0.438-0.543,0.756-0.719s0.667-0.264,1.047-0.264s0.729,0.088,1.048,0.264
							c0.317,0.176,0.569,0.414,0.755,0.719s0.277,0.646,0.277,1.025c0,0.371-0.092,0.711-0.277,1.02s-0.438,0.551-0.755,0.727
							c-0.319,0.176-0.668,0.264-1.048,0.264S1062.297,542.283,1061.979,542.107z M1063.81,541.146
							c0.199-0.201,0.299-0.461,0.299-0.785c0-0.322-0.1-0.584-0.299-0.783c-0.2-0.199-0.461-0.299-0.784-0.299
							c-0.322,0-0.584,0.1-0.783,0.299s-0.299,0.461-0.299,0.783c0,0.324,0.1,0.584,0.299,0.785
							c0.199,0.199,0.461,0.299,0.783,0.299C1063.349,541.445,1063.609,541.346,1063.81,541.146z"/>
					</g>
				</g>
			</g>
			<g>
				<g id="POLYLINE_154_">
					<g>
						<path fill="none" d="M1072.45,527.562"/>
					</g>
				</g>
				<g id="POLYLINE_153_">
					
						<line fill="none" stroke="#FF6B6B" stroke-width="2.072" stroke-linecap="round" stroke-linejoin="round" stroke-miterlimit="10" x1="1023.888" y1="502.117" x2="1031.172" y2="501.995"/>
					
						<line fill="none" stroke="#FF6B6B" stroke-width="2.072" stroke-linecap="round" stroke-linejoin="round" stroke-miterlimit="10" x1="1024.011" y1="509.396" x2="1023.888" y2="502.117"/>
				</g>
				<g id="POLYLINE_152_">
					
						<line fill="none" stroke="#FF6B6B" stroke-width="2.072" stroke-linecap="round" stroke-linejoin="round" stroke-miterlimit="10" x1="1072.218" y1="525.51" x2="1066.596" y2="530.142"/>
					
						<line fill="none" stroke="#FF6B6B" stroke-width="2.072" stroke-linecap="round" stroke-linejoin="round" stroke-miterlimit="10" x1="1067.588" y1="519.887" x2="1072.218" y2="525.51"/>
				</g>
				<g>
					<path fill="none" d="M1067.836,525.016"/>
				</g>
				<g>
					<g>
						<path fill="none" stroke="#FF6B6B" stroke-width="2.072" stroke-linecap="round" stroke-linejoin="round" d="M1025.19,503.757
							c0.367,0.369,0.734,0.734,1.102,1.095"/>
						
							<path fill="none" stroke="#FF6B6B" stroke-width="2.072" stroke-linecap="round" stroke-linejoin="round" stroke-dasharray="3.241,5.4016" d="
							M1030.227,508.551c9.014,8.035,19.005,13.694,36.372,16.383"/>
						<path fill="none" stroke="#FF6B6B" stroke-width="2.072" stroke-linecap="round" stroke-linejoin="round" d="
							M1069.274,525.316c0.508,0.066,1.021,0.131,1.542,0.193"/>
					</g>
				</g>
			</g>
		</g>
		<g id="POLYLINE_150_">
			
				<line fill="none" stroke="#FF6B6B" stroke-width="1.9" stroke-linecap="round" stroke-linejoin="round" stroke-miterlimit="10" x1="725.593" y1="663.084" x2="726.63" y2="656.482"/>
			
				<line fill="none" stroke="#FF6B6B" stroke-width="1.9" stroke-linecap="round" stroke-linejoin="round" stroke-miterlimit="10" x1="732.19" y1="664.121" x2="725.593" y2="663.084"/>
		</g>
		<g id="POLYLINE_149_">
			
				<line fill="none" stroke="#FF6B6B" stroke-width="2" stroke-linecap="round" stroke-linejoin="round" stroke-miterlimit="10" x1="1081.15" y1="127.472" x2="1086.123" y2="132.42"/>
			
				<line fill="none" stroke="#FF6B6B" stroke-width="2" stroke-linecap="round" stroke-linejoin="round" stroke-miterlimit="10" x1="1076.203" y1="132.44" x2="1081.15" y2="127.472"/>
		</g>
		<g id="POLYLINE_148_">
			
				<line fill="none" stroke="#FF6B6B" stroke-width="2" stroke-linecap="round" stroke-linejoin="round" stroke-miterlimit="10" x1="1381.052" y1="277.73" x2="1376.104" y2="282.703"/>
			
				<line fill="none" stroke="#FF6B6B" stroke-width="2" stroke-linecap="round" stroke-linejoin="round" stroke-miterlimit="10" x1="1376.083" y1="272.783" x2="1381.052" y2="277.73"/>
		</g>
		<g id="POLYLINE_147_">
			
				<line fill="none" stroke="#FF6B6B" stroke-width="2" stroke-linecap="round" stroke-linejoin="round" stroke-miterlimit="10" x1="794.659" y1="277.633" x2="799.331" y2="272.399"/>
			
				<line fill="none" stroke="#FF6B6B" stroke-width="2" stroke-linecap="round" stroke-linejoin="round" stroke-miterlimit="10" x1="799.889" y1="282.304" x2="794.659" y2="277.633"/>
		</g>
		<g id="POLYLINE_146_">
			
				<line fill="none" stroke="#FF6B6B" stroke-width="2" stroke-linecap="round" stroke-linejoin="round" stroke-miterlimit="10" x1="1248.023" y1="668.685" x2="1242.998" y2="663.789"/>
			
				<line fill="none" stroke="#FF6B6B" stroke-width="2" stroke-linecap="round" stroke-linejoin="round" stroke-miterlimit="10" x1="1252.918" y1="663.662" x2="1248.023" y2="668.685"/>
		</g>
	</g>
</g>
<g id="AG-PEOPLE">
	<g id="POLYLINE_131_">
		
			<path fill="none" stroke="#FF6B6B" stroke-width="2.75" stroke-linecap="round" stroke-linejoin="round" stroke-miterlimit="10" d="
			M1034.677,409.137c1.137-3.935,1.918-7.844,2.104-11.943c0.192-4.217,0.129-8.446-0.055-12.663
			c-0.183-4.166-0.442-8.333-1.107-12.454c-0.652-4.041-1.795-7.938-3.02-11.836c-1.283-4.086-2.49-8.15-3.268-12.369
			c-0.774-4.195-1.344-8.418-2.478-12.538c-2.087-7.579-6.511-14.704-11.708-20.541c-1.885-2.116-4.048-4.086-6.701-5.171
			c-2.906-1.189-6.163-1.355-9.263-1.471c-8.456-0.314-17.239-0.2-25.304-3.121c-3.629-1.314-7.06-3.077-10.503-4.807
			c-4.359-2.189-8.722-4.35-13.125-6.448c-7.427-3.54-15.122-7.111-23.177-8.936c-8.308-1.882-17.165-1.733-25.632-1.528
			c-8.327,0.201-16.687,1.461-25.012,0.577c-8.547-0.907-16.547-4.054-24.521-7.079c-4.14-1.569-8.275-3.129-12.454-4.592
			c-3.898-1.363-7.916-2.675-11.987-3.4c-1.28-0.229-2.604-0.409-3.896-0.178c-1.448,0.26-2.816,0.824-4.279,1.053
			c-3.775,0.589-7.566,0.217-11.269-0.646c-7.488-1.745-13.709-6.399-20.973-8.741c-3.904-1.259-7.97-2.028-11.8-3.521
			c-1.787-0.696-3.438-1.665-5.083-2.64c-1.77-1.049-3.576-1.975-5.43-2.865c-2.904-1.395-6.205-2.805-8.32-5.339
			c-0.755-0.904-1.34-2.087-0.91-3.269c0.299-0.82,0.998-1.357,1.868-1.418c0.951-0.066,1.94,0.314,2.808,0.652
			c1.824,0.711,3.575,1.574,5.45,2.154c2.055,0.635,4.154,1.102,6.221,1.696c2.109,0.608,4.204,1.274,6.324,1.845
			c3.949,1.063,7.924,1.492,11.994,1.749c4.428,0.279,8.794,0.625,13.14,1.565c4.058,0.878,8.125,2.023,12.296,2.182
			c3.995,0.151,7.957-0.564,11.948-0.546c4.134,0.019,8.204,1.019,12.239,1.806c7.262,1.418,14.758,1.23,22.114,0.932
			c9.651-0.395,19.304-0.881,28.958-1.177c4.53-0.14,9.069-0.366,13.602-0.183c3.657,0.148,7.207,0.862,10.687,1.978
			c3.889,1.245,7.729,2.827,11.761,3.562c4.026,0.735,8.162,0.348,12.213,0.896c3.701,0.501,7.358,1.376,10.967,2.325
			c4.871,1.279,9.742,2.56,14.612,3.84c3.877,1.019,7.88,2.131,11.874,2.56c4.121,0.442,7.878-0.858,11.824-1.841
			c8.058-2.007,16.558-2.369,24.818-1.801c4.2,0.289,8.342,1.027,12.479,1.772c3.969,0.715,8.174,1.81,12.213,1.041
			c7.318-1.393,14.089-6.745,17.345-13.379c2.594-5.286,3.566-11.165,2.863-17.007"/>
	</g>
	<g id="POLYLINE_130_">
		
			<path fill="none" stroke="#FF6B6B" stroke-width="2.75" stroke-linecap="round" stroke-linejoin="round" stroke-miterlimit="10" d="
			M1131.403,420.394c-0.25-8.611-0.282-17.205,0.52-25.79c0.805-8.606,2.712-17.07,3.8-25.641c1.066-8.402,0.44-16.889,1.253-25.303
			c0.796-8.242,2.944-16.698,6.775-24.075c1.573-3.028,3.696-5.835,6.765-7.463c3.233-1.715,7.016-2.173,10.595-2.612
			c4.198-0.516,8.4-0.865,12.558-1.674c4.235-0.825,8.393-1.951,12.489-3.303c7.884-2.603,15.443-6.086,22.96-9.584
			c4.382-2.041,8.753-4.105,13.156-6.1c3.751-1.699,7.538-3.365,11.488-4.55c8.523-2.556,17.27-1.427,25.979-0.722
			c8.094,0.656,16.149,0.702,24.166-0.754c7.886-1.434,15.533-4.186,22.991-7.062c4.549-1.755,9.072-3.604,13.665-5.243
			c3.335-1.19,6.724-2.267,10.303-2.209c3.973,0.064,7.875,1.045,11.819,1.423c3.836,0.368,7.595,0.294,11.355-0.608
			c2.07-0.496,4.096-1.155,6.152-1.701c2.095-0.557,4.219-0.945,6.349-1.34c4.396-0.814,8.727-1.82,13.066-2.895
			c3.998-0.988,7.998-2.016,12.078-2.612c3.614-0.528,7.64-0.735,10.977-2.367c1.932-0.945,4.354-3.222,2.722-5.485
			c-0.662-0.918-1.686-1.051-2.749-0.885c-1.668,0.262-3.271,0.881-4.916,1.256c-1.887,0.431-3.825,0.656-5.753,0.805
			c-8.597,0.662-17.116-0.311-25.678-0.965c-8.607-0.659-17.245,0.04-25.857-0.391c-4.123-0.207-8.181-1.059-12.312-1.157
			c-4.172-0.1-8.354,0.179-12.508,0.544c-4.322,0.381-8.611,1.014-12.924,1.479c-4.227,0.455-8.438,0.541-12.686,0.403
			c-8.798-0.284-17.579-1.417-26.378-1.507c-8.485-0.085-16.965,1.332-25.11,3.67c-3.254,0.934-6.454,2.633-9.893,2.701
			c-2.038,0.039-4.049-0.041-6.078,0.223c-2.02,0.263-4.029,0.65-6.012,1.119c-8.563,2.024-16.793,4.996-25.167,7.654
			c-3.568,1.133-7.265,2.221-11.022,2.439c-3.704,0.217-7.117-0.883-10.562-2.112c-3.856-1.376-7.756-2.431-11.839-2.856
			c-4.117-0.429-8.314-0.328-12.426,0.116c-4.155,0.449-8.282,1.136-12.332,2.181c-1.887,0.486-3.746,1.07-5.551,1.808
			c-1.61,0.659-2.971,1.6-4.42,2.544c-1.588,1.035-3.043,1.104-4.868,0.584c-1.885-0.537-3.677-1.37-5.502-2.072
			c-2.01-0.773-4.063-1.338-6.13-1.935c-2.006-0.579-4.185-1.24-5.674-2.792c-1.567-1.633-2.168-4.039-2.584-6.191
			c-0.365-1.89-0.815-3.83-0.929-5.756c-0.042-0.711-0.027-1.453,0.202-2.133c0.425-1.262,1.586-2.002,2.786-2.428
			c2.893-1.025,6.193-0.746,9.198-0.602c2.763,0.134,6.345,0.818,8.92-0.584c1.957-1.066,2.612-3.495,2.973-5.531
			c0.216-1.221,0.061-2.662,0.518-3.816c0.427-1.078,1.531-1.868,2.267-2.713c0.59-0.678,1.127-1.428,0.772-2.328
			c-0.462-1.176-0.884-1.3-0.241-2.483c0.832-1.534,0.112-2.604-0.356-4.201c-0.252-0.859-0.383-1.899,0.248-2.625
			c1.135-1.306,3.126-0.632,4.547-1.269c1.007-0.452,1.436-1.6,1.518-2.638c0.164-2.065-1.312-3.91-2.469-5.456
			c-1.26-1.686-2.606-3.348-3.633-5.193c-0.414-0.743-0.822-1.561-0.926-2.418c-0.178-1.477,1.146-2.421,1.135-3.89
			c-0.009-1.257-0.428-2.537-0.833-3.712c-0.646-1.873-1.33-3.734-1.763-5.672c-0.881-3.952-1.258-8.033-1.351-12.076"/>
	</g>
	<g id="POLYLINE_129_">
		
			<path fill="none" stroke="#FF6B6B" stroke-width="2.75" stroke-linecap="round" stroke-linejoin="round" stroke-miterlimit="10" d="
			M1070.294,214.088c0.435,3.938-0.115,7.709-1.01,11.542c-0.403,1.728-1.104,3.182-2.392,4.411
			c-1.637,1.563-3.881,2.191-5.506,3.732c-0.898,0.854-1.527,1.974-2.195,3.002c-0.17,0.26-0.648,1.17-1.088,1.098
			c-0.351-0.07-0.458-0.693-0.516-0.958c-0.396-1.823-0.361-3.77-0.46-5.624c-0.206-3.883-0.935-7.734-2.046-11.459
			c-1.18-3.952-2.959-7.695-4.059-11.674c-1.089-3.94-1.343-8.095-0.724-12.135c0.597-3.891,1.948-7.646,3.431-11.275
			c1.503-3.68,3.206-7.094,6.027-9.941c2.906-2.933,6.349-5.449,9.781-7.725c3.35-2.222,6.9-3.18,10.804-3.923
			c2.147-0.409,4.283-0.802,6.394-1.374c1.611-0.438,3.19-0.765,4.866-0.799c1.86-0.039,3.687,0.273,5.533,0.435
			c1.793,0.156,3.585-0.039,5.374,0.099c1.948,0.151,3.206,1.164,4.793,2.232c1.882,1.267,4.234,1.467,6.055,2.829
			c1.027,0.769,1.92,1.688,3.043,2.323c1.251,0.707,2.653,1.071,3.936,1.711c0.747,0.373,1.533,0.836,1.572,1.746
			c0.029,0.676-0.28,1.332-0.172,2.012c0.104,0.65,0.523,1.222,0.924,1.725c1.201,1.511,1.837,2.674,1.221,4.643
			c-0.271,0.866-0.778,1.846-1.824,1.609c-1.025-0.232-1.972-1.162-2.772-1.764c-1.279-0.961-2.609-1.823-4.099-2.422
			c-2.252-0.906-4.545-1.18-6.922-0.691c-1.956,0.402-3.824,1.163-5.793,1.512c-0.94,0.166-2.217,0.173-3.045,0.748
			c-0.68,0.472-0.755,1.324-0.526,2.066c0.409,1.334,1.685,1.971,2.868,2.511c1.859,0.848,3.487,1.655,3.812,3.879
			c0.2,1.37-0.087,2.792-0.95,3.89c-1.602,2.035-4.569,2.715-6.786,3.789c-1.417,0.687-2.993,1.545-2.992,3.309
			c0,1.143,0.449,2.256,0.678,3.362c0.357,1.733,0.428,3.534,0.233,5.292c-0.119,1.072-0.353,4.078-1.731,4.533
			c-1.1,0.412-2.585-1.615-3.148-2.13c-2.758-2.519-6.135-4.468-9.355-6.324"/>
	</g>
	<g id="POLYLINE_128_">
		
			<path fill="none" stroke="#FF6B6B" stroke-width="2.75" stroke-linecap="round" stroke-linejoin="round" stroke-miterlimit="10" d="
			M1081.527,203.909c-2.426-2.413-5.535-3.022-8.582-1.279c-4.302,2.462-4.412,7.505-2.583,11.614
			c1.311,2.945,3.393,5.965,6.152,7.723c2.067,1.316,4.42,1.479,6.816,1.443c2.151-0.032,3.391-0.57,3.328-2.87"/>
	</g>
	<g id="POLYLINE_126_">
		
			<path fill="none" stroke="#FF6B6B" stroke-width="2.75" stroke-linecap="round" stroke-linejoin="round" stroke-miterlimit="10" d="
			M1083.716,430.018c-8.314-0.793-16.377-2.809-24.274-5.504c-7.521-2.566-15.843-5.432-21.62-11.138
			c-0.849-0.838-1.67-1.756-2.259-2.8c-0.195-0.346-0.408-1.389-0.894-1.439c-0.354,0-0.695,0.537-0.869,0.772
			c-1.201,1.634-2.112,3.504-3.1,5.268c-0.869,1.551-1.812,3.075-2.854,4.516c-1.211,1.674-2.656,3.144-4.016,4.692
			c-1.708,1.947-3.843,4.364-4.114,7.08c-0.191,1.91,0.875,3.697,0.174,5.579c-0.575,1.542-1.435,3.028-2.106,4.535
			c-0.374,0.837-0.786,1.702-1.421,2.378c-1.173,1.249-3.003,1.355-4.367,2.31c-1.907,1.334-2.851,3.972-3.905,5.926
			c-1.014,1.877-2.136,4.064-4.465,4.441c-1.145,0.186-2.964-0.295-3.624,0.975c-0.411,0.792-0.412,1.734-0.892,2.507
			c-0.34,0.549-0.836,0.983-1.348,1.367c-1.583,1.186-3.375,2.102-5.03,3.186c-1.766,1.155-3.496,2.373-5.172,3.656
			c-2.985,2.287-5.557,5.035-8.36,7.533c-3.676,3.276-7.393,6.513-11.02,9.843c-6.294,5.78-11.225,12.896-16.437,19.621
			c-1.814,2.341-3.812,5.221-6.494,6.654c-1.891,1.011-4.141,0.768-6.109,1.557c-1.237,0.496-1.896,1.262-2.019,2.6
			c-0.146,1.575-0.05,2.675-1.562,3.448c-1.24,0.634-2.616,0.952-3.852,1.607c-1.271,0.675-2.358,1.65-3.435,2.591
			c-1.847,1.615-3.359,2.968-5.912,2.906c-3.31-0.08-6.373-0.348-9.495,0.968c-1.92,0.81-3.714,1.908-5.524,2.929
			c-1.738,0.979-3.564,1.763-5.344,2.659c-4.517,2.273-7.562,6.553-6.884,11.762c1.05,8.064,7.581,13.221,14.251,16.837
			c3.704,2.008,7.485,3.793,11.053,6.046c3.456,2.184,6.778,4.715,10.581,6.283c4.648,1.917,10.561,1.55,14.393-2.014
			c0.931-0.865,1.564-1.969,2.341-2.963c0.676-0.864,1.469-1.578,2.362-2.214c3.41-2.426,7.344-4.052,10.895-6.258
			c3.693-2.294,6.934-5.193,10.342-7.872c3.156-2.479,6.52-4.55,10.16-6.245c3.752-1.748,7.7-2.984,11.552-4.482
			c4.298-1.672,8.51-3.54,12.731-5.394c8.223-3.611,16.305-7.578,24.446-11.368c7.695-3.582,15.322-7.42,23.189-10.618
			c3.735-1.519,7.575-2.833,11.515-3.708c4.297-0.955,8.68-1.432,12.993-2.299c4.046-0.813,7.846-1.97,11.562-3.771
			c3.454-1.675,6.79-3.719,10.479-4.855c7.268-2.238,15.036-0.181,22.371,0.601c8.118,0.864,16.277,0.566,24.394-0.116
			c4.821-0.406,9.641-0.833,14.467-1.173c4.241-0.299,8.456-0.207,12.696,0c4.18,0.205,8.223,0.271,12.365-0.43
			c4.169-0.705,8.279-1.862,12.5-2.238c4.042-0.36,8.162,0.02,12.127-1.002c3.025-0.778,6.095-2.507,9.286-2.422
			c1.361,0.036,2.681,0.48,3.817,1.224c1.667,1.091,1.988,2.59,2.697,4.368c0.415,1.04,1.098,1.983,1.326,3.094
			c0.242,1.178-0.172,2.328-0.127,3.505c0.032,0.855,0.499,1.227,1.34,1.288c1.34,0.099,2.764-0.306,4.044-0.637
			c2.034-0.525,4.026-1.198,6.008-1.894c3.825-1.344,7.577-2.902,11.217-4.688c8.069-3.958,15.312-9.244,22.647-14.387
			c3.205-2.246,6.694-4.201,9.734-6.662c1.019-0.825,2.34-1.979,2.146-3.439c-0.093-0.7-0.491-1.336-0.899-1.896
			c-1.144-1.568-2.589-2.926-3.862-4.389c-2.651-3.042-5.057-6.334-7.089-9.822c-1.073-1.841-2.075-3.721-3.116-5.58
			c-0.747-1.333-1.555-2.693-2.638-3.786c-1.678-1.691-3.979-1.84-6.125-2.632c-3.611-1.333-6.798-3.633-10.499-4.747
			c-4.153-1.25-8.734-1.362-13.016-1.83c-8.15-0.89-16.27-2.264-24.293-3.942c-4.442-0.93-8.882-1.985-13.391-2.548
			c-4.191-0.523-8.429-0.646-12.646-0.812c-4.297-0.169-8.594-0.266-12.893-0.099c-4.172,0.162-8.159,0.932-12.258,1.646
			c-1.26,0.22-2.577,0.385-3.854,0.224c-1.284-0.162-2.456-0.727-3.657-1.174c-2.634-0.98-5.019-0.351-7.706,0.17
			c-0.814,0.157-1.769,0.352-2.589,0.116c-0.599-0.172-1.002-0.661-1.561-0.899c-1.295-0.553-2.566,0.958-3.714,1.283
			c-0.291,0.082-0.517,0.118-0.78-0.063c-0.738-0.738-1.082-1.897-1.65-2.772c-0.646-0.994-1.413-1.824-2.322-2.58
			c-0.759-0.631-1.703-1.268-2.215-2.147c-0.902-1.554-0.052-3.563-0.305-5.262c-0.104-0.697-0.344-1.468-1.102-0.965
			c-0.989,0.655-1.731,1.683-2.723,2.37c-1.532,1.063-3.244,1.854-4.965,2.559c-3.848,1.573-7.889,2.716-11.951,3.574
			c-8.399,1.772-16.949,1.846-25.474,1.1C1085.054,430.135,1084.385,430.076,1083.716,430.018z"/>
	</g>
	<g id="POLYLINE_125_">
		
			<path fill="none" stroke="#FF6B6B" stroke-width="2.75" stroke-linecap="round" stroke-linejoin="round" stroke-miterlimit="10" d="
			M1228.944,506.777c-0.81,3.842-1.374,7.738-1.424,11.67c-0.051,3.979,0.506,7.893,1.258,11.79
			c1.644,8.514,3.169,16.933,3.753,25.602c0.586,8.707,0.865,17.439,0.808,26.167c-0.06,8.831-0.268,17.686-1.138,26.479
			c-0.43,4.332-0.979,8.646-1.816,12.92c-0.807,4.118-1.986,8.167-2.6,12.321c-0.629,4.258-0.454,8.871,3.843,10.989
			c3.464,1.707,7.661,1.954,11.457,1.925c4.216-0.032,8.384-0.697,12.565-1.162c8.919-0.992,17.842-0.174,26.762,0.395
			c8.522,0.543,17.014,0.588,25.553,0.614c3.982,0.013,8.043,0.594,12.011,0.073c1.597-0.209,3.252-0.667,4.395-1.872
			c3.053-3.221-1.56-5.571-4.119-6.687c-3.592-1.565-7.363-2.74-11.111-3.864c-4.186-1.255-8.572-2.308-12.495-4.284
			c-7.169-3.613-12.621-9.778-19.975-13.121c-3.12-1.419-6.452-2.629-8.746-5.305c-2.299-2.683-3.566-6.159-4.481-9.523
			c-2.183-8.026-2.829-16.685-2.419-24.974c0.44-8.918,2.45-17.586,4.213-26.312c1.593-7.884,2.607-15.924,3.43-23.922
			c0.976-9.493,1.814-18.989,2.575-28.503c0.327-4.078,0.546-8.165,0.809-12.248"/>
	</g>
	<g id="POLYLINE_124_">
		
			<path fill="none" stroke="#FF6B6B" stroke-width="2.75" stroke-linecap="round" stroke-linejoin="round" stroke-miterlimit="10" d="
			M896.582,537.938c-4.038,1.468-8.02,3.043-11.869,4.957c-3.875,1.927-7.538,4.24-11.172,6.581
			c-7.682,4.946-15.114,10.312-22.61,15.532c-6.548,4.562-13.075,9.158-19.383,14.048c-3.778,2.929-7.492,5.971-11.382,8.752
			c-3.377,2.414-6.968,4.33-10.804,5.907c-7.69,3.161-15.827,5.376-22.825,10.016c-3.327,2.206-6.397,4.843-9.065,7.813
			c-2.619,2.916-4.967,6.079-7.53,9.048c-3.051,3.532-6.234,6.987-9.063,10.704c-2.008,2.638-3.972,5.634-4.484,8.975
			c-0.236,1.539-0.305,3.542,0.668,4.868c1.158,1.579,3.783,1.104,5.437,1.163c4.274,0.152,8.533,0.463,12.813,0.357
			c3.714-0.092,7.455-0.262,10.949-1.637c1.644-0.646,3.393-1.363,4.396-2.901c1.523-2.335,1.585-5.555,2.2-8.194
			c1.889-8.106,8.315-13.858,15.567-17.427c1.972-0.97,3.978-1.893,5.859-3.033c1.678-1.018,3.248-2.194,4.823-3.36
			c3.317-2.455,6.613-4.984,10.334-6.811c3.81-1.87,7.823-3.244,11.812-4.675c4.328-1.552,8.619-3.206,12.92-4.832
			c3.849-1.454,7.689-2.928,11.588-4.243c4.33-1.462,8.734-2.614,13.149-3.786c3.89-1.032,7.752-2.115,11.502-3.594
			c3.894-1.534,7.63-3.444,11.253-5.533c5.438-3.136,10.594-6.763,15.438-10.752"/>
	</g>
	<g id="POLYLINE_121_">
		
			<path fill="none" stroke="#FF6B6B" stroke-width="2.75" stroke-linecap="round" stroke-linejoin="round" stroke-miterlimit="10" d="
			M363.367,427.712c-7.071,4.79-14.057,9.64-20.359,15.433c-6.31,5.799-12.216,12.046-17.908,18.448
			c-6.357,7.149-12.466,14.494-18.603,21.833c-5.306,6.347-10.601,12.632-16.649,18.298c-6.135,5.747-12.893,10.973-20.048,15.389
			c-7.415,4.575-15.409,8.017-23.091,12.095c-7.491,3.978-14.265,8.938-20.73,14.405c-6.624,5.601-12.769,11.766-19.035,17.755
			c-6.35,6.07-12.579,12.309-19.269,18.01c-3.195,2.723-6.49,5.33-9.99,7.652c-1.94,1.288-3.903,2.548-5.815,3.879
			c-1.048,0.729-2.142,1.509-2.955,2.508c-0.882,1.084-1.028,2.226-0.441,3.493c0.573,1.237,1.506,2.33,2.402,3.342
			c1.552,1.754,3.166,3.453,4.755,5.172c1.439,1.556,3.334,4.316,5.622,4.664c1.613,0.245,2.947-1.422,3.942-2.406
			c2.771-2.742,6.234-4.512,9.697-6.221c3.796-1.874,7.633-3.669,11.479-5.437c7.821-3.594,15.672-7.156,23.688-10.297
			c8.234-3.226,16.692-6.161,24.24-10.854c7.284-4.528,13.709-10.289,19.954-16.127c3.092-2.891,6.005-5.986,9.254-8.706
			c3.006-2.517,6.368-4.354,10.019-5.758c4.053-1.56,8.2-2.899,12.153-4.707c3.9-1.784,7.587-3.957,11.21-6.243
			c7.954-5.021,15.514-10.724,23.185-16.157c6.538-4.632,13.189-9.181,20.159-13.144c7.794-4.433,15.935-8.13,24.046-11.936
			c7.761-3.641,15.214-7.95,23.213-11.067c3.671-1.431,7.478-2.635,11.344-3.41c3.488-0.7,7.198-1.243,10.737-0.575
			c3.668,0.692,6.963,2.607,10.615,3.388c4.042,0.862,8.191,1.056,12.305,1.307c9.062,0.553,17.993,1.628,26.993,2.805
			c8.266,1.081,16.619,1.697,24.957,1.546c8.636-0.157,17.073-1.715,25.573-3.105c8.181-1.338,16.329-1.58,24.552-0.468
			c4.156,0.562,8.279,1.329,12.379,2.214c2.043,0.441,4.138,0.802,6.125,1.464c0.53,0.177,1.182,0.415,1.561,0.849
			c0.456,0.521,0.29,1.119,0.041,1.715c-0.658,1.57-1.547,3.007-2.095,4.63c-0.602,1.779-0.997,3.631-1.312,5.479
			c-1.449,8.474-1.559,17.269-0.787,25.816c0.768,8.497,3.652,16.34,6,24.471c2.491,8.625,3.732,17.553,5.156,26.397
			c1.365,8.481,2.626,16.987,3.686,25.512c0.506,4.075,0.903,8.201,0.877,12.312c-0.013,2.017-0.197,4.003-0.432,6.003
			c-0.083,0.717-0.209,1.568,0.102,2.254c0.544,1.2,2.263,1.163,3.36,1.147c3.855-0.053,7.84-1.064,11.564-1.979
			c3.883-0.952,7.756-2.14,11.364-3.881c1.61-0.777,3.214-1.63,4.638-2.72c0.667-0.51,1.441-1.124,1.796-1.91
			c0.603-1.336-0.881-2.714-1.427-3.804c-1.812-3.616-2.667-7.764-3.484-11.695c-1.696-8.159-2.249-16.479-2.217-24.798
			c0.035-9.035,0.938-18.063,1.65-27.062c0.666-8.416,1.241-16.818,1.074-25.267c-0.168-8.494-1.026-17.031-0.588-25.528
			c0.443-8.578,1.063-17.104-0.374-25.628c-1.131-6.706-3.029-15.09-9.17-19.021c-3.393-2.172-7.49-3.263-11.285-4.503
			c-4.478-1.464-8.987-2.837-13.479-4.254c-7.999-2.522-15.795-5.608-23.724-8.332c-8.045-2.764-16.294-5.062-24.739-6.199
			c-9.289-1.251-18.663-1.69-28.009-2.318c-3.638-0.244-7.283-0.504-10.888-1.071c-2.992-0.472-6.271-1.07-8.639-3.114
			c-1.156-0.998-2.096-2.209-3.199-3.262"/>
	</g>
	<g id="POLYLINE_120_">
		
			<path fill="none" stroke="#FF6B6B" stroke-width="2.75" stroke-linecap="round" stroke-linejoin="round" stroke-miterlimit="10" d="
			M586.44,622.296c-0.662,3.991-0.57,8.043-0.521,12.073c0.032,2.661-0.38,5.978,1.057,8.381c1.08,1.807,3.217,2.656,5.179,3.095
			c3.764,0.841,7.768,0.52,11.563,0.088c4.256-0.482,8.452-1.388,12.707-1.854c4.056-0.444,8.135-0.239,12.191,0.09
			c8.735,0.707,17.437,1.801,26.202,2.101c4.396,0.149,8.788,0.252,13.185,0.089c2.323-0.087,5.613,0.07,7.544-1.541
			c1.548-1.292,2.122-5.351-0.388-5.934c-1.411-0.328-2.936-0.117-4.373-0.355c-1.824-0.303-3.622-0.79-5.377-1.366
			c-3.903-1.281-7.724-2.834-11.371-4.729c-3.531-1.834-6.893-3.994-10.291-6.058c-4.255-2.582-8.509-5.164-12.763-7.746
			c-3.979-2.414-8.116-4.516-12.386-6.36"/>
	</g>
	<g id="POLYLINE_119_">
		
			<path fill="none" stroke="#FF6B6B" stroke-width="2.75" stroke-linecap="round" stroke-linejoin="round" stroke-miterlimit="10" d="
			M444.344,250.701c-1.433-1.188-2.567-2.401-3.213-4.162c-1.04-2.844-1.354-6.428-0.44-9.348c0.442-1.413,1.279-2.777,2.663-3.427
			c0.842-0.396,1.783-0.494,2.703-0.489c2.207,0.01,4.421,0.479,6.594,0.813c1.933,0.298,3.892,0.536,5.85,0.573
			c1.35,0.026,2.829,0.05,4.122-0.408c1.226-0.436,1.961-1.396,2.269-2.643c0.356-1.446,0.247-2.914-0.308-4.295
			c-0.261-0.648-0.609-1.345-0.533-2.066c0.086-0.811,0.637-1.51,0.981-2.219c0.259-0.531,0.458-1.111,0.402-1.711
			c-0.05-0.53-0.416-1.008-0.406-1.537c0-0.514,0.41-0.938,0.559-1.414c0.266-0.854,0.06-1.609-0.123-2.445
			c-0.235-1.078-0.016-2.264,0.169-3.332c0.104-0.598,0.155-1.719,0.718-2.152c0.331-0.29,0.915-0.205,1.306-0.186
			c0.906,0.046,1.801,0.137,2.634-0.3c1.068-0.56,1.457-1.573,1.235-2.726c-0.206-1.074-0.761-2.084-1.296-3.021
			c-1.179-2.062-2.469-4.064-3.705-6.092c-0.895-1.467-1.723-2.899-1.177-4.632c0.564-1.793,1.602-3.255,1.248-5.197
			c-0.438-2.412-1.794-4.667-2.636-6.955c-0.993-2.7-1.752-5.417-2.122-8.271"/>
	</g>
	<g id="POLYLINE_118_">
		
			<path fill="none" stroke="#FF6B6B" stroke-width="2.75" stroke-linecap="round" stroke-linejoin="round" stroke-miterlimit="10" d="
			M426.041,209.316c-2.91,1.875-6.886,1.083-9.433-1.135c-2.023-1.762-3.281-4.32-4.012-6.861c-0.681-2.369-1.034-5.074-0.339-7.486
			c0.878-3.049,3.503-4.615,6.494-3.31c0.955,0.417,1.856,0.998,2.634,1.692c0.69,0.615,1.187,1.405,1.855,2.041
			c1.346,1.28,3.312,2.496,5.192,2.717c1.608,0.189,3.405-0.235,4.395-1.6c1.412-1.945,1.567-4.619,1.58-6.924
			c0.01-1.988,1.513-2.845,2.549-4.391c0.972-1.447,0.938-3.409-0.03-4.858c-0.983-1.473-3.033-2.499-3.32-4.393
			c-0.161-1.062,0.605-1.974,1.495-2.452c1.054-0.568,2.301-0.503,3.458-0.553c1.146-0.051,2.262-0.269,3.345-0.644
			c2.129-0.737,3.818-1.807,5.072-3.675c0.577-0.859,1.12-1.02,2.136-0.738c1.815,0.502,3.604,1.158,5.419,1.682
			c1.033,0.298,2.079,0.65,2.958,1.289c1.024,0.744,1.798,1.774,2.782,2.568c0.343,0.277,0.919,0.797,1.408,0.777
			c1.038,0.148,0.428-2.188,0.335-2.54c-0.765-2.888-2.85-5.312-4.983-7.313c-2.777-2.605-6.242-4.403-10.044-4.889
			c-1.137-0.146-2.282,0.037-3.414-0.117c-1.457-0.198-2.858-0.833-4.224-1.343c-3.571-1.335-7.153-2.341-10.998-1.878
			c-4.283,0.518-8.396,2.166-12.374,3.755c-3.353,1.339-6.552,2.962-9.333,5.288c-2.962,2.479-5.5,5.482-7.546,8.752
			c-1.499,2.396-3.099,5.236-3.292,8.123c-0.11,1.656,1.001,3.158,0.802,4.771c-0.25,2.022-2.977,3.377-4.449,4.348
			c-2.016,1.33-4.085,2.649-5.316,4.792c-1.383,2.405-1.896,5.49-2.021,8.23c-0.053,1.155-0.03,2.331,0.228,3.464
			c0.285,1.253,0.943,2.368,1.294,3.598c0.643,2.25-0.39,4.735-0.962,6.879c-0.683,2.56-1.346,5.502-3.153,7.546
			c-1.74,1.969-4.396,2.78-6.342,4.513c-0.72,0.642-1.929,1.857-1.784,2.939c0.167,1.25,2.723-0.164,3.195-0.305
			c0.732-0.219,2.974-0.861,3.433,0.225c0.108,0.252,0.016,0.554-0.064,0.799c-0.431,1.316-1.503,2.516-2.266,3.633
			c-0.279,0.41-2.783,3.95-1.796,4.492c0.394,0.111,0.903-0.263,1.21-0.448c1.225-0.741,2.358-2.021,3.71-2.509
			c0.346-0.126,0.429-0.195,0.482,0.158c0.057,0.371-0.336,0.953-0.447,1.293c-0.146,0.443-0.263,0.895-0.293,1.362
			c-0.066,1.036,0.25,2.071,0.753,2.969c0.477,0.851,1.293,1.465,1.754,2.31c0.348,0.637,0.135,1.173-0.2,1.777
			c-0.853,1.539-1.375,2.559-1.345,4.338"/>
	</g>
	<g id="POLYLINE_117_">
		
			<path fill="none" stroke="#FF6B6B" stroke-width="2.75" stroke-linecap="round" stroke-linejoin="round" stroke-miterlimit="10" d="
			M398.722,248.404c3.241-2.562,6.182-5.36,8.897-8.473c2.626-3.01,5.415-6.179,7.268-9.742c1.501-2.886,1.991-6.012,2.138-9.234
			c0.182-4.016,0.314-8,0.599-12.012"/>
	</g>
	<g id="POLYLINE_116_">
		
			<path fill="none" stroke="#FF6B6B" stroke-width="2.75" stroke-linecap="round" stroke-linejoin="round" stroke-miterlimit="10" d="
			M378.822,310.592c-1.924-3.117-4.209-6.014-6.752-8.648c-2.816-2.917-5.801-5.768-9.12-8.113c-3.107-2.195-6.558-3.7-10.354-4.146
			c-3.615-0.425-7.308-0.099-10.906,0.326c-4.39,0.519-8.781,1.126-13.205,1.262c-4.264,0.13-8.518-0.083-12.766-0.451
			c-8.676-0.753-17.351-1.966-25.894-3.657c-4.238-0.84-8.363-1.954-12.487-3.23c-3.868-1.196-7.643-2.118-11.7-2.359
			c-4.383-0.26-8.775-0.307-13.158-0.559c-4.34-0.25-8.654-0.741-12.955-1.367c-8.468-1.232-16.942-3.054-25.105-5.635
			c-3.982-1.259-7.913-2.68-11.717-4.408c-4.022-1.825-7.919-3.895-11.891-5.824c-1.947-0.947-4.083-1.945-6.305-1.805
			c-1.368,0.088-2.687,0.564-3.986,0.963c-1.757,0.537-3.523,0.895-5.363,0.963c-3.968,0.146-7.962-0.573-11.853-1.27
			c-4.146-0.741-8.271-1.639-12.364-2.631c-4.378-1.061-8.729-2.203-13.037-3.523c-3.899-1.195-7.462-2.797-11.05-4.705
			c-1.539-0.817-3.137-1.266-4.842-1.589c-1.441-0.272-3.033-0.448-4.35-1.151c-0.913-0.488-1.521-1.342-1.351-2.411
			c0.168-1.052,1.014-1.702,2.003-1.95c2.895-0.723,6.26,0.156,9.14,0.562c8.087,1.143,16.234,1.617,24.402,1.61
			c9.334-0.007,18.691-0.207,28.02,0.21c8.48,0.378,17.039,1.394,25.351,3.136c4.342,0.909,8.681,1.966,13.091,2.497
			c3.814,0.459,7.674,0.631,11.514,0.652c9.067,0.051,18.278-0.304,27.317,0.6c3.873,0.387,7.708,1,11.381,2.33
			c3.36,1.217,6.651,2.627,10.289,2.493c4.207-0.155,8.333-1.011,12.559-1.011c4.551,0,9.098,0.326,13.639,0.592
			c8.06,0.473,16.052,0.812,23.886-1.5c8.04-2.372,15.601-6.447,23.946-7.75c8.424-1.314,16.69,0.732,24.938,2.238
			c3.993,0.729,7.909,1.319,11.975,0.891"/>
	</g>
	<g id="POLYLINE_115_">
		
			<path fill="none" stroke="#FF6B6B" stroke-width="2.75" stroke-linecap="round" stroke-linejoin="round" stroke-miterlimit="10" d="
			M477.107,300.952c1.919-5.19,6.32-10.164,11.919-11.291c3.402-0.685,7.034-0.231,10.437,0.222
			c4.402,0.587,8.807,1.279,13.244,1.537c7.984,0.464,15.917-0.923,23.707-2.523c9.099-1.869,18.178-3.832,27.356-5.275
			c8.845-1.391,17.748-1.705,26.678-2.106c8.154-0.366,16.245-1.403,24.195-3.27c8.649-2.03,16.976-4.749,25.277-7.892
			c3.629-1.375,7.487-2.447,11.405-2.095c1.995,0.18,3.865,0.892,5.815,1.296c1.459,0.302,2.916,0.374,4.4,0.258
			c4.135-0.323,8.18-1.523,12.227-2.359c4.135-0.854,8.354-1.27,12.476-2.186c3.981-0.887,7.786-2.365,11.731-3.381
			c3.752-0.965,7.76-1.01,11.423-2.287c1.526-0.531,2.931-1.387,3.858-2.741c0.383-0.56,1.004-1.61,0.553-2.299
			c-0.217-0.31-0.58-0.407-0.935-0.468c-1.244-0.213-2.556,0.086-3.807,0.088c-1.743,0.004-3.444-0.192-5.188-0.02
			c-2.108,0.208-4.2,0.554-6.312,0.739c-8.816,0.776-17.747,0.483-26.584,0.354c-8.528-0.123-17.081-0.751-25.61-0.555
			c-4.384,0.102-8.711,0.672-13.073,1.068c-4.207,0.383-8.422,0.409-12.64,0.234c-8.707-0.361-17.382-1.359-26.092-1.652
			c-4.2-0.143-8.421-0.213-12.607,0.229c-4.272,0.45-8.383,1.545-12.513,2.682c-1.653,0.455-3.31,0.913-5.017,1.118
			c-1.892,0.228-3.794,0.194-5.695,0.193c-3.83-0.002-7.646,0.183-11.468,0.419c-4.942,0.307-9.884,0.641-14.83,0.882
			c-4.073,0.198-8.201,0.296-12.25-0.272c-8.43-1.184-16.243-5.059-24.41-7.282c-3.776-1.027-7.682-1.687-11.603-1.665
			c-3.912,0.021-7.771,0.811-11.553,1.746c-2.715,0.67-5.394,1.491-8.119,2.124c-2.631,0.612-5.231,0.698-7.918,0.81"/>
	</g>
	<g id="POLYLINE_114_">
		
			<path fill="none" stroke="#FF6B6B" stroke-width="2.75" stroke-linecap="round" stroke-linejoin="round" stroke-miterlimit="10" d="
			M168.099,595.56c-3.687,1.703-7.211,3.957-9.981,6.955c-2.645,2.862-4.585,6.276-6.453,9.673
			c-2.166,3.94-4.335,7.876-6.448,11.845c-2.117,3.974-4.116,8.051-6.492,11.881c-0.949,1.531-2.941,3.93-2.379,5.951
			c0.417,1.495,2.205,2.258,3.518,2.744c3.525,1.307,7.359,1.313,11.064,1.407c3.647,0.092,7.388,0.68,11.012,0.015
			c3.607-0.662,7.49-2.488,8.62-6.245c1.013-3.369,0.43-6.99,1.359-10.398c0.529-1.941,1.199-3.835,1.515-5.829
			c0.291-1.84,0.385-3.707,0.752-5.535c0.768-3.823,3.562-6.054,6.794-7.996"/>
	</g>
	<g id="POLYLINE_113_">
		
			<path fill="none" stroke="#FF6B6B" stroke-width="2.75" stroke-linecap="round" stroke-linejoin="round" stroke-miterlimit="10" d="
			M363.367,427.712c5.553,5.479,11.94,10.273,19.566,12.391c7.809,2.168,16.115,1.981,24.107,1.127
			c8.649-0.924,17.182-2.754,25.608-4.87c8.342-2.094,16.712-4.346,24.828-7.202c7.531-2.649,15.706-5.639,21.449-11.426
			c1.065-1.073,2.954-2.966,2.68-4.678c-0.201-1.256-1.752-1.731-2.228-2.885c-0.54-1.309-0.114-3.086-1.156-4.173
			c-0.709-0.739-2.08-0.894-2.302-2.028c-0.35-1.791,1.032-3.57,0.808-5.409c-0.207-1.691-1.514-2.979-1.876-4.63
			c-0.294-1.339-0.193-2.747-0.172-4.104c0.031-2.014-0.129-4.021-0.133-6.033c-0.002-1.275,0.053-2.572,0.37-3.813
			c0.287-1.123,0.989-2.256,0.995-3.435c0.007-1.34-1.444-1.861-1.934-2.976c-0.566-1.288,0.637-2.778,0.938-3.979
			c0.423-1.683-0.454-3.231-0.45-4.902c0.003-1.413,1.122-2.667,0.507-4.06c-0.297-0.672-0.896-1.279-0.981-2.035
			c-0.067-0.594,0.247-1.157,0.468-1.687c0.669-1.608-0.444-2.857-1.064-4.304c-0.583-1.359-0.342-2.521,0.291-3.816
			c0.63-1.289,1.299-2.479,1.612-3.891c0.317-1.432,0.327-2.904,0.162-4.356c-0.224-1.964-0.603-3.88-0.464-5.866
			c0.122-1.756,0.522-3.488,0.927-5.196c0.975-4.122,1.954-8.154,1.936-12.416c-0.019-4.216-0.645-8.406-0.717-12.622
			c-0.074-4.336,0.045-8.684-0.258-13.012c-0.509-7.287-2.277-15.273-6.369-21.432c-2.115-3.185-4.953-5.906-7.702-8.536
			c-2.885-2.759-5.934-5.438-9.344-7.532c-1.433-0.879-2.945-1.631-4.517-2.229c-1.187-0.449-2.88-1.227-4.193-1.1
			c-0.342,0.033-0.45,0.005-0.306,0.341c0.146,0.339,0.791,0.675,1.063,0.882c0.828,0.627,1.662,1.244,2.444,1.928
			c3.079,2.694,5.872,5.885,8.552,8.966c2.454,2.819,4.151,6.13,5.171,9.722c1.674,5.895,1.219,12.348-3.533,16.69
			c-5.549,5.071-13.995,5.85-21.161,5.296c-8.228-0.636-16.779-2.727-23.867-7.086c-3.14-1.931-6.025-4.248-8.387-7.091
			c-2.558-3.08-4.125-6.688-5.019-10.572c-0.939-4.089-1.581-8.317-1.858-12.505c-0.124-1.861-0.201-3.763,0.055-5.616
			c0.079-0.571,0.198-1.129,0.362-1.681c0.106-0.358,0.535-1.051,0.441-1.436c-0.078-0.324-0.123-0.277-0.457-0.221
			c-0.663,0.115-1.358,0.635-1.947,0.916c-0.691,0.328-1.402,0.598-2.127,0.842c-1.811,0.611-4.399,1.373-5.196,3.362
			c-0.359,0.896-0.254,1.973-0.224,2.908c0.071,2.14,0.142,4.278,0.213,6.417c0.154,4.666,0.442,9.349,0.423,14.02
			c-0.016,3.912-0.811,7.561-2.09,11.242c-1.359,3.91-3.403,7.607-4.519,11.597c-0.723,2.585-0.507,5.507-1.828,7.905
			c-0.841,1.525-2.521,2.824-2.527,4.701c-0.004,0.991,0.368,1.971,0.717,2.881c0.652,1.703,1.308,3.363,1.705,5.149
			c0.451,2.029,0.728,4.091,1.14,6.128c0.438,2.162,1.051,4.283,1.584,6.424c0.946,3.799,0.766,7.691,1.151,11.559
			c0.11,1.115,0.25,2.295,0.693,3.338c0.3,0.705,0.783,1.328,0.979,2.077c0.345,1.314,0.162,2.746,0.319,4.091
			c0.162,1.39,0.429,2.779,0.278,4.184c-0.137,1.289-0.459,2.508-0.21,3.801c0.22,1.143,0.747,2.27,0.639,3.456
			c-0.096,1.044-0.638,1.991-0.687,3.045c-0.059,1.252,0.421,2.472,0.325,3.726c-0.11,1.451-1.072,2.576-0.455,4.005
			c0.374,0.866,0.686,1.575,0.71,2.541c0.034,1.379-0.234,2.785-0.515,4.127c-0.397,1.896-0.974,3.836-1.116,5.776
			c-0.057,0.768,0.074,1.562-0.251,2.286c-0.808,1.796-3.165,2.375-4.07,4.119c-0.67,1.29,0.35,2.675,0.003,4.019
			c-0.577,2.236-3.161,3.407-4.441,5.161c-1.319,1.809-0.333,4.154-0.46,6.193c-0.091,1.465-0.842,2.359-2.14,3.015
			c-1.05,0.53-2.371,0.797-2.67,2.07c-0.206,0.876-0.2,1.716-0.606,2.538c-0.453,0.918-1.142,1.715-1.85,2.442
			c-1.425,1.467-3.092,2.656-4.691,3.92c-0.611,0.482-1.589,1.112-1.927,1.877C362.281,426.777,362.89,427.236,363.367,427.712z"/>
	</g>
</g>
<g id="AG-OUTLINE">
	<g id="POLYLINE_112_">
		
			<path fill="none" stroke="#FF6B6B" stroke-width="3.5" stroke-linecap="round" stroke-linejoin="round" stroke-miterlimit="10" d="
			M477.107,300.952c1.919-5.19,6.32-10.164,11.919-11.291c3.402-0.685,7.034-0.231,10.437,0.222
			c4.402,0.587,8.807,1.279,13.244,1.537c7.984,0.464,15.917-0.923,23.707-2.523c9.099-1.869,18.178-3.832,27.356-5.275
			c8.845-1.391,17.748-1.705,26.678-2.106c8.154-0.366,16.245-1.403,24.195-3.27c8.649-2.03,16.976-4.749,25.277-7.892
			c3.629-1.375,7.487-2.447,11.405-2.095c1.995,0.18,3.865,0.892,5.815,1.296c1.459,0.302,2.916,0.374,4.4,0.258
			c4.135-0.323,8.18-1.523,12.227-2.359c4.135-0.854,8.354-1.27,12.476-2.186c3.981-0.887,7.786-2.365,11.731-3.381
			c3.752-0.965,7.76-1.01,11.423-2.287c1.526-0.531,2.931-1.387,3.858-2.741c0.383-0.56,1.004-1.61,0.553-2.299
			c-0.217-0.31-0.58-0.407-0.935-0.468c-1.244-0.213-2.556,0.086-3.807,0.088c-1.743,0.004-3.444-0.192-5.188-0.02
			c-2.108,0.208-4.2,0.554-6.312,0.739c-8.816,0.776-17.747,0.483-26.584,0.354c-8.528-0.123-17.081-0.751-25.61-0.555
			c-4.384,0.102-8.711,0.672-13.073,1.068c-4.207,0.383-8.422,0.409-12.64,0.234c-8.707-0.361-17.382-1.359-26.092-1.652
			c-4.2-0.143-8.421-0.213-12.607,0.229c-4.272,0.45-8.383,1.545-12.513,2.682c-1.653,0.455-3.31,0.913-5.017,1.118
			c-1.892,0.228-3.794,0.194-5.695,0.193c-3.83-0.002-7.646,0.183-11.468,0.419c-4.942,0.307-9.884,0.641-14.83,0.882
			c-4.073,0.198-8.201,0.296-12.25-0.272c-8.43-1.184-16.243-5.059-24.41-7.282c-3.776-1.027-7.682-1.687-11.603-1.665
			c-3.912,0.021-7.771,0.811-11.553,1.746c-3.97,0.98-7.931,2.428-12.031,2.762c-1.05,0.085-2.104,0.103-3.155,0.137
			c-0.508,0.017-0.775,0.086-1.189-0.205c-0.406-0.284-0.818-0.561-1.236-0.827c-1.378-0.88-2.824-1.653-4.335-2.279
			c-1.458-0.604-3.104-1.244-4.694-1.37c-0.159-0.012-0.358,0.025-0.511,0c-0.366,0.074-0.812-0.477-1.113-0.756
			c-1.238-1.154-2.02-2.496-2.486-4.122c-1.016-3.54-1.613-10.892,3.201-12.237c1.164-0.326,2.424-0.246,3.61-0.129
			c2.141,0.211,4.253,0.65,6.387,0.92c1.989,0.251,4.002,0.451,6.009,0.358c1.098-0.051,2.308-0.146,3.268-0.733
			c0.997-0.61,1.475-1.725,1.656-2.842c0.296-1.827-0.319-3.109-0.83-4.831c-0.451-1.522,0.729-2.517,1.14-3.903
			c0.136-0.456,0.167-0.912,0.058-1.377c-0.117-0.496-0.42-0.917-0.308-1.438c0.12-0.557,0.524-0.998,0.617-1.582
			c0.151-0.947-0.255-1.74-0.305-2.662c-0.071-1.309,0.167-2.809,0.547-4.052c0.122-0.397,0.259-0.753,0.666-0.919
			c0.632-0.258,1.503-0.006,2.15-0.006c0.729,0,1.454-0.194,2.024-0.662c0.928-0.763,0.956-1.889,0.617-2.971
			c-0.378-1.207-1.046-2.309-1.7-3.383c-1.229-2.016-2.515-4.007-3.687-6.057c-0.911-1.593-1.039-2.852-0.358-4.521
			c0.713-1.749,1.327-3.144,0.82-5.033c-0.472-1.76-1.361-3.403-2.027-5.093c-0.745-1.893-1.41-3.838-1.918-5.808
			c-0.229-0.891-0.41-1.786-0.539-2.697c-0.043-0.303-0.185-0.792-0.098-1.028c0.037-0.015,0.13-0.036,0.147-0.078
			c0.283-0.282,0.253-0.778,0.229-1.142c-0.164-2.561-1.792-4.936-3.439-6.782c-2.646-2.965-5.812-5.284-9.696-6.305
			c-2.403-0.633-4.854-0.197-7.211-0.956c-3.849-1.239-7.399-2.952-11.536-2.938c-4.059,0.015-8.029,1.469-11.784,2.866
			c-3.508,1.305-7.022,2.744-10.105,4.896c-3.058,2.133-5.732,4.945-7.899,7.967c-1.999,2.788-4.094,6.065-4.675,9.509
			c-0.103,0.602-0.138,1.208-0.078,1.816c0.104,1.066,0.648,2.027,0.773,3.086c0.193,1.637-1.155,2.706-2.346,3.598
			c-2.283,1.711-5.047,2.965-6.799,5.295c-1.518,2.018-2.094,4.648-2.435,7.101c-0.337,2.423-0.381,4.892,0.57,7.183
			c0.423,1.02,0.917,2.039,0.948,3.161c0.027,0.992-0.196,1.976-0.437,2.932c-0.781,3.112-1.434,6.647-3.207,9.387
			c-1.341,2.071-3.618,2.988-5.601,4.319c-1.226,0.823-2.828,2.043-3.146,3.609c-0.178,0.879,0.344,0.994,1.113,0.783
			c1.201-0.329,3.986-1.818,5.245-0.74c0.746,0.533-0.185,1.83-0.485,2.313c-0.981,1.574-2.156,3.021-2.976,4.694
			c-0.205,0.418-0.812,1.43-0.613,1.943c0.239,1.074,3.795-1.869,3.934-1.967c0.156-0.109,1.307-1.078,1.604-0.832
			c0.298,0.208-0.401,1.507-0.46,1.699c-0.589,1.912,0.039,3.795,1.29,5.294c0.884,1.06,1.514,1.597,0.816,2.896
			c-0.852,1.587-1.42,2.59-1.389,4.416c-8.409-1.223-16.74-3.789-25.313-3.394c-8.451,0.39-16.184,4.034-24.023,6.849
			c-3.896,1.398-7.878,2.486-12.004,2.923c-3.917,0.415-7.874,0.306-11.801,0.107c-4.528-0.229-9.051-0.521-13.58-0.729
			c-4.205-0.195-8.337,0.033-12.511,0.531c-3.472,0.416-6.61,0.604-9.975-0.487c-3.941-1.278-7.646-2.758-11.758-3.429
			c-8.739-1.428-17.802-1.031-26.621-1.08c-3.978-0.022-7.963-0.006-11.934-0.278c-4.072-0.28-8.043-0.921-12.034-1.757
			c-8.7-1.823-17.43-3.374-26.31-4.004c-9.292-0.66-18.609-0.494-27.917-0.486c-8.162,0.006-16.374-0.021-24.489-1
			c-3.992-0.482-8.118-1.544-12.157-1.367c-1.131,0.049-2.494,0.25-3.16,1.284c-2.441,3.794,5.627,4.411,7.195,4.813
			c1.754,0.45,3.273,1.352,4.848,2.213c1.683,0.922,3.448,1.68,5.247,2.342c4.005,1.474,8.126,2.628,12.257,3.69
			c8.251,2.122,16.771,4.31,25.29,4.978c1.707,0.134,3.427,0.191,5.133,0.003c2.055-0.227,3.938-0.933,5.922-1.462
			c1.749-0.467,3.355-0.461,5.081,0.098c3.799,1.232,7.312,3.461,10.89,5.197c3.869,1.877,7.798,3.604,11.856,5.037
			c8.16,2.881,16.637,4.838,25.15,6.335c8.783,1.544,17.573,2.074,26.469,2.399c3.788,0.139,7.56,0.357,11.245,1.309
			c4.104,1.059,8.07,2.568,12.209,3.509c8.665,1.968,17.471,3.232,26.297,4.208c8.037,0.889,16.074,1.224,24.121,0.273
			c7.812-0.924,16.353-2.652,23.713,1.072c3.535,1.788,6.613,4.448,9.469,7.161c2.776,2.638,5.442,5.426,7.692,8.534
			c0.534,0.737,1.061,1.48,1.549,2.25c0.23,0.361,0.503,0.66,0.463,1.048c-0.016,0.157-0.143,0.346-0.187,0.505
			c-0.188,0.678-0.11,1.371,0.048,2.047c0.381,1.626,1.19,3.129,1.696,4.717c0.554,1.739,0.859,3.539,1.178,5.333
			c0.365,2.06,0.754,4.097,1.282,6.122c0.534,2.049,1.121,4.096,1.393,6.2c0.471,3.646,0.048,7.489,0.997,11.064
			c0.208,0.784,0.601,1.427,0.958,2.148c0.364,0.735,0.446,1.496,0.473,2.31c0.059,1.809,0.384,3.578,0.467,5.381
			c0.06,1.289-0.286,2.524-0.351,3.805c-0.062,1.248,0.427,2.378,0.657,3.584c0.21,1.102-0.063,1.986-0.373,3.041
			c-0.35,1.186-0.167,2.262,0.006,3.467c0.162,1.141,0.045,2.077-0.322,3.163c-0.177,0.521-0.372,1.062-0.283,1.618
			c0.113,0.712,0.593,1.312,0.785,2.003c0.281,1.009,0.171,2.104,0.038,3.127c-0.281,2.156-0.812,4.284-1.257,6.409
			c-0.338,1.612,0.118,3.516-1.129,4.783c-1.114,1.134-3.399,2.146-3.661,3.921c-0.131,0.89,0.299,1.755,0.305,2.641
			c0.004,0.641-0.222,1.206-0.574,1.735c-1.241,1.862-3.877,3.001-4.5,5.232c-0.556,1.99,0.569,4.135-0.08,6.122
			c-0.548,1.678-2.388,1.996-3.723,2.817c-1.089,0.67-0.884,1.69-1.175,2.842c-0.579,2.292-2.797,4.074-4.54,5.465
			c-1.219,0.974-2.563,1.854-3.67,2.961c-0.242,0.241-0.575,0.543-0.669,0.888c-0.174,0.636,0.437,1.091,0.84,1.494
			c-7.071,4.79-14.057,9.64-20.359,15.433c-6.31,5.799-12.216,12.046-17.908,18.448c-6.357,7.149-12.466,14.494-18.603,21.833
			c-5.306,6.347-10.601,12.632-16.649,18.298c-6.135,5.747-12.893,10.973-20.048,15.389c-7.415,4.575-15.409,8.017-23.091,12.095
			c-7.491,3.978-14.265,8.938-20.73,14.405c-6.624,5.601-12.769,11.766-19.035,17.755c-6.35,6.07-12.579,12.309-19.269,18.01
			c-3.195,2.723-6.49,5.33-9.99,7.652c-1.94,1.288-3.903,2.548-5.815,3.879c-1.03,0.717-2.125,1.483-2.922,2.468
			c-0.447,0.551-0.699,1.084-0.84,1.773c-0.031,0.153,0.053,0.381-0.095,0.45c-0.498,0.231-0.991,0.472-1.479,0.722
			c-0.906,0.464-1.792,0.969-2.655,1.509c-3.542,2.22-6.485,5.092-8.792,8.577c-2.526,3.817-4.608,7.938-6.811,11.943
			c-2.197,3.996-4.314,8.035-6.457,12.06c-0.81,1.521-1.62,3.04-2.497,4.523c-0.892,1.508-1.976,2.95-2.65,4.576
			c-0.459,1.108-0.632,2.29,0.169,3.266c1.463,1.781,4.391,2.362,6.517,2.729c4.131,0.712,8.423,0.516,12.6,0.751
			c4.62,0.261,10.638-0.21,13.597-4.365c1.108-1.557,1.391-3.502,1.532-5.364c0.149-1.964,0.124-3.935,0.526-5.871
			c0.42-2.027,1.187-3.964,1.618-5.989c0.629-2.962,0.375-6.262,1.706-9.046c1.026-2.146,3.035-3.61,4.957-4.902
			c0.282-0.189,0.752-0.63,1.086-0.69c0.126-0.022,0.326,0.081,0.463,0.082c0.2,0.002,0.385-0.001,0.583-0.043
			c0.639-0.134,1.204-0.546,1.688-0.967c1.35-1.174,2.521-2.493,3.972-3.556c1.601-1.172,3.358-2.128,5.12-3.034
			c7.91-4.066,16.068-7.689,24.202-11.28c7.981-3.523,16.132-6.563,24.198-9.878c3.814-1.567,7.583-3.253,11.158-5.319
			c3.679-2.127,7.123-4.607,10.452-7.242c6.771-5.36,12.696-11.579,19.088-17.355c2.923-2.642,6.09-4.82,9.721-6.374
			c3.943-1.687,8.042-2.981,12.013-4.601c7.687-3.134,14.694-7.883,21.438-12.66c7.29-5.164,14.491-10.487,21.934-15.431
			c7.218-4.793,14.546-9.374,22.33-13.204c7.965-3.92,16.056-7.564,23.997-11.538c7.589-3.798,15.181-7.581,23.49-9.556
			c3.551-0.844,7.254-1.531,10.92-1.26c3.79,0.28,7.062,2.16,10.661,3.171c3.609,1.014,7.394,1.349,11.123,1.575
			c4.522,0.275,9.067,0.46,13.574,0.939c8.778,0.933,17.497,2.359,26.298,3.085c8.333,0.687,16.734,0.793,25.049-0.167
			c8.484-0.979,16.829-3.078,25.374-3.557c8.48-0.475,16.894,0.759,25.18,2.467c2.074,0.427,4.156,0.838,6.213,1.345
			c1.006,0.248,2.197,0.476,3.071,1.087c0.521,0.364,0.724,0.791,0.589,1.416c-0.272,1.258-1.158,2.411-1.67,3.58
			c-0.703,1.606-1.173,3.308-1.538,5.021c-0.88,4.12-1.267,8.328-1.49,12.529c-0.448,8.413-0.04,17.004,1.94,25.214
			c1.022,4.244,2.418,8.39,3.736,12.548c1.238,3.905,2.195,7.916,2.97,11.938c1.713,8.906,3.016,17.886,4.366,26.853
			c1.267,8.407,2.727,16.892,2.979,25.404c0.059,1.975,0.024,3.953-0.155,5.922c-0.117,1.269-0.542,2.731-0.28,4.01
			c0.095,0.463,0.375,0.64,0.57,1.013c0.223,0.426-0.043,1.233-0.106,1.775c-0.103,0.873-0.178,1.751-0.221,2.628
			c-0.1,2.002-0.106,4-0.082,6.004c0.027,2.301-0.049,4.641,0.17,6.935c0.183,1.929,0.818,3.686,2.461,4.828
			c2.253,1.567,5.271,1.887,7.933,1.955c3.998,0.103,8.022-0.408,11.964-1.034c4.288-0.683,8.575-1.514,12.936-1.479
			c3.901,0.03,7.791,0.38,11.672,0.747c9.071,0.857,18.128,1.762,27.247,1.864c4.121,0.047,8.467,0.267,12.536-0.499
			c1.55-0.291,3.108-0.927,3.711-2.499c0.422-1.102,0.502-2.639-0.121-3.687c-0.889-1.493-3.395-0.935-4.796-1.097
			c-3.691-0.426-7.332-1.758-10.765-3.126c-3.666-1.463-7.245-3.161-10.623-5.212c-7.753-4.705-15.397-9.677-23.355-14.031
			c-2.695-1.475-5.448-2.786-8.268-4.005c0.626-1.287-0.921-2.759-1.436-3.786c-1.812-3.616-2.667-7.764-3.484-11.695
			c-1.696-8.159-2.249-16.479-2.217-24.798c0.035-9.035,0.938-18.063,1.65-27.062c0.666-8.416,1.241-16.818,1.074-25.267
			c-0.168-8.494-1.026-17.031-0.588-25.528c0.443-8.578,1.063-17.104-0.374-25.628c-1.131-6.706-3.029-15.09-9.17-19.021
			c-3.393-2.172-7.49-3.263-11.285-4.503c-4.478-1.464-8.987-2.837-13.479-4.254c-7.999-2.522-15.795-5.608-23.724-8.332
			c-8.045-2.764-16.294-5.062-24.739-6.199c-9.289-1.251-18.663-1.69-28.009-2.318c-3.638-0.244-7.283-0.504-10.888-1.071
			c-2.992-0.472-6.271-1.07-8.639-3.114c-0.54-0.467-1.036-0.973-1.52-1.498c-0.355-0.387-0.708-0.776-1.07-1.156
			c-0.428-0.448-0.687-0.485-0.305-1.002c0.501-0.677,1.024-1.47,1.179-2.313c0.256-1.401-0.997-1.886-1.771-2.84
			c-0.976-1.201-0.58-2.861-1.155-4.219c-0.504-1.19-2.054-1.227-2.607-2.306c-0.66-1.32,0.48-3.332,0.657-4.625
			c0.257-1.878-0.816-3.112-1.518-4.768c-0.97-2.291-0.433-5.021-0.521-7.43c-0.072-1.959-0.221-3.945-0.024-5.902
			c0.135-1.342,0.564-2.538,0.995-3.81c0.565-1.673,0.066-2.22-1.059-3.451c-0.898-0.983-0.826-1.758-0.333-2.972
			c0.345-0.847,0.751-1.692,0.806-2.618c0.06-1.013-0.263-1.996-0.447-2.979c-0.134-0.711-0.18-1.377,0.001-2.086
			c0.196-0.768,0.659-1.547,0.585-2.365c-0.105-1.168-1.36-1.992-1.179-3.209c0.105-0.705,0.587-1.301,0.681-2.013
			c0.068-0.516-0.075-1.001-0.274-1.474c-0.669-1.578-1.749-2.866-1.229-4.645c0.342-1.171,1.064-2.191,1.538-3.308
			c0.496-1.169,0.76-2.42,0.83-3.686c0.099-1.763-0.259-3.479-0.459-5.223c-0.21-1.83-0.124-3.63,0.214-5.438
			c0.758-4.065,2.065-8.021,2.438-12.155c0.287-3.18-0.01-6.367-0.252-9.539C477.244,307.424,477.134,304.203,477.107,300.952z"/>
	</g>
	<g id="POLYLINE_111_">
		
			<path fill="none" stroke="#FF6B6B" stroke-width="3.5" stroke-linecap="round" stroke-linejoin="round" stroke-miterlimit="10" d="
			M1228.944,506.777c-0.81,3.842-1.374,7.738-1.424,11.67c-0.051,3.979,0.506,7.893,1.258,11.79
			c1.644,8.514,3.169,16.933,3.753,25.602c0.586,8.707,0.865,17.439,0.808,26.167c-0.06,8.831-0.268,17.686-1.138,26.479
			c-0.43,4.332-0.979,8.646-1.816,12.92c-0.807,4.118-1.986,8.167-2.6,12.321c-0.629,4.258-0.454,8.871,3.843,10.989
			c3.464,1.707,7.661,1.954,11.457,1.925c4.216-0.032,8.384-0.697,12.565-1.162c8.919-0.992,17.842-0.174,26.762,0.395
			c8.522,0.543,17.014,0.588,25.553,0.614c3.982,0.013,8.043,0.594,12.011,0.073c1.597-0.209,3.252-0.667,4.395-1.872
			c3.053-3.221-1.56-5.571-4.119-6.687c-3.592-1.565-7.363-2.74-11.111-3.864c-4.186-1.255-8.572-2.308-12.495-4.284
			c-7.169-3.613-12.621-9.778-19.975-13.121c-3.12-1.419-6.452-2.629-8.746-5.305c-2.299-2.683-3.566-6.159-4.481-9.523
			c-2.183-8.026-2.829-16.685-2.419-24.974c0.44-8.918,2.45-17.586,4.213-26.312c1.593-7.884,2.607-15.924,3.43-23.922
			c0.976-9.493,1.814-18.989,2.575-28.503c0.327-4.076,0.546-8.162,0.809-12.243c0.011-0.172,0.977-0.686,1.117-0.783
			c0.53-0.37,1.062-0.74,1.592-1.11c0.695-0.485,1.4-0.957,2.108-1.424c1.903-1.257,3.879-2.45,5.685-3.848
			c1.073-0.83,2.58-2.013,2.479-3.54c-0.046-0.693-0.416-1.331-0.804-1.889c-1.032-1.482-2.397-2.733-3.581-4.092
			c-2.724-3.127-5.185-6.446-7.318-10.002c-1.868-3.111-3.255-6.815-5.767-9.48c-1.618-1.717-3.766-1.951-5.924-2.668
			c-3.629-1.203-6.77-3.545-10.41-4.73c-4.101-1.335-8.665-1.445-12.916-1.91c-4.174-0.455-8.323-1.056-12.469-1.72
			c-3.953-0.633-7.899-1.348-11.819-2.167c-4.497-0.941-8.99-2.008-13.549-2.613c-4.055-0.538-8.161-0.669-12.244-0.829
			c-4.322-0.17-8.654-0.325-12.98-0.157c-4.226,0.164-8.241,0.851-12.396,1.575c-1.407,0.245-2.854,0.491-4.285,0.337
			c-1.218-0.131-2.343-0.623-3.473-1.066c-2.616-1.027-4.87-0.599-7.576-0.04c-0.918,0.188-2.013,0.456-2.952,0.225
			c-0.617-0.152-1.023-0.627-1.582-0.89c-1.275-0.601-2.565,0.84-3.683,1.22c-1.375,0.468-1.824-1.689-2.368-2.56
			c-0.604-0.967-1.314-1.831-2.179-2.575c-0.821-0.708-1.845-1.354-2.446-2.29c-0.972-1.512-0.144-3.503-0.347-5.178
			c-0.061-0.504-0.228-0.837-0.424-1.265c-0.398-0.398-0.182-1.656-0.198-2.216c-0.031-1.056-0.054-2.11-0.073-3.166
			c-0.08-4.301-0.065-8.604,0.12-12.902c0.384-8.829,1.874-17.478,3.313-26.183c0.654-3.958,1.177-7.931,1.488-11.931
			c0.356-4.58,0.323-9.199,0.425-13.789c0.185-8.333,1.568-16.414,4.37-24.273c1.242-3.484,2.735-7.081,5.021-10.022
			c2.136-2.749,4.976-4.433,8.319-5.315c4.069-1.073,8.343-1.348,12.511-1.81c4.041-0.448,8.029-1.208,11.974-2.183
			c8.366-2.066,16.361-5.402,24.2-8.93c8.003-3.601,15.854-7.551,23.939-10.966c3.803-1.606,7.736-3.005,11.824-3.661
			c4.021-0.645,8.112-0.537,12.161-0.262c8.522,0.582,16.981,1.621,25.533,0.934c8.329-0.668,16.374-2.941,24.217-5.74
			c4.422-1.578,8.79-3.298,13.171-4.987c3.717-1.434,7.435-3.026,11.297-4.032c7.38-1.923,14.745,0.967,22.19,0.925
			c4.157-0.023,8.052-1.185,12.015-2.317c4.081-1.167,8.305-1.707,12.449-2.6c4.31-0.928,8.562-2.101,12.855-3.1
			c4.15-0.967,8.34-1.472,12.531-2.199c2.614-0.454,8.964-1.648,8.707-5.576c-0.252-3.852-5.029-1.887-7.125-1.34
			c-3.781,0.986-7.767,1.236-11.662,1.281c-4.03,0.047-8.056-0.104-12.072-0.451c-4.519-0.39-9.04-0.854-13.577-0.977
			c-4.721-0.127-9.448-0.053-14.17-0.039c-3.812,0.012-7.604-0.049-11.39-0.526c-4.287-0.541-8.458-0.831-12.781-0.687
			c-3.984,0.133-7.993,0.445-11.95,0.932c-4.559,0.559-9.118,1.241-13.711,1.453c-8.997,0.415-18.097-0.557-27.063-1.187
			c-3.967-0.278-7.961-0.495-11.937-0.231c-4.156,0.275-8.284,0.877-12.364,1.719c-4.316,0.891-8.492,2.088-12.655,3.525
			c-1.284,0.444-2.59,0.865-3.951,0.98c-1.907,0.16-3.825-0.029-5.735,0.137c-4.154,0.359-8.268,1.432-12.278,2.527
			c-3.936,1.074-7.831,2.288-11.7,3.58c-4.335,1.449-8.649,2.997-13.077,4.146c-3.304,0.859-6.757,1.432-10.164,0.922
			c-3.941-0.592-7.568-2.405-11.392-3.45c-4.001-1.094-8.086-1.559-12.226-1.611c-4.137-0.053-8.296,0.379-12.376,1.034
			c-3.992,0.641-8.044,1.469-11.834,2.907c-1.558,0.591-3.041,1.284-4.417,2.23c-0.831,0.571-1.671,1.237-2.655,1.529
			c-2.513,0.746-5.563-0.992-7.802-1.887c-1.944-0.776-3.905-1.419-5.919-1.988c-1.635-0.462-3.309-0.89-4.831-1.662
			c-1.293-0.655-2.343-1.587-3.058-2.856c-1.591-2.824-2.021-6.514-2.415-9.672c-0.183-1.467-0.236-3.115,0.872-4.247
			c1.178-1.202,3.049-1.577,4.645-1.767c3.99-0.475,7.995,0.274,11.989,0.141c1.933-0.064,3.924-0.48,5.062-2.192
			c0.58-0.872,0.924-1.897,1.175-2.906c0.386-1.55,0.27-3.218,0.681-4.737c0.479-1.771,2.703-2.543,3.195-4.299
			c0.255-0.91-0.531-1.391-0.679-2.232c-0.156-0.895,0.729-1.6,0.812-2.482c0.145-1.533-1.104-2.868-1.005-4.428
			c0.186-2.928,4.194-1.389,5.672-2.921c0.941-0.978,1.032-2.626,0.638-3.854c-0.345-1.075-1.013-2.042-1.661-2.951
			c-1.241-1.74-2.604-3.393-3.749-5.202c-0.779-1.231-1.891-3.025-1.239-4.54c0.305-0.709,0.824-1.24,0.937-2.025
			c0.157-1.101-0.19-2.281-0.503-3.322c-0.879-2.931-1.97-5.707-2.482-8.739c-0.555-3.288-0.854-6.616-0.932-9.95
			c0.579,0.372,1.347,0.779,1.988,0.333c1.061-0.742,1.33-2.849,0.998-3.995c-0.426-1.469-2.075-2.326-2.294-3.873
			c-0.132-0.934,0.518-1.951-0.1-2.789c-0.343-0.466-0.935-0.75-1.441-0.992c-1.274-0.609-2.65-0.984-3.878-1.693
			c-1.115-0.645-2.004-1.575-3.036-2.333c-1.009-0.741-2.142-1.108-3.319-1.504c-1.001-0.336-1.905-0.752-2.776-1.349
			c-0.896-0.613-1.757-1.348-2.781-1.746c-2.319-0.904-5.018-0.277-7.441-0.518c-1.857-0.184-3.693-0.465-5.564-0.412
			c-1.729,0.047-3.354,0.439-5.016,0.891c-3.904,1.058-8.006,1.346-11.844,2.652c-3.871,1.318-7.235,4-10.424,6.486
			c-3.02,2.355-5.965,4.962-7.87,8.332c-2.004,3.545-3.525,7.537-4.699,11.43c-1.136,3.769-1.794,7.625-1.508,11.571
			c0.308,4.245,1.67,8.163,3.166,12.11c1.401,3.697,2.571,7.405,3.291,11.299c0.357,1.934,0.552,3.887,0.655,5.848
			c0.095,1.771,0.014,3.718,0.477,5.447c0.109,0.41,0.373,0.544,0.506,0.816c0.314,0.648,0.188,1.936,0.215,2.654
			c0.033,0.908,0.031,1.813-0.013,2.721c-0.351,7.232-3.464,14.658-9.086,19.344c-2.867,2.391-6.311,4.31-9.908,5.33
			c-3.781,1.071-7.584,0.385-11.366-0.297c-4.39-0.791-8.778-1.656-13.226-2.053c-4.28-0.383-8.589-0.453-12.88-0.22
			c-4.083,0.222-8.147,0.682-12.141,1.577c-3.837,0.86-7.625,2.389-11.613,2.264c-4.269-0.133-8.54-1.463-12.66-2.482
			c-4.661-1.153-9.295-2.433-13.939-3.653c-3.646-0.958-7.31-1.892-11.034-2.495c-4.036-0.654-8.108-0.386-12.15-0.887
			c-4.191-0.52-8.2-2.113-12.178-3.449c-3.384-1.137-6.821-1.965-10.388-2.224c-4.367-0.317-8.764-0.083-13.133,0.052
			c-3.519,0.107-7.036,0.265-10.554,0.408c-9.616,0.392-19.254,1.018-28.882,1.011c-4.124-0.003-8.261-0.239-12.33-0.93
			c-4.005-0.68-7.972-1.769-12.045-1.964c-3.978-0.191-7.928,0.527-11.9,0.535c-4.293,0.01-8.445-1.059-12.607-1.982
			c-3.94-0.875-7.872-1.391-11.899-1.646c-4.29-0.271-8.563-0.497-12.757-1.513c-4.192-1.018-8.339-2.324-12.5-3.471
			c-1.968-0.543-3.828-1.271-5.701-2.072c-1.125-0.482-2.313-1.055-3.552-1.168c-2.524-0.232-3.039,2.465-1.837,4.207
			c1.6,2.32,4.469,3.785,6.938,4.971c1.964,0.941,3.955,1.842,5.85,2.919c1.782,1.013,3.493,2.14,5.368,2.982
			c3.667,1.647,7.693,2.442,11.536,3.565c3.903,1.142,7.466,2.812,11.062,4.684c6.504,3.383,13.666,6.027,21.131,5.271
			c2.771-0.28,5.329-1.568,8.139-1.256c4.04,0.451,8.061,1.82,11.896,3.111c8.355,2.813,16.467,6.302,24.834,9.073
			c3.972,1.315,8.028,2.37,12.178,2.929c3.979,0.536,8.02,0.535,12.024,0.365c8.6-0.365,17.124-1.084,25.743-0.756
			c4.328,0.164,8.672,0.416,12.936,1.229c3.962,0.756,7.809,2.004,11.545,3.514c8.22,3.318,16.201,7.161,24.119,11.137
			c3.685,1.851,7.343,3.828,11.19,5.321c3.706,1.438,7.536,2.316,11.482,2.772c4.563,0.527,9.156,0.623,13.742,0.793
			c3.316,0.123,6.769,0.158,9.939,1.249c2.548,0.876,4.675,2.545,6.524,4.471c2.776,2.892,5.171,6.178,7.256,9.597
			c2.038,3.343,3.745,6.86,4.96,10.586c1.383,4.24,1.979,8.711,2.738,13.09c1.385,7.99,4.665,15.457,6.149,23.412
			c0.757,4.057,1.101,8.175,1.307,12.293c0.214,4.269,0.342,8.562,0.194,12.836c-0.141,4.089-0.644,8.039-1.735,11.986
			c-0.155,0.562-0.257,1.199-0.606,1.568c-0.153,0.077-0.273,0.217-0.39,0.338c-0.99,1.032-1.631,2.47-2.323,3.705
			c-2.006,3.584-4.1,6.876-6.859,9.93c-1.984,2.196-4.466,4.689-5.119,7.696c-0.401,1.849,0.658,3.628,0.298,5.448
			c-0.269,1.358-1.143,2.561-1.695,3.811c-0.518,1.172-0.956,2.405-1.721,3.445c-1.06,1.441-2.812,1.625-4.29,2.456
			c-1.816,1.022-2.591,3.093-3.542,4.825c-1.081,1.969-2.179,4.778-4.502,5.608c-1.237,0.442-3.369-0.263-4.235,0.944
			c-0.453,0.631-0.461,1.516-0.759,2.22c-0.258,0.609-0.677,1.109-1.18,1.534c-1.228,1.035-2.705,1.775-4.062,2.62
			c-1.809,1.126-3.569,2.343-5.288,3.603c-3.149,2.308-5.793,5.062-8.696,7.65c-3.692,3.29-7.384,6.581-11.076,9.871
			c-6.488,5.782-11.506,12.928-16.804,19.764c-1.896,2.446-3.825,5.2-6.419,6.962c-1.866,1.268-4.167,1.117-6.259,1.757
			c-1.043,0.318-2.067,0.911-2.353,2.029c-0.364,1.428,0.156,2.997-1.229,3.927c-1.067,0.717-2.406,0.979-3.569,1.502
			c-1.08,0.484-2.039,1.158-2.951,1.907c-1.901,1.561-3.658,3.752-6.283,3.935c-1.696,0.118-3.405-0.193-5.107-0.146
			c-1.43,0.04-2.857,0.262-4.211,0.732c-3.712,1.291-7.021,3.676-10.571,5.348c-2.369,1.115-4.572,2.378-6.164,4.503
			c-0.146,0.194-0.266,0.438-0.429,0.614c-0.352,0.38-0.853,0.475-1.36,0.659c-0.964,0.351-1.924,0.714-2.879,1.088
			c-2.045,0.803-4.062,1.659-6.054,2.588c-8.033,3.743-15.298,9.003-22.589,13.983c-6.926,4.73-13.819,9.521-20.633,14.41
			c-3.292,2.363-6.612,4.695-9.815,7.179c-3.846,2.98-7.644,6.035-11.543,8.944c-3.271,2.44-6.672,4.618-10.419,6.262
			c-4.028,1.767-8.201,3.171-12.306,4.75c-7.574,2.914-14.526,6.657-20.268,12.49c-2.787,2.833-5.092,6.094-7.686,9.098
			c-3.039,3.52-6.175,6.975-9.092,10.597c-2.274,2.824-4.615,5.943-5.487,9.53c-0.403,1.657-0.579,3.69,0.16,5.286
			c0.688,1.486,2.13,1.648,3.628,1.666c4.374,0.051,8.736,0.398,13.113,0.423c3.711,0.021,7.646-0.016,11.223-1.109
			c1.908-0.583,4.217-1.349,5.564-2.934c1.586-1.865,1.776-4.742,2.222-7.025c0.776-3.975,2.151-7.52,4.785-10.649
			c2.659-3.161,6.035-5.716,9.651-7.685c3.566-1.941,7.221-3.502,10.505-5.933c3.422-2.532,6.79-5.218,10.53-7.275
			c3.315-1.824,6.872-3.146,10.427-4.421c8.475-3.039,16.822-6.436,25.324-9.397c8.193-2.854,16.745-4.48,24.907-7.402
			c7.96-2.851,15.324-7.283,22.206-12.138c1.638-1.154,3.239-2.371,4.799-3.629c0.413-0.333,0.825-0.667,1.235-1.005
			c0.403-0.332,0.863,0.165,1.277,0.409c0.954,0.562,1.89,1.154,2.823,1.75c3.358,2.143,6.605,4.573,10.332,6.054
			c4.628,1.84,10.445,1.297,14.19-2.228c0.954-0.897,1.585-2.065,2.406-3.074c0.695-0.854,1.528-1.553,2.436-2.173
			c3.497-2.389,7.436-4.069,11.021-6.322c3.697-2.322,6.956-5.269,10.38-7.958c3.069-2.412,6.425-4.426,9.981-6.034
			c3.834-1.733,7.834-3.02,11.752-4.544c4.245-1.651,8.403-3.514,12.573-5.345c8.314-3.652,16.487-7.67,24.72-11.502
			c7.666-3.568,15.266-7.365,23.102-10.552c3.716-1.51,7.56-2.767,11.48-3.617c4.331-0.94,8.744-1.436,13.088-2.309
			c3.924-0.789,7.649-1.971,11.234-3.76c3.453-1.723,6.842-3.719,10.555-4.844c7.24-2.193,14.981-0.001,22.278,0.696
			c8.256,0.788,16.472,0.52,24.723-0.175c4.692-0.396,9.388-0.873,14.09-1.138c4.413-0.248,8.764-0.18,13.175,0.036
			c4.086,0.2,8.037,0.198,12.08-0.512c4.186-0.735,8.332-1.9,12.582-2.22c4.033-0.303,8.119,0.011,12.061-1.055
			c2.936-0.793,5.97-2.473,9.088-2.331c1.375,0.062,2.716,0.538,3.843,1.324c1.588,1.107,1.919,2.658,2.599,4.396
			c0.392,1.002,1.052,1.894,1.271,2.961c0.235,1.146-0.137,2.267-0.127,3.413C1227.885,506.152,1228.172,506.678,1228.944,506.777z"
			/>
	</g>
</g>
</svg>
