<?xml version="1.0" encoding="utf-8"?>
<!-- Generator: Adobe Illustrator 16.0.0, SVG Export Plug-In . SVG Version: 6.00 Build 0)  -->
<!DOCTYPE svg PUBLIC "-//W3C//DTD SVG 1.1//EN" "http://www.w3.org/Graphics/SVG/1.1/DTD/svg11.dtd" [
	<!ENTITY ns_flows "http://ns.adobe.com/Flows/1.0/">
	<!ENTITY ns_extend "http://ns.adobe.com/Extensibility/1.0/">
	<!ENTITY ns_ai "http://ns.adobe.com/AdobeIllustrator/10.0/">
	<!ENTITY ns_graphs "http://ns.adobe.com/Graphs/1.0/">
	<!ENTITY ns_vars "http://ns.adobe.com/Variables/1.0/">
	<!ENTITY ns_imrep "http://ns.adobe.com/ImageReplacement/1.0/">
	<!ENTITY ns_sfw "http://ns.adobe.com/SaveForWeb/1.0/">
	<!ENTITY ns_custom "http://ns.adobe.com/GenericCustomNamespace/1.0/">
	<!ENTITY ns_adobe_xpath "http://ns.adobe.com/XPath/1.0/">
]>
<svg version="1.1" xmlns:x="&ns_extend;" xmlns:i="&ns_ai;" xmlns:graph="&ns_graphs;"
	 xmlns="http://www.w3.org/2000/svg" xmlns:xlink="http://www.w3.org/1999/xlink" xmlns:a="http://ns.adobe.com/AdobeSVGViewerExtensions/3.0/"
	 x="0px" y="0px" width="750px" height="750px" viewBox="0 0 750 750" enable-background="new 0 0 750 750" xml:space="preserve">
<metadata>
	<sfw  xmlns="&ns_sfw;">
		<slices></slices>
		<sliceSourceBounds  width="3074.001" height="2275.257" bottomLeftOrigin="true" x="0" y="-1564"></sliceSourceBounds>
	</sfw>
</metadata>
<g id="FILL-BACKGROUND">
	<rect fill="#FFFFFF" width="750.002" height="750"/>
</g>
<g id="N-TEXT">
</g>
<g id="AG-DIAGRAM">
	<g id="POLYLINE_139_">
		<g>
			<g>
				
					<line fill="none" stroke="#FF6B6B" stroke-width="3" stroke-linecap="round" stroke-linejoin="round" x1="83.21" y1="613.067" x2="85.21" y2="613.067"/>
				
					<line fill="none" stroke="#FF6B6B" stroke-width="3" stroke-linecap="round" stroke-linejoin="round" stroke-dasharray="3.9985,6.9973" x1="92.207" y1="613.067" x2="627.502" y2="613.067"/>
				
					<line fill="none" stroke="#FF6B6B" stroke-width="3" stroke-linecap="round" stroke-linejoin="round" x1="631" y1="613.067" x2="633" y2="613.067"/>
			</g>
		</g>
	</g>
</g>
<g id="AG-PEOPLE">
	<g id="POLYLINE_133_">
		
			<path fill="none" stroke="#FF6B6B" stroke-width="2.75" stroke-linecap="round" stroke-linejoin="round" stroke-miterlimit="10" d="
			M225.732,517.137c-3.788,1.384-7.518,2.868-11.114,4.703c-3.544,1.808-6.918,3.954-10.232,6.149
			c-7.478,4.952-14.794,10.153-22.151,15.277c-6.729,4.686-13.226,9.644-19.703,14.664c-2.854,2.212-5.698,4.466-8.899,6.164
			c-3.58,1.901-7.402,3.243-11.193,4.653c-7.336,2.729-14.285,5.861-19.949,11.421c-2.707,2.656-4.903,5.752-7.378,8.616
			c-2.878,3.333-5.908,6.581-8.597,10.071c-1.888,2.449-3.809,5.133-4.394,8.235c-0.263,1.398-0.358,3.178,0.424,4.443
			c0.902,1.46,2.927,1.124,4.38,1.177c4.09,0.146,8.16,0.423,12.255,0.324c3.452-0.083,6.754-0.394,9.961-1.732
			c1.327-0.554,2.527-1.222,3.286-2.479c0.513-0.854,0.754-1.893,0.957-2.854c0.392-1.868,0.705-3.752,1.224-5.593
			c1.015-3.596,3.302-6.577,6.045-9.051c2.878-2.594,6.204-4.338,9.653-6.037c3.488-1.719,6.511-4.065,9.625-6.368
			c3.119-2.307,6.414-4.205,10.008-5.667c3.429-1.397,6.956-2.529,10.417-3.837c8.023-3.032,16.039-6.444,24.346-8.648
			c4.111-1.091,8.286-2.058,12.319-3.425c3.627-1.23,7.105-2.776,10.491-4.564c5.805-3.067,11.254-6.828,16.323-10.992"/>
	</g>
	<g id="POLYLINE_132_">
		
			<path fill="none" stroke="#FF6B6B" stroke-width="2.75" stroke-linecap="round" stroke-linejoin="round" stroke-miterlimit="10" d="
			M518.925,489.649c-0.77,3.68-1.301,7.422-1.259,11.188c0.04,3.633,0.641,7.207,1.358,10.762
			c1.645,8.137,2.838,16.256,3.273,24.554c0.443,8.424,0.6,16.854,0.439,25.29c-0.152,8.125-0.504,16.313-1.698,24.358
			c-0.621,4.186-1.56,8.288-2.497,12.413c-0.63,2.775-1.286,5.89-0.699,8.735c1.091,5.288,7.628,5.936,12.053,6.063
			c3.939,0.113,7.809-0.477,11.712-0.911c3.979-0.441,7.935-0.634,11.937-0.482c8.117,0.307,16.211,1.214,24.339,1.24
			c4.313,0.015,8.641-0.074,12.952,0.087c3.257,0.12,6.988,0.668,10.155-0.367c1.957-0.639,4.134-2.876,2.342-4.851
			c-0.567-0.625-1.331-1.074-2.065-1.466c-1.637-0.874-3.392-1.532-5.134-2.159c-3.895-1.401-7.885-2.502-11.839-3.717
			c-3.778-1.162-7.229-2.785-10.422-5.125c-3.32-2.435-6.451-5.23-10.063-7.236c-3.031-1.683-6.596-2.594-9.279-4.855
			c-2.429-2.047-3.791-5.11-4.724-8.079c-2.33-7.416-2.977-15.644-2.592-23.379c0.403-8.108,2.289-15.922,3.821-23.865
			c1.598-8.277,2.522-16.665,3.385-25.043c0.818-7.954,1.525-15.931,2.039-23.911c0.163-2.54,0.327-5.079,0.491-7.619"/>
	</g>
	<g id="POLYLINE_86_">
		
			<path fill="none" stroke="#FF6B6B" stroke-width="2.75" stroke-linecap="round" stroke-linejoin="round" stroke-miterlimit="10" d="
			M390.812,421.938c-7.963-0.757-15.706-2.792-23.23-5.48c-3.827-1.368-7.651-2.847-11.212-4.824
			c-2.773-1.542-5.569-3.447-7.49-6.018c-0.247-0.33-0.472-0.679-0.663-1.045c-0.123-0.237-0.232-0.807-0.482-0.953
			c-0.25-0.251-0.522,0.076-0.699,0.264c-1.012,1.07-1.662,2.592-2.372,3.86c-1.009,1.802-2.038,3.593-3.26,5.259
			c-2.033,2.775-4.857,4.993-6.394,8.125c-0.858,1.75-0.623,3.073-0.319,4.929c0.143,0.87,0.031,1.629-0.328,2.434
			c-0.654,1.47-1.336,2.991-2.074,4.418c-0.891,1.721-2.111,2.113-3.828,2.872c-1.368,0.604-2.183,1.688-2.878,2.986
			c-0.807,1.506-1.536,3.124-2.511,4.534c-0.448,0.649-0.957,1.258-1.646,1.664c-0.93,0.55-1.889,0.464-2.928,0.544
			c-0.444,0.033-0.949,0.084-1.286,0.412c-0.426,0.319-0.512,1.193-0.636,1.627c-0.172,0.605-0.461,1.125-0.906,1.57
			c-0.809,0.809-1.862,1.357-2.829,1.948c-1.68,1.023-3.327,2.099-4.925,3.247c-1.575,1.134-3.139,2.291-4.563,3.612
			c-1.301,1.204-2.53,2.482-3.854,3.664c-6.179,5.508-12.671,10.738-17.767,17.312c-2.729,3.522-5.433,7.064-8.199,10.557
			c-1.495,1.887-3.27,4.287-5.645,5.122c-1.793,0.631-4.215,0.288-5.705,1.674c-1.067,0.993-0.392,2.531-0.976,3.721
			c-0.684,1.39-2.977,1.638-4.191,2.237c-2.334,1.152-3.848,3.529-6.199,4.602c-0.989,0.451-2.047,0.425-3.108,0.362
			c-1.77-0.109-3.547-0.208-5.296,0.155c-2.969,0.62-5.504,2.453-8.142,3.845c-2.527,1.332-5.329,2.245-7.326,4.381
			c-1.419,1.518-2.354,3.466-2.555,5.542c-0.612,6.294,4.199,11.94,9.162,15.113c3.295,2.105,6.885,3.674,10.29,5.583
			c3.443,1.93,6.569,4.385,10.049,6.249c2.309,1.237,4.89,2.264,7.561,2.117c2.196-0.121,4.411-0.794,6.257-2.002
			c1.735-1.134,2.504-2.993,3.977-4.379c2.507-2.36,5.962-3.715,8.921-5.393c6.796-3.85,12.071-9.772,19.15-13.185
			c3.593-1.733,7.377-2.932,11.086-4.379c3.929-1.53,7.809-3.202,11.649-4.943c8.342-3.777,16.609-7.731,24.911-11.597
			c6.914-3.217,13.797-6.798,21.041-9.236c3.79-1.276,7.648-2.054,11.585-2.707c3.935-0.651,7.954-1.18,11.729-2.521
			c3.632-1.291,6.909-3.325,10.414-4.898c3.829-1.718,7.671-2.232,11.842-1.928c4.017,0.291,7.983,1.06,11.995,1.414
			c4.001,0.353,8.02,0.441,12.034,0.313c8.314-0.266,16.569-1.496,24.887-1.729c3.979-0.113,7.94,0.291,11.917,0.347
			c3.905,0.054,7.694-0.786,11.501-1.557c3.841-0.775,7.555-1.097,11.467-1.204c1.667-0.044,3.343-0.194,4.964-0.598
			c1.82-0.452,3.562-1.165,5.36-1.688c2.723-0.79,6.546-0.701,7.992,2.284c0.516,1.065,0.793,2.216,1.333,3.275
			c0.417,0.821,0.729,1.604,0.708,2.54c-0.021,0.831-0.703,2.678,0.394,3.171c0.598,0.269,1.422,0.104,2.037,0.013
			c1.739-0.258,3.452-0.796,5.119-1.34c3.791-1.237,7.521-2.691,11.126-4.402c7.684-3.645,14.52-8.63,21.459-13.491
			c1.339-0.939,2.688-1.861,4.054-2.759c1.534-1.008,3.176-1.96,4.549-3.19c0.877-0.784,1.759-1.766,1.408-3.013
			c-0.193-0.687-0.657-1.288-1.103-1.83c-1.239-1.503-2.635-2.872-3.868-4.384c-2.443-2.989-4.613-6.144-6.476-9.528
			c-1.314-2.388-2.531-5.49-4.86-7.113c-0.611-0.425-1.346-0.682-2.057-0.878c-1.68-0.464-3.274-0.976-4.84-1.754
			c-3.275-1.629-6.293-3.25-9.948-3.82c-4.002-0.621-8.062-0.874-12.079-1.395c-8.294-1.076-16.425-2.861-24.623-4.463
			c-3.93-0.769-7.862-1.167-11.859-1.358c-4.135-0.196-8.283-0.406-12.425-0.351c-3.961,0.054-7.825,0.353-11.719,1.095
			c-2.502,0.479-4.979,1.088-7.446,0.188c-1.103-0.402-2.169-0.924-3.346-1.066c-1.151-0.142-2.321,0.083-3.445,0.316
			c-1.098,0.229-2.363,0.639-3.507,0.474c-0.572-0.084-0.932-0.412-1.417-0.705c-1.103-0.666-2.14,0.34-3.138,0.814
			c-1.546,0.733-1.83-1.247-2.537-2.332c-0.572-0.878-1.248-1.607-2.051-2.275c-0.722-0.601-1.663-1.223-2.066-2.113
			c-0.669-1.479,0.203-3.219-0.224-4.772c-0.23-0.836-0.656-0.773-1.229-0.219c-2.422,2.344-5.291,3.67-8.437,4.817
			c-7.404,2.699-15.316,3.88-23.18,3.773C397.22,422.454,394.015,422.218,390.812,421.938z"/>
	</g>
	<g id="POLYLINE_85_">
		
			<path fill="none" stroke="#FF6B6B" stroke-width="2.75" stroke-linecap="round" stroke-linejoin="round" stroke-miterlimit="10" d="
			M388.882,222.477c-2.134-2.13-4.889-2.666-7.57-1.128c-3.794,2.177-3.894,6.616-2.278,10.246c1.155,2.596,2.991,5.264,5.427,6.812
			c1.824,1.159,3.898,1.308,6.013,1.274c1.899-0.031,2.988-0.503,2.937-2.532"/>
	</g>
	<g id="POLYLINE_84_">
		
			<path fill="none" stroke="#FF6B6B" stroke-width="2.75" stroke-linecap="round" stroke-linejoin="round" stroke-miterlimit="10" d="
			M378.973,231.457c0.387,3.521-0.093,6.935-0.934,10.355c-0.453,1.849-1.375,3.259-2.886,4.412c-1.51,1.156-3.425,1.698-4.62,3.245
			c-0.49,0.635-0.914,1.321-1.352,1.995c-0.167,0.258-0.379,0.67-0.654,0.837c-0.271,0.211-0.395,0.132-0.575-0.121
			c-0.462-0.647-0.394-1.994-0.441-2.707c-0.124-1.872-0.153-3.748-0.395-5.608c-0.501-3.875-1.535-7.623-2.919-11.271
			c-1.392-3.67-2.76-7.296-3.08-11.242c-0.29-3.577,0.282-7.098,1.33-10.514c1.116-3.637,2.505-7.474,4.535-10.707
			c2.006-3.195,5.103-5.671,8.114-7.871c2.941-2.148,5.806-4.14,9.388-5.028c2.03-0.505,4.103-0.845,6.158-1.236
			c1.659-0.315,3.261-0.891,4.923-1.18c3.501-0.606,7.083,0.31,10.609,0.239c1.6-0.031,2.879,0.233,4.209,1.124
			c0.96,0.646,1.823,1.331,2.909,1.752c1.113,0.433,2.289,0.685,3.296,1.354c0.944,0.627,1.721,1.472,2.678,2.086
			c1.009,0.646,2.152,1.005,3.25,1.466c0.762,0.318,1.864,0.747,1.98,1.691c0.072,0.591-0.216,1.169-0.16,1.762
			c0.048,0.512,0.318,0.957,0.612,1.367c1,1.397,1.812,2.204,1.393,4.017c-0.182,0.781-0.592,1.938-1.584,1.812
			c-0.679-0.088-1.331-0.655-1.85-1.045c-1.324-0.992-2.637-1.963-4.172-2.606c-1.95-0.82-3.979-1.113-6.06-0.721
			c-1.778,0.338-3.47,1.03-5.25,1.364c-0.849,0.157-1.984,0.15-2.736,0.658c-0.608,0.41-0.687,1.152-0.49,1.815
			c0.342,1.151,1.423,1.727,2.447,2.194c1.669,0.763,3.158,1.459,3.453,3.463c0.769,5.216-5.637,5.365-8.549,7.81
			c-1.042,0.874-1.017,2.027-0.704,3.264c0.724,2.876,1.058,5.958,0.051,8.822c-0.277,0.789-0.746,1.783-1.711,1.321
			c-1.104-0.528-1.924-1.707-2.862-2.472c-1.426-1.163-2.99-2.143-4.549-3.117c-0.959-0.597-1.917-1.194-2.895-1.761"/>
	</g>
	<g id="POLYLINE_83_">
		
			<path fill="none" stroke="#FF6B6B" stroke-width="2.75" stroke-linecap="round" stroke-linejoin="round" stroke-miterlimit="10" d="
			M432.879,413.449c-0.229-8.055-0.258-16.095,0.604-24.115c0.873-8.127,2.842-16.105,3.519-24.257
			c0.68-8.187,0.026-16.451,1.518-24.566c0.714-3.88,1.785-7.715,3.217-11.393c1.198-3.078,2.562-6.265,4.834-8.719
			c2.281-2.466,5.323-3.579,8.563-4.188c3.944-0.74,7.971-0.928,11.938-1.522c8.084-1.218,15.813-3.819,23.339-6.953
			c7.661-3.189,15.092-6.911,22.647-10.337c3.629-1.646,7.303-3.252,11.155-4.301c3.815-1.037,7.69-1.233,11.624-1.102
			c8.108,0.274,16.097,1.575,24.23,1.021c8.011-0.545,15.653-2.809,23.178-5.492c4.236-1.51,8.413-3.192,12.608-4.811
			c3.167-1.223,6.359-2.566,9.716-3.168c4.07-0.73,8.306,0.264,12.332,0.841c3.407,0.488,6.946,0.562,10.328-0.145
			c3.678-0.769,7.219-2.017,10.92-2.703c4.212-0.783,8.363-1.7,12.521-2.729c3.755-0.93,7.503-1.859,11.336-2.42
			c3.104-0.454,6.611-0.635,9.433-2.15c1.647-0.887,3.59-2.959,2.035-4.824c-0.671-0.806-1.67-0.79-2.628-0.603
			c-1.707,0.334-3.342,0.959-5.06,1.26c-1.898,0.334-3.81,0.504-5.731,0.612c-8.281,0.46-16.458-0.847-24.713-1.158
			c-8.229-0.312-16.431,0.323-24.624-0.711c-8.007-1.011-16.066-0.1-24.034,0.876c-3.925,0.48-7.818,0.909-11.78,0.872
			c-4.25-0.039-8.489-0.306-12.73-0.561c-7.99-0.48-15.813-1.32-23.789-0.159c-4.056,0.59-8.08,1.431-12.02,2.562
			c-2.96,0.852-5.826,2.351-8.955,2.388c-1.916,0.024-3.785-0.007-5.688,0.268c-1.93,0.28-3.833,0.697-5.729,1.145
			c-4.049,0.954-8.027,2.186-11.986,3.455c-3.851,1.233-7.65,2.631-11.533,3.763c-3.172,0.926-6.556,1.731-9.883,1.416
			c-3.685-0.351-7.064-2.032-10.583-3.055c-3.626-1.052-7.37-1.473-11.135-1.52c-3.887-0.05-7.804,0.367-11.629,1.026
			c-3.657,0.631-7.405,1.406-10.828,2.884c-1.455,0.627-2.657,1.514-3.999,2.338c-0.498,0.306-1.027,0.56-1.611,0.649
			c-0.929,0.141-1.884-0.113-2.765-0.385c-1.757-0.54-3.428-1.33-5.149-1.967c-2.87-1.058-6.153-1.423-8.768-3.084
			c-1.495-0.951-2.304-2.567-2.803-4.219c-0.508-1.687-0.77-3.453-1.063-5.185c-0.174-1.021-0.371-2.095-0.241-3.134
			c0.148-1.189,0.838-2.033,1.893-2.569c2.033-1.032,4.59-0.995,6.804-0.919c2.042,0.07,4.086,0.247,6.129,0.249
			c1.031,0.002,2.105-0.045,3.09-0.385c1.689-0.584,2.501-2.062,2.97-3.697c0.426-1.486,0.353-3.022,0.693-4.507
			c0.154-0.67,0.623-1.16,1.082-1.649c0.643-0.687,2.016-1.728,1.791-2.861c-0.143-0.724-0.808-1.134-0.576-1.906
			c0.164-0.543,0.572-0.972,0.65-1.551c0.1-0.74-0.258-1.447-0.498-2.124c-0.294-0.828-0.643-1.908-0.121-2.721
			c0.81-1.26,2.634-0.842,3.848-1.198c0.934-0.274,1.406-1.076,1.586-2.002c0.32-1.643-0.586-3.088-1.488-4.379
			c-1.114-1.594-2.371-3.086-3.409-4.733c-0.499-0.791-1.006-1.655-1.196-2.583c-0.274-1.34,0.806-2.056,0.94-3.301
			c0.122-1.119-0.281-2.323-0.619-3.366c-0.616-1.895-1.335-3.738-1.74-5.694c-0.697-3.371-1.028-6.824-1.105-10.265"/>
	</g>
	<g id="POLYLINE_82_">
		
			<path fill="none" stroke="#FF6B6B" stroke-width="2.75" stroke-linecap="round" stroke-linejoin="round" stroke-miterlimit="10" d="
			M347.554,403.519c1.074-3.744,1.738-7.437,1.892-11.333c0.157-4.02,0.063-8.067-0.161-12.083
			c-0.226-4.022-0.574-8.028-1.403-11.977c-0.834-3.979-2.215-7.823-3.387-11.708c-2.241-7.43-2.34-15.399-5.459-22.57
			c-1.571-3.614-3.614-7.032-5.971-10.188c-1.98-2.651-4.213-5.451-7.103-7.158c-2.214-1.307-4.754-1.738-7.287-1.932
			c-4.169-0.313-8.358-0.264-12.529-0.577c-3.825-0.287-7.663-0.779-11.316-2c-3.745-1.251-7.242-3.08-10.762-4.849
			c-7.664-3.848-15.367-7.659-23.366-10.774c-3.632-1.414-7.382-2.525-11.247-3.073c-3.954-0.562-7.946-0.745-11.936-0.814
			c-3.827-0.066-7.665-0.027-11.486,0.204c-4.341,0.264-8.689,0.637-13.043,0.607c-7.571-0.054-14.762-1.993-21.802-4.663
			c-7.966-3.022-15.934-6.374-24.224-8.424c-1.508-0.373-3.1-0.753-4.664-0.722c-1.124,0.022-2.128,0.439-3.207,0.709
			c-3.522,0.881-7.209,0.662-10.732-0.088c-4.123-0.875-7.81-2.627-11.523-4.559c-3.332-1.731-6.685-3.072-10.307-4.076
			c-3.854-1.067-7.745-1.98-11.22-4.036c-1.684-0.996-3.357-1.959-5.121-2.807c-1.678-0.806-3.396-1.568-4.979-2.556
			c-1.477-0.922-5.891-4.05-3.37-6.225c0.893-0.772,2.206-0.353,3.187,0.002c1.856,0.67,3.608,1.555,5.5,2.139
			c1.919,0.594,3.885,1.03,5.814,1.587c3.689,1.063,7.319,2.237,11.159,2.639c4.051,0.425,8.144,0.432,12.178,1.027
			c3.884,0.573,7.652,1.733,11.531,2.321c3.707,0.562,7.329,0.134,11.045-0.087c4.2-0.253,8.135,0.477,12.236,1.278
			c3.795,0.74,7.58,1.104,11.443,1.193c9.001,0.207,18.056-0.509,27.042-0.874c3.545-0.145,7.088-0.293,10.634-0.401
			c3.945-0.12,7.945-0.334,11.875,0.156c4.053,0.507,7.861,1.92,11.713,3.216c3.331,1.12,6.577,1.749,10.091,1.854
			c4.037,0.12,7.916,0.58,11.856,1.497c4.438,1.033,8.835,2.26,13.243,3.418c3.645,0.957,7.293,1.926,10.986,2.683
			c1.882,0.385,3.799,0.682,5.726,0.552c1.57-0.106,3.095-0.501,4.61-0.9c3.972-1.048,7.901-1.9,12.001-2.262
			c4.07-0.358,8.163-0.414,12.241-0.167c3.992,0.239,7.922,0.932,11.852,1.639c3.668,0.66,7.513,1.638,11.225,0.757
			c6.754-1.605,12.465-6.544,15.23-12.846c1.905-4.342,2.552-9.131,1.979-13.827"/>
	</g>
</g>
<g id="AG-OUTLINE">
	<g id="POLYLINE_43_">
		
			<path fill="none" stroke="#FF6B6B" stroke-width="3.5" stroke-linecap="round" stroke-linejoin="round" stroke-miterlimit="10" d="
			M518.925,489.649c-0.77,3.68-1.301,7.422-1.259,11.188c0.04,3.633,0.641,7.207,1.358,10.762
			c1.645,8.137,2.838,16.256,3.273,24.554c0.443,8.424,0.6,16.854,0.439,25.29c-0.152,8.125-0.504,16.313-1.698,24.358
			c-0.621,4.186-1.56,8.288-2.497,12.413c-0.63,2.775-1.286,5.89-0.699,8.735c1.091,5.288,7.628,5.936,12.053,6.063
			c3.939,0.113,7.809-0.477,11.712-0.911c3.979-0.441,7.935-0.634,11.937-0.482c8.117,0.307,16.211,1.214,24.339,1.24
			c4.313,0.015,8.641-0.074,12.952,0.087c3.257,0.12,6.988,0.668,10.155-0.367c1.957-0.639,4.134-2.876,2.342-4.851
			c-0.567-0.625-1.331-1.074-2.065-1.466c-1.637-0.874-3.392-1.532-5.134-2.159c-3.895-1.401-7.885-2.502-11.839-3.717
			c-3.778-1.162-7.229-2.785-10.422-5.125c-3.32-2.435-6.451-5.23-10.063-7.236c-3.031-1.683-6.596-2.594-9.279-4.855
			c-2.429-2.047-3.791-5.11-4.724-8.079c-2.33-7.416-2.977-15.644-2.592-23.379c0.403-8.108,2.289-15.922,3.821-23.865
			c1.598-8.277,2.522-16.665,3.385-25.043c0.818-7.954,1.525-15.931,2.039-23.911c0.162-2.515,0.324-5.028,0.486-7.543
			c0.013-0.209,0.473-0.402,0.627-0.51c0.559-0.39,1.117-0.779,1.676-1.169c0.634-0.443,1.278-0.874,1.924-1.301
			c1.747-1.154,3.561-2.247,5.209-3.542c0.702-0.552,1.487-1.216,1.849-2.056c0.42-0.982-0.047-1.934-0.635-2.741
			c-1.024-1.404-2.332-2.598-3.453-3.924c-1.288-1.523-2.532-3.078-3.688-4.704c-2.328-3.274-3.979-6.919-6.14-10.286
			c-0.932-1.453-2.004-2.655-3.65-3.251c-1.571-0.569-3.181-0.88-4.714-1.579c-1.751-0.802-3.432-1.75-5.174-2.57
			c-3.142-1.477-6.52-1.784-9.925-2.155c-8.228-0.896-16.425-2.016-24.531-3.713c-4.163-0.872-8.329-1.884-12.553-2.429
			c-4.193-0.542-8.439-0.633-12.661-0.8c-3.91-0.152-7.856-0.232-11.763,0.044c-1.85,0.13-3.694,0.323-5.518,0.672
			c-1.817,0.347-3.657,0.806-5.511,0.922c-2.292,0.147-4.022-1.011-6.2-1.469c-2.374-0.501-4.64,0.77-6.993,0.742
			c-0.509-0.008-0.938-0.117-1.361-0.403c-0.351-0.237-0.689-0.555-1.133-0.582c-0.564-0.035-1.148,0.347-1.615,0.606
			c-0.406,0.227-1.174,0.833-1.72,0.685c-0.606-0.136-0.926-1.289-1.16-1.705c-0.541-0.959-1.166-1.87-1.977-2.622
			c-1.315-1.219-2.9-1.998-2.872-3.957c0.016-1.019,0.229-2.021,0.073-3.04c-0.067-0.434-0.255-0.669-0.401-1.025
			c-0.353-0.234-0.139-2.206-0.151-2.653c-0.029-1.019-0.042-2.039-0.062-3.058c-0.038-2.04-0.021-4.077,0-6.116
			c0.08-8.003,1.142-15.838,2.444-23.719c0.667-4.033,1.363-8.069,1.75-12.142c0.411-4.346,0.418-8.721,0.516-13.081
			c0.174-7.884,1.256-15.553,4.045-22.967c1.178-3.136,2.515-6.385,4.718-8.955c2.164-2.525,5.045-3.777,8.251-4.453
			c3.905-0.823,7.919-0.99,11.864-1.553c4.028-0.573,8-1.46,11.9-2.62c7.372-2.193,14.435-5.303,21.396-8.542
			c4.146-1.932,8.281-3.896,12.447-5.786c3.718-1.685,7.458-3.408,11.39-4.536c7.983-2.294,16.271-1.065,24.401-0.406
			c7.742,0.627,15.54,0.256,23.104-1.573c8.229-1.991,16.095-5.226,23.976-8.263c3.308-1.276,6.629-2.7,10.114-3.422
			c4.075-0.844,8.242,0.086,12.289,0.664c3.401,0.488,6.92,0.692,10.314,0.047c3.598-0.685,7.037-1.989,10.641-2.659
			c4.128-0.766,8.209-1.608,12.283-2.616c3.899-0.965,7.801-2.013,11.78-2.594c3.226-0.473,6.871-0.64,9.842-2.126
			c1.068-0.535,2.214-1.342,2.656-2.503c0.742-1.954-0.9-3.389-2.763-3.092c-1.589,0.254-3.11,0.861-4.687,1.188
			c-1.828,0.379-3.696,0.571-5.558,0.688c-4.114,0.256-8.238,0.143-12.349-0.13c-4.109-0.271-8.2-0.773-12.317-0.952
			c-4.342-0.186-8.696-0.096-13.04-0.083c-3.797,0.011-7.554-0.043-11.326-0.52c-4.007-0.507-7.923-0.696-11.96-0.499
			c-8.18,0.396-16.261,2.083-24.452,2.109c-8.276,0.026-16.513-0.959-24.771-1.33c-7.928-0.356-15.885,0.821-23.516,2.952
			c-3.018,0.842-6.016,2.438-9.178,2.592c-1.842,0.089-3.665-0.035-5.504,0.186c-1.866,0.225-3.722,0.598-5.551,1.028
			c-8.107,1.911-15.868,4.839-23.823,7.256c-3.195,0.971-6.611,1.834-9.979,1.63c-3.626-0.22-6.919-1.834-10.346-2.874
			c-7.451-2.264-15.284-2.034-22.901-0.812c-3.627,0.581-7.315,1.35-10.74,2.7c-1.583,0.625-2.92,1.452-4.331,2.388
			c-0.547,0.362-1.119,0.705-1.769,0.845c-0.836,0.18-1.709,0.007-2.521-0.216c-1.709-0.47-3.329-1.23-4.979-1.864
			c-2.99-1.148-6.469-1.519-9.218-3.214c-1.443-0.891-2.3-2.311-2.831-3.893c-0.561-1.67-0.812-3.431-1.121-5.156
			c-0.198-1.101-0.425-2.244-0.342-3.368c0.273-3.744,5.38-3.759,8.094-3.726c2.021,0.025,4.036,0.192,6.057,0.248
			c1.165,0.034,2.382,0.039,3.514-0.285c1.719-0.494,2.625-1.828,3.147-3.468c0.484-1.521,0.51-3.057,0.754-4.615
			c0.092-0.588,0.363-1.007,0.749-1.456c0.671-0.777,2.361-1.938,2.17-3.201c-0.102-0.677-0.773-1.122-0.626-1.844
			c0.113-0.555,0.559-0.989,0.669-1.553c0.104-0.531-0.044-1.041-0.217-1.542c-0.342-0.981-1.015-2.319-0.425-3.354
			c0.708-1.241,2.464-0.965,3.626-1.208c0.996-0.207,1.562-0.87,1.807-1.858c0.365-1.481-0.271-2.824-1.074-4.04
			c-1.603-2.419-4.173-4.763-4.928-7.653c-0.132-0.507-0.173-1.03,0.014-1.529c0.233-0.625,0.724-1.099,0.85-1.771
			c0.172-0.921-0.104-1.928-0.355-2.806c-0.537-1.87-1.298-3.665-1.77-5.554c-0.904-3.625-1.229-7.444-1.312-11.172
			c0.566,0.371,1.282,0.715,1.858,0.204c0.874-0.773,1.106-2.6,0.704-3.646c-0.464-1.204-1.863-1.979-1.966-3.334
			c-0.064-0.854,0.474-1.715-0.165-2.44c-0.459-0.52-1.239-0.809-1.857-1.062c-1.063-0.436-2.147-0.798-3.116-1.427
			c-0.954-0.619-1.728-1.475-2.684-2.089c-1.022-0.659-2.216-0.902-3.333-1.35c-1.661-0.666-2.891-2.141-4.63-2.617
			c-0.85-0.234-1.751-0.227-2.623-0.208c-1.848,0.037-3.618-0.106-5.455-0.305c-1.677-0.182-3.351-0.21-5.017,0.08
			c-1.663,0.287-3.268,0.866-4.928,1.182c-3.683,0.699-7.501,1.184-10.8,3.086c-3.302,1.901-6.472,4.358-9.264,6.946
			c-2.914,2.702-4.628,5.927-6.119,9.563c-1.346,3.288-2.552,6.698-3.058,10.229c-0.527,3.67-0.188,7.416,0.852,10.968
			c1.138,3.887,2.896,7.55,3.903,11.481c0.974,3.798,1.209,7.54,1.487,11.43c0.058,0.798,0.073,1.753,0.441,2.492
			c0.048,0.096,0.216,0.163,0.244,0.224c0.146,0.019,0.197,1.967,0.208,2.197c0.171,3.451-0.394,6.913-1.575,10.157
			c-2.412,6.62-7.535,11.476-14.16,13.828c-3.393,1.206-6.76,0.837-10.23,0.212c-4.241-0.763-8.475-1.602-12.772-1.983
			c-7.757-0.69-15.902-0.362-23.455,1.633c-3.704,0.976-7.093,1.94-10.951,1.358c-3.593-0.544-7.149-1.521-10.661-2.444
			c-4.489-1.18-8.97-2.412-13.477-3.523c-3.818-0.94-7.674-1.763-11.615-1.909c-1.93-0.072-3.871-0.052-5.79-0.291
			c-1.772-0.221-3.485-0.674-5.189-1.195c-3.672-1.118-7.243-2.64-11.033-3.336c-3.734-0.687-7.552-0.662-11.334-0.547
			c-3.551,0.107-7.1,0.228-10.649,0.372c-9.265,0.379-18.555,1.001-27.83,1.001c-3.892,0-7.776-0.232-11.611-0.909
			c-3.92-0.69-7.788-1.729-11.797-1.67c-3.807,0.056-7.588,0.749-11.398,0.384c-3.844-0.369-7.553-1.527-11.342-2.218
			c-4.013-0.729-8.08-0.864-12.14-1.163c-3.931-0.291-7.641-1.21-11.404-2.327c-3.843-1.141-7.723-1.994-11.417-3.579
			c-1.187-0.508-3.142-1.59-4.468-0.837c-2.545,1.447,0.352,4.478,1.69,5.479c2.903,2.175,6.412,3.297,9.514,5.133
			c1.734,1.025,3.447,2.089,5.326,2.839c1.677,0.668,3.426,1.137,5.163,1.619c3.939,1.091,7.791,2.177,11.457,4.021
			c3.688,1.854,7.212,3.816,11.221,4.909c3.656,0.998,7.485,1.451,11.247,0.827c1.255-0.209,2.437-0.71,3.687-0.916
			c1.256-0.204,2.552,0.019,3.785,0.258c3.873,0.751,7.655,2.05,11.371,3.351c4.257,1.492,8.46,3.131,12.677,4.729
			c7.075,2.684,14.195,5.018,21.813,5.348c8.137,0.351,16.278-0.852,24.424-0.788c8.059,0.062,15.936,0.578,23.583,3.306
			c7.669,2.733,15.059,6.395,22.324,10.042c3.813,1.915,7.595,3.967,11.572,5.524c3.619,1.417,7.396,2.102,11.246,2.499
			c4.098,0.425,8.224,0.412,12.334,0.618c2.929,0.146,5.938,0.324,8.617,1.627c2.769,1.345,4.928,3.814,6.812,6.183
			c2.404,3.024,4.54,6.309,6.223,9.791c1.688,3.497,2.755,7.136,3.503,10.938c0.771,3.923,1.253,7.883,2.305,11.747
			c1.055,3.878,2.471,7.654,3.438,11.557c0.959,3.862,1.443,7.802,1.713,11.769c0.53,7.81,0.95,16.054-1.108,23.678
			c-0.147,0.546-0.281,1.42-0.608,1.802c-0.17,0.039-0.325,0.249-0.436,0.367c-1.031,1.125-1.705,2.684-2.442,4.001
			c-0.992,1.771-2.012,3.536-3.225,5.171c-1.135,1.529-2.495,2.866-3.728,4.313c-1.397,1.641-3.149,3.717-3.276,5.997
			c-0.103,1.832,0.794,3.366-0.004,5.153c-0.656,1.469-1.329,3.015-2.087,4.433c-0.299,0.559-0.641,1.105-1.126,1.523
			c-1.222,1.048-2.992,1.096-4.153,2.26c-1.79,1.794-2.523,4.503-3.928,6.579c-0.44,0.651-0.973,1.256-1.661,1.651
			c-0.93,0.534-1.903,0.447-2.937,0.523c-1.412,0.104-1.501,0.848-1.884,2.076c-0.565,1.816-2.362,2.646-3.882,3.573
			c-3.276,1.999-6.573,4.187-9.386,6.813c-3.118,2.913-6.242,5.793-9.431,8.634c-2.978,2.653-6.045,5.243-8.726,8.207
			c-2.892,3.196-5.441,6.709-8.078,10.11c-2.162,2.79-4.229,5.884-6.893,8.227c-0.695,0.612-1.454,1.147-2.338,1.447
			c-1.254,0.429-2.61,0.429-3.885,0.785c-1.154,0.323-2.192,0.883-2.406,2.138c-0.229,1.338,0.094,2.544-1.206,3.309
			c-1.047,0.613-2.279,0.854-3.36,1.4c-1.197,0.604-2.211,1.48-3.215,2.358c-0.923,0.807-1.856,1.748-2.999,2.249
			c-1.034,0.45-2.135,0.392-3.234,0.324c-3-0.184-5.658,0.019-8.381,1.34c-1.714,0.831-3.327,1.854-5.01,2.742
			c-1.633,0.861-3.377,1.511-4.949,2.486c-0.802,0.497-1.544,1.084-2.193,1.771c-0.31,0.326-0.596,0.677-0.861,1.041
			c-0.13,0.178-0.252,0.361-0.368,0.549c-0.19,0.305-1.188,0.47-1.533,0.596c-3.679,1.346-7.305,2.88-10.748,4.754
			c-6.778,3.69-13.115,8.197-19.439,12.603c-7.382,5.142-14.791,10.24-22.03,15.582c-3.681,2.716-7.254,5.581-10.87,8.383
			c-2.72,2.107-5.508,4.11-8.595,5.65c-7.149,3.565-15.049,5.34-22.003,9.348c-3.377,1.944-6.453,4.451-9.143,7.264
			c-2.536,2.651-4.692,5.669-7.092,8.446c-2.92,3.383-6.017,6.68-8.665,10.287c-1.678,2.285-3.267,4.855-3.621,7.726
			c-0.162,1.309-0.176,3.073,0.755,4.133c1.164,1.324,3.709,0.821,5.219,0.896c4.206,0.202,8.404,0.408,12.616,0.23
			c3.264-0.138,6.377-0.61,9.34-2.045c1.195-0.577,2.14-1.365,2.71-2.583c0.549-1.169,0.751-2.503,0.998-3.759
			c0.35-1.787,0.685-3.583,1.295-5.303c1.267-3.57,3.845-6.471,6.726-8.849c2.928-2.418,6.283-3.917,9.621-5.658
			c3.438-1.794,6.389-4.306,9.545-6.531c3.269-2.304,6.714-4.115,10.449-5.544c3.49-1.334,7.031-2.53,10.527-3.852
			c4.354-1.646,8.693-3.336,13.072-4.917c3.582-1.293,7.192-2.482,10.874-3.461c4.199-1.115,8.447-2.122,12.542-3.588
			c7.385-2.645,14.293-6.686,20.61-11.302c0.841-0.614,1.678-1.232,2.499-1.872c0.376-0.293,0.752-0.585,1.123-0.886
			c0.231-0.186,1.01-1.023,1.29-1.05c0.242-0.021,1.004,0.581,1.219,0.711c0.398,0.237,0.795,0.477,1.186,0.726
			c0.895,0.569,1.782,1.148,2.669,1.729c2.858,1.873,5.786,3.925,9.134,4.81c3.885,1.028,8.92-0.023,11.521-3.282
			c0.726-0.911,1.307-1.924,2.152-2.733c1.051-1.005,2.346-1.77,3.607-2.475c3.438-1.917,6.963-3.655,10.126-6.021
			c3.168-2.371,6.076-5.104,9.392-7.275c3.272-2.141,6.826-3.759,10.482-5.126c6.645-2.484,13.184-5.116,19.619-8.112
			c9.965-4.639,19.931-9.277,29.896-13.918c6.393-2.975,12.785-5.941,19.705-7.485c3.985-0.887,8.054-1.343,12.057-2.139
			c3.604-0.717,6.928-1.967,10.208-3.6c3.604-1.796,7.133-3.886,11.18-4.485c4.055-0.603,8.17,0.076,12.191,0.609
			c7.958,1.05,15.918,1.341,23.926,0.666c7.997-0.674,16.093-1.729,24.133-1.332c3.949,0.194,7.858,0.483,11.791-0.076
			c3.965-0.564,7.835-1.705,11.823-2.129c3.651-0.386,7.414,0.037,10.999-0.893c2.725-0.705,5.492-2.241,8.367-2.171
			c1.359,0.034,2.731,0.559,3.786,1.409c1.463,1.178,1.703,3.173,2.519,4.775c0.324,0.637,0.599,1.286,0.644,2.006
			c0.055,0.898-0.262,1.792-0.177,2.683C518.043,489.221,518.344,489.579,518.925,489.649z"/>
	</g>
</g>
</svg>
