<?xml version="1.0" encoding="utf-8"?>
<!-- Generator: Adobe Illustrator 23.0.1, SVG Export Plug-In . SVG Version: 6.00 Build 0)  -->
<!DOCTYPE svg PUBLIC "-//W3C//DTD SVG 1.1//EN" "http://www.w3.org/Graphics/SVG/1.1/DTD/svg11.dtd" [
	<!ENTITY ns_extend "http://ns.adobe.com/Extensibility/1.0/">
	<!ENTITY ns_ai "http://ns.adobe.com/AdobeIllustrator/10.0/">
	<!ENTITY ns_graphs "http://ns.adobe.com/Graphs/1.0/">
	<!ENTITY ns_vars "http://ns.adobe.com/Variables/1.0/">
	<!ENTITY ns_imrep "http://ns.adobe.com/ImageReplacement/1.0/">
	<!ENTITY ns_sfw "http://ns.adobe.com/SaveForWeb/1.0/">
	<!ENTITY ns_custom "http://ns.adobe.com/GenericCustomNamespace/1.0/">
	<!ENTITY ns_adobe_xpath "http://ns.adobe.com/XPath/1.0/">
]>
<svg version="1.1" xmlns:x="&ns_extend;" xmlns:i="&ns_ai;" xmlns:graph="&ns_graphs;"
	 xmlns="http://www.w3.org/2000/svg" xmlns:xlink="http://www.w3.org/1999/xlink" x="0px" y="0px" viewBox="0 0 750 750"
	 enable-background="new 0 0 750 750" xml:space="preserve">
<metadata>
	<sfw  xmlns="&ns_sfw;">
		<slices></slices>
		<sliceSourceBounds  bottomLeftOrigin="true" height="750.312" width="2999.755" x="-116" y="0"></sliceSourceBounds>
	</sfw>
</metadata>
<g id="FILL-BACKGROUND">
	<rect display="none" fill="#FFFFFF" width="750" height="750"/>
</g>
<g id="N-TEXT">
</g>
<g id="AG-DIAGRAM">
	<g>
		<g>
			
				<line fill="none" stroke="#FF6B6B" stroke-width="3.5" stroke-linecap="round" stroke-linejoin="round" x1="150.35" y1="683.812" x2="152.35" y2="683.812"/>
			
				<line fill="none" stroke="#FF6B6B" stroke-width="3.5" stroke-linecap="round" stroke-linejoin="round" stroke-dasharray="3.996,6.9929" x1="159.343" y1="683.812" x2="573.425" y2="683.812"/>
			
				<line fill="none" stroke="#FF6B6B" stroke-width="3.5" stroke-linecap="round" stroke-linejoin="round" x1="576.921" y1="683.812" x2="578.921" y2="683.812"/>
		</g>
	</g>
	<g display="none">
		<g display="inline">
			<g>
				
					<line fill="none" stroke="#FF6B6B" stroke-width="2" stroke-linecap="round" stroke-linejoin="round" x1="534.902" y1="699.312" x2="534.902" y2="697.812"/>
				
					<line fill="none" stroke="#FF6B6B" stroke-width="2" stroke-linecap="round" stroke-linejoin="round" stroke-dasharray="2.9892,4.9819" x1="534.902" y1="692.83" x2="534.902" y2="424.303"/>
				<polyline fill="none" stroke="#FF6B6B" stroke-width="2" stroke-linecap="round" stroke-linejoin="round" points="
					534.902,421.812 534.902,420.312 533.483,420.798 				"/>
				
					<line fill="none" stroke="#FF6B6B" stroke-width="2" stroke-linecap="round" stroke-linejoin="round" stroke-dasharray="2.9831,4.9719" x1="528.78" y1="422.41" x2="395.673" y2="468.02"/>
				
					<line fill="none" stroke="#FF6B6B" stroke-width="2" stroke-linecap="round" stroke-linejoin="round" x1="393.321" y1="468.826" x2="391.902" y2="469.312"/>
			</g>
		</g>
		<g id="POLYLINE_151_" display="inline">
			<g id="POLYLINE_152_">
				
					<line fill="none" stroke="#FF6B6B" stroke-width="2" stroke-linecap="round" stroke-linejoin="round" stroke-miterlimit="10" x1="534.864" y1="700.629" x2="529.807" y2="695.74"/>
				
					<line fill="none" stroke="#FF6B6B" stroke-width="2" stroke-linecap="round" stroke-linejoin="round" stroke-miterlimit="10" x1="539.753" y1="695.577" x2="534.864" y2="700.629"/>
			</g>
		</g>
		<g id="POLYLINE_1_" display="inline">
			
				<line fill="none" stroke="#FF6B6B" stroke-width="2" stroke-linecap="round" stroke-linejoin="round" stroke-miterlimit="10" x1="391.722" y1="469.622" x2="394.72" y2="463.26"/>
			
				<line fill="none" stroke="#FF6B6B" stroke-width="2" stroke-linecap="round" stroke-linejoin="round" stroke-miterlimit="10" x1="398.081" y1="472.622" x2="391.722" y2="469.622"/>
		</g>
	</g>
</g>
<g id="AG-PEOPLE">
	<g>
		<g id="POLYLINE_150_">
			
				<path fill="none" stroke="#FF6B6B" stroke-width="2.75" stroke-linecap="round" stroke-linejoin="round" stroke-miterlimit="10" d="
				M411.006,483.749c6.83-5.565,14.816-9.934,23.353-12.205c9.178-2.441,18.752-2.331,28.131-3.374
				c3.176-0.353,6.336-0.844,9.406-1.739c3.43-0.997,6.647-2.535,9.842-4.104"/>
		</g>
		<g id="POLYLINE_149_">
			
				<path fill="none" stroke="#FF6B6B" stroke-width="2.75" stroke-linecap="round" stroke-linejoin="round" stroke-miterlimit="10" d="
				M479.744,463.301c5.186-0.228,10.367-0.531,15.551-0.817c4.305-0.237,8.738-0.256,12.986-1.046
				c3.141-0.584,5.715-2.554,8.889-3.072c1.711-0.279,3.44-0.239,5.068,0.393c1.736,0.675,3.588,1.921,4.604,3.524
				c1.06,1.675,0.834,3.716,0.428,5.565c-0.976,4.464-2.637,8.686-3.258,13.241c-0.637,4.669-0.912,9.381-1.166,14.084
				c-0.262,4.816-0.465,9.637-0.527,14.459c-0.027,2.173,0.072,4.361-0.088,6.529c-0.062,0.837-0.176,1.675-0.512,2.45
				c-0.43,0.993-1,1.836-1.229,2.905c-0.406,1.899-0.355,3.867-0.646,5.784c-0.291,1.912-0.912,3.705-2.326,5.072
				c-0.887,0.858-2.295,1.777-3.598,1.625c-1.488-0.174-2.199-1.952-2.725-3.125c-1.676-3.731-1.685-7.295-1.371-11.285
				c0.303-3.835-0.207-7.345-1.354-11.016c-0.734-2.357-1.557-4.711-2.105-7.122c-0.476-2.102-0.635-4.249-0.996-6.372
				c-0.31-1.839-0.889-3.592-2.264-4.912c-1.877-1.802-4.602-2.499-7.076-2.985c-4.514-0.888-9.164-1.02-13.752-1.044
				c-8.855-0.049-17.725,0.96-26.367,2.872c-9.477,2.097-18.902,4.022-28.514,5.398c-4.963,0.71-9.986,1.274-14.906,2.247
				c-4.242,0.838-8.32,2.052-12.68,1.339c-4.205-0.686-8.119-2.698-11.56-5.151c-2.348-1.674-4.91-3.728-6.053-6.469
				c-0.506-1.213-0.637-2.518-0.977-3.778c-0.473-1.753-1.369-3.36-1.914-5.091c-1.035-3.285-1.217-6.811-0.215-10.119
				c1.068-3.521,3.164-6.665,5.791-9.217c1.576-1.532,3.332-2.865,5.025-4.261c1.689-1.393,3.195-2.943,4.688-4.539
				c6.271-6.701,13.648-12.203,21.412-17.065c6.268-3.925,12.811-7.354,19.596-10.294"/>
		</g>
		<g id="POLYLINE_148_">
			
				<path fill="none" stroke="#FF6B6B" stroke-width="2.75" stroke-linecap="round" stroke-linejoin="round" stroke-miterlimit="10" d="
				M477.773,381.735c-2.051,3.055-3.252,6.706-3.904,10.314c-0.549,3.039-0.045,6.47-1.375,9.331
				c-1.092,2.35-3.188,3.639-5.006,5.362c-1.127,1.067-2.068,2.388-3.352,3.284c-1.25,0.873-2.65,1.553-3.922,2.409
				c-2.445,1.645-4.406,2.534-7.31,2.806c-3.051,0.285-5.598,2.071-8.369,3.24c-1.98,0.837-4.008,1.572-6.02,2.333
				c-0.885,0.335-2.15,0.6-2.912,1.191c0.086,0.143,2.852-0.342,3.316-0.337c0.885,0.013,1.762,0.183,2.594,0.488
				c3.355,1.233,5.939,4.146,8.467,6.544c6.605,6.267,14.652,10.695,20.684,17.609c2.965,3.399,5.387,7.125,7.645,11.017
				c0.867,1.493,1.664,3.168,2.83,4.46c0.234,0.259,0.514,0.564,0.865,0.661c0.236,0.065,0.443,0.03,0.678-0.026
				c1.748-0.424,3.494-1.742,5.041-2.618c4.16-2.355,8.225-4.882,12.398-7.215c1.373-0.769,3.568-2.352,5.279-1.74
				c1.125,0.401,2.045,1.42,3.055,2.036c1.184,0.723,2.445,1.379,3.781,1.771c0.504,0.148,1.188,0.178,1.49,0.682
				c0.086,0.142,0.107,0.293,0.133,0.454c0.164,1.105-0.041,2.366,0.025,3.492"/>
		</g>
		<g id="POLYLINE_147_">
			
				<path fill="none" stroke="#FF6B6B" stroke-width="2.75" stroke-linecap="round" stroke-linejoin="round" stroke-miterlimit="10" d="
				M477.773,381.735c7.715,4.907,17.072,7.297,25.918,9.272c8.963,1.999,18.223,2.822,27.397,2.836
				c9.197,0.014,18.715-0.171,27.73-2.162c2.094-0.462,4.078-1.224,6.129-1.833c0.518-0.153,1.273-0.449,1.824-0.244
				c0.457,0.17,0.578,0.579,0.666,1.033c0.387,1.98,0.244,4.171,0.332,6.173c0.096,2.16,0.176,4.329,0.16,6.492
				c-0.02,2.421-0.131,4.86,0.012,7.279c0.135,2.29,0.521,4.54,0.885,6.804c0.727,4.542,1.227,9.026,1.176,13.636
				c-0.053,4.575-0.508,9.154-1.1,13.688c-1.285,9.861-3.451,19.557-5.562,29.264c-0.91,4.185-1.826,8.352-2.35,12.603
				c-0.182,1.48-0.814,2.296-2.215,2.858c-2.629,1.052-5.521,0.505-8.195-0.062c-4.734-1.003-9.434-2.151-14.19-3.044
				c-4.295-0.806-8.535-0.864-12.887-0.755"/>
		</g>
		<g id="POLYLINE_146_">
			
				<path fill="none" stroke="#FF6B6B" stroke-width="2.75" stroke-linecap="round" stroke-linejoin="round" stroke-miterlimit="10" d="
				M512.092,532.607c0.424,4.781,0.889,9.586,1.031,14.386c0.129,4.398-0.361,8.76-1.291,13.058
				c-0.486,2.25-1.143,4.457-1.637,6.703c-0.477,2.161-0.723,4.357-0.918,6.559c-0.43,4.83-0.559,9.68-1.037,14.505
				c-1.041,10.522-2.621,21.013-3.932,31.504c-0.467,3.729-0.822,7.508-1.719,11.163c-0.939,3.814-3.297,7.028-4.574,10.732
				c-1.477,4.29-2.314,8.637-2.98,13.113c-0.311,2.092-0.967,4.086-1.494,6.126c-0.303,1.169-0.621,2.408-0.51,3.628
				c0.129,1.397,0.814,2.675,1.074,4.048c0.352,1.852,0.322,3.775,0.303,5.65c-0.027,2.686-0.719,5.849,0.859,8.246
				c1.184,1.797,2.699,2.199,4.75,2.008c4.418-0.412,8.83,0.105,13.242-0.258c2.117-0.173,4.232-0.639,6.359-0.674
				c0.867-0.015,1.762,0.281,2.617,0.116c1.258-0.241,2.135-1.401,2.182-2.645c0.072-1.882-0.94-3.87-2.002-5.36
				c-2.41-3.385-5.35-6.209-7.135-10.025c-1.256-2.685-2.152-5.742-1.822-8.732c0.211-1.908,0.9-3.71,1.379-5.558
				c0.553-2.143,0.68-4.323,0.711-6.526c0.029-2.143-0.019-4.31,0.385-6.425c0.389-2.03,1.18-3.958,2.014-5.84
				c2.047-4.616,4.42-9.1,6.672-13.615c4.16-8.334,7.723-16.919,10.834-25.696c3.1-8.745,6.445-17.803,7.465-27.077
				c0.51-4.643-0.043-9.179-0.318-13.81c-0.227-3.803,0.322-7.119,1.707-10.654c0.793-2.02,1.621-4.028,2.07-6.16
				c0.494-2.352,0.662-4.762,0.904-7.148c0.4-3.952,2.293-7.317,3.394-11.089c1.352-4.622,2.424-9.321,3.81-13.933
				c1.391-4.632,3.227-9.082,5.076-13.541c0.062-0.15,0.125-0.301,0.188-0.451"/>
		</g>
		<g id="POLYLINE_145_">
			
				<path fill="none" stroke="#FF6B6B" stroke-width="2.75" stroke-linecap="round" stroke-linejoin="round" stroke-miterlimit="10" d="
				M478,286.141c0.906,4.408,1.605,8.986,1.732,13.494c0.123,4.341-0.723,8.436-2.545,12.39c-0.078,0.174-0.162,0.347-0.244,0.519"
				/>
		</g>
		<g id="POLYLINE_144_">
			
				<path fill="none" stroke="#FF6B6B" stroke-width="2.75" stroke-linecap="round" stroke-linejoin="round" stroke-miterlimit="10" d="
				M482.193,336.104c1.172,4.537,2.521,9.12,3.267,13.75c0.631,3.901,0.094,7.359-1.631,10.911
				c-1.615,3.323-3.527,6.468-4.594,10.031c-1.061,3.546-1.375,7.255-1.463,10.939"/>
		</g>
		<g id="POLYLINE_143_">
			
				<path fill="none" stroke="#FF6B6B" stroke-width="2.75" stroke-linecap="round" stroke-linejoin="round" stroke-miterlimit="10" d="
				M566.754,389.6c0.141-4.176-0.209-8.359-1.137-12.437c-0.477-2.089-1.055-4.147-1.811-6.154
				c-0.795-2.122-1.742-4.212-2.203-6.442c-0.619-2.994-0.266-6.153,0.539-9.08c1.117-4.062,3.369-7.649,4.746-11.614
				c0.619-1.78,1.139-3.586,1.654-5.397"/>
		</g>
		<g id="POLYLINE_142_">
			
				<path fill="none" stroke="#FF6B6B" stroke-width="2.75" stroke-linecap="round" stroke-linejoin="round" stroke-miterlimit="10" d="
				M494.732,256.494c3.615-2.376,7.514-4.718,10.107-8.271c2.098-2.877,2.836-6.4,3.055-9.9c0.225-3.58,0.02-7.177-0.104-10.757
				c-0.156-4.431-0.299-8.86-0.514-13.288"/>
		</g>
		<g id="POLYLINE_141_">
			
				<path fill="none" stroke="#FF6B6B" stroke-width="2.75" stroke-linecap="round" stroke-linejoin="round" stroke-miterlimit="10" d="
				M452.719,311.218c3.82-0.318,7.609-0.433,11.391,0.297c2.297,0.442,4.568,1.076,6.898,1.323c2.25,0.238,4.496,0.001,6.705-0.442
				c4.852-0.974,9.592-2.515,14.324-3.938c4.502-1.354,8.986-2.785,13.445-4.268c2.672-0.89,4.853-1.755,5.877-4.544
				c1.568-4.264,2.43-8.788,3.891-13.095c0.617-1.815,1.387-3.556,1.809-5.432c0.441-1.955,0.688-3.968,0.912-5.959
				c0.629-5.59,1.258-11.179,1.887-16.769c0.098-0.868-0.019-2.517,0.914-3.021c0.824-0.444,2.221-0.032,2.826,0.621
				c0.266,0.288,0.392,0.643,0.469,1.023c0.289,1.469,0.344,3.091,0.478,4.579c0.377,4.167-0.701,8.228-0.613,12.379
				c0.106,5.027-0.051,10.02-0.211,15.048c-0.141,4.458-0.418,8.963-0.117,13.419c0.098,1.439,0.418,2.934,0.057,4.362
				c-0.289,1.151-0.889,2.264-1.623,3.191c-0.68,0.861-1.523,1.463-2.479,1.983c-2.041,1.108-3.916,2.387-5.83,3.7
				c-8.332,5.715-16.953,11.041-25.375,16.627c-7.154,4.745-14.953,8.584-23.246,10.892c-2.055,0.571-4.139,1.008-6.26,1.23
				c-2.145,0.224-4.305,0.222-6.449,0.441c-2.152,0.222-4.25,0.786-6.352,1.275c-1.353,0.316-2.795,0.655-4.197,0.546
				c-2.316-0.181-3.637-2.041-4.543-3.99c-1.58-3.403-2.191-7.3-1.935-11.03c0.31-4.518,1.812-8.765,3.215-13.031
				c0.664-2.02,1.07-4.044,1.44-6.132c0.225-1.272,0.533-2.531,1.107-3.695c1.721-3.49,5.113-6.098,7.807-8.794
				c1.305-1.306,2.553-2.731,3.373-4.399c0.832-1.686,1.182-3.523,1.506-5.362c0.369-2.094,0.695-4.196,1.348-6.225
				c0.605-1.881,1.516-3.652,2.482-5.369c1.176-2.084,2.424-4.129,3.609-6.207c0.947-1.662,1.889-3.343,3.102-4.831
				c2.084-2.555,5.102-4.158,8.141-5.315c3.814-1.452,7.699-1.666,11.705-2.159c3.846-0.475,7.469-1.642,10.725-3.78"/>
		</g>
		<g id="POLYLINE_140_">
			
				<path fill="none" stroke="#FF6B6B" stroke-width="2.75" stroke-linecap="round" stroke-linejoin="round" stroke-miterlimit="10" d="
				M524.033,256.853c0.477-0.812,1.42-1.474,2.406-1.261c0.803,0.174,1.07,0.919,1.232,1.654c0.416,1.895,0.416,3.891,0.729,5.811
				c0.375,2.304,0.914,4.575,1.508,6.831c1.211,4.599,2.691,9.122,3.818,13.743c1.072,4.391,1.768,9.084,3.492,13.286
				c1.172,2.854,3.252,5.053,5.75,6.818c3.379,2.387,7.387,3.686,11.352,4.733c4.695,1.24,9.504,2.29,14.092,3.907
				c2.379,0.839,4.971,2.412,7.598,2.128c1.426-0.152,2.773-0.741,4.127-1.171c1.953-0.618,3.973-0.96,6.006-1.188
				c4.357-0.49,8.805-0.436,13.152,0.114"/>
		</g>
		<g id="POLYLINE_139_">
			
				<path fill="none" stroke="#FF6B6B" stroke-width="2.75" stroke-linecap="round" stroke-linejoin="round" stroke-miterlimit="10" d="
				M575.355,314.541c-1.59-4.109-2.967-8.537-3.625-12.9c-0.627-4.142,0.789-8.015,0.723-12.129
				c-0.037-2.396-0.414-4.802-1.043-7.111"/>
		</g>
		<g id="POLYLINE_138_">
			
				<path fill="none" stroke="#FF6B6B" stroke-width="2.75" stroke-linecap="round" stroke-linejoin="round" stroke-miterlimit="10" d="
				M545.539,214.462c-0.41,2.29-0.926,4.56-1.463,6.823c-0.412,1.727-0.785,3.509-1.605,5.1c-1.107,2.146-3.066,3.621-5.1,4.835
				c-2.84,1.695-6.029,3.235-9.402,3.208c-4.145-0.032-8.358-0.679-11.953-2.841c-2.779-1.67-5.068-3.905-6.449-6.859
				c-1.494-3.197-2.42-6.909-2.289-10.45"/>
		</g>
		<g id="POLYLINE_137_">
			
				<path fill="none" stroke="#FF6B6B" stroke-width="2.75" stroke-linecap="round" stroke-linejoin="round" stroke-miterlimit="10" d="
				M523.815,304.926c0.139,2.203,1.074,4.268,2.842,5.623c1.373,1.053,3.006,1.722,4.531,2.514c1.881,0.977,3.562,2.188,5.254,3.457
				c7.414,5.565,15.66,9.872,23.043,15.479c3.562,2.706,7.055,5.523,11.055,7.566c3.471,1.772,7.191,3.094,11.008,3.891
				c4.461,0.931,9.057,0.89,13.488,2.005c3.559,0.894,7.195,2.679,10.92,2.698c1.648,0.009,3.01-0.617,4.08-1.871
				c2.244-2.63,3.32-6.535,3.711-9.891c0.492-4.226-0.033-8.564-0.58-12.761c-0.563-4.311-0.988-8.759-2.637-12.821
				c-1.754-4.32-4.606-7.75-7.475-11.356c-2.5-3.144-4.152-6.334-4.832-10.316c-0.736-4.325-1.539-8.374-3.602-12.296
				c-1.992-3.786-4.361-7.483-7.361-10.556c-6.176-6.326-15.615-7.945-23.957-9.478c-1.871-0.344-3.742-0.698-5.535-1.351
				c-1.93-0.701-3.779-1.705-5.576-2.684c-3.055-1.664-6.586-3.61-8.797-6.363c-1.094-1.362-1.514-2.994-1.676-4.709
				c-0.402-4.28,0.197-8.806,0.689-13.058c0.111-0.954,0.225-1.908,0.344-2.859"/>
		</g>
		<g id="POLYLINE_136_">
			
				<path fill="none" stroke="#FF6B6B" stroke-width="2.75" stroke-linecap="round" stroke-linejoin="round" stroke-miterlimit="10" d="
				M505.309,202.657c-0.022,0.622,0.502,4.674,1.242,4.552c0.672-0.134-0.018-4.762,0.037-5.439
				c0.111-1.333,0.664-2.643,0.607-3.989c-0.029-0.692-0.434-1.291-0.478-1.972c-0.033-0.542,0.203-1.044,0.447-1.515
				c0.615-1.188,1.414-2.269,1.861-3.539c1.529-4.355-0.426-10.694,3.74-13.958c1.297-1.017,2.998-1.341,4.604-1.427
				c1.408-0.075,2.951,0.123,4.301-0.387c1.115-0.421,2.008-1.274,3.107-1.739c2.34-0.987,5.248-1.146,7.709-0.574
				c1.316,0.305,2.6,0.981,3.977,0.946c1.072-0.027,2.1-0.572,3.17-0.508c0.689,0.04,1.215,0.433,1.486,1.076
				c0.311,0.741,0.166,1.594,0.504,2.331c0.402,0.872,1.229,1.471,1.76,2.256c1.494,2.212,1.875,4.065,1.769,6.726
				c-0.07,1.812-0.303,3.736,0.012,5.536c0.174,0.985,0.715,1.605,1.178,2.462c0.465,0.856,0.512,1.839,0.518,2.796
				c0.01,2.133-0.031,4.192,0.129,6.32c0.09,1.192-0.062,2.269-0.348,3.425c-0.047,0.19-0.312,0.888-0.121,1.098
				c0.229,0.458,1.059-0.487,1.15-0.632c0.451-0.698,0.33-1.884,1.213-2.231c0.426-0.167,0.967-0.067,1.35,0.161
				c0.25,0.15,0.432,0.37,0.604,0.602c0.541,0.723,0.959,1.361,1.6,2.014"/>
		</g>
		<g id="POLYLINE_135_">
			
				<path fill="none" stroke="#FF6B6B" stroke-width="2.75" stroke-linecap="round" stroke-linejoin="round" stroke-miterlimit="10" d="
				M545.139,213.844c1.605,2.767,4.625,0.072,5.631-1.978c0.746-1.518,1.156-3.214,1.666-4.817"/>
		</g>
		<g id="POLYLINE_134_">
			
				<path fill="none" stroke="#FF6B6B" stroke-width="2.75" stroke-linecap="round" stroke-linejoin="round" stroke-miterlimit="10" d="
				M499.982,199.267c0.514,0.564,0.568,0.932,0.914,1.568c0.1,0.183,0.189,0.325,0.367,0.441c0.32,0.209,1.16,0.325,1.426-0.049
				c0.238-0.415-0.205-0.823-0.17-1.252c0.031-0.376,0.268-0.591,0.582-0.799"/>
		</g>
		<g id="POLYLINE_133_">
			
				<path fill="none" stroke="#FF6B6B" stroke-width="2.75" stroke-linecap="round" stroke-linejoin="round" stroke-miterlimit="10" d="
				M507.277,214.277c-0.527,0.825-1.414,1.035-2.353,0.81c-1.803-0.434-2.688-2.602-3.332-4.119
				c-1.006-2.365-2.004-4.884-2.25-7.463c-0.131-1.35-0.207-3.083,0.641-4.238"/>
		</g>
		<g id="POLYLINE_132_">
			
				<path fill="none" stroke="#FF6B6B" stroke-width="2.75" stroke-linecap="round" stroke-linejoin="round" stroke-miterlimit="10" d="
				M503.102,199.177c1.078,0.85,1.902,2.143,2.207,3.48"/>
		</g>
		<g id="POLYLINE_131_">
			
				<path fill="none" stroke="#FF6B6B" stroke-width="2.75" stroke-linecap="round" stroke-linejoin="round" stroke-miterlimit="10" d="
				M507.77,227.067c-2.486,0.725-5.678-0.057-5.373-3.125c0.072-0.736,1.022-2.053,0.496-2.698
				c-0.688-0.843-2.439-0.231-3.297-0.961c-0.721-0.613-0.424-1.784-0.904-2.571c-0.65-1.065-1.728-1.809-2.348-2.904
				c-0.416-0.738-0.43-1.433-0.414-2.271c0.01-0.555-0.045-1.079-0.305-1.572c-0.338-0.642-1.275-1.182-1.414-1.884
				c-0.142-0.708,0.865-0.8,1.35-1.097c0.926-0.567,1.768-2.303,0.514-2.968c-1.197-0.637-2.525-0.419-3.059-1.952
				c-0.145-0.418-0.162-0.75,0.193-1.031c0.596-0.471,1.447-0.258,1.881-0.983c0.609-1.019-0.314-2.102-0.076-3.14
				c0.228-0.982,1.685-1.268,2.391-1.843c1.088-0.89,1.889-2.337,1.266-3.74c-0.312-0.703-0.975-1.046-0.75-1.854
				c0.289-1.035,1.287-1.812,1.816-2.709c0.131-0.223,0.334-0.532,0.287-0.812c0-0.827-1.805-1.055-2.33-1.468
				c-0.963-0.756-1.23-2.147-1.111-3.306c0.102-0.99,0.541-2.268,1.574-2.632c1-0.352,2.104,0.191,2.898-0.694
				c0.725-0.808,1.322-2.67,0.779-3.702c-0.176-0.335-0.529-0.53-0.719-0.859c-0.408-0.715-0.404-1.71-0.332-2.499
				c0.195-2.101,1.566-3.746,3.67-4.12c1.715-0.306,3.191-0.317,4.273-1.895c0.633-0.922,0.654-3.017,1.861-3.453
				c0.853-0.309,1.691,0.623,2.523,0.701c1.27,0.121,1.975-1.371,2.812-2.057c1.131-0.924,2.223-0.12,3.51-0.378
				c1.484-0.296,2.092-2.222,3.072-3.164c0.898-0.865,1.938-0.764,3.021-0.245c1.863,0.895,3.117,2.656,5.336,2.417
				c0.754-0.082,2.084-0.601,2.658,0.184c0.435,0.59,0.25,1.215,1.033,1.409c1.096,0.271,2.027-0.248,2.766,0.79
				c0.34,0.479,0.498,1.368,1.186,1.454c0.6,0.074,1.26-0.404,1.865-0.48c0.894-0.111,1.789,0.161,2.611,0.494
				c1.549,0.626,3.039,1.551,4.301,2.645c0.492,0.426,0.947,0.882,1.172,1.505c0.465,1.297,0.387,2.761,0.984,4.028
				c0.109,0.233,0.246,0.55,0.492,0.679c0.43,0.226,0.893-0.139,1.332,0.066c0.434,0.202,0.635,0.759,1.031,1.029
				c0.416,0.287,0.916,0.335,1.408,0.387c1.217,0.131,1.209,0.441,1.645,1.544c0.27,0.686,1.158,1.895,0.652,2.684
				c-0.434,0.676-1.115,0.717-1.244,1.607c-0.066,0.464,0.016,1.003,0.426,1.285c0.494,0.341,1.381-0.007,1.617,0.614
				c0.24,0.634-0.303,1.024,0.197,1.609c0.67,0.783,1.293,0.704,0.98,1.8c-0.266,0.919-0.088,1.878-0.336,2.778
				c-0.055,0.204-0.113,0.389-0.266,0.539c-0.447,0.446-1.219,0.278-1.668,0.75c-0.498,0.521-0.598,1.51-0.725,2.163
				c-0.209,1.081-0.496,2.424-0.242,3.534c0.27,1.184,1.373,1.267,2.231,1.951c0.312,0.251,0.455,0.443,0.402,0.842
				c-0.098,0.73-1.078,1.343-0.877,2.129c0.197,0.78,1.31,1.002,1.625,1.77c0.73,1.782-1.197,4.35-1.967,5.735
				c-0.287,0.516-0.56,1.05-0.525,1.654c0.039,0.63,0.439,1.229,0.355,1.869c-0.145,1.112-1.496,1.675-1.867,2.741
				c-0.404,1.162,0.115,2.853-0.797,3.79c-0.523,0.537-1.316,0.817-1.889,1.325c-0.578,0.516-1.105,1.125-1.383,1.858
				c-0.547,1.448,0.119,3.12-1.068,4.311c-0.66,0.661-1.797,1.352-2.742,0.905c-1.115-0.527-1.264-1.163-2.578-0.777
				c-0.207,0.061-0.41,0.143-0.607,0.23"/>
		</g>
		<g id="POLYLINE_46_">
			
				<path fill="none" stroke="#FF6B6B" stroke-width="2.75" stroke-linecap="round" stroke-linejoin="round" stroke-miterlimit="10" d="
				M250.658,340.342c-0.475-0.713-0.515-1.76-0.605-2.578c-0.265-2.387-0.375-4.787-0.592-7.178
				c-0.419-4.623-1.285-9.155-2.501-13.633c-1.223-4.495-2.852-8.957-3.63-13.56c-0.406-2.396-0.375-4.542,0.98-6.624
				c1.149-1.766,2.347-3.441,3.324-5.317c1.007-1.935,1.898-3.931,2.724-5.949c1.799-4.405,3.262-8.953,5.291-13.262
				c1.644-3.491,3.759-6.848,6.588-9.503c1.319-1.237,2.888-2.086,4.274-3.226c1.02-0.837,1.517-1.907,2.024-3.093
				c0.532-1.239,0.984-1.885,2.342-2.116c1.382-0.236,3.185-0.612,4.586-0.301c0.168,0.036,0.459,0.062,0.549,0.247
				c0.112,0.26-0.165,0.602-0.265,0.803c-0.327,0.661-0.439,1.253-0.405,2.001c0.062,1.353,0.353,2.656,0.29,4.018
				c-0.106,2.294-0.561,4.576-0.855,6.852c-0.448,3.49-1.003,7.434,0.095,10.868c0.513,1.603,1.663,2.538,3.16,3.212
				c3.717,1.674,8.261,1.97,12.251,1.332c3.25-0.52,6.23-1.854,8.492-4.285c2.511-2.696,4.022-6.28,4.916-9.812
				c0.82-3.237,1.345-6.863,3.358-9.63c0.682-0.936,1.534-1.806,1.999-2.885c0.407-0.945,0.117-1.95,0.413-2.874
				c0.259-0.811,0.739,0.051,1.423,0.215c0.838,0.2,1.743,0.013,2.563,0.305c0.66,0.234,1.385,0.791,1.885,1.261
				c0.347,0.327,0.533,0.741,0.682,1.19c0.611,1.857,0.908,3.822,1.366,5.72c1.206,4.975,2.735,9.866,4.179,14.777
				c1.225,4.176,2.356,8.401,4.255,12.336c1.904,3.942,4.295,7.812,7.251,11.056c0.877,0.961,1.842,1.88,2.965,2.55
				c0.825,0.492,1.987,0.602,2.718,1.182c0.448,0.356,0.32,0.645,0.08,1.15c-0.967,2.025-2.13,3.942-3.038,5.999
				c-0.838,1.897-1.516,3.861-2.145,5.837c-0.782,2.466-1.5,4.965-2.408,7.39c-0.772,2.058-1.701,4.072-2.234,6.211
				c-0.443,1.788-0.561,3.659-1.112,5.419c-0.267,0.849-0.804,1.512-1.208,2.293c-0.606,1.173-0.816,2.545-0.997,3.837
				c-0.21,1.497-0.002,3.229-0.529,4.659c-0.246,0.666-0.702,0.94-1.405,0.952c-0.931,0.016-1.888-0.382-2.729-0.734
				c-1.993-0.837-3.921-1.779-5.983-2.448c-4.292-1.39-8.752-2.29-13.216-2.922c-9.418-1.332-18.943-1.909-28.448-2.09
				c-4.723-0.091-9.455-0.145-14.176,0.009c-2.234,0.071-4.494,0.087-6.709,0.403c-0.406,0.059-1.111,0.338-1.547,0.157
				C250.828,340.514,250.733,340.447,250.658,340.342z"/>
		</g>
		<g id="POLYLINE_45_">
			
				<path fill="none" stroke="#FF6B6B" stroke-width="2.75" stroke-linecap="round" stroke-linejoin="round" stroke-miterlimit="10" d="
				M278.103,451.421c-0.203-0.531-0.823-1.32-1.452-1.355c-0.169-0.01-0.289,0.061-0.444,0.121c-0.902,0.354-1.725,1.084-2.554,1.59
				c-0.845,0.516-1.706,1.003-2.589,1.448c-3.83,1.926-7.901,2.819-12.099,3.518c-4.238,0.706-8.44,1.473-12.617,2.487
				c-9.914,2.405-20.061,4.408-29.758,7.609c-8.927,2.946-17.556,7.039-25.901,11.336c-3.35,1.726-7.154,3.382-9.718,6.243
				c-2.132,2.378-2.701,5.534-3.192,8.591c-0.439,2.722-0.986,4.946-2.727,7.111c-1.373,1.708-2.983,3.22-4.573,4.722
				c-0.932,0.88-1.891,1.83-3.096,2.329c-2.784,1.151-6.429,0.242-9.232-0.314c-3.283-0.651-7.058-1.55-9.71-3.719
				c-1.866-1.526-2.157-3.554-2.686-5.794c-0.538-2.283-2.16-3.872-3.061-5.984c-0.95-2.228-0.686-4.926-0.163-7.22
				c0.842-3.691,2.701-6.5,5.22-9.273c6.297-6.929,13.279-13.406,20.298-19.596c7.22-6.369,14.602-12.317,22.781-17.423
				c4.09-2.551,8.263-4.976,12.449-7.364c3.846-2.192,7.816-4.505,11.982-6.037c1.18-0.435,2.6-0.503,3.673-1.171
				c0.764-0.477,1.242-1.296,1.979-1.814c1.441-1.016,3.516-0.393,4.834-1.576c0.829-0.743,1.262-1.759,2.218-2.397
				c0.741-0.496,1.706-0.711,2.352-1.342c0.768-0.748,0.634-1.943,1.446-2.7c1.067-0.996,2.463-1.358,2.74-2.928
				c0.157-0.889,0.182-1.766,0.678-2.546c0.318-0.498,0.823-0.966,0.946-1.568c0.146-0.713-0.394-1.423-0.071-2.102
				c0.137-0.29,0.453-0.466,0.548-0.785c0.145-0.494-0.116-1.042-0.146-1.535c-0.1-1.65,1.518-2.532,1.846-4.02
				c0.068-0.311,0.02-0.562-0.069-0.863c-0.253-0.858-0.554-1.534-0.582-2.445c-0.043-1.457,0.206-2.954,0.621-4.349
				c0.458-1.534,1.248-2.952,1.634-4.51c0.403-1.625,0.282-4.345,1.993-5.349c0.444-0.262,0.733-0.336,0.816,0.184
				c0.107,0.678-0.408,1.405-0.279,2.136c0.099,0.557,0.426,1.023,0.81,1.424c1.163,1.217,2.797,2.074,4.251,2.878
				c1.863,1.029,3.792,1.94,5.758,2.757c3.925,1.629,8.008,2.842,12.186,3.616c8.936,1.658,18.129,1.53,27.131,0.504
				c5.24-0.597,10.455-1.396,15.677-2.14c3.729-0.53,7.798-0.772,11.258-2.37c0.763-0.352,1.468-0.792,2.105-1.338
				c0.634-0.542,1.16-1.186,1.77-1.75c0.138-0.127,0.331-0.36,0.525-0.416c0.369-0.106,0.487,0.017,0.704,0.328
				c0.889,1.269,1.183,3.274,1.536,4.739c0.398,1.648,0.501,3.416,1.08,5.015c0.55,1.518,1.905,2.515,1.627,4.232
				c-0.163,1.003-0.464,1.877-0.404,2.903c0.119,2.031,0.548,4.072,0.839,6.082c0.706,4.869,1.398,9.738,1.958,14.627
				c1.035,9.038,0.902,18.063-0.805,27.012c-1.819,9.545-4.447,18.925-7.058,28.276c-2.497,8.942-5.288,17.806-8.044,26.673
				c-2.941,9.466-6.302,18.949-8.229,28.692c-0.315,1.597-0.741,3.359-0.635,5.001c0.032,0.494,0.231,0.934,0.234,1.432
				c0.005,0.864-0.406,1.653-0.433,2.508c-0.028,0.862,0.348,1.682,0.282,2.547c-0.074,0.976-0.56,1.871-0.667,2.841
				c-0.155,1.402,0.356,2.888,0.443,4.292c0.143,2.299,0.044,3.912-1.497,5.679c-2.063,2.364-5.194,4.207-8.237,4.952
				c-2.925,0.715-6.016,0.183-8.881-0.569c-2.527-0.663-5.252-1.695-7.017-3.724c-0.507-0.582-0.935-1.259-1.06-2.031
				c-0.149-0.931,0.139-1.868-0.003-2.802c-0.184-1.213-0.83-2.307-0.972-3.531c-0.125-1.086,0.229-2.186,0.061-3.262
				c-0.092-0.589-0.493-1.038-0.646-1.602c-0.204-0.752,0.041-1.556,0.021-2.322c-0.041-1.592-0.655-3.134-0.894-4.701
				c-0.283-1.854-0.204-3.733-0.077-5.596c0.324-4.762,1.025-9.517,1.486-14.268c0.427-4.389,1.826-8.598,2.647-12.915
				c0.752-3.966,1.033-7.94,0.969-11.974c-0.077-4.887-0.263-9.743,0.226-14.614c0.477-4.764,1.325-9.506,2.273-14.195
				c0.668-3.297,1.608-6.445,2.765-9.602"/>
		</g>
		<g id="POLYLINE_44_">
			
				<path fill="none" stroke="#FF6B6B" stroke-width="2.75" stroke-linecap="round" stroke-linejoin="round" stroke-miterlimit="10" d="
				M168.768,506.351c8.701-2.972,17.869-3.912,26.714-6.382c9.444-2.637,18.187-7.047,27.021-11.214
				c8.237-3.884,16.841-7.212,25.799-8.991c3.938-0.781,8.09-1.305,12.025-0.243c2.117,0.57,4.122,1.526,6.113,2.431
				c0.91,0.413,1.987,0.896,2.653,1.679c0.997,1.168,0.463,2.948,0.678,4.351c0.33,2.157,1.104,4.237,1.661,6.34
				c0.585,2.216,0.983,4.471,1.394,6.723c0.747,4.113,2.129,8.273,1.958,12.486c-0.073,1.816-0.493,3.615-0.521,5.43
				c-0.009,0.615,0.059,1.258,0.38,1.797c1.337,2.25,3.654-0.657,4.028-2.131c0.053-0.206,0.092-0.415,0.112-0.626"/>
		</g>
		<g id="POLYLINE_43_">
			
				<path fill="none" stroke="#FF6B6B" stroke-width="2.75" stroke-linecap="round" stroke-linejoin="round" stroke-miterlimit="10" d="
				M262.835,456.048c4.492-0.626,8.598-1.854,12.772-3.603c2.092-0.877,4.154-1.669,6.383-2.137
				c0.997-0.209,2.132-0.436,3.139-0.143c2.353,0.687,2.92,3.83,2.372,5.886"/>
		</g>
		<g id="POLYLINE_42_">
			
				<path fill="none" stroke="#FF6B6B" stroke-width="2.75" stroke-linecap="round" stroke-linejoin="round" stroke-miterlimit="10" d="
				M280.669,559.428c-0.045,1.873-0.059,3.725-0.474,5.56c-0.455,2.011-1.203,3.958-1.916,5.89
				c-1.583,4.288-3.299,8.564-4.238,13.053c-0.848,4.04-1.135,8.188-1.168,12.31c-0.046,5.656-0.093,11.31-0.139,16.965
				c-0.034,4.138-0.105,8.287-0.358,12.417c-0.268,4.351-0.73,8.487-2.776,12.41c-0.917,1.76-1.957,3.514-2.56,5.417
				c-0.472,1.486-0.595,3.052-0.588,4.604c0.026,4.68,0.437,9.339,0.226,14.021c-0.092,2.089-0.255,4.199-0.706,6.245
				c-0.381,1.73-1.147,3.352-1.484,5.094c-0.333,1.727-0.29,3.546-0.072,5.284c0.149,1.197,0.332,2.551,0.946,3.618
				c0.643,1.115,1.682,1.289,2.906,1.251c2.052-0.062,4.067-0.219,6.123-0.166c2.266,0.057,4.542,0.168,6.794-0.157
				c1.087-0.156,2.181-0.529,3.291-0.436c1.139,0.094,2.185,0.661,3.322,0.746c0.49,0.037,0.928-0.03,1.362-0.259
				c0.484-0.255,1.257-0.673,1.631-1.095c0.242-0.272,0.309-0.656,0.366-1.002c0.275-1.641,0.238-3.45,0.129-5.104
				c-0.11-1.682-0.67-3.058-1.725-4.367c-0.93-1.153-2.018-2.17-2.786-3.447c-0.807-1.344-1.303-2.864-1.726-4.365
				c-0.995-3.528-1.584-7.378-0.955-11.026c0.27-1.56,0.903-3.032,1.142-4.6c0.299-1.965,0.133-3.978,0.219-5.957
				c0.179-4.144,1.401-8.033,3.043-11.82c1.892-4.366,4.1-8.589,5.969-12.967c1.664-3.898,3.062-7.898,4.416-11.912
				c3.102-9.191,6.77-18.259,7.655-27.995c0.616-6.789,0.501-13.696-0.598-20.431"/>
		</g>
		<g id="POLYLINE_41_">
			
				<path fill="none" stroke="#FF6B6B" stroke-width="2.75" stroke-linecap="round" stroke-linejoin="round" stroke-miterlimit="10" d="
				M242.721,380.493c1.84-4.222,3.391-8.427,4.417-12.925c1.077-4.714,1.838-9.489,2.506-14.275c0.599-4.3,0.865-8.615,1.014-12.951
				"/>
		</g>
		<g id="POLYLINE_30_">
			
				<path fill="none" stroke="#FF6B6B" stroke-width="2.75" stroke-linecap="round" stroke-linejoin="round" stroke-miterlimit="10" d="
				M324.069,385.872c-0.048-2.223-0.074-4.437-0.492-6.628c-0.45-2.355-1.049-4.68-1.446-7.044
				c-0.662-3.942-0.355-7.828,0.264-11.753c0.649-4.117,1.254-8.246,1.98-12.351"/>
		</g>
		<g id="POLYLINE_29_">
			
				<path fill="none" stroke="#FF6B6B" stroke-width="2.75" stroke-linecap="round" stroke-linejoin="round" stroke-miterlimit="10" d="
				M316.299,257.839c1.745-4.151,3.466-8.356,5.948-12.136c2.021-3.076,4.418-5.964,5.343-9.6c1.012-3.979,0.726-8.23,0.677-12.297
				c-0.059-4.924-0.16-9.852-0.041-14.775c0.113-4.679,0.167-9.424,1.126-14.022c0.765-3.684,1.748-7.309,0.851-11.081
				c-0.6-2.521-2.512-4.312-3.96-6.373c-2.464-3.51-4.644-7.222-6.812-10.918c-5.134-8.749-10.146-17.584-15.691-26.083
				c-2.483-3.809-5.116-7.633-8.145-11.032c-0.862-0.968-1.78-1.923-2.881-2.623c-0.944-0.602-2.041-0.816-3.038-1.301
				c-1.491-0.726-2.321-2.321-2.441-3.935c-0.134-1.786,0.231-3.638,0.417-5.404c0.237-2.258,0.424-4.501,0.358-6.773
				c-0.067-2.348-0.336-4.686-0.442-7.032c-0.113-2.49-0.023-4.992,0.001-7.484c0.023-2.16,0.064-4.325-0.084-6.483
				c-0.154-2.234-0.61-4.4-1.074-6.585c-0.306-1.445-2.023-7.942,1.673-7.062c0.557,0.133,0.757,0.438,0.83,0.989
				c0.211,1.585-0.006,3.212,0.242,4.819c0.311,2.014,0.79,3.988,1.573,5.873c0.823,1.979,1.758,3.875,2.33,5.948
				c0.634,2.297,1.056,4.65,1.526,6.983c0.886,4.383,2.039,8.745,3.434,12.995c0.93,2.839,2.177,4.706,4.383,6.676
				c3.083,2.753,5.092,6.419,7.853,9.481c6.403,7.101,13.746,13.294,20.093,20.446c3.146,3.545,5.881,7.432,8.805,11.154
				c2.851,3.628,6.168,6.869,8.965,10.537c1.976,2.59,2.527,5.079,3.007,8.271c0.678,4.512,1.225,9.079,1.438,13.637
				c0.216,4.638-0.048,9.262-0.064,13.9c-0.017,5.094,0.318,10.187,0.56,15.272c0.473,9.958-0.425,19.969-0.916,29.909
				c-0.19,3.868-0.286,7.812-1.146,11.603c-0.985,4.352-2.931,8.518-4.666,12.612c-0.899,2.122-1.895,4.222-2.522,6.445
				c-0.548,1.939-0.958,3.92-1.398,5.887c-1.158,5.18-2.333,10.337-3.665,15.477c-0.052,0.199-0.104,0.4-0.155,0.6"/>
		</g>
		<g id="POLYLINE_28_">
			
				<path fill="none" stroke="#FF6B6B" stroke-width="2.75" stroke-linecap="round" stroke-linejoin="round" stroke-miterlimit="10" d="
				M244.232,296.894c0.294-4.557,0.133-8.997-0.751-13.485c-0.835-4.238-1.958-8.411-3.284-12.521
				c-2.998-9.304-5.656-18.584-7.498-28.194c-1.809-9.441-3.074-18.947-4.329-28.472c-0.645-4.903-1.229-9.817-1.968-14.707
				c-0.73-4.834-1.613-9.65-2.247-14.498c-0.38-2.895-0.34-5.564,0.861-8.248c0.843-1.886,1.819-3.81,2.958-5.535
				c1.254-1.896,2.814-3.596,4.298-5.31c7.031-8.129,14.372-16.005,21.559-23.996c5.699-6.335,11.553-12.61,16.677-19.428
				c5.327-7.089,8.53-15.923,10.067-24.612c0.775-4.378,1.042-8.819,1.251-13.256c0.111-2.337,0.142-4.703,0.424-7.029
				c0.083-0.673,0.126-1.718,0.59-2.282c1.024-1.246,2.591,0.748,2.883,1.67c0.045,0.14,0.082,0.281,0.108,0.425"/>
		</g>
		<g id="POLYLINE_27_">
			
				<path fill="none" stroke="#FF6B6B" stroke-width="2.75" stroke-linecap="round" stroke-linejoin="round" stroke-miterlimit="10" d="
				M269.585,254.759c-2.634-4.194-5.457-8.181-8.383-12.175c-2.372-3.237-4.617-6.656-6.026-10.435
				c-1.478-3.961-1.761-8.159-2.251-12.321c-0.558-4.733-1.555-9.317-2.884-13.893c-1.274-4.38-3.072-8.633-4.157-13.063
				c-0.634-2.594-0.569-5.045,0.33-7.566c1.446-4.039,3.989-7.744,6.152-11.419c2.438-4.144,4.947-8.258,7.175-12.521
				c2.211-4.23,4.327-8.531,6.857-12.584c2.371-3.8,4.982-7.433,7.619-11.051c1.602-2.2,3.204-4.398,4.806-6.598
				c1.019-1.397,2.086-2.843,3.405-3.975c1.624-1.393,3.719-1.701,4.54-3.879c0.245-0.652,0.388-1.348,0.444-2.04"/>
		</g>
		<g id="POLYLINE_26_">
			
				<path fill="none" stroke="#FF6B6B" stroke-width="2.75" stroke-linecap="round" stroke-linejoin="round" stroke-miterlimit="10" d="
				M275.986,254.208c1.648-3.678,2.234-7.853,1.728-11.858"/>
		</g>
		<g id="POLYLINE_25_">
			
				<path fill="none" stroke="#FF6B6B" stroke-width="2.75" stroke-linecap="round" stroke-linejoin="round" stroke-miterlimit="10" d="
				M309.523,253.521c-0.995-1.305-1.622-2.43-1.825-4.08c-0.418-3.396-0.134-6.931-0.05-10.34"/>
		</g>
		<g id="POLYLINE_24_">
			
				<path fill="none" stroke="#FF6B6B" stroke-width="2.75" stroke-linecap="round" stroke-linejoin="round" stroke-miterlimit="10" d="
				M268.273,211.784c-0.725,0.16-1.158,0.344-1.347,1.08c-0.293,1.147,0.017,2.535,0.217,3.668c0.376,2.135,0.945,4.227,1.41,6.342
				c0.42,1.908,0.367,4.512,2.772,4.427"/>
		</g>
		<g id="POLYLINE_23_">
			
				<path fill="none" stroke="#FF6B6B" stroke-width="2.75" stroke-linecap="round" stroke-linejoin="round" stroke-miterlimit="10" d="
				M271.325,221.811c-0.14-0.209-0.18-0.506-0.243-0.742c-0.32-1.199-0.558-2.424-0.83-3.635c-0.318-1.414-0.624-2.881-1.28-4.185
				c-0.397-0.788-0.752-1.355-0.808-2.25c-0.101-1.613,0.287-3.251,0.541-4.83c0.639-3.974-0.161-7.945,0.272-11.914
				c0.329-3.001,2.013-5.471,4.037-7.637c1.188-1.27,2.522-2.407,3.958-3.389c1.676-1.145,3.535-2.043,5.124-3.31
				c1.104-0.881,1.901-2.52,3.443-2.626c1.484-0.103,2.934,0.812,4.222-0.188c1.323-1.027,2.379-1.076,4.044-0.705
				c1.302,0.291,2.413,0.895,3.652,1.358c1.505,0.562,3.163,0.671,4.727,1.002c1.112,0.236,2.303,0.514,3.279,1.128
				c1.104,0.693,1.716,1.841,2.588,2.771c1.585,1.689,4.044,2.453,5.141,4.6c0.8,1.563,1.088,3.415,1.659,5.071
				c0.564,1.64,0.788,3.348,0.872,5.075c0.108,2.179-0.041,4.349-0.028,6.527c0.007,1.318,0.349,2.436,0.615,3.713
				c0.285,1.362-0.12,2.168-0.904,3.237c-0.445,0.608-0.653,1.287-0.81,2.019c-0.441,2.064-0.517,4.189-0.978,6.249
				c-0.176,0.778-0.724,2.61-0.763,0.725c-0.065-3.232,0.756-6.781-0.423-9.9c-0.781-2.063-2.639-3.524-3.261-5.666
				c-0.652-2.248-0.268-4.747-1.49-6.826c-0.534-0.91-1.277-1.677-2.036-2.401c-0.945-0.902-1.922-2.15-3.192-2.644
				c-2.462-0.955-5.278,0.169-7.812-0.407c-0.853-0.193-1.618-0.651-2.486-0.796c-0.877-0.145-1.811-0.103-2.682,0.053
				c-1.045,0.187-2.005,0.657-3.059,0.814c-1.113,0.165-2.224,0.284-3.276,0.703c-2.252,0.898-3.962,3.12-5.144,5.13
				c-1.065,1.812-1.76,3.795-2.677,5.682c-0.852,1.748-2.052,3.292-2.954,5.01c-1.26,2.401-1.055,5.352-0.987,7.969
				C271.388,217.028,271.82,221.719,271.325,221.811z"/>
		</g>
		<g id="POLYLINE_22_">
			
				<path fill="none" stroke="#FF6B6B" stroke-width="2.75" stroke-linecap="round" stroke-linejoin="round" stroke-miterlimit="10" d="
				M271.345,225.607c-0.135,3.428,0.191,7.295,1.588,10.471c1.384,3.146,3.987,5.75,6.617,7.883c2.575,2.09,5.527,3.744,8.897,3.923
				c3.642,0.195,7.333-0.996,10.626-2.456c3.087-1.37,6.076-3.198,8.215-5.858c2.25-2.8,3.53-6.327,4.496-9.743
				c0.382-1.35,0.656-2.72,0.874-4.105"/>
		</g>
		<g id="POLYLINE_21_">
			
				<path fill="none" stroke="#FF6B6B" stroke-width="2.75" stroke-linecap="round" stroke-linejoin="round" stroke-miterlimit="10" d="
				M312.658,225.722c1.624-0.179,2.279-1.17,3.004-2.582c1.791-3.489,2.79-7.71,2.589-11.637c-0.065-1.286-0.719-2.656-2.109-1.494
				c-0.067,0.056-0.13,0.116-0.188,0.181"/>
		</g>
		<g id="POLYLINE_20_">
			
				<path fill="none" stroke="#FF6B6B" stroke-width="2.75" stroke-linecap="round" stroke-linejoin="round" stroke-miterlimit="10" d="
				M269.96,227.062c0.271,7.518-1.589,14.811-4.159,21.83"/>
		</g>
		<g id="POLYLINE_19_">
			
				<path fill="none" stroke="#FF6B6B" stroke-width="2.75" stroke-linecap="round" stroke-linejoin="round" stroke-miterlimit="10" d="
				M312.658,225.722c0.075-0.727,0.12-1.455,0.142-2.186"/>
		</g>
	</g>
</g>
<g id="AG-OUTLINE">
	<g>
		<g id="POLYLINE_6_">
			
				<path fill="none" stroke="#FF6B6B" stroke-width="3.5" stroke-linecap="round" stroke-linejoin="round" stroke-miterlimit="10" d="
				M479.744,463.301c5.186-0.228,10.367-0.531,15.551-0.817c4.305-0.237,8.738-0.256,12.986-1.046
				c1.48-0.274,2.799-0.782,4.139-1.461c0.387-0.194,0.768-0.391,1.164-0.564c0.484-0.213,0.262-0.738,0.246-1.23
				c-0.023-0.749,0.107-1.553,0.031-2.294c-0.049-0.467-0.203-0.752-0.637-0.961c-0.729-0.35-1.613-0.455-2.369-0.78
				c-1.695-0.731-3.135-1.77-4.629-2.829c-1.219-0.865-2.315-0.604-3.637-0.004c-4.494,2.034-8.699,4.888-12.943,7.37
				c-1.713,1.002-3.424,2.011-5.186,2.923c-0.602,0.312-1.445,0.909-2.178,0.883c-0.117-0.004-0.244-0.067-0.356-0.067
				C481.217,462.422,480.445,462.959,479.744,463.301z"/>
		</g>
		<g id="POLYLINE_5_">
			
				<path fill="none" stroke="#FF6B6B" stroke-width="3.5" stroke-linecap="round" stroke-linejoin="round" stroke-miterlimit="10" d="
				M559.75,488.934c-1.787,4.304-3.606,8.593-4.975,13.052c-1.432,4.651-2.568,9.387-3.869,14.075
				c-1.065,3.838-3.084,7.352-3.565,11.329c-0.275,2.279-0.395,4.578-0.797,6.842c-0.35,1.976-0.992,3.845-1.723,5.707
				c-0.721,1.839-1.486,3.676-1.902,5.615c-0.383,1.784-0.432,3.623-0.363,5.44c0.172,4.617,0.857,9.146,0.455,13.775
				c-0.797,9.16-4.066,18.178-7.119,26.791c-3.191,9.005-6.74,17.854-11.01,26.407c-2.201,4.408-4.488,8.786-6.539,13.267
				c-0.887,1.941-1.756,3.917-2.256,5.999c-0.443,1.86-0.494,3.756-0.52,5.659c-0.033,2.386-0.01,4.8-0.521,7.143
				c-0.44,2.013-1.23,3.94-1.529,5.983c-0.422,2.88,0.316,5.787,1.432,8.432c1.635,3.873,4.414,6.872,6.988,10.125
				c1.246,1.575,2.373,3.593,2.475,5.648c0.066,1.299-0.637,2.546-1.938,2.939c-0.834,0.252-1.709-0.049-2.557-0.06
				c-1.891-0.024-3.781,0.393-5.654,0.586c-4.418,0.458-8.855-0.212-13.268,0.247c-2.215,0.231-4.02,0.357-5.48-1.558
				c-1.762-2.307-1.189-5.34-1.117-8.043c0.051-1.906,0.068-3.862-0.217-5.754c-0.211-1.392-0.844-2.661-1.088-4.037
				c-0.193-1.09-0.004-2.189,0.24-3.254c0.482-2.102,1.201-4.134,1.582-6.26c0.785-4.387,1.4-8.673,2.801-12.927
				c0.623-1.896,1.324-3.782,2.279-5.539c0.92-1.692,1.83-3.339,2.361-5.2c0.992-3.477,1.338-7.126,1.787-10.703
				c1.348-10.704,2.799-21.398,4.016-32.118c0.543-4.765,0.682-9.562,1.041-14.343c0.346-4.557,1.385-8.786,2.422-13.219
				c0.994-4.252,1.545-8.582,1.52-12.948c-0.027-4.745-0.529-9.525-0.947-14.248c-0.09-1.017-0.313-1.476-0.746-2.363
				c-0.389-0.8-0.725-1.627-1.006-2.472c-0.576-1.738-0.889-3.541-0.871-5.373c0.035-3.903,0.709-7.596-0.147-11.469
				c-0.951-4.305-2.77-8.379-3.461-12.746c-0.426-2.685-0.371-5.768-1.945-8.116c-1.049-1.56-2.727-2.51-4.461-3.131
				c-4.055-1.453-8.57-1.732-12.842-1.893c-9.195-0.347-18.404,0.367-27.443,2.096c-9.189,1.756-18.217,4.133-27.492,5.461
				c-5.006,0.717-10.016,1.396-15.014,2.162c-2.262,0.348-4.514,0.727-6.746,1.233c-2.285,0.519-4.545,1.037-6.902,1.062
				c-4.029,0.046-7.787-1.25-11.299-3.149c-3.275-1.772-6.812-4.178-8.896-7.339c-1.324-2.01-1.338-4.446-2.209-6.637
				c-1.451-3.638-2.688-7.191-2.174-11.181c0.422-3.275,1.92-6.432,3.914-9.037c2.561-3.348,6.064-5.62,9.135-8.442
				c1.721-1.581,3.242-3.365,4.861-5.047c1.537-1.598,3.191-3.073,4.877-4.51c3.488-2.967,7.215-5.664,11.012-8.216
				c3.785-2.54,7.693-4.917,11.709-7.074c3.795-2.039,7.709-3.808,11.59-5.637c3.523-1.762,7.435-2.718,11-4.423
				c1.449-0.692,2.855-1.562,4.412-1.995c1.234-0.343,2.525-0.31,3.779-0.527c2.82-0.492,4.969-2.464,7.354-3.895
				c0.951-0.571,1.904-0.975,2.723-1.736c1.475-1.373,2.756-2.852,4.336-4.115c1.541-1.232,2.943-2.79,3.57-4.696
				c0.463-1.41,0.518-2.921,0.623-4.388c0.149-2.065,0.346-4.088,0.861-6.099c0.508-1.987,1.152-3.956,2.004-5.824
				c0.289-0.638,0.617-1.258,1.006-1.841c0.398-0.592,0.465-0.789,0.486-1.502c0.016-0.562,0.037-1.122,0.072-1.682
				c0.297-4.556,1.209-8.87,3.166-13.011c1.746-3.701,4.217-7.194,4.664-11.364c0.449-4.169-0.945-8.387-1.92-12.387
				c-0.518-2.129-1.033-4.257-1.582-6.379c-7.627,4.175-16.221,7.848-24.984,8.455c-2.033,0.141-4.076,0.157-6.094,0.474
				c-2.215,0.349-4.363,1.019-6.566,1.425c-2.27,0.419-4.449,0.371-5.969-1.605c-1.873-2.438-2.727-5.753-3.096-8.749
				c-0.5-4.057,0.178-8.163,1.346-12.05c0.686-2.276,1.514-4.507,2.182-6.788c0.598-2.031,0.797-4.124,1.305-6.171
				c0.746-3.006,2.744-5.254,4.883-7.408c2.789-2.806,6.215-5.429,7.627-9.263c1.396-3.79,1.31-7.95,2.826-11.728
				c1.648-4.107,4.213-7.966,6.471-11.759c1.629-2.736,3.43-5.012,6.203-6.637c3.338-1.956,7.037-3.136,10.861-3.643
				c4.049-0.535,8.043-0.62,11.867-2.224c3.764-1.579,7.428-4.141,10.523-6.785c2.748-2.349,4.773-5.122,5.645-8.652
				c1.271-5.155,0.734-10.684,0.547-15.93c-2.486,0.725-5.678-0.057-5.373-3.125c0.072-0.736,1.022-2.053,0.496-2.698
				c-0.688-0.843-2.439-0.231-3.297-0.961c-0.721-0.613-0.424-1.784-0.904-2.571c-0.65-1.065-1.728-1.809-2.348-2.904
				c-0.416-0.738-0.43-1.433-0.414-2.271c0.01-0.555-0.045-1.079-0.305-1.572c-0.338-0.642-1.275-1.182-1.414-1.884
				c-0.142-0.708,0.865-0.8,1.35-1.097c0.926-0.567,1.768-2.303,0.514-2.968c-1.197-0.637-2.525-0.419-3.059-1.952
				c-0.145-0.418-0.162-0.75,0.193-1.031c0.596-0.471,1.447-0.258,1.881-0.983c0.609-1.019-0.314-2.102-0.076-3.14
				c0.228-0.982,1.685-1.268,2.391-1.843c1.088-0.89,1.889-2.337,1.266-3.74c-0.312-0.703-0.975-1.046-0.75-1.854
				c0.289-1.035,1.287-1.812,1.816-2.709c0.131-0.223,0.334-0.532,0.287-0.812c0-0.827-1.805-1.055-2.33-1.468
				c-0.963-0.756-1.23-2.147-1.111-3.306c0.102-0.99,0.541-2.268,1.574-2.632c1-0.352,2.104,0.191,2.898-0.694
				c0.725-0.808,1.322-2.67,0.779-3.702c-0.176-0.335-0.529-0.53-0.719-0.859c-0.408-0.715-0.404-1.71-0.332-2.499
				c0.195-2.101,1.566-3.746,3.67-4.12c1.715-0.306,3.191-0.317,4.273-1.895c0.633-0.922,0.654-3.017,1.861-3.453
				c0.853-0.309,1.691,0.623,2.523,0.701c1.27,0.121,1.975-1.371,2.812-2.057c1.131-0.924,2.223-0.12,3.51-0.378
				c1.484-0.296,2.092-2.222,3.072-3.164c0.898-0.865,1.938-0.764,3.021-0.245c1.863,0.895,3.117,2.656,5.336,2.417
				c0.754-0.082,2.084-0.601,2.658,0.184c0.435,0.59,0.25,1.215,1.033,1.409c1.096,0.271,2.027-0.248,2.766,0.79
				c0.34,0.479,0.498,1.368,1.186,1.454c0.6,0.074,1.26-0.404,1.865-0.48c0.894-0.111,1.789,0.161,2.611,0.494
				c1.549,0.626,3.039,1.551,4.301,2.645c0.492,0.426,0.947,0.882,1.172,1.505c0.465,1.297,0.387,2.761,0.984,4.028
				c0.109,0.233,0.246,0.55,0.492,0.679c0.43,0.226,0.893-0.139,1.332,0.066c0.434,0.202,0.635,0.759,1.031,1.029
				c0.416,0.287,0.916,0.335,1.408,0.387c1.217,0.131,1.209,0.441,1.645,1.544c0.27,0.686,1.158,1.895,0.652,2.684
				c-0.434,0.676-1.115,0.717-1.244,1.607c-0.066,0.464,0.016,1.003,0.426,1.285c0.494,0.341,1.381-0.007,1.617,0.614
				c0.24,0.634-0.303,1.024,0.197,1.609c0.67,0.783,1.293,0.704,0.98,1.8c-0.266,0.919-0.088,1.878-0.336,2.778
				c-0.055,0.204-0.113,0.389-0.266,0.539c-0.447,0.446-1.219,0.278-1.668,0.75c-0.498,0.521-0.598,1.51-0.725,2.163
				c-0.209,1.081-0.496,2.424-0.242,3.534c0.27,1.184,1.373,1.267,2.231,1.951c0.312,0.251,0.455,0.443,0.402,0.842
				c-0.098,0.73-1.078,1.343-0.877,2.129c0.197,0.78,1.31,1.002,1.625,1.77c0.73,1.782-1.197,4.35-1.967,5.735
				c-0.287,0.516-0.56,1.05-0.525,1.654c0.039,0.63,0.439,1.229,0.355,1.869c-0.145,1.112-1.496,1.675-1.867,2.741
				c-0.404,1.162,0.115,2.853-0.797,3.79c-0.523,0.537-1.316,0.817-1.889,1.325c-0.578,0.516-1.105,1.125-1.383,1.858
				c-0.547,1.448,0.119,3.12-1.068,4.311c-0.66,0.661-1.797,1.352-2.742,0.905c-1.115-0.527-1.264-1.163-2.578-0.777
				c-0.938,0.274-0.926,1.137-1.037,2.018c-0.135,1.096-0.264,2.194-0.371,3.293c-0.229,2.34-0.418,4.681-0.545,7.028
				c-0.137,2.561-0.344,5.553,0.838,7.934c1.131,2.278,3.383,3.782,5.438,5.146c3.336,2.214,7.014,4.438,10.869,5.604
				c4.418,1.337,9.092,1.707,13.557,2.905c3.853,1.033,7.965,2.318,11.307,4.552c3.418,2.283,6.098,5.67,8.297,9.097
				c2.322,3.617,4.383,7.473,5.33,11.696c0.893,3.992,1.025,8.035,3.104,11.666c2.17,3.794,5.473,6.789,7.764,10.511
				c2.266,3.681,3.576,7.661,4.191,11.925c0.654,4.523,1.379,9.082,1.504,13.658c0.117,4.269-0.531,8.443-2.479,12.284
				c-0.797,1.571-1.914,3.229-3.676,3.797c-2.33,0.752-5.072-0.183-7.287-0.855c-2.377-0.724-4.746-1.504-7.184-2.002
				c-2.234-0.456-4.521-0.634-6.787-0.87c-6.33-0.662-12.434-2.503-17.949-5.71c-0.608,2.143-1.234,4.272-2.004,6.363
				c-0.773,2.093-1.816,4.064-2.736,6.094c-1.494,3.308-2.518,6.91-2.512,10.564c0.008,3.758,1.684,7.049,2.885,10.528
				c1.363,3.952,2.195,8.116,2.496,12.284c0.076,1.064,0.109,2.129,0.117,3.194c0.004,0.589-0.195,1.685,0.057,2.128
				c0.049,0.085,0.273,0.187,0.348,0.282c0.285,0.367,0.289,0.979,0.324,1.415c0.182,2.253,0.23,4.527,0.301,6.787
				c0.15,4.782-0.242,9.646,0.281,14.402c0.496,4.528,1.555,8.968,1.807,13.528c0.516,9.336-0.861,18.713-2.434,27.89
				c-1.6,9.353-4.09,18.523-5.775,27.854c-0.228,1.267-0.457,2.533-0.598,3.813c-0.074,0.673-0.1,1.404-0.33,2.051
				C560.576,488.196,560.232,488.614,559.75,488.934z"/>
		</g>
		<g id="POLYLINE_4_">
			
				<path fill="none" stroke="#FF6B6B" stroke-width="3.5" stroke-linecap="round" stroke-linejoin="round" stroke-miterlimit="10" d="
				M268.273,211.784c-0.205-0.873-0.131-1.817-0.022-2.696c0.257-2.08,0.72-4.114,0.778-6.216c0.098-3.513-0.739-7.335,0.398-10.747
				c1.007-3.018,3.374-5.554,5.77-7.56c2.682-2.243,6.024-3.52,8.398-6.125c1.311-1.438,2.374-1.124,4.225-0.881
				c1.508,0.198,1.69-0.651,2.969-1.199c1.515-0.647,3.715,0.118,5.106,0.706c1.189,0.502,2.186,0.942,3.459,1.173
				c1.749,0.317,3.594,0.532,5.249,1.217c2.096,0.868,3.014,3.081,4.816,4.366c1.053,0.75,2.211,1.421,3.078,2.399
				c0.891,1.005,1.211,2.33,1.546,3.595c0.453,1.71,1.173,3.325,1.44,5.084c0.314,2.068,0.334,4.189,0.272,6.276
				c-0.045,1.585-0.2,3.233,0.129,4.801c0.191,0.906,0.588,1.809,0.534,2.751c-0.029,0.514-0.18,1.029-0.466,1.461
				c0.867-0.964,1.96-0.709,2.209,0.508c0.32,1.555,0.061,3.312-0.152,4.857c-0.297,2.14-0.885,4.234-1.72,6.224
				c-0.531,1.265-1.325,3.434-2.858,3.841c-0.183,0.048-0.548-0.001-0.682,0.091c-0.227,0.159-0.236,0.915-0.298,1.246
				c-0.157,0.855-0.351,1.705-0.578,2.544c-0.548,2.019-1.224,4.009-2.093,5.912c-0.344,0.752-0.725,1.49-1.147,2.201
				c-0.463,0.781-0.98,1.279-1.002,2.197c-0.06,2.41-0.136,4.827-0.089,7.238c0.051,2.61,0.414,4.417,1.98,6.473
				c0.124-0.251,0.595,0.224,0.683,0.273c0.58,0.324,1.209,0.35,1.864,0.384c1.336,0.071,2.685,0.617,3.524,1.733
				c0.404,0.538,0.548,1.29,0.705,1.927c1.745-4.151,3.466-8.356,5.948-12.136c2.021-3.076,4.418-5.964,5.343-9.6
				c1.012-3.979,0.726-8.23,0.677-12.297c-0.059-4.924-0.16-9.852-0.041-14.775c0.113-4.679,0.167-9.424,1.126-14.022
				c0.765-3.684,1.748-7.309,0.851-11.081c-0.6-2.521-2.512-4.312-3.96-6.373c-2.464-3.51-4.644-7.222-6.812-10.918
				c-5.134-8.749-10.146-17.584-15.691-26.083c-2.483-3.809-5.116-7.633-8.145-11.032c-0.862-0.968-1.78-1.923-2.881-2.623
				c-0.944-0.602-2.041-0.816-3.038-1.301c-1.642-0.799-2.433-2.601-2.462-4.358c-0.082,1.001-0.334,2.043-0.857,2.909
				c-0.58,0.96-1.488,1.391-2.449,1.899c-2.564,1.356-4.198,3.87-5.866,6.16c-5.67,7.783-11.33,15.434-15.799,23.988
				c-2.118,4.053-4.231,8.1-6.552,12.042c-2.658,4.518-5.494,8.971-7.917,13.622c-1.301,2.499-2.465,5.183-2.345,8.057
				c0.167,3.971,2.026,7.976,3.265,11.684c1.471,4.404,2.783,8.927,3.574,13.507c0.771,4.478,0.883,9.062,1.859,13.503
				c1.713,7.787,7.156,13.966,11.675,20.282c1.564-4.271,2.803-8.648,3.63-13.124c0.384-2.078,0.588-4.184,0.585-6.297
				c-0.001-0.713,0.159-1.848-0.128-2.466c-0.058-0.127-0.226-0.259-0.304-0.385c-0.718-1.137-0.815-2.811-1.103-4.069
				c-0.49-2.155-1.058-4.296-1.417-6.48c-0.163-0.992-0.688-3.072,0.222-3.908C267.545,211.928,267.946,211.856,268.273,211.784z"/>
		</g>
		<g id="POLYLINE_3_">
			
				<path fill="none" stroke="#FF6B6B" stroke-width="3.5" stroke-linecap="round" stroke-linejoin="round" stroke-miterlimit="10" d="
				M305.941,557.204c1.428,8.762,1.44,18.159-0.294,26.884c-0.87,4.381-2.389,8.571-3.809,12.795
				c-1.592,4.738-3.101,9.521-4.846,14.208c-1.586,4.257-3.345,8.406-5.287,12.514c-2.012,4.252-4.185,8.493-5.407,13.059
				c-0.504,1.885-0.777,3.801-0.847,5.749c-0.071,1.974,0.086,3.989-0.226,5.947c-0.25,1.57-0.894,3.044-1.146,4.615
				c-0.281,1.754-0.271,3.533-0.111,5.298c0.299,3.346,1.076,7.154,2.839,10.058c1.181,1.946,3.218,3.333,4.036,5.503
				c0.281,0.747,0.398,1.546,0.449,2.339c0.103,1.642,0.146,3.448-0.144,5.072c-0.196,1.104-1.036,1.552-2.01,2.061
				c-1.499,0.784-3.174-0.39-4.705-0.503c-1.134-0.083-2.253,0.304-3.367,0.457c-2.276,0.314-4.578,0.193-6.867,0.135
				c-2.015-0.05-3.99,0.111-5.999,0.175c-0.65,0.021-1.368,0.01-1.95-0.318c-1.468-0.825-1.682-3.222-1.851-4.665
				c-0.201-1.733-0.24-3.54,0.104-5.258c0.353-1.753,1.121-3.389,1.496-5.139c0.863-4.019,0.853-8.305,0.708-12.395
				c-0.139-3.967-0.887-8.518,0.347-12.394c0.605-1.902,1.653-3.658,2.572-5.419c1.004-1.929,1.729-3.945,2.115-6.087
				c0.773-4.299,0.778-8.758,0.883-13.112c0.125-5.156,0.148-10.315,0.19-15.473c0.035-4.39-0.036-8.803,0.334-13.183
				c0.358-4.272,1.291-8.379,2.651-12.438c1.425-4.256,3.449-8.413,4.419-12.809c0.174-0.789,0.29-1.59,0.348-2.396
				c0.064-0.877,0.361-2.335,0.057-3.108c-0.326-0.828-0.947-1.294-1.013-2.257c-0.066-0.972,0.177-1.901-0.048-2.867
				c-0.28-1.204-0.871-2.302-0.925-3.557c-0.041-0.988,0.279-2.025,0.066-3.001c-0.125-0.568-0.533-1.02-0.653-1.587
				c-0.178-0.84,0.108-1.732,0.029-2.59c-0.156-1.698-0.787-3.321-0.964-5.023c-0.45-4.349,0.427-8.881,0.921-13.186
				c0.246-2.139,0.543-4.32,0.609-6.474c-0.449,1.291-2.368,3.899-3.81,2.204c-1.275-1.5-0.3-4.411-0.155-6.04
				c0.365-4.094-0.732-7.767-1.457-11.757c-0.445-2.449-0.844-4.915-1.403-7.342c-0.516-2.228-1.263-4.394-1.788-6.618
				c-0.315-1.332-0.323-2.514-0.365-3.868c-0.017-0.529-0.072-1.043-0.359-1.499c-0.409-0.653-1.147-1.084-1.809-1.439
				c-1.823-0.976-3.791-1.813-5.737-2.507c-3.869-1.375-7.894-1.171-11.883-0.496c-9.35,1.58-18.269,5.099-26.845,9.034
				c-8.642,3.966-17.036,8.284-26.164,11.058c-4.215,1.281-8.533,2.261-12.86,3.075c-4.585,0.862-9.162,1.635-13.589,3.147
				c-0.793,0.271-1.489,0.5-2.187,0.938c-0.354,0.223-0.725,0.409-1.119,0.548c-1.05,0.368-2.194,0.4-3.295,0.347
				c-4.217-0.203-8.715-1.129-12.584-2.839c-1.854-0.819-3.72-1.971-4.554-3.903c-0.892-2.067-0.855-4.355-2.061-6.309
				c-1.37-2.219-2.514-3.861-2.539-6.548c-0.028-3.047,0.814-6.226,2.334-8.86c2.216-3.839,5.835-6.953,8.943-10.053
				c3.433-3.425,6.967-6.744,10.519-10.045c6.823-6.346,13.892-12.485,21.594-17.75c7.754-5.3,16.019-10.105,24.378-14.381
				c1.924-0.984,3.885-1.986,5.938-2.674c1.048-0.35,2.299-0.41,3.232-1.041c0.788-0.531,1.282-1.401,2.105-1.897
				c0.927-0.561,2.045-0.557,3.079-0.759c1.953-0.383,2.436-2.312,4.062-3.262c0.679-0.395,1.56-0.625,2.112-1.215
				c0.382-0.406,0.455-0.922,0.628-1.439c0.506-1.505,2.103-1.786,3.011-2.953c0.862-1.107,0.478-2.691,1.268-3.882
				c0.311-0.466,0.765-0.909,0.854-1.487c0.083-0.541-0.25-1.057-0.201-1.585c0.048-0.53,0.542-0.764,0.671-1.254
				c0.145-0.549-0.163-1.146-0.164-1.703c-0.001-0.607,0.227-1.116,0.537-1.633c0.715-1.19,1.7-1.965,1.131-3.349
				c-0.887-2.155-0.43-4.741,0.279-6.884c0.503-1.516,1.266-2.933,1.598-4.503c0.265-1.245,0.311-2.622,0.881-3.785
				c0.121-0.25,1.75-2.109,1.849-1.134c1.84-4.222,3.391-8.427,4.417-12.925c1.077-4.714,1.838-9.489,2.506-14.275
				c0.307-2.206,0.559-4.433,0.713-6.656c0.084-1.229,0.154-2.46,0.211-3.69c0.038-0.849,0.219-1.887,0.029-2.694
				c-0.797-3.409-0.852-6.912-1.205-10.409c-0.479-4.727-1.462-9.32-2.707-13.9c-1.194-4.392-2.87-8.788-3.472-13.32
				c-0.143-1.078-0.206-2.19-0.015-3.267c0.087-0.484,0.237-0.953,0.44-1.399c0.111-0.246,0.258-0.473,0.376-0.714
				c0.242-0.488,0.251-0.876,0.287-1.445c0.288-4.469-0.078-8.88-0.993-13.26c-1.937-9.273-5.456-18.093-7.822-27.252
				c-2.358-9.128-4.013-18.468-5.338-27.798c-1.393-9.798-2.487-19.64-3.966-29.426c-0.694-4.589-1.628-9.164-2.116-13.78
				c-0.315-2.971-0.051-5.487,1.262-8.179c0.925-1.897,1.89-3.858,3.136-5.57c1.285-1.765,2.747-3.414,4.193-5.046
				c2.71-3.052,5.449-6.078,8.18-9.112c7.164-7.966,14.377-15.889,21.448-23.938c3.037-3.454,6.058-6.963,8.77-10.681
				c2.632-3.608,4.531-7.552,6.11-11.714c1.612-4.248,2.84-8.646,3.572-13.13c0.743-4.544,0.941-9.153,1.157-13.745
				c0.098-2.073,0.108-4.193,0.45-6.245c0.086-0.519,0.157-1.272,0.551-1.674c0.296-0.304,0.648-0.329,1.056-0.223
				c1.045,0.273,1.689,1.397,1.879,2.39c-0.012-0.784-0.062-1.865,0.691-2.348c0.521-0.335,1.603-0.456,2.098,0.016
				c0.164,0.147,0.22,0.35,0.27,0.556c0.111,0.475,0.025,1.042,0.011,1.514c-0.028,0.896,0.043,1.799,0.147,2.689
				c0.235,2.008,0.665,4.019,1.377,5.914c0.768,2.045,1.805,3.968,2.446,6.062c1.295,4.234,1.823,8.682,2.938,12.968
				c0.601,2.307,1.265,4.601,1.963,6.878c0.461,1.504,0.971,3.035,1.804,4.38c1.532,2.479,4.171,3.996,5.865,6.377
				c2.72,3.82,5.718,7.28,9.004,10.626c6.488,6.609,13.637,12.699,19.277,20.089c2.911,3.812,5.784,7.632,8.955,11.234
				c2.51,2.85,5.746,5.788,7.267,9.338c0.552,1.288,0.785,2.681,0.991,4.058c0.36,2.404,0.68,4.811,0.966,7.223
				c0.536,4.526,0.809,9.066,0.757,13.624c-0.054,4.74-0.2,9.449-0.03,14.19c0.171,4.745,0.566,9.489,0.575,14.239
				c0.01,4.466-0.285,8.927-0.504,13.386c-0.258,5.225-0.481,10.451-0.797,15.672c-0.26,4.299-0.99,8.352-2.54,12.38
				c-0.802,2.086-1.633,4.162-2.505,6.222c-0.962,2.271-2.079,4.536-2.816,6.896c-1.482,4.738-2.313,9.728-3.395,14.564
				c-0.477,2.139-1.039,4.256-1.588,6.376c-0.149,0.575-0.299,1.149-0.446,1.725c-0.048,0.185,0.119,0.08,0.174,0.199
				c0.036,0.081,0.183,0.125,0.229,0.223c0.06,0.116,0.038,0.211,0.034,0.334c-0.006,0.248-0.206,0.545-0.309,0.755
				c-0.517,1.057-1.108,2.078-1.651,3.121c-2.25,4.311-3.582,8.974-5.049,13.588c-0.658,2.071-1.511,4.062-2.264,6.097
				c-0.755,2.038-1.125,4.127-1.506,6.259c-0.173,0.96-0.398,1.919-0.899,2.764c-0.547,0.925-1.009,1.725-1.278,2.779
				c-0.482,1.895-0.526,3.83-0.728,5.762c-0.055,0.521-0.113,1.189-0.478,1.608c-0.357,0.411-0.491,0.232-0.61,0.904
				c-0.419,2.362-0.768,4.736-1.142,7.105c-0.693,4.385-1.668,8.88-1.37,13.346c0.301,4.479,1.922,8.746,2.197,13.222
				c0.07,1.18,0.081,2.362,0.107,3.544c0.597-0.171,0.966,1.349,1.052,1.588c0.747,2.073,1.226,4.24,1.61,6.406
				c0.198,1.12,0.403,2.206,1.002,3.189c0.422,0.691,1.032,1.38,1.159,2.213c0.131,0.854-0.247,1.705-0.385,2.531
				c-0.152,0.913-0.03,1.838,0.101,2.744c0.432,2.972,0.862,5.942,1.293,8.914c1.292,8.909,2.422,17.895,1.904,26.913
				c-0.529,9.211-2.889,18.358-5.267,27.238c-2.616,9.763-5.466,19.443-8.378,29.122c-2.736,9.094-5.734,18.11-8.408,27.224
				c-1.28,4.363-2.473,8.81-3.106,13.319c-0.131,0.93-0.343,2.028-0.041,2.951c0.183,0.56,0.101,1.171-0.024,1.736
				c-0.19,0.862-0.375,1.522-0.217,2.403c0.161,0.899,0.265,1.61,0.026,2.497c-0.273,1.018-0.605,1.919-0.481,2.979
				c0.226,1.913,0.602,3.793,0.478,5.737C306.349,556.163,306.208,556.679,305.941,557.204z"/>
		</g>
	</g>
</g>
<g id="Isolation_Mode">
</g>
</svg>
